G04 #@! TF.GenerationSoftware,KiCad,Pcbnew,(5.1.5-0-10_14)*
G04 #@! TF.CreationDate,2020-11-20T21:34:29+01:00*
G04 #@! TF.ProjectId,3pdt-45deg,33706474-2d34-4356-9465-672e6b696361,rev?*
G04 #@! TF.SameCoordinates,Original*
G04 #@! TF.FileFunction,Copper,L2,Bot*
G04 #@! TF.FilePolarity,Positive*
%FSLAX46Y46*%
G04 Gerber Fmt 4.6, Leading zero omitted, Abs format (unit mm)*
G04 Created by KiCad (PCBNEW (5.1.5-0-10_14)) date 2020-11-20 21:34:29*
%MOMM*%
%LPD*%
G04 APERTURE LIST*
%ADD10O,4.200000X2.800000*%
%ADD11R,3.816000X3.816000*%
%ADD12C,0.100000*%
%ADD13C,2.000000*%
%ADD14C,4.000500*%
%ADD15C,0.254000*%
G04 APERTURE END LIST*
D10*
X200660000Y-68200000D03*
X200660000Y-63500000D03*
X200660000Y-58800000D03*
X195580000Y-68200000D03*
X195580000Y-63500000D03*
X195580000Y-58800000D03*
X190500000Y-68200000D03*
X190500000Y-63500000D03*
D11*
X190500000Y-58800000D03*
G04 #@! TA.AperFunction,ComponentPad*
D12*
G36*
X173127240Y-47253026D02*
G01*
X171713026Y-48667240D01*
X170298812Y-47253026D01*
X171713026Y-45838812D01*
X173127240Y-47253026D01*
G37*
G04 #@! TD.AperFunction*
D13*
X169916974Y-45456974D02*
X169916974Y-45456974D01*
D14*
X182245000Y-68580000D03*
X208915000Y-68580000D03*
X182245000Y-63500000D03*
X182245000Y-58420000D03*
X208915000Y-63500000D03*
X208915000Y-58420000D03*
D13*
X173835923Y-49375923D02*
X173835923Y-49375923D01*
X179224077Y-54764077D02*
X179224077Y-54764077D01*
D15*
G36*
X180996741Y-56084672D02*
G01*
X180565126Y-56373068D01*
X180198068Y-56740126D01*
X179909672Y-57171741D01*
X179711021Y-57651326D01*
X179609750Y-58160451D01*
X179609750Y-58679549D01*
X179711021Y-59188674D01*
X179909672Y-59668259D01*
X180198068Y-60099874D01*
X180565126Y-60466932D01*
X180996741Y-60755328D01*
X181476326Y-60953979D01*
X181525752Y-60963810D01*
X181210386Y-61062483D01*
X180793080Y-61285539D01*
X180576929Y-61652324D01*
X182245000Y-63320395D01*
X183913071Y-61652324D01*
X183696920Y-61285539D01*
X183237002Y-61044833D01*
X182962481Y-60964162D01*
X183013674Y-60953979D01*
X183493259Y-60755328D01*
X183924874Y-60466932D01*
X184291932Y-60099874D01*
X184580328Y-59668259D01*
X184778979Y-59188674D01*
X184880250Y-58679549D01*
X184880250Y-58160451D01*
X184778979Y-57651326D01*
X184580328Y-57171741D01*
X184393411Y-56892000D01*
X187953928Y-56892000D01*
X187953928Y-60708000D01*
X187966188Y-60832482D01*
X188002498Y-60952180D01*
X188061463Y-61062494D01*
X188140815Y-61159185D01*
X188237506Y-61238537D01*
X188347820Y-61297502D01*
X188467518Y-61333812D01*
X188592000Y-61346072D01*
X192408000Y-61346072D01*
X192532482Y-61333812D01*
X192652180Y-61297502D01*
X192762494Y-61238537D01*
X192859185Y-61159185D01*
X192938537Y-61062494D01*
X192997502Y-60952180D01*
X193033812Y-60832482D01*
X193046072Y-60708000D01*
X193046072Y-59685919D01*
X193179773Y-59936056D01*
X193434076Y-60245924D01*
X193743944Y-60500227D01*
X194097471Y-60689191D01*
X194481070Y-60805555D01*
X194780031Y-60835000D01*
X196379969Y-60835000D01*
X196678930Y-60805555D01*
X197062529Y-60689191D01*
X197416056Y-60500227D01*
X197725924Y-60245924D01*
X197980227Y-59936056D01*
X198120000Y-59674559D01*
X198259773Y-59936056D01*
X198514076Y-60245924D01*
X198823944Y-60500227D01*
X199177471Y-60689191D01*
X199561070Y-60805555D01*
X199860031Y-60835000D01*
X201459969Y-60835000D01*
X201758930Y-60805555D01*
X202142529Y-60689191D01*
X202496056Y-60500227D01*
X202805924Y-60245924D01*
X203060227Y-59936056D01*
X203249191Y-59582529D01*
X203365555Y-59198930D01*
X203404846Y-58800000D01*
X203365555Y-58401070D01*
X203249191Y-58017471D01*
X203060227Y-57663944D01*
X202805924Y-57354076D01*
X202496056Y-57099773D01*
X202142529Y-56910809D01*
X201758930Y-56794445D01*
X201459969Y-56765000D01*
X199860031Y-56765000D01*
X199561070Y-56794445D01*
X199177471Y-56910809D01*
X198823944Y-57099773D01*
X198514076Y-57354076D01*
X198259773Y-57663944D01*
X198120000Y-57925441D01*
X197980227Y-57663944D01*
X197725924Y-57354076D01*
X197416056Y-57099773D01*
X197062529Y-56910809D01*
X196678930Y-56794445D01*
X196379969Y-56765000D01*
X194780031Y-56765000D01*
X194481070Y-56794445D01*
X194097471Y-56910809D01*
X193743944Y-57099773D01*
X193434076Y-57354076D01*
X193179773Y-57663944D01*
X193046072Y-57914081D01*
X193046072Y-56892000D01*
X193033812Y-56767518D01*
X192997502Y-56647820D01*
X192938537Y-56537506D01*
X192859185Y-56440815D01*
X192762494Y-56361463D01*
X192652180Y-56302498D01*
X192532482Y-56266188D01*
X192408000Y-56253928D01*
X188592000Y-56253928D01*
X188467518Y-56266188D01*
X188347820Y-56302498D01*
X188237506Y-56361463D01*
X188140815Y-56440815D01*
X188061463Y-56537506D01*
X188002498Y-56647820D01*
X187966188Y-56767518D01*
X187953928Y-56892000D01*
X184393411Y-56892000D01*
X184291932Y-56740126D01*
X183924874Y-56373068D01*
X183493259Y-56084672D01*
X183305743Y-56007000D01*
X207854257Y-56007000D01*
X207666741Y-56084672D01*
X207235126Y-56373068D01*
X206868068Y-56740126D01*
X206579672Y-57171741D01*
X206381021Y-57651326D01*
X206279750Y-58160451D01*
X206279750Y-58679549D01*
X206381021Y-59188674D01*
X206579672Y-59668259D01*
X206868068Y-60099874D01*
X207235126Y-60466932D01*
X207666741Y-60755328D01*
X208146326Y-60953979D01*
X208176596Y-60960000D01*
X208146326Y-60966021D01*
X207666741Y-61164672D01*
X207235126Y-61453068D01*
X206868068Y-61820126D01*
X206579672Y-62251741D01*
X206381021Y-62731326D01*
X206279750Y-63240451D01*
X206279750Y-63759549D01*
X206381021Y-64268674D01*
X206579672Y-64748259D01*
X206868068Y-65179874D01*
X207235126Y-65546932D01*
X207666741Y-65835328D01*
X208146326Y-66033979D01*
X208176596Y-66040000D01*
X208146326Y-66046021D01*
X207666741Y-66244672D01*
X207235126Y-66533068D01*
X206868068Y-66900126D01*
X206579672Y-67331741D01*
X206381021Y-67811326D01*
X206279750Y-68320451D01*
X206279750Y-68839549D01*
X206381021Y-69348674D01*
X206579672Y-69828259D01*
X206868068Y-70259874D01*
X207235126Y-70626932D01*
X207666741Y-70915328D01*
X207854257Y-70993000D01*
X183305743Y-70993000D01*
X183493259Y-70915328D01*
X183924874Y-70626932D01*
X184291932Y-70259874D01*
X184580328Y-69828259D01*
X184778979Y-69348674D01*
X184880250Y-68839549D01*
X184880250Y-68643160D01*
X187813840Y-68643160D01*
X187871304Y-68861427D01*
X188037401Y-69224988D01*
X188271234Y-69549159D01*
X188563817Y-69821483D01*
X188903906Y-70031494D01*
X189278431Y-70171122D01*
X189673000Y-70235000D01*
X190373000Y-70235000D01*
X190373000Y-68327000D01*
X190627000Y-68327000D01*
X190627000Y-70235000D01*
X191327000Y-70235000D01*
X191721569Y-70171122D01*
X192096094Y-70031494D01*
X192436183Y-69821483D01*
X192728766Y-69549159D01*
X192962599Y-69224988D01*
X193040000Y-69055569D01*
X193117401Y-69224988D01*
X193351234Y-69549159D01*
X193643817Y-69821483D01*
X193983906Y-70031494D01*
X194358431Y-70171122D01*
X194753000Y-70235000D01*
X195453000Y-70235000D01*
X195453000Y-68327000D01*
X190627000Y-68327000D01*
X190373000Y-68327000D01*
X187928053Y-68327000D01*
X187813840Y-68643160D01*
X184880250Y-68643160D01*
X184880250Y-68320451D01*
X184778979Y-67811326D01*
X184756411Y-67756840D01*
X187813840Y-67756840D01*
X187928053Y-68073000D01*
X190373000Y-68073000D01*
X190373000Y-66165000D01*
X190627000Y-66165000D01*
X190627000Y-68073000D01*
X195453000Y-68073000D01*
X195453000Y-66165000D01*
X195707000Y-66165000D01*
X195707000Y-68073000D01*
X195727000Y-68073000D01*
X195727000Y-68327000D01*
X195707000Y-68327000D01*
X195707000Y-70235000D01*
X196407000Y-70235000D01*
X196801569Y-70171122D01*
X197176094Y-70031494D01*
X197516183Y-69821483D01*
X197808766Y-69549159D01*
X198042599Y-69224988D01*
X198115322Y-69065808D01*
X198259773Y-69336056D01*
X198514076Y-69645924D01*
X198823944Y-69900227D01*
X199177471Y-70089191D01*
X199561070Y-70205555D01*
X199860031Y-70235000D01*
X201459969Y-70235000D01*
X201758930Y-70205555D01*
X202142529Y-70089191D01*
X202496056Y-69900227D01*
X202805924Y-69645924D01*
X203060227Y-69336056D01*
X203249191Y-68982529D01*
X203365555Y-68598930D01*
X203404846Y-68200000D01*
X203365555Y-67801070D01*
X203249191Y-67417471D01*
X203060227Y-67063944D01*
X202805924Y-66754076D01*
X202496056Y-66499773D01*
X202142529Y-66310809D01*
X201758930Y-66194445D01*
X201459969Y-66165000D01*
X199860031Y-66165000D01*
X199561070Y-66194445D01*
X199177471Y-66310809D01*
X198823944Y-66499773D01*
X198514076Y-66754076D01*
X198259773Y-67063944D01*
X198115322Y-67334192D01*
X198042599Y-67175012D01*
X197808766Y-66850841D01*
X197516183Y-66578517D01*
X197176094Y-66368506D01*
X196801569Y-66228878D01*
X196407000Y-66165000D01*
X195707000Y-66165000D01*
X195453000Y-66165000D01*
X194753000Y-66165000D01*
X194358431Y-66228878D01*
X193983906Y-66368506D01*
X193643817Y-66578517D01*
X193351234Y-66850841D01*
X193117401Y-67175012D01*
X193040000Y-67344431D01*
X192962599Y-67175012D01*
X192728766Y-66850841D01*
X192436183Y-66578517D01*
X192096094Y-66368506D01*
X191721569Y-66228878D01*
X191327000Y-66165000D01*
X190627000Y-66165000D01*
X190373000Y-66165000D01*
X189673000Y-66165000D01*
X189278431Y-66228878D01*
X188903906Y-66368506D01*
X188563817Y-66578517D01*
X188271234Y-66850841D01*
X188037401Y-67175012D01*
X187871304Y-67538573D01*
X187813840Y-67756840D01*
X184756411Y-67756840D01*
X184580328Y-67331741D01*
X184291932Y-66900126D01*
X183924874Y-66533068D01*
X183493259Y-66244672D01*
X183013674Y-66046021D01*
X182964248Y-66036190D01*
X183279614Y-65937517D01*
X183696920Y-65714461D01*
X183913071Y-65347676D01*
X182245000Y-63679605D01*
X180576929Y-65347676D01*
X180793080Y-65714461D01*
X181252998Y-65955167D01*
X181527519Y-66035838D01*
X181476326Y-66046021D01*
X180996741Y-66244672D01*
X180565126Y-66533068D01*
X180198068Y-66900126D01*
X179909672Y-67331741D01*
X179711021Y-67811326D01*
X179609750Y-68320451D01*
X179609750Y-68839549D01*
X179711021Y-69348674D01*
X179909672Y-69828259D01*
X180198068Y-70259874D01*
X180565126Y-70626932D01*
X180996741Y-70915328D01*
X181184257Y-70993000D01*
X178835243Y-70993000D01*
X178755498Y-70735385D01*
X178714000Y-70340557D01*
X178714000Y-63523062D01*
X179597099Y-63523062D01*
X179652476Y-64039199D01*
X179807483Y-64534614D01*
X180030539Y-64951920D01*
X180397324Y-65168071D01*
X182065395Y-63500000D01*
X182424605Y-63500000D01*
X184092676Y-65168071D01*
X184459461Y-64951920D01*
X184700167Y-64492002D01*
X184846522Y-63993961D01*
X184851079Y-63943160D01*
X187813840Y-63943160D01*
X187871304Y-64161427D01*
X188037401Y-64524988D01*
X188271234Y-64849159D01*
X188563817Y-65121483D01*
X188903906Y-65331494D01*
X189278431Y-65471122D01*
X189673000Y-65535000D01*
X190373000Y-65535000D01*
X190373000Y-63627000D01*
X187928053Y-63627000D01*
X187813840Y-63943160D01*
X184851079Y-63943160D01*
X184892901Y-63476938D01*
X184847829Y-63056840D01*
X187813840Y-63056840D01*
X187928053Y-63373000D01*
X190373000Y-63373000D01*
X190373000Y-61465000D01*
X190627000Y-61465000D01*
X190627000Y-63373000D01*
X190647000Y-63373000D01*
X190647000Y-63627000D01*
X190627000Y-63627000D01*
X190627000Y-65535000D01*
X191327000Y-65535000D01*
X191721569Y-65471122D01*
X192096094Y-65331494D01*
X192436183Y-65121483D01*
X192728766Y-64849159D01*
X192962599Y-64524988D01*
X193035322Y-64365808D01*
X193179773Y-64636056D01*
X193434076Y-64945924D01*
X193743944Y-65200227D01*
X194097471Y-65389191D01*
X194481070Y-65505555D01*
X194780031Y-65535000D01*
X196379969Y-65535000D01*
X196678930Y-65505555D01*
X197062529Y-65389191D01*
X197416056Y-65200227D01*
X197725924Y-64945924D01*
X197980227Y-64636056D01*
X198120000Y-64374559D01*
X198259773Y-64636056D01*
X198514076Y-64945924D01*
X198823944Y-65200227D01*
X199177471Y-65389191D01*
X199561070Y-65505555D01*
X199860031Y-65535000D01*
X201459969Y-65535000D01*
X201758930Y-65505555D01*
X202142529Y-65389191D01*
X202496056Y-65200227D01*
X202805924Y-64945924D01*
X203060227Y-64636056D01*
X203249191Y-64282529D01*
X203365555Y-63898930D01*
X203404846Y-63500000D01*
X203365555Y-63101070D01*
X203249191Y-62717471D01*
X203060227Y-62363944D01*
X202805924Y-62054076D01*
X202496056Y-61799773D01*
X202142529Y-61610809D01*
X201758930Y-61494445D01*
X201459969Y-61465000D01*
X199860031Y-61465000D01*
X199561070Y-61494445D01*
X199177471Y-61610809D01*
X198823944Y-61799773D01*
X198514076Y-62054076D01*
X198259773Y-62363944D01*
X198120000Y-62625441D01*
X197980227Y-62363944D01*
X197725924Y-62054076D01*
X197416056Y-61799773D01*
X197062529Y-61610809D01*
X196678930Y-61494445D01*
X196379969Y-61465000D01*
X194780031Y-61465000D01*
X194481070Y-61494445D01*
X194097471Y-61610809D01*
X193743944Y-61799773D01*
X193434076Y-62054076D01*
X193179773Y-62363944D01*
X193035322Y-62634192D01*
X192962599Y-62475012D01*
X192728766Y-62150841D01*
X192436183Y-61878517D01*
X192096094Y-61668506D01*
X191721569Y-61528878D01*
X191327000Y-61465000D01*
X190627000Y-61465000D01*
X190373000Y-61465000D01*
X189673000Y-61465000D01*
X189278431Y-61528878D01*
X188903906Y-61668506D01*
X188563817Y-61878517D01*
X188271234Y-62150841D01*
X188037401Y-62475012D01*
X187871304Y-62838573D01*
X187813840Y-63056840D01*
X184847829Y-63056840D01*
X184837524Y-62960801D01*
X184682517Y-62465386D01*
X184459461Y-62048080D01*
X184092676Y-61831929D01*
X182424605Y-63500000D01*
X182065395Y-63500000D01*
X180397324Y-61831929D01*
X180030539Y-62048080D01*
X179789833Y-62507998D01*
X179643478Y-63006039D01*
X179597099Y-63523062D01*
X178714000Y-63523062D01*
X178714000Y-57498581D01*
X178711384Y-57472020D01*
X178701904Y-57355022D01*
X178692262Y-57301610D01*
X178684276Y-57247940D01*
X178681974Y-57239017D01*
X178643824Y-57095276D01*
X178622914Y-57039243D01*
X178602780Y-56982900D01*
X178598789Y-56974594D01*
X178562000Y-56899380D01*
X178562000Y-56259547D01*
X178747165Y-56336245D01*
X179063044Y-56399077D01*
X179385110Y-56399077D01*
X179700989Y-56336245D01*
X179998540Y-56212995D01*
X180266329Y-56034064D01*
X180293393Y-56007000D01*
X181184257Y-56007000D01*
X180996741Y-56084672D01*
G37*
X180996741Y-56084672D02*
X180565126Y-56373068D01*
X180198068Y-56740126D01*
X179909672Y-57171741D01*
X179711021Y-57651326D01*
X179609750Y-58160451D01*
X179609750Y-58679549D01*
X179711021Y-59188674D01*
X179909672Y-59668259D01*
X180198068Y-60099874D01*
X180565126Y-60466932D01*
X180996741Y-60755328D01*
X181476326Y-60953979D01*
X181525752Y-60963810D01*
X181210386Y-61062483D01*
X180793080Y-61285539D01*
X180576929Y-61652324D01*
X182245000Y-63320395D01*
X183913071Y-61652324D01*
X183696920Y-61285539D01*
X183237002Y-61044833D01*
X182962481Y-60964162D01*
X183013674Y-60953979D01*
X183493259Y-60755328D01*
X183924874Y-60466932D01*
X184291932Y-60099874D01*
X184580328Y-59668259D01*
X184778979Y-59188674D01*
X184880250Y-58679549D01*
X184880250Y-58160451D01*
X184778979Y-57651326D01*
X184580328Y-57171741D01*
X184393411Y-56892000D01*
X187953928Y-56892000D01*
X187953928Y-60708000D01*
X187966188Y-60832482D01*
X188002498Y-60952180D01*
X188061463Y-61062494D01*
X188140815Y-61159185D01*
X188237506Y-61238537D01*
X188347820Y-61297502D01*
X188467518Y-61333812D01*
X188592000Y-61346072D01*
X192408000Y-61346072D01*
X192532482Y-61333812D01*
X192652180Y-61297502D01*
X192762494Y-61238537D01*
X192859185Y-61159185D01*
X192938537Y-61062494D01*
X192997502Y-60952180D01*
X193033812Y-60832482D01*
X193046072Y-60708000D01*
X193046072Y-59685919D01*
X193179773Y-59936056D01*
X193434076Y-60245924D01*
X193743944Y-60500227D01*
X194097471Y-60689191D01*
X194481070Y-60805555D01*
X194780031Y-60835000D01*
X196379969Y-60835000D01*
X196678930Y-60805555D01*
X197062529Y-60689191D01*
X197416056Y-60500227D01*
X197725924Y-60245924D01*
X197980227Y-59936056D01*
X198120000Y-59674559D01*
X198259773Y-59936056D01*
X198514076Y-60245924D01*
X198823944Y-60500227D01*
X199177471Y-60689191D01*
X199561070Y-60805555D01*
X199860031Y-60835000D01*
X201459969Y-60835000D01*
X201758930Y-60805555D01*
X202142529Y-60689191D01*
X202496056Y-60500227D01*
X202805924Y-60245924D01*
X203060227Y-59936056D01*
X203249191Y-59582529D01*
X203365555Y-59198930D01*
X203404846Y-58800000D01*
X203365555Y-58401070D01*
X203249191Y-58017471D01*
X203060227Y-57663944D01*
X202805924Y-57354076D01*
X202496056Y-57099773D01*
X202142529Y-56910809D01*
X201758930Y-56794445D01*
X201459969Y-56765000D01*
X199860031Y-56765000D01*
X199561070Y-56794445D01*
X199177471Y-56910809D01*
X198823944Y-57099773D01*
X198514076Y-57354076D01*
X198259773Y-57663944D01*
X198120000Y-57925441D01*
X197980227Y-57663944D01*
X197725924Y-57354076D01*
X197416056Y-57099773D01*
X197062529Y-56910809D01*
X196678930Y-56794445D01*
X196379969Y-56765000D01*
X194780031Y-56765000D01*
X194481070Y-56794445D01*
X194097471Y-56910809D01*
X193743944Y-57099773D01*
X193434076Y-57354076D01*
X193179773Y-57663944D01*
X193046072Y-57914081D01*
X193046072Y-56892000D01*
X193033812Y-56767518D01*
X192997502Y-56647820D01*
X192938537Y-56537506D01*
X192859185Y-56440815D01*
X192762494Y-56361463D01*
X192652180Y-56302498D01*
X192532482Y-56266188D01*
X192408000Y-56253928D01*
X188592000Y-56253928D01*
X188467518Y-56266188D01*
X188347820Y-56302498D01*
X188237506Y-56361463D01*
X188140815Y-56440815D01*
X188061463Y-56537506D01*
X188002498Y-56647820D01*
X187966188Y-56767518D01*
X187953928Y-56892000D01*
X184393411Y-56892000D01*
X184291932Y-56740126D01*
X183924874Y-56373068D01*
X183493259Y-56084672D01*
X183305743Y-56007000D01*
X207854257Y-56007000D01*
X207666741Y-56084672D01*
X207235126Y-56373068D01*
X206868068Y-56740126D01*
X206579672Y-57171741D01*
X206381021Y-57651326D01*
X206279750Y-58160451D01*
X206279750Y-58679549D01*
X206381021Y-59188674D01*
X206579672Y-59668259D01*
X206868068Y-60099874D01*
X207235126Y-60466932D01*
X207666741Y-60755328D01*
X208146326Y-60953979D01*
X208176596Y-60960000D01*
X208146326Y-60966021D01*
X207666741Y-61164672D01*
X207235126Y-61453068D01*
X206868068Y-61820126D01*
X206579672Y-62251741D01*
X206381021Y-62731326D01*
X206279750Y-63240451D01*
X206279750Y-63759549D01*
X206381021Y-64268674D01*
X206579672Y-64748259D01*
X206868068Y-65179874D01*
X207235126Y-65546932D01*
X207666741Y-65835328D01*
X208146326Y-66033979D01*
X208176596Y-66040000D01*
X208146326Y-66046021D01*
X207666741Y-66244672D01*
X207235126Y-66533068D01*
X206868068Y-66900126D01*
X206579672Y-67331741D01*
X206381021Y-67811326D01*
X206279750Y-68320451D01*
X206279750Y-68839549D01*
X206381021Y-69348674D01*
X206579672Y-69828259D01*
X206868068Y-70259874D01*
X207235126Y-70626932D01*
X207666741Y-70915328D01*
X207854257Y-70993000D01*
X183305743Y-70993000D01*
X183493259Y-70915328D01*
X183924874Y-70626932D01*
X184291932Y-70259874D01*
X184580328Y-69828259D01*
X184778979Y-69348674D01*
X184880250Y-68839549D01*
X184880250Y-68643160D01*
X187813840Y-68643160D01*
X187871304Y-68861427D01*
X188037401Y-69224988D01*
X188271234Y-69549159D01*
X188563817Y-69821483D01*
X188903906Y-70031494D01*
X189278431Y-70171122D01*
X189673000Y-70235000D01*
X190373000Y-70235000D01*
X190373000Y-68327000D01*
X190627000Y-68327000D01*
X190627000Y-70235000D01*
X191327000Y-70235000D01*
X191721569Y-70171122D01*
X192096094Y-70031494D01*
X192436183Y-69821483D01*
X192728766Y-69549159D01*
X192962599Y-69224988D01*
X193040000Y-69055569D01*
X193117401Y-69224988D01*
X193351234Y-69549159D01*
X193643817Y-69821483D01*
X193983906Y-70031494D01*
X194358431Y-70171122D01*
X194753000Y-70235000D01*
X195453000Y-70235000D01*
X195453000Y-68327000D01*
X190627000Y-68327000D01*
X190373000Y-68327000D01*
X187928053Y-68327000D01*
X187813840Y-68643160D01*
X184880250Y-68643160D01*
X184880250Y-68320451D01*
X184778979Y-67811326D01*
X184756411Y-67756840D01*
X187813840Y-67756840D01*
X187928053Y-68073000D01*
X190373000Y-68073000D01*
X190373000Y-66165000D01*
X190627000Y-66165000D01*
X190627000Y-68073000D01*
X195453000Y-68073000D01*
X195453000Y-66165000D01*
X195707000Y-66165000D01*
X195707000Y-68073000D01*
X195727000Y-68073000D01*
X195727000Y-68327000D01*
X195707000Y-68327000D01*
X195707000Y-70235000D01*
X196407000Y-70235000D01*
X196801569Y-70171122D01*
X197176094Y-70031494D01*
X197516183Y-69821483D01*
X197808766Y-69549159D01*
X198042599Y-69224988D01*
X198115322Y-69065808D01*
X198259773Y-69336056D01*
X198514076Y-69645924D01*
X198823944Y-69900227D01*
X199177471Y-70089191D01*
X199561070Y-70205555D01*
X199860031Y-70235000D01*
X201459969Y-70235000D01*
X201758930Y-70205555D01*
X202142529Y-70089191D01*
X202496056Y-69900227D01*
X202805924Y-69645924D01*
X203060227Y-69336056D01*
X203249191Y-68982529D01*
X203365555Y-68598930D01*
X203404846Y-68200000D01*
X203365555Y-67801070D01*
X203249191Y-67417471D01*
X203060227Y-67063944D01*
X202805924Y-66754076D01*
X202496056Y-66499773D01*
X202142529Y-66310809D01*
X201758930Y-66194445D01*
X201459969Y-66165000D01*
X199860031Y-66165000D01*
X199561070Y-66194445D01*
X199177471Y-66310809D01*
X198823944Y-66499773D01*
X198514076Y-66754076D01*
X198259773Y-67063944D01*
X198115322Y-67334192D01*
X198042599Y-67175012D01*
X197808766Y-66850841D01*
X197516183Y-66578517D01*
X197176094Y-66368506D01*
X196801569Y-66228878D01*
X196407000Y-66165000D01*
X195707000Y-66165000D01*
X195453000Y-66165000D01*
X194753000Y-66165000D01*
X194358431Y-66228878D01*
X193983906Y-66368506D01*
X193643817Y-66578517D01*
X193351234Y-66850841D01*
X193117401Y-67175012D01*
X193040000Y-67344431D01*
X192962599Y-67175012D01*
X192728766Y-66850841D01*
X192436183Y-66578517D01*
X192096094Y-66368506D01*
X191721569Y-66228878D01*
X191327000Y-66165000D01*
X190627000Y-66165000D01*
X190373000Y-66165000D01*
X189673000Y-66165000D01*
X189278431Y-66228878D01*
X188903906Y-66368506D01*
X188563817Y-66578517D01*
X188271234Y-66850841D01*
X188037401Y-67175012D01*
X187871304Y-67538573D01*
X187813840Y-67756840D01*
X184756411Y-67756840D01*
X184580328Y-67331741D01*
X184291932Y-66900126D01*
X183924874Y-66533068D01*
X183493259Y-66244672D01*
X183013674Y-66046021D01*
X182964248Y-66036190D01*
X183279614Y-65937517D01*
X183696920Y-65714461D01*
X183913071Y-65347676D01*
X182245000Y-63679605D01*
X180576929Y-65347676D01*
X180793080Y-65714461D01*
X181252998Y-65955167D01*
X181527519Y-66035838D01*
X181476326Y-66046021D01*
X180996741Y-66244672D01*
X180565126Y-66533068D01*
X180198068Y-66900126D01*
X179909672Y-67331741D01*
X179711021Y-67811326D01*
X179609750Y-68320451D01*
X179609750Y-68839549D01*
X179711021Y-69348674D01*
X179909672Y-69828259D01*
X180198068Y-70259874D01*
X180565126Y-70626932D01*
X180996741Y-70915328D01*
X181184257Y-70993000D01*
X178835243Y-70993000D01*
X178755498Y-70735385D01*
X178714000Y-70340557D01*
X178714000Y-63523062D01*
X179597099Y-63523062D01*
X179652476Y-64039199D01*
X179807483Y-64534614D01*
X180030539Y-64951920D01*
X180397324Y-65168071D01*
X182065395Y-63500000D01*
X182424605Y-63500000D01*
X184092676Y-65168071D01*
X184459461Y-64951920D01*
X184700167Y-64492002D01*
X184846522Y-63993961D01*
X184851079Y-63943160D01*
X187813840Y-63943160D01*
X187871304Y-64161427D01*
X188037401Y-64524988D01*
X188271234Y-64849159D01*
X188563817Y-65121483D01*
X188903906Y-65331494D01*
X189278431Y-65471122D01*
X189673000Y-65535000D01*
X190373000Y-65535000D01*
X190373000Y-63627000D01*
X187928053Y-63627000D01*
X187813840Y-63943160D01*
X184851079Y-63943160D01*
X184892901Y-63476938D01*
X184847829Y-63056840D01*
X187813840Y-63056840D01*
X187928053Y-63373000D01*
X190373000Y-63373000D01*
X190373000Y-61465000D01*
X190627000Y-61465000D01*
X190627000Y-63373000D01*
X190647000Y-63373000D01*
X190647000Y-63627000D01*
X190627000Y-63627000D01*
X190627000Y-65535000D01*
X191327000Y-65535000D01*
X191721569Y-65471122D01*
X192096094Y-65331494D01*
X192436183Y-65121483D01*
X192728766Y-64849159D01*
X192962599Y-64524988D01*
X193035322Y-64365808D01*
X193179773Y-64636056D01*
X193434076Y-64945924D01*
X193743944Y-65200227D01*
X194097471Y-65389191D01*
X194481070Y-65505555D01*
X194780031Y-65535000D01*
X196379969Y-65535000D01*
X196678930Y-65505555D01*
X197062529Y-65389191D01*
X197416056Y-65200227D01*
X197725924Y-64945924D01*
X197980227Y-64636056D01*
X198120000Y-64374559D01*
X198259773Y-64636056D01*
X198514076Y-64945924D01*
X198823944Y-65200227D01*
X199177471Y-65389191D01*
X199561070Y-65505555D01*
X199860031Y-65535000D01*
X201459969Y-65535000D01*
X201758930Y-65505555D01*
X202142529Y-65389191D01*
X202496056Y-65200227D01*
X202805924Y-64945924D01*
X203060227Y-64636056D01*
X203249191Y-64282529D01*
X203365555Y-63898930D01*
X203404846Y-63500000D01*
X203365555Y-63101070D01*
X203249191Y-62717471D01*
X203060227Y-62363944D01*
X202805924Y-62054076D01*
X202496056Y-61799773D01*
X202142529Y-61610809D01*
X201758930Y-61494445D01*
X201459969Y-61465000D01*
X199860031Y-61465000D01*
X199561070Y-61494445D01*
X199177471Y-61610809D01*
X198823944Y-61799773D01*
X198514076Y-62054076D01*
X198259773Y-62363944D01*
X198120000Y-62625441D01*
X197980227Y-62363944D01*
X197725924Y-62054076D01*
X197416056Y-61799773D01*
X197062529Y-61610809D01*
X196678930Y-61494445D01*
X196379969Y-61465000D01*
X194780031Y-61465000D01*
X194481070Y-61494445D01*
X194097471Y-61610809D01*
X193743944Y-61799773D01*
X193434076Y-62054076D01*
X193179773Y-62363944D01*
X193035322Y-62634192D01*
X192962599Y-62475012D01*
X192728766Y-62150841D01*
X192436183Y-61878517D01*
X192096094Y-61668506D01*
X191721569Y-61528878D01*
X191327000Y-61465000D01*
X190627000Y-61465000D01*
X190373000Y-61465000D01*
X189673000Y-61465000D01*
X189278431Y-61528878D01*
X188903906Y-61668506D01*
X188563817Y-61878517D01*
X188271234Y-62150841D01*
X188037401Y-62475012D01*
X187871304Y-62838573D01*
X187813840Y-63056840D01*
X184847829Y-63056840D01*
X184837524Y-62960801D01*
X184682517Y-62465386D01*
X184459461Y-62048080D01*
X184092676Y-61831929D01*
X182424605Y-63500000D01*
X182065395Y-63500000D01*
X180397324Y-61831929D01*
X180030539Y-62048080D01*
X179789833Y-62507998D01*
X179643478Y-63006039D01*
X179597099Y-63523062D01*
X178714000Y-63523062D01*
X178714000Y-57498581D01*
X178711384Y-57472020D01*
X178701904Y-57355022D01*
X178692262Y-57301610D01*
X178684276Y-57247940D01*
X178681974Y-57239017D01*
X178643824Y-57095276D01*
X178622914Y-57039243D01*
X178602780Y-56982900D01*
X178598789Y-56974594D01*
X178562000Y-56899380D01*
X178562000Y-56259547D01*
X178747165Y-56336245D01*
X179063044Y-56399077D01*
X179385110Y-56399077D01*
X179700989Y-56336245D01*
X179998540Y-56212995D01*
X180266329Y-56034064D01*
X180293393Y-56007000D01*
X181184257Y-56007000D01*
X180996741Y-56084672D01*
M02*
