M48
; DRILL file {KiCad (5.1.5-0-10_14)} date 2020 November 20, Friday 21:34:32
; FORMAT={-:-/ absolute / inch / decimal}
; #@! TF.CreationDate,2020-11-20T21:34:32+01:00
; #@! TF.GenerationSoftware,Kicad,Pcbnew,(5.1.5-0-10_14)
FMAT,2
INCH
T1C0.0394
T2C0.0591
T3C0.0630
%
G90
G05
T1
X6.6896Y-1.7896
X6.7604Y-1.8604
X6.8439Y-1.9439
X7.0561Y-2.1561
T2
X7.175Y-2.7
X7.175Y-2.5
X8.225Y-2.7
X7.175Y-2.3
X8.225Y-2.5
X8.225Y-2.3
T3
G00X7.5236Y-2.315
M15
G01X7.4764Y-2.315
M16
G05
G00X7.5236Y-2.5
M15
G01X7.4764Y-2.5
M16
G05
G00X7.5236Y-2.685
M15
G01X7.4764Y-2.685
M16
G05
G00X7.7236Y-2.315
M15
G01X7.6764Y-2.315
M16
G05
G00X7.7236Y-2.5
M15
G01X7.6764Y-2.5
M16
G05
G00X7.7236Y-2.685
M15
G01X7.6764Y-2.685
M16
G05
G00X7.9236Y-2.315
M15
G01X7.8764Y-2.315
M16
G05
G00X7.9236Y-2.5
M15
G01X7.8764Y-2.5
M16
G05
G00X7.9236Y-2.685
M15
G01X7.8764Y-2.685
M16
G05
T0
M30
