G04 #@! TF.GenerationSoftware,KiCad,Pcbnew,(5.1.5-0-10_14)*
G04 #@! TF.CreationDate,2020-11-20T21:37:46+01:00*
G04 #@! TF.ProjectId,3pdt-breakout,33706474-2d62-4726-9561-6b6f75742e6b,rev?*
G04 #@! TF.SameCoordinates,Original*
G04 #@! TF.FileFunction,Soldermask,Bot*
G04 #@! TF.FilePolarity,Negative*
%FSLAX46Y46*%
G04 Gerber Fmt 4.6, Leading zero omitted, Abs format (unit mm)*
G04 Created by KiCad (PCBNEW (5.1.5-0-10_14)) date 2020-11-20 21:37:46*
%MOMM*%
%LPD*%
G04 APERTURE LIST*
%ADD10C,0.100000*%
G04 APERTURE END LIST*
D10*
G36*
X236462861Y-67394497D02*
G01*
X236569446Y-67404995D01*
X236842960Y-67487965D01*
X236842963Y-67487966D01*
X237095028Y-67622698D01*
X237095029Y-67622699D01*
X237095033Y-67622701D01*
X237315976Y-67804024D01*
X237497299Y-68024967D01*
X237497301Y-68024971D01*
X237497302Y-68024972D01*
X237632034Y-68277037D01*
X237632035Y-68277040D01*
X237715005Y-68550554D01*
X237743020Y-68835000D01*
X237715005Y-69119446D01*
X237632035Y-69392960D01*
X237632034Y-69392963D01*
X237497302Y-69645028D01*
X237497299Y-69645033D01*
X237315976Y-69865976D01*
X237095033Y-70047299D01*
X237095029Y-70047301D01*
X237095028Y-70047302D01*
X236842963Y-70182034D01*
X236842960Y-70182035D01*
X236569446Y-70265005D01*
X236462861Y-70275503D01*
X236356278Y-70286000D01*
X234813722Y-70286000D01*
X234707139Y-70275503D01*
X234600554Y-70265005D01*
X234327040Y-70182035D01*
X234327037Y-70182034D01*
X234074972Y-70047302D01*
X234074971Y-70047301D01*
X234074967Y-70047299D01*
X233854024Y-69865976D01*
X233672701Y-69645033D01*
X233672698Y-69645028D01*
X233537966Y-69392963D01*
X233537965Y-69392960D01*
X233454995Y-69119446D01*
X233426980Y-68835000D01*
X233454995Y-68550554D01*
X233537965Y-68277040D01*
X233537966Y-68277037D01*
X233672698Y-68024972D01*
X233672699Y-68024971D01*
X233672701Y-68024967D01*
X233854024Y-67804024D01*
X234074967Y-67622701D01*
X234074971Y-67622699D01*
X234074972Y-67622698D01*
X234327037Y-67487966D01*
X234327040Y-67487965D01*
X234600554Y-67404995D01*
X234707139Y-67394497D01*
X234813722Y-67384000D01*
X236356278Y-67384000D01*
X236462861Y-67394497D01*
G37*
G36*
X231382861Y-67394497D02*
G01*
X231489446Y-67404995D01*
X231762960Y-67487965D01*
X231762963Y-67487966D01*
X232015028Y-67622698D01*
X232015029Y-67622699D01*
X232015033Y-67622701D01*
X232235976Y-67804024D01*
X232417299Y-68024967D01*
X232417301Y-68024971D01*
X232417302Y-68024972D01*
X232552034Y-68277037D01*
X232552035Y-68277040D01*
X232635005Y-68550554D01*
X232663020Y-68835000D01*
X232635005Y-69119446D01*
X232552035Y-69392960D01*
X232552034Y-69392963D01*
X232417302Y-69645028D01*
X232417299Y-69645033D01*
X232235976Y-69865976D01*
X232015033Y-70047299D01*
X232015029Y-70047301D01*
X232015028Y-70047302D01*
X231762963Y-70182034D01*
X231762960Y-70182035D01*
X231489446Y-70265005D01*
X231382861Y-70275503D01*
X231276278Y-70286000D01*
X229733722Y-70286000D01*
X229627139Y-70275503D01*
X229520554Y-70265005D01*
X229247040Y-70182035D01*
X229247037Y-70182034D01*
X228994972Y-70047302D01*
X228994971Y-70047301D01*
X228994967Y-70047299D01*
X228774024Y-69865976D01*
X228592701Y-69645033D01*
X228592698Y-69645028D01*
X228457966Y-69392963D01*
X228457965Y-69392960D01*
X228374995Y-69119446D01*
X228346980Y-68835000D01*
X228374995Y-68550554D01*
X228457965Y-68277040D01*
X228457966Y-68277037D01*
X228592698Y-68024972D01*
X228592699Y-68024971D01*
X228592701Y-68024967D01*
X228774024Y-67804024D01*
X228994967Y-67622701D01*
X228994971Y-67622699D01*
X228994972Y-67622698D01*
X229247037Y-67487966D01*
X229247040Y-67487965D01*
X229520554Y-67404995D01*
X229627139Y-67394497D01*
X229733722Y-67384000D01*
X231276278Y-67384000D01*
X231382861Y-67394497D01*
G37*
G36*
X226302861Y-67394497D02*
G01*
X226409446Y-67404995D01*
X226682960Y-67487965D01*
X226682963Y-67487966D01*
X226935028Y-67622698D01*
X226935029Y-67622699D01*
X226935033Y-67622701D01*
X227155976Y-67804024D01*
X227337299Y-68024967D01*
X227337301Y-68024971D01*
X227337302Y-68024972D01*
X227472034Y-68277037D01*
X227472035Y-68277040D01*
X227555005Y-68550554D01*
X227583020Y-68835000D01*
X227555005Y-69119446D01*
X227472035Y-69392960D01*
X227472034Y-69392963D01*
X227337302Y-69645028D01*
X227337299Y-69645033D01*
X227155976Y-69865976D01*
X226935033Y-70047299D01*
X226935029Y-70047301D01*
X226935028Y-70047302D01*
X226682963Y-70182034D01*
X226682960Y-70182035D01*
X226409446Y-70265005D01*
X226302861Y-70275503D01*
X226196278Y-70286000D01*
X224653722Y-70286000D01*
X224547139Y-70275503D01*
X224440554Y-70265005D01*
X224167040Y-70182035D01*
X224167037Y-70182034D01*
X223914972Y-70047302D01*
X223914971Y-70047301D01*
X223914967Y-70047299D01*
X223694024Y-69865976D01*
X223512701Y-69645033D01*
X223512698Y-69645028D01*
X223377966Y-69392963D01*
X223377965Y-69392960D01*
X223294995Y-69119446D01*
X223266980Y-68835000D01*
X223294995Y-68550554D01*
X223377965Y-68277040D01*
X223377966Y-68277037D01*
X223512698Y-68024972D01*
X223512699Y-68024971D01*
X223512701Y-68024967D01*
X223694024Y-67804024D01*
X223914967Y-67622701D01*
X223914971Y-67622699D01*
X223914972Y-67622698D01*
X224167037Y-67487966D01*
X224167040Y-67487965D01*
X224440554Y-67404995D01*
X224547139Y-67394497D01*
X224653722Y-67384000D01*
X226196278Y-67384000D01*
X226302861Y-67394497D01*
G37*
G36*
X226302861Y-62694497D02*
G01*
X226409446Y-62704995D01*
X226682960Y-62787965D01*
X226682963Y-62787966D01*
X226935028Y-62922698D01*
X226935029Y-62922699D01*
X226935033Y-62922701D01*
X227155976Y-63104024D01*
X227337299Y-63324967D01*
X227337301Y-63324971D01*
X227337302Y-63324972D01*
X227472034Y-63577037D01*
X227472035Y-63577040D01*
X227555005Y-63850554D01*
X227583020Y-64135000D01*
X227555005Y-64419446D01*
X227472035Y-64692960D01*
X227472034Y-64692963D01*
X227337302Y-64945028D01*
X227337299Y-64945033D01*
X227155976Y-65165976D01*
X226935033Y-65347299D01*
X226935029Y-65347301D01*
X226935028Y-65347302D01*
X226682963Y-65482034D01*
X226682960Y-65482035D01*
X226409446Y-65565005D01*
X226302861Y-65575502D01*
X226196278Y-65586000D01*
X224653722Y-65586000D01*
X224547139Y-65575502D01*
X224440554Y-65565005D01*
X224167040Y-65482035D01*
X224167037Y-65482034D01*
X223914972Y-65347302D01*
X223914971Y-65347301D01*
X223914967Y-65347299D01*
X223694024Y-65165976D01*
X223512701Y-64945033D01*
X223512698Y-64945028D01*
X223377966Y-64692963D01*
X223377965Y-64692960D01*
X223294995Y-64419446D01*
X223266980Y-64135000D01*
X223294995Y-63850554D01*
X223377965Y-63577040D01*
X223377966Y-63577037D01*
X223512698Y-63324972D01*
X223512699Y-63324971D01*
X223512701Y-63324967D01*
X223694024Y-63104024D01*
X223914967Y-62922701D01*
X223914971Y-62922699D01*
X223914972Y-62922698D01*
X224167037Y-62787966D01*
X224167040Y-62787965D01*
X224440554Y-62704995D01*
X224547139Y-62694497D01*
X224653722Y-62684000D01*
X226196278Y-62684000D01*
X226302861Y-62694497D01*
G37*
G36*
X236462861Y-62694497D02*
G01*
X236569446Y-62704995D01*
X236842960Y-62787965D01*
X236842963Y-62787966D01*
X237095028Y-62922698D01*
X237095029Y-62922699D01*
X237095033Y-62922701D01*
X237315976Y-63104024D01*
X237497299Y-63324967D01*
X237497301Y-63324971D01*
X237497302Y-63324972D01*
X237632034Y-63577037D01*
X237632035Y-63577040D01*
X237715005Y-63850554D01*
X237743020Y-64135000D01*
X237715005Y-64419446D01*
X237632035Y-64692960D01*
X237632034Y-64692963D01*
X237497302Y-64945028D01*
X237497299Y-64945033D01*
X237315976Y-65165976D01*
X237095033Y-65347299D01*
X237095029Y-65347301D01*
X237095028Y-65347302D01*
X236842963Y-65482034D01*
X236842960Y-65482035D01*
X236569446Y-65565005D01*
X236462861Y-65575502D01*
X236356278Y-65586000D01*
X234813722Y-65586000D01*
X234707139Y-65575502D01*
X234600554Y-65565005D01*
X234327040Y-65482035D01*
X234327037Y-65482034D01*
X234074972Y-65347302D01*
X234074971Y-65347301D01*
X234074967Y-65347299D01*
X233854024Y-65165976D01*
X233672701Y-64945033D01*
X233672698Y-64945028D01*
X233537966Y-64692963D01*
X233537965Y-64692960D01*
X233454995Y-64419446D01*
X233426980Y-64135000D01*
X233454995Y-63850554D01*
X233537965Y-63577040D01*
X233537966Y-63577037D01*
X233672698Y-63324972D01*
X233672699Y-63324971D01*
X233672701Y-63324967D01*
X233854024Y-63104024D01*
X234074967Y-62922701D01*
X234074971Y-62922699D01*
X234074972Y-62922698D01*
X234327037Y-62787966D01*
X234327040Y-62787965D01*
X234600554Y-62704995D01*
X234707139Y-62694497D01*
X234813722Y-62684000D01*
X236356278Y-62684000D01*
X236462861Y-62694497D01*
G37*
G36*
X231382861Y-62694497D02*
G01*
X231489446Y-62704995D01*
X231762960Y-62787965D01*
X231762963Y-62787966D01*
X232015028Y-62922698D01*
X232015029Y-62922699D01*
X232015033Y-62922701D01*
X232235976Y-63104024D01*
X232417299Y-63324967D01*
X232417301Y-63324971D01*
X232417302Y-63324972D01*
X232552034Y-63577037D01*
X232552035Y-63577040D01*
X232635005Y-63850554D01*
X232663020Y-64135000D01*
X232635005Y-64419446D01*
X232552035Y-64692960D01*
X232552034Y-64692963D01*
X232417302Y-64945028D01*
X232417299Y-64945033D01*
X232235976Y-65165976D01*
X232015033Y-65347299D01*
X232015029Y-65347301D01*
X232015028Y-65347302D01*
X231762963Y-65482034D01*
X231762960Y-65482035D01*
X231489446Y-65565005D01*
X231382861Y-65575502D01*
X231276278Y-65586000D01*
X229733722Y-65586000D01*
X229627139Y-65575502D01*
X229520554Y-65565005D01*
X229247040Y-65482035D01*
X229247037Y-65482034D01*
X228994972Y-65347302D01*
X228994971Y-65347301D01*
X228994967Y-65347299D01*
X228774024Y-65165976D01*
X228592701Y-64945033D01*
X228592698Y-64945028D01*
X228457966Y-64692963D01*
X228457965Y-64692960D01*
X228374995Y-64419446D01*
X228346980Y-64135000D01*
X228374995Y-63850554D01*
X228457965Y-63577040D01*
X228457966Y-63577037D01*
X228592698Y-63324972D01*
X228592699Y-63324971D01*
X228592701Y-63324967D01*
X228774024Y-63104024D01*
X228994967Y-62922701D01*
X228994971Y-62922699D01*
X228994972Y-62922698D01*
X229247037Y-62787966D01*
X229247040Y-62787965D01*
X229520554Y-62704995D01*
X229627139Y-62694497D01*
X229733722Y-62684000D01*
X231276278Y-62684000D01*
X231382861Y-62694497D01*
G37*
G36*
X227384000Y-61394000D02*
G01*
X223466000Y-61394000D01*
X223466000Y-57476000D01*
X227384000Y-57476000D01*
X227384000Y-61394000D01*
G37*
G36*
X236462861Y-57994498D02*
G01*
X236569446Y-58004995D01*
X236842960Y-58087965D01*
X236842963Y-58087966D01*
X237095028Y-58222698D01*
X237095029Y-58222699D01*
X237095033Y-58222701D01*
X237315976Y-58404024D01*
X237497299Y-58624967D01*
X237497301Y-58624971D01*
X237497302Y-58624972D01*
X237632034Y-58877037D01*
X237632035Y-58877040D01*
X237715005Y-59150554D01*
X237743020Y-59435000D01*
X237715005Y-59719446D01*
X237632035Y-59992960D01*
X237632034Y-59992963D01*
X237497302Y-60245028D01*
X237497299Y-60245033D01*
X237315976Y-60465976D01*
X237095033Y-60647299D01*
X237095029Y-60647301D01*
X237095028Y-60647302D01*
X236842963Y-60782034D01*
X236842960Y-60782035D01*
X236569446Y-60865005D01*
X236462861Y-60875503D01*
X236356278Y-60886000D01*
X234813722Y-60886000D01*
X234707139Y-60875503D01*
X234600554Y-60865005D01*
X234327040Y-60782035D01*
X234327037Y-60782034D01*
X234074972Y-60647302D01*
X234074971Y-60647301D01*
X234074967Y-60647299D01*
X233854024Y-60465976D01*
X233672701Y-60245033D01*
X233672698Y-60245028D01*
X233537966Y-59992963D01*
X233537965Y-59992960D01*
X233454995Y-59719446D01*
X233426980Y-59435000D01*
X233454995Y-59150554D01*
X233537965Y-58877040D01*
X233537966Y-58877037D01*
X233672698Y-58624972D01*
X233672699Y-58624971D01*
X233672701Y-58624967D01*
X233854024Y-58404024D01*
X234074967Y-58222701D01*
X234074971Y-58222699D01*
X234074972Y-58222698D01*
X234327037Y-58087966D01*
X234327040Y-58087965D01*
X234600554Y-58004995D01*
X234707139Y-57994498D01*
X234813722Y-57984000D01*
X236356278Y-57984000D01*
X236462861Y-57994498D01*
G37*
G36*
X231382861Y-57994498D02*
G01*
X231489446Y-58004995D01*
X231762960Y-58087965D01*
X231762963Y-58087966D01*
X232015028Y-58222698D01*
X232015029Y-58222699D01*
X232015033Y-58222701D01*
X232235976Y-58404024D01*
X232417299Y-58624967D01*
X232417301Y-58624971D01*
X232417302Y-58624972D01*
X232552034Y-58877037D01*
X232552035Y-58877040D01*
X232635005Y-59150554D01*
X232663020Y-59435000D01*
X232635005Y-59719446D01*
X232552035Y-59992960D01*
X232552034Y-59992963D01*
X232417302Y-60245028D01*
X232417299Y-60245033D01*
X232235976Y-60465976D01*
X232015033Y-60647299D01*
X232015029Y-60647301D01*
X232015028Y-60647302D01*
X231762963Y-60782034D01*
X231762960Y-60782035D01*
X231489446Y-60865005D01*
X231382861Y-60875503D01*
X231276278Y-60886000D01*
X229733722Y-60886000D01*
X229627139Y-60875503D01*
X229520554Y-60865005D01*
X229247040Y-60782035D01*
X229247037Y-60782034D01*
X228994972Y-60647302D01*
X228994971Y-60647301D01*
X228994967Y-60647299D01*
X228774024Y-60465976D01*
X228592701Y-60245033D01*
X228592698Y-60245028D01*
X228457966Y-59992963D01*
X228457965Y-59992960D01*
X228374995Y-59719446D01*
X228346980Y-59435000D01*
X228374995Y-59150554D01*
X228457965Y-58877040D01*
X228457966Y-58877037D01*
X228592698Y-58624972D01*
X228592699Y-58624971D01*
X228592701Y-58624967D01*
X228774024Y-58404024D01*
X228994967Y-58222701D01*
X228994971Y-58222699D01*
X228994972Y-58222698D01*
X229247037Y-58087966D01*
X229247040Y-58087965D01*
X229520554Y-58004995D01*
X229627139Y-57994498D01*
X229733722Y-57984000D01*
X231276278Y-57984000D01*
X231382861Y-57994498D01*
G37*
G36*
X241566000Y-54622000D02*
G01*
X239764000Y-54622000D01*
X239764000Y-52820000D01*
X241566000Y-52820000D01*
X241566000Y-54622000D01*
G37*
G36*
X239026000Y-54622000D02*
G01*
X237224000Y-54622000D01*
X237224000Y-52820000D01*
X239026000Y-52820000D01*
X239026000Y-54622000D01*
G37*
G36*
X236486000Y-54622000D02*
G01*
X234684000Y-54622000D01*
X234684000Y-52820000D01*
X236486000Y-52820000D01*
X236486000Y-54622000D01*
G37*
G36*
X233946000Y-54622000D02*
G01*
X232144000Y-54622000D01*
X232144000Y-52820000D01*
X233946000Y-52820000D01*
X233946000Y-54622000D01*
G37*
G36*
X231406000Y-54622000D02*
G01*
X229604000Y-54622000D01*
X229604000Y-52820000D01*
X231406000Y-52820000D01*
X231406000Y-54622000D01*
G37*
G36*
X228866000Y-54622000D02*
G01*
X227064000Y-54622000D01*
X227064000Y-52820000D01*
X228866000Y-52820000D01*
X228866000Y-54622000D01*
G37*
G36*
X226326000Y-54622000D02*
G01*
X224524000Y-54622000D01*
X224524000Y-52820000D01*
X226326000Y-52820000D01*
X226326000Y-54622000D01*
G37*
G36*
X223786000Y-54622000D02*
G01*
X221984000Y-54622000D01*
X221984000Y-52820000D01*
X223786000Y-52820000D01*
X223786000Y-54622000D01*
G37*
G36*
X221246000Y-54622000D02*
G01*
X219444000Y-54622000D01*
X219444000Y-52820000D01*
X221246000Y-52820000D01*
X221246000Y-54622000D01*
G37*
M02*
