G04 #@! TF.GenerationSoftware,KiCad,Pcbnew,(5.1.5-0-10_14)*
G04 #@! TF.CreationDate,2020-11-20T21:37:45+01:00*
G04 #@! TF.ProjectId,3pdt-breakout,33706474-2d62-4726-9561-6b6f75742e6b,rev?*
G04 #@! TF.SameCoordinates,Original*
G04 #@! TF.FileFunction,Copper,L1,Top*
G04 #@! TF.FilePolarity,Positive*
%FSLAX46Y46*%
G04 Gerber Fmt 4.6, Leading zero omitted, Abs format (unit mm)*
G04 Created by KiCad (PCBNEW (5.1.5-0-10_14)) date 2020-11-20 21:37:45*
%MOMM*%
%LPD*%
G04 APERTURE LIST*
%ADD10O,4.200000X2.800000*%
%ADD11R,3.816000X3.816000*%
%ADD12R,1.700000X1.700000*%
%ADD13C,0.250000*%
G04 APERTURE END LIST*
D10*
X235585000Y-68835000D03*
X235585000Y-64135000D03*
X235585000Y-59435000D03*
X230505000Y-68835000D03*
X230505000Y-64135000D03*
X230505000Y-59435000D03*
X225425000Y-68835000D03*
X225425000Y-64135000D03*
D11*
X225425000Y-59435000D03*
D12*
X222885000Y-53721000D03*
X230505000Y-53721000D03*
X238125000Y-53721000D03*
X220345000Y-53721000D03*
X225425000Y-53721000D03*
X227965000Y-53721000D03*
X233045000Y-53721000D03*
X235585000Y-53721000D03*
X240665000Y-53721000D03*
D13*
X222885000Y-52621000D02*
X221699000Y-51435000D01*
X222885000Y-53721000D02*
X222885000Y-52621000D01*
X219075000Y-51435000D02*
X218790010Y-51719990D01*
X221699000Y-51435000D02*
X219075000Y-51435000D01*
X223075000Y-64135000D02*
X225425000Y-64135000D01*
X218790010Y-59850010D02*
X223075000Y-64135000D01*
X218790010Y-51719990D02*
X218790010Y-59850010D01*
X232855000Y-64135000D02*
X230505000Y-64135000D01*
X232930010Y-57246010D02*
X232930010Y-64059990D01*
X230505000Y-54821000D02*
X232930010Y-57246010D01*
X232930010Y-64059990D02*
X232855000Y-64135000D01*
X230505000Y-53721000D02*
X230505000Y-54821000D01*
X223267000Y-59435000D02*
X225425000Y-59435000D01*
X220345000Y-56513000D02*
X223267000Y-59435000D01*
X220345000Y-53721000D02*
X220345000Y-56513000D01*
X227850010Y-68759990D02*
X227775000Y-68835000D01*
X227850010Y-57246010D02*
X227850010Y-68759990D01*
X225425000Y-54821000D02*
X227850010Y-57246010D01*
X227775000Y-68835000D02*
X225425000Y-68835000D01*
X225425000Y-53721000D02*
X225425000Y-54821000D01*
X230505000Y-57361000D02*
X230505000Y-57785000D01*
X227965000Y-54821000D02*
X230505000Y-57361000D01*
X230505000Y-57785000D02*
X230505000Y-59435000D01*
X227965000Y-53721000D02*
X227965000Y-54821000D01*
X230505000Y-67185000D02*
X230505000Y-68835000D01*
X235749542Y-67109990D02*
X230580010Y-67109990D01*
X239300001Y-63559531D02*
X235749542Y-67109990D01*
X239235001Y-52545999D02*
X239300001Y-52610999D01*
X233120001Y-52545999D02*
X239235001Y-52545999D01*
X230580010Y-67109990D02*
X230505000Y-67185000D01*
X239300001Y-52610999D02*
X239300001Y-63559531D01*
X233045000Y-52621000D02*
X233120001Y-52545999D01*
X233045000Y-53721000D02*
X233045000Y-52621000D01*
X235585000Y-53721000D02*
X235585000Y-59435000D01*
X240665000Y-54821000D02*
X241935000Y-56091000D01*
X240665000Y-53721000D02*
X240665000Y-54821000D01*
X241935000Y-69850000D02*
X239395000Y-72390000D01*
X241935000Y-56091000D02*
X241935000Y-69850000D01*
X239395000Y-72390000D02*
X236855000Y-72390000D01*
X235585000Y-71120000D02*
X235585000Y-68835000D01*
X236855000Y-72390000D02*
X235585000Y-71120000D01*
M02*
