G04 #@! TF.GenerationSoftware,KiCad,Pcbnew,(5.1.5-0-10_14)*
G04 #@! TF.CreationDate,2020-11-20T21:37:45+01:00*
G04 #@! TF.ProjectId,3pdt-breakout,33706474-2d62-4726-9561-6b6f75742e6b,rev?*
G04 #@! TF.SameCoordinates,Original*
G04 #@! TF.FileFunction,Legend,Top*
G04 #@! TF.FilePolarity,Positive*
%FSLAX46Y46*%
G04 Gerber Fmt 4.6, Leading zero omitted, Abs format (unit mm)*
G04 Created by KiCad (PCBNEW (5.1.5-0-10_14)) date 2020-11-20 21:37:45*
%MOMM*%
%LPD*%
G04 APERTURE LIST*
%ADD10C,0.010000*%
%ADD11C,0.120000*%
%ADD12C,0.150000*%
G04 APERTURE END LIST*
D10*
G36*
X234636419Y-57204876D02*
G01*
X234620740Y-57220555D01*
X234605061Y-57204876D01*
X234620740Y-57189197D01*
X234636419Y-57204876D01*
G37*
X234636419Y-57204876D02*
X234620740Y-57220555D01*
X234605061Y-57204876D01*
X234620740Y-57189197D01*
X234636419Y-57204876D01*
G36*
X233154926Y-56641784D02*
G01*
X233303469Y-56646860D01*
X233419456Y-56657188D01*
X233517946Y-56674299D01*
X233613999Y-56699721D01*
X233648642Y-56710486D01*
X233756812Y-56749742D01*
X233875029Y-56800051D01*
X233990481Y-56854893D01*
X234090354Y-56907747D01*
X234161835Y-56952091D01*
X234192112Y-56981405D01*
X234191027Y-56986524D01*
X234156708Y-56985280D01*
X234082409Y-56968676D01*
X234027256Y-56953141D01*
X233853707Y-56923975D01*
X233694220Y-56940825D01*
X233563949Y-57001728D01*
X233546974Y-57015306D01*
X233490866Y-57082933D01*
X233488436Y-57147078D01*
X233537161Y-57212015D01*
X233623886Y-57262069D01*
X233723900Y-57283224D01*
X233728512Y-57283271D01*
X233781216Y-57296332D01*
X233777734Y-57334292D01*
X233718612Y-57395318D01*
X233687839Y-57419563D01*
X233530306Y-57507711D01*
X233332834Y-57572331D01*
X233114942Y-57609847D01*
X232896149Y-57616686D01*
X232725000Y-57595910D01*
X232524950Y-57536148D01*
X232359507Y-57451422D01*
X232234094Y-57347765D01*
X232154136Y-57231210D01*
X232125056Y-57107790D01*
X232152276Y-56983539D01*
X232160239Y-56967630D01*
X232173501Y-56924944D01*
X232149752Y-56908117D01*
X232082963Y-56917191D01*
X231967102Y-56952205D01*
X231917544Y-56969294D01*
X231821601Y-57000333D01*
X231752164Y-57017774D01*
X231727262Y-57018641D01*
X231737197Y-56990660D01*
X231793017Y-56945274D01*
X231882779Y-56889348D01*
X231994539Y-56829751D01*
X232116354Y-56773349D01*
X232231819Y-56728533D01*
X232337579Y-56693834D01*
X232428830Y-56669633D01*
X232520992Y-56654061D01*
X232629484Y-56645249D01*
X232769726Y-56641329D01*
X232957139Y-56640432D01*
X232958765Y-56640432D01*
X233154926Y-56641784D01*
G37*
X233154926Y-56641784D02*
X233303469Y-56646860D01*
X233419456Y-56657188D01*
X233517946Y-56674299D01*
X233613999Y-56699721D01*
X233648642Y-56710486D01*
X233756812Y-56749742D01*
X233875029Y-56800051D01*
X233990481Y-56854893D01*
X234090354Y-56907747D01*
X234161835Y-56952091D01*
X234192112Y-56981405D01*
X234191027Y-56986524D01*
X234156708Y-56985280D01*
X234082409Y-56968676D01*
X234027256Y-56953141D01*
X233853707Y-56923975D01*
X233694220Y-56940825D01*
X233563949Y-57001728D01*
X233546974Y-57015306D01*
X233490866Y-57082933D01*
X233488436Y-57147078D01*
X233537161Y-57212015D01*
X233623886Y-57262069D01*
X233723900Y-57283224D01*
X233728512Y-57283271D01*
X233781216Y-57296332D01*
X233777734Y-57334292D01*
X233718612Y-57395318D01*
X233687839Y-57419563D01*
X233530306Y-57507711D01*
X233332834Y-57572331D01*
X233114942Y-57609847D01*
X232896149Y-57616686D01*
X232725000Y-57595910D01*
X232524950Y-57536148D01*
X232359507Y-57451422D01*
X232234094Y-57347765D01*
X232154136Y-57231210D01*
X232125056Y-57107790D01*
X232152276Y-56983539D01*
X232160239Y-56967630D01*
X232173501Y-56924944D01*
X232149752Y-56908117D01*
X232082963Y-56917191D01*
X231967102Y-56952205D01*
X231917544Y-56969294D01*
X231821601Y-57000333D01*
X231752164Y-57017774D01*
X231727262Y-57018641D01*
X231737197Y-56990660D01*
X231793017Y-56945274D01*
X231882779Y-56889348D01*
X231994539Y-56829751D01*
X232116354Y-56773349D01*
X232231819Y-56728533D01*
X232337579Y-56693834D01*
X232428830Y-56669633D01*
X232520992Y-56654061D01*
X232629484Y-56645249D01*
X232769726Y-56641329D01*
X232957139Y-56640432D01*
X232958765Y-56640432D01*
X233154926Y-56641784D01*
G36*
X228780092Y-55885435D02*
G01*
X228878024Y-55919308D01*
X228973674Y-55964856D01*
X229048773Y-56013155D01*
X229085051Y-56055280D01*
X229086049Y-56061630D01*
X229112857Y-56084333D01*
X229163297Y-56091667D01*
X229230130Y-56115361D01*
X229325700Y-56180927D01*
X229441081Y-56280086D01*
X229567346Y-56404563D01*
X229695571Y-56546079D01*
X229816828Y-56696358D01*
X229820158Y-56700774D01*
X230067764Y-57073430D01*
X230254775Y-57453581D01*
X230311108Y-57602904D01*
X230352283Y-57718690D01*
X230386733Y-57809852D01*
X230408777Y-57861560D01*
X230412484Y-57867567D01*
X230450633Y-57865679D01*
X230516365Y-57828325D01*
X230595146Y-57766510D01*
X230672440Y-57691236D01*
X230717979Y-57636291D01*
X230823818Y-57521810D01*
X230967938Y-57405052D01*
X231128601Y-57301933D01*
X231265432Y-57235494D01*
X231390864Y-57185686D01*
X231281111Y-57272638D01*
X231079968Y-57457150D01*
X230934357Y-57649897D01*
X230881306Y-57749509D01*
X230834567Y-57864609D01*
X230814998Y-57965899D01*
X230816535Y-58088164D01*
X230818257Y-58111049D01*
X230847526Y-58288483D01*
X230909867Y-58443173D01*
X231013817Y-58590949D01*
X231155338Y-58736072D01*
X231401045Y-58923610D01*
X231691078Y-59077294D01*
X232016445Y-59196296D01*
X232368153Y-59279787D01*
X232737212Y-59326938D01*
X233114630Y-59336919D01*
X233491415Y-59308901D01*
X233858576Y-59242056D01*
X234207120Y-59135554D01*
X234432592Y-59038251D01*
X234691612Y-58889626D01*
X234894525Y-58724412D01*
X235046855Y-58537617D01*
X235109736Y-58426607D01*
X235163188Y-58310754D01*
X235191024Y-58221689D01*
X235198922Y-58131852D01*
X235193191Y-58021453D01*
X235161797Y-57841271D01*
X235093672Y-57680489D01*
X234981052Y-57525083D01*
X234838844Y-57381520D01*
X234758322Y-57305570D01*
X234703180Y-57248926D01*
X234683055Y-57221627D01*
X234684379Y-57220555D01*
X234745510Y-57239131D01*
X234839227Y-57288170D01*
X234950231Y-57357640D01*
X235063220Y-57437508D01*
X235162891Y-57517740D01*
X235218328Y-57570647D01*
X235379735Y-57780158D01*
X235480889Y-57995557D01*
X235523545Y-58213308D01*
X235509453Y-58429874D01*
X235440366Y-58641718D01*
X235318036Y-58845304D01*
X235144216Y-59037095D01*
X234920657Y-59213554D01*
X234649112Y-59371145D01*
X234331333Y-59506330D01*
X234244444Y-59536353D01*
X233845822Y-59641648D01*
X233429565Y-59702665D01*
X233005192Y-59720536D01*
X232582225Y-59696393D01*
X232170184Y-59631369D01*
X231778590Y-59526595D01*
X231416964Y-59383205D01*
X231094825Y-59202331D01*
X231024283Y-59153351D01*
X230844338Y-59007348D01*
X230709107Y-58856686D01*
X230602524Y-58681244D01*
X230544129Y-58552047D01*
X230467291Y-58365123D01*
X230466546Y-58837642D01*
X230471408Y-59107592D01*
X230489466Y-59326837D01*
X230524516Y-59506682D01*
X230580356Y-59658429D01*
X230660781Y-59793382D01*
X230769588Y-59922844D01*
X230861362Y-60013171D01*
X231113957Y-60209950D01*
X231420905Y-60380940D01*
X231778632Y-60524383D01*
X232086066Y-60614864D01*
X232186594Y-60638829D01*
X232281051Y-60656661D01*
X232381162Y-60669207D01*
X232498650Y-60677313D01*
X232645236Y-60681827D01*
X232832644Y-60683593D01*
X233037160Y-60683557D01*
X233265083Y-60682505D01*
X233442286Y-60679942D01*
X233580760Y-60674831D01*
X233692501Y-60666136D01*
X233789499Y-60652821D01*
X233883750Y-60633850D01*
X233987247Y-60608187D01*
X234024938Y-60598216D01*
X234303812Y-60509546D01*
X234574690Y-60396797D01*
X234823153Y-60267310D01*
X235034784Y-60128426D01*
X235166128Y-60017206D01*
X235325797Y-59841064D01*
X235435230Y-59667372D01*
X235503164Y-59477241D01*
X235538339Y-59251783D01*
X235541947Y-59204784D01*
X235561481Y-58913517D01*
X236220000Y-59290744D01*
X236459048Y-59429581D01*
X236648947Y-59544469D01*
X236796455Y-59639884D01*
X236908327Y-59720305D01*
X236991318Y-59790208D01*
X237026634Y-59825296D01*
X237091021Y-59896636D01*
X237142981Y-59964769D01*
X237183842Y-60037234D01*
X237214929Y-60121574D01*
X237237568Y-60225330D01*
X237253087Y-60356043D01*
X237262809Y-60521256D01*
X237268063Y-60728510D01*
X237270175Y-60985345D01*
X237270493Y-61212029D01*
X237270389Y-61474095D01*
X237269716Y-61680823D01*
X237267937Y-61839588D01*
X237264516Y-61957768D01*
X237258913Y-62042741D01*
X237250593Y-62101882D01*
X237239016Y-62142569D01*
X237223646Y-62172179D01*
X237203945Y-62198090D01*
X237198131Y-62205031D01*
X237171048Y-62245066D01*
X237146610Y-62301816D01*
X237122684Y-62384058D01*
X237097140Y-62500567D01*
X237067845Y-62660118D01*
X237032668Y-62871487D01*
X237025643Y-62915113D01*
X236977128Y-63221240D01*
X236938344Y-63477892D01*
X236908216Y-63697371D01*
X236885666Y-63891980D01*
X236869618Y-64074022D01*
X236858995Y-64255799D01*
X236852721Y-64449614D01*
X236849718Y-64667769D01*
X236848911Y-64922567D01*
X236848910Y-64934630D01*
X236851647Y-65284703D01*
X236860860Y-65586205D01*
X236877961Y-65853076D01*
X236904364Y-66099254D01*
X236941484Y-66338681D01*
X236990735Y-66585295D01*
X237036409Y-66783044D01*
X237075121Y-66931328D01*
X237109585Y-67031043D01*
X237145567Y-67095534D01*
X237188833Y-67138145D01*
X237190333Y-67139246D01*
X237284423Y-67238241D01*
X237354897Y-67369429D01*
X237389303Y-67506465D01*
X237389848Y-67561339D01*
X237378164Y-67628271D01*
X237347691Y-67679166D01*
X237284943Y-67730109D01*
X237207777Y-67778512D01*
X237106513Y-67833117D01*
X237017207Y-67870676D01*
X236967159Y-67882154D01*
X236876717Y-67854067D01*
X236786090Y-67780039D01*
X236705859Y-67675911D01*
X236646605Y-67557528D01*
X236618910Y-67440733D01*
X236623988Y-67368318D01*
X236662383Y-67297793D01*
X236730093Y-67229210D01*
X236738341Y-67223100D01*
X236833200Y-67155555D01*
X236769408Y-67052337D01*
X236697784Y-66917497D01*
X236619830Y-66738819D01*
X236542362Y-66533785D01*
X236472198Y-66319879D01*
X236439730Y-66206778D01*
X236328680Y-65690730D01*
X236263806Y-65134042D01*
X236245152Y-64538561D01*
X236272764Y-63906135D01*
X236346688Y-63238613D01*
X236364063Y-63120468D01*
X236386475Y-62966071D01*
X236403394Y-62835278D01*
X236413452Y-62739854D01*
X236415284Y-62691560D01*
X236414258Y-62688188D01*
X236384475Y-62699313D01*
X236308288Y-62737886D01*
X236193433Y-62799701D01*
X236047646Y-62880549D01*
X235878664Y-62976224D01*
X235771758Y-63037610D01*
X235142809Y-63400583D01*
X235111414Y-63548285D01*
X235083925Y-63691847D01*
X235051733Y-63882757D01*
X235016986Y-64106019D01*
X234981833Y-64346640D01*
X234948425Y-64589628D01*
X234918910Y-64819987D01*
X234895436Y-65022725D01*
X234884638Y-65130389D01*
X234871253Y-65331350D01*
X234863249Y-65572626D01*
X234860340Y-65841209D01*
X234862241Y-66124093D01*
X234868666Y-66408269D01*
X234879331Y-66680729D01*
X234893950Y-66928467D01*
X234912238Y-67138474D01*
X234931939Y-67286481D01*
X234979909Y-67552582D01*
X235024634Y-67764419D01*
X235068678Y-67930176D01*
X235114606Y-68058036D01*
X235164982Y-68156182D01*
X235222372Y-68232796D01*
X235231709Y-68242901D01*
X235336476Y-68378735D01*
X235399463Y-68515964D01*
X235414986Y-68640797D01*
X235409458Y-68674085D01*
X235369897Y-68734300D01*
X235289683Y-68803336D01*
X235187432Y-68869508D01*
X235081759Y-68921131D01*
X234991280Y-68946520D01*
X234973993Y-68947413D01*
X234879520Y-68917700D01*
X234786784Y-68841575D01*
X234707571Y-68734532D01*
X234653670Y-68612063D01*
X234636537Y-68503878D01*
X234648766Y-68413297D01*
X234696137Y-68344719D01*
X234735698Y-68310861D01*
X234834976Y-68233164D01*
X234721430Y-68002847D01*
X234551774Y-67595718D01*
X234420603Y-67142857D01*
X234328288Y-66648343D01*
X234275202Y-66116252D01*
X234261719Y-65550661D01*
X234288211Y-64955647D01*
X234355052Y-64335289D01*
X234373936Y-64204264D01*
X234393185Y-64065909D01*
X234406146Y-63951894D01*
X234411488Y-63875530D01*
X234409240Y-63850331D01*
X234378937Y-63860977D01*
X234302267Y-63899248D01*
X234186926Y-63960973D01*
X234040608Y-64041984D01*
X233871005Y-64138111D01*
X233755930Y-64204400D01*
X233118162Y-64574012D01*
X233076950Y-64777839D01*
X233033254Y-65017485D01*
X232989184Y-65301382D01*
X232947047Y-65611124D01*
X232909152Y-65928304D01*
X232877804Y-66234516D01*
X232855312Y-66511352D01*
X232850926Y-66580926D01*
X232837041Y-67260896D01*
X232874335Y-67928607D01*
X232961991Y-68573764D01*
X233039251Y-68949320D01*
X233075051Y-69088901D01*
X233110142Y-69185528D01*
X233153570Y-69258196D01*
X233214381Y-69325903D01*
X233222248Y-69333600D01*
X233314637Y-69447217D01*
X233376664Y-69571938D01*
X233402414Y-69691024D01*
X233385973Y-69787738D01*
X233384053Y-69791471D01*
X233333155Y-69847395D01*
X233244517Y-69913197D01*
X233139012Y-69976448D01*
X233037515Y-70024718D01*
X232960901Y-70045581D01*
X232957077Y-70045693D01*
X232896855Y-70024135D01*
X232822527Y-69969678D01*
X232796210Y-69944074D01*
X232701367Y-69830731D01*
X232649441Y-69728844D01*
X232630344Y-69616350D01*
X232629506Y-69579452D01*
X232637568Y-69490204D01*
X232671358Y-69434880D01*
X232723580Y-69398160D01*
X232786393Y-69356284D01*
X232817058Y-69326473D01*
X232817654Y-69324034D01*
X232804434Y-69289133D01*
X232769410Y-69213405D01*
X232719536Y-69111758D01*
X232707450Y-69087770D01*
X232587921Y-68815073D01*
X232479210Y-68494186D01*
X232385794Y-68139313D01*
X232340191Y-67922496D01*
X232318622Y-67804040D01*
X232301954Y-67694730D01*
X232289607Y-67584060D01*
X232281003Y-67461527D01*
X232275560Y-67316624D01*
X232272701Y-67138848D01*
X232271845Y-66917693D01*
X232272251Y-66690679D01*
X232273983Y-66407395D01*
X232277576Y-66175506D01*
X232283632Y-65983705D01*
X232292753Y-65820684D01*
X232305540Y-65675134D01*
X232322594Y-65535748D01*
X232339776Y-65420679D01*
X232363149Y-65268991D01*
X232381413Y-65141518D01*
X232392988Y-65050005D01*
X232396295Y-65006198D01*
X232395801Y-65004168D01*
X232367751Y-65017543D01*
X232290903Y-65059342D01*
X232170685Y-65126487D01*
X232012527Y-65215896D01*
X231821860Y-65324491D01*
X231604111Y-65449190D01*
X231364712Y-65586913D01*
X231152049Y-65709724D01*
X229917037Y-66424136D01*
X229540740Y-66421214D01*
X229158884Y-66397339D01*
X228743533Y-66334005D01*
X228306388Y-66235233D01*
X227859152Y-66105042D01*
X227413526Y-65947455D01*
X226981213Y-65766492D01*
X226573913Y-65566173D01*
X226203330Y-65350519D01*
X225978191Y-65197105D01*
X225565516Y-64858675D01*
X225187902Y-64475081D01*
X224855204Y-64056899D01*
X224702103Y-63827494D01*
X224625610Y-63702511D01*
X224577619Y-63613142D01*
X224552171Y-63542603D01*
X224543303Y-63474110D01*
X224545054Y-63390879D01*
X224545313Y-63386049D01*
X224554814Y-63210695D01*
X224740233Y-63462019D01*
X224898795Y-63657536D01*
X225095664Y-63870351D01*
X225315282Y-64085641D01*
X225542089Y-64288588D01*
X225760524Y-64464369D01*
X225888003Y-64555273D01*
X226203101Y-64749315D01*
X226564150Y-64942920D01*
X226954789Y-65128552D01*
X227358655Y-65298678D01*
X227759386Y-65445761D01*
X227965455Y-65511962D01*
X228168441Y-65569009D01*
X228395645Y-65625212D01*
X228632245Y-65677591D01*
X228863419Y-65723167D01*
X229074346Y-65758963D01*
X229250202Y-65782000D01*
X229343487Y-65788903D01*
X229572098Y-65796975D01*
X229582274Y-65671941D01*
X229596687Y-65581689D01*
X229619535Y-65515938D01*
X229625312Y-65507311D01*
X229646613Y-65471526D01*
X229630338Y-65467659D01*
X229589417Y-65490450D01*
X229536781Y-65534636D01*
X229522688Y-65549069D01*
X229475047Y-65594056D01*
X229426942Y-65615641D01*
X229357124Y-65618699D01*
X229258518Y-65609678D01*
X228976796Y-65568409D01*
X228655459Y-65503957D01*
X228311288Y-65420571D01*
X227961068Y-65322500D01*
X227621580Y-65213991D01*
X227508820Y-65173851D01*
X228293984Y-65173851D01*
X228556745Y-65241903D01*
X228752909Y-65291851D01*
X228929909Y-65335297D01*
X229077133Y-65369751D01*
X229183970Y-65392721D01*
X229236921Y-65401526D01*
X229261850Y-65386160D01*
X229266199Y-65326968D01*
X229260490Y-65271728D01*
X229250348Y-65193828D01*
X229234152Y-65068393D01*
X229213790Y-64910098D01*
X229191152Y-64733618D01*
X229180360Y-64649323D01*
X229154112Y-64464765D01*
X229125996Y-64294986D01*
X231070946Y-64294986D01*
X231076430Y-64297471D01*
X231102123Y-64278474D01*
X231148393Y-64253906D01*
X231243161Y-64211881D01*
X231376103Y-64156688D01*
X231536890Y-64092614D01*
X231713605Y-64024552D01*
X231912555Y-63948194D01*
X232059708Y-63888902D01*
X232162472Y-63843044D01*
X232228251Y-63806987D01*
X232264451Y-63777098D01*
X232278478Y-63749744D01*
X232278909Y-63747266D01*
X232288169Y-63701137D01*
X232307018Y-63685916D01*
X232349582Y-63702436D01*
X232429986Y-63751525D01*
X232438059Y-63756621D01*
X232521517Y-63824754D01*
X232573489Y-63897222D01*
X232579144Y-63913411D01*
X232606898Y-63979865D01*
X232640874Y-63984009D01*
X232680656Y-63925893D01*
X232692485Y-63899180D01*
X232764109Y-63783561D01*
X232862797Y-63698614D01*
X232971957Y-63656519D01*
X233024757Y-63655284D01*
X233091676Y-63659300D01*
X233109419Y-63643615D01*
X233095457Y-63609336D01*
X233017117Y-63523323D01*
X232899394Y-63463141D01*
X232762031Y-63433700D01*
X232624768Y-63439908D01*
X232535432Y-63470050D01*
X232331074Y-63555238D01*
X232116466Y-63611451D01*
X232010752Y-63625905D01*
X231852839Y-63661655D01*
X231708484Y-63734839D01*
X231597307Y-63834060D01*
X231562077Y-63886483D01*
X231513317Y-63944128D01*
X231429032Y-64014609D01*
X231344007Y-64072175D01*
X231241415Y-64139764D01*
X231153356Y-64206939D01*
X231107033Y-64250538D01*
X231070946Y-64294986D01*
X229125996Y-64294986D01*
X229122019Y-64270974D01*
X229086384Y-64078863D01*
X229049512Y-63899349D01*
X229013708Y-63743346D01*
X228981277Y-63621768D01*
X228954523Y-63545530D01*
X228943437Y-63527244D01*
X228913456Y-63536425D01*
X228862691Y-63593531D01*
X228796470Y-63689464D01*
X228720120Y-63815126D01*
X228638969Y-63961420D01*
X228558344Y-64119248D01*
X228483572Y-64279512D01*
X228433988Y-64397221D01*
X228365372Y-64592584D01*
X228325886Y-64769765D01*
X228310049Y-64920969D01*
X228293984Y-65173851D01*
X227508820Y-65173851D01*
X227439753Y-65149265D01*
X226872031Y-64916793D01*
X226359524Y-64660335D01*
X225898341Y-64376876D01*
X225484593Y-64063404D01*
X225114388Y-63716904D01*
X224783838Y-63334365D01*
X224489050Y-62912771D01*
X224431317Y-62818981D01*
X224374988Y-62719576D01*
X224334850Y-62637563D01*
X224319901Y-62591694D01*
X224695926Y-62591694D01*
X224702239Y-62675582D01*
X224726793Y-62752046D01*
X224778008Y-62840702D01*
X224841100Y-62929874D01*
X224971062Y-63092565D01*
X225136257Y-63278642D01*
X225322195Y-63473263D01*
X225514388Y-63661588D01*
X225698349Y-63828774D01*
X225807307Y-63919607D01*
X225912418Y-64001074D01*
X225998323Y-64063584D01*
X226054140Y-64099457D01*
X226069479Y-64104615D01*
X226070676Y-64070471D01*
X226065819Y-63996932D01*
X226169753Y-63996932D01*
X226173072Y-64103325D01*
X226188136Y-64168310D01*
X226222598Y-64213063D01*
X226257797Y-64240459D01*
X226328473Y-64287427D01*
X226423805Y-64346473D01*
X226529943Y-64409593D01*
X226633039Y-64468781D01*
X226719243Y-64516033D01*
X226774707Y-64543344D01*
X226787638Y-64546703D01*
X226786234Y-64514609D01*
X226777452Y-64430259D01*
X226777289Y-64428875D01*
X226875157Y-64428875D01*
X226880740Y-64507335D01*
X226893160Y-64559713D01*
X226918215Y-64600760D01*
X226967378Y-64639833D01*
X227052120Y-64686291D01*
X227168994Y-64742484D01*
X227307174Y-64806757D01*
X227398498Y-64846610D01*
X227452487Y-64865090D01*
X227478666Y-64865247D01*
X227486558Y-64850127D01*
X227486790Y-64844205D01*
X227484523Y-64821507D01*
X227596052Y-64821507D01*
X227626166Y-64898466D01*
X227695633Y-64956971D01*
X227811401Y-65010847D01*
X227864571Y-65031327D01*
X228002760Y-65081865D01*
X228092930Y-65109515D01*
X228145202Y-65114912D01*
X228169695Y-65098692D01*
X228176528Y-65061489D01*
X228176666Y-65050920D01*
X228170819Y-64927824D01*
X228154757Y-64776097D01*
X228130703Y-64607004D01*
X228100877Y-64431811D01*
X228067501Y-64261782D01*
X228032797Y-64108183D01*
X227998986Y-63982279D01*
X227968288Y-63895336D01*
X227942926Y-63858617D01*
X227941481Y-63858232D01*
X227909273Y-63881837D01*
X227863169Y-63952313D01*
X227808898Y-64056964D01*
X227752192Y-64183093D01*
X227698781Y-64318006D01*
X227654396Y-64449007D01*
X227626087Y-64556936D01*
X227598342Y-64712272D01*
X227596052Y-64821507D01*
X227484523Y-64821507D01*
X227482870Y-64804964D01*
X227472060Y-64714955D01*
X227455781Y-64585570D01*
X227435457Y-64428205D01*
X227423173Y-64334637D01*
X227386998Y-64080698D01*
X227350315Y-63860549D01*
X227314475Y-63680691D01*
X227280830Y-63547626D01*
X227250733Y-63467857D01*
X227239668Y-63452002D01*
X227214195Y-63464482D01*
X227170931Y-63522045D01*
X227116925Y-63612184D01*
X227059221Y-63722394D01*
X227004865Y-63840168D01*
X226966686Y-63936526D01*
X226917810Y-64103620D01*
X226886132Y-64275497D01*
X226875157Y-64428875D01*
X226777289Y-64428875D01*
X226762459Y-64303532D01*
X226742421Y-64144304D01*
X226719081Y-63966730D01*
X226690970Y-63768519D01*
X226661056Y-63577391D01*
X226631821Y-63407891D01*
X226605749Y-63274569D01*
X226588974Y-63204229D01*
X226558866Y-63102655D01*
X226537222Y-63052758D01*
X226517247Y-63045384D01*
X226492143Y-63071378D01*
X226491234Y-63072587D01*
X226394313Y-63229523D01*
X226306182Y-63422683D01*
X226234367Y-63630429D01*
X226186393Y-63831122D01*
X226169753Y-63996932D01*
X226065819Y-63996932D01*
X226065064Y-63985501D01*
X226053624Y-63861106D01*
X226037337Y-63708691D01*
X226029736Y-63642869D01*
X225993710Y-63362129D01*
X225957082Y-63123869D01*
X225920721Y-62932154D01*
X225885495Y-62791049D01*
X225852274Y-62704617D01*
X225823313Y-62676852D01*
X225795575Y-62702964D01*
X225750791Y-62771796D01*
X225698125Y-62869086D01*
X225692359Y-62880679D01*
X225640896Y-62979986D01*
X225598553Y-63052525D01*
X225573672Y-63084135D01*
X225572308Y-63084506D01*
X225561562Y-63055319D01*
X225546780Y-62975866D01*
X225529918Y-62858311D01*
X225513064Y-62716049D01*
X225475122Y-62402021D01*
X225468584Y-62357589D01*
X226075679Y-62357589D01*
X226085699Y-62498198D01*
X226111121Y-62647447D01*
X226127397Y-62710358D01*
X226179116Y-62880679D01*
X226239860Y-62747688D01*
X226812541Y-62747688D01*
X226817772Y-62847445D01*
X226832343Y-62961026D01*
X226853459Y-63074335D01*
X226878324Y-63173273D01*
X226904142Y-63243742D01*
X226928117Y-63271643D01*
X226936770Y-63267500D01*
X226952368Y-63235634D01*
X226985525Y-63160309D01*
X227001091Y-63123724D01*
X227519998Y-63123724D01*
X227525914Y-63226619D01*
X227537634Y-63342332D01*
X227553665Y-63454517D01*
X227572511Y-63546822D01*
X227582651Y-63580771D01*
X227607659Y-63638922D01*
X227631667Y-63657400D01*
X227660212Y-63631296D01*
X227698834Y-63555700D01*
X227700028Y-63552841D01*
X228218030Y-63552841D01*
X228223488Y-63648443D01*
X228238580Y-63760266D01*
X228260376Y-63874112D01*
X228285950Y-63975786D01*
X228312371Y-64051089D01*
X228336714Y-64085824D01*
X228347881Y-64082809D01*
X228363476Y-64050945D01*
X228396638Y-63975609D01*
X228441020Y-63871305D01*
X228454674Y-63838690D01*
X228503435Y-63720169D01*
X228525611Y-63644015D01*
X228516703Y-63593894D01*
X228472211Y-63553476D01*
X228387635Y-63506427D01*
X228358968Y-63491327D01*
X228285462Y-63454611D01*
X228248846Y-63447722D01*
X228231107Y-63470166D01*
X228225132Y-63487658D01*
X228218030Y-63552841D01*
X227700028Y-63552841D01*
X227750583Y-63431877D01*
X227791170Y-63328043D01*
X227820271Y-63247680D01*
X227831114Y-63209938D01*
X233073793Y-63209938D01*
X233079104Y-63229762D01*
X233121899Y-63201310D01*
X233134772Y-63190067D01*
X233187759Y-63157862D01*
X233288844Y-63109583D01*
X233426975Y-63050017D01*
X233591105Y-62983949D01*
X233750184Y-62923524D01*
X233951676Y-62847731D01*
X234099908Y-62788420D01*
X234201236Y-62742600D01*
X234262017Y-62707281D01*
X234288606Y-62679473D01*
X234291110Y-62669012D01*
X234309847Y-62622589D01*
X234330679Y-62614253D01*
X234406780Y-62637338D01*
X234492387Y-62693497D01*
X234562911Y-62763648D01*
X234591940Y-62816990D01*
X234618458Y-62882617D01*
X234650187Y-62886216D01*
X234688129Y-62827677D01*
X234697852Y-62805381D01*
X234779128Y-62674366D01*
X234890314Y-62593704D01*
X235013576Y-62568524D01*
X235090541Y-62565901D01*
X235116540Y-62552268D01*
X235103278Y-62518980D01*
X235095941Y-62507690D01*
X235019125Y-62433682D01*
X234907433Y-62371811D01*
X234788683Y-62335916D01*
X234742612Y-62331913D01*
X234660428Y-62345058D01*
X234550401Y-62379034D01*
X234465519Y-62413624D01*
X234328189Y-62464692D01*
X234173201Y-62505479D01*
X234091118Y-62519632D01*
X233909210Y-62554596D01*
X233769882Y-62613672D01*
X233654809Y-62706009D01*
X233604762Y-62762432D01*
X233529975Y-62838889D01*
X233423562Y-62929376D01*
X233307481Y-63015331D01*
X233297936Y-63021790D01*
X233197594Y-63093575D01*
X233119408Y-63157836D01*
X233077124Y-63203034D01*
X233073793Y-63209938D01*
X227831114Y-63209938D01*
X227831721Y-63207828D01*
X227831728Y-63207511D01*
X227807203Y-63181307D01*
X227746512Y-63137839D01*
X227668983Y-63089065D01*
X227593941Y-63046943D01*
X227540715Y-63023431D01*
X227531556Y-63021790D01*
X227521380Y-63049998D01*
X227519998Y-63123724D01*
X227001091Y-63123724D01*
X227029887Y-63056047D01*
X227043385Y-63023806D01*
X227087625Y-62915166D01*
X227119404Y-62832098D01*
X227133437Y-62788599D01*
X227133415Y-62785370D01*
X227104559Y-62768117D01*
X227038155Y-62729414D01*
X226981069Y-62696394D01*
X226896938Y-62649384D01*
X226851758Y-62632397D01*
X226830502Y-62643525D01*
X226819446Y-62675856D01*
X226812541Y-62747688D01*
X226239860Y-62747688D01*
X226267027Y-62688212D01*
X226315294Y-62577409D01*
X226353883Y-62479549D01*
X226372767Y-62421669D01*
X226375352Y-62374744D01*
X226349040Y-62334948D01*
X226282356Y-62289110D01*
X226233137Y-62261367D01*
X226075679Y-62175142D01*
X226075679Y-62357589D01*
X225468584Y-62357589D01*
X225431187Y-62103473D01*
X225383380Y-61832568D01*
X225361689Y-61731410D01*
X227863673Y-61731410D01*
X227891664Y-61768357D01*
X227973627Y-61831630D01*
X228107342Y-61919705D01*
X228290587Y-62031058D01*
X228357562Y-62070333D01*
X228516182Y-62162109D01*
X228656237Y-62242067D01*
X228768703Y-62305143D01*
X228844556Y-62346273D01*
X228874382Y-62360395D01*
X228894058Y-62336998D01*
X228897901Y-62306417D01*
X228904165Y-62286532D01*
X228927934Y-62268624D01*
X228976674Y-62250911D01*
X229057853Y-62231612D01*
X229178937Y-62208942D01*
X229347391Y-62181121D01*
X229459919Y-62163599D01*
X235049781Y-62163599D01*
X235060038Y-62165315D01*
X235109342Y-62128331D01*
X235117480Y-62121934D01*
X235172765Y-62090382D01*
X235275801Y-62042451D01*
X235415315Y-61982968D01*
X235580037Y-61916763D01*
X235732970Y-61858243D01*
X235941261Y-61778536D01*
X236094252Y-61715531D01*
X236196470Y-61667110D01*
X236252440Y-61631157D01*
X236267037Y-61608508D01*
X236276242Y-61555463D01*
X236310782Y-61542054D01*
X236381039Y-61567125D01*
X236427150Y-61590693D01*
X236526750Y-61662608D01*
X236570487Y-61743950D01*
X236593554Y-61811744D01*
X236624857Y-61821834D01*
X236667767Y-61773260D01*
X236705719Y-61705399D01*
X236785266Y-61596621D01*
X236888011Y-61521443D01*
X236996733Y-61490793D01*
X237039333Y-61493691D01*
X237099849Y-61496566D01*
X237106195Y-61470742D01*
X237058428Y-61414794D01*
X237043148Y-61400557D01*
X236921683Y-61311999D01*
X236796503Y-61270894D01*
X236655756Y-61276475D01*
X236487588Y-61327976D01*
X236413174Y-61359815D01*
X236264044Y-61416942D01*
X236129076Y-61449568D01*
X236071738Y-61454577D01*
X235899170Y-61482028D01*
X235735872Y-61555374D01*
X235605838Y-61663717D01*
X235602381Y-61667774D01*
X235547827Y-61735748D01*
X235513431Y-61784440D01*
X235509604Y-61791728D01*
X235479272Y-61820004D01*
X235409281Y-61870001D01*
X235313977Y-61931554D01*
X235300863Y-61939637D01*
X235198752Y-62007753D01*
X235116480Y-62072699D01*
X235070863Y-62121108D01*
X235069508Y-62123476D01*
X235049781Y-62163599D01*
X229459919Y-62163599D01*
X229564259Y-62147352D01*
X229762042Y-62116061D01*
X229938922Y-62086263D01*
X230085463Y-62059697D01*
X230192228Y-62038101D01*
X230249781Y-62023213D01*
X230256643Y-62019821D01*
X230280958Y-61981244D01*
X230322429Y-61900894D01*
X230375259Y-61791563D01*
X230433650Y-61666041D01*
X230491804Y-61537119D01*
X230543923Y-61417586D01*
X230584210Y-61320235D01*
X230606865Y-61257854D01*
X230609252Y-61241948D01*
X230577429Y-61220634D01*
X230505885Y-61176831D01*
X230409196Y-61119440D01*
X230394604Y-61110898D01*
X230193470Y-60993362D01*
X230079079Y-61058996D01*
X230011180Y-61102702D01*
X229977309Y-61147385D01*
X229965647Y-61216331D01*
X229964381Y-61285030D01*
X229940138Y-61443280D01*
X229867103Y-61567633D01*
X229743810Y-61659033D01*
X229568791Y-61718423D01*
X229340581Y-61746749D01*
X229242839Y-61749542D01*
X229094389Y-61748563D01*
X228987804Y-61740498D01*
X228902327Y-61721643D01*
X228817197Y-61688298D01*
X228767857Y-61664828D01*
X228623613Y-61572631D01*
X228534640Y-61460267D01*
X228494301Y-61317598D01*
X228490247Y-61240771D01*
X228490247Y-61115527D01*
X228686234Y-61176703D01*
X228885006Y-61228459D01*
X229065944Y-61255971D01*
X229217323Y-61258434D01*
X229327416Y-61235042D01*
X229351352Y-61222399D01*
X229412307Y-61148934D01*
X229432906Y-61050152D01*
X229411557Y-60950040D01*
X229373137Y-60894310D01*
X229346916Y-60864551D01*
X229347452Y-60844546D01*
X229384444Y-60829108D01*
X229467593Y-60813047D01*
X229549289Y-60800080D01*
X229804570Y-60741431D01*
X230016522Y-60655113D01*
X230183563Y-60546650D01*
X230304109Y-60421566D01*
X230376580Y-60285384D01*
X230399392Y-60143628D01*
X230370965Y-60001821D01*
X230289714Y-59865486D01*
X230154060Y-59740147D01*
X229962418Y-59631328D01*
X229892405Y-59602202D01*
X229642921Y-59528222D01*
X229381215Y-59490202D01*
X229117665Y-59486459D01*
X228862650Y-59515312D01*
X228626548Y-59575076D01*
X228419736Y-59664070D01*
X228252593Y-59780610D01*
X228161034Y-59882904D01*
X228120199Y-59943891D01*
X228093291Y-59998132D01*
X228077409Y-60060698D01*
X228069654Y-60146660D01*
X228067127Y-60271088D01*
X228066913Y-60372111D01*
X228068014Y-60529595D01*
X228072853Y-60638573D01*
X228083736Y-60713239D01*
X228102967Y-60767787D01*
X228132851Y-60816410D01*
X228140849Y-60827403D01*
X228214785Y-60927407D01*
X228038935Y-61303540D01*
X227973353Y-61447667D01*
X227918972Y-61574514D01*
X227880850Y-61671733D01*
X227864046Y-61726978D01*
X227863673Y-61731410D01*
X225361689Y-61731410D01*
X225333825Y-61601469D01*
X225290440Y-61440635D01*
X225223148Y-61223555D01*
X225125999Y-61377919D01*
X225015370Y-61574208D01*
X224913131Y-61793743D01*
X224824677Y-62021295D01*
X224755404Y-62241636D01*
X224710709Y-62439537D01*
X224695926Y-62591694D01*
X224319901Y-62591694D01*
X224319629Y-62590862D01*
X224345901Y-62551899D01*
X224410643Y-62510636D01*
X224425966Y-62503789D01*
X224532303Y-62459359D01*
X224543621Y-62102810D01*
X224549678Y-61945036D01*
X224558937Y-61830769D01*
X224575736Y-61740807D01*
X224604414Y-61655952D01*
X224649310Y-61557003D01*
X224681927Y-61490745D01*
X224808914Y-61235229D01*
X224671644Y-61101534D01*
X224435321Y-60854698D01*
X224215714Y-60592999D01*
X224018138Y-60324902D01*
X223847906Y-60058867D01*
X223710333Y-59803360D01*
X223610732Y-59566841D01*
X223554418Y-59357775D01*
X223552361Y-59343389D01*
X224220310Y-59343389D01*
X224240242Y-59495693D01*
X224290330Y-59660474D01*
X224367674Y-59825481D01*
X224469374Y-59978463D01*
X224490702Y-60004557D01*
X224578547Y-60092860D01*
X224687434Y-60180986D01*
X224797327Y-60254375D01*
X224888187Y-60298468D01*
X224899911Y-60301905D01*
X224953172Y-60316283D01*
X224968267Y-60321362D01*
X224998109Y-60314321D01*
X225052595Y-60295143D01*
X225125726Y-60248877D01*
X225164855Y-60202260D01*
X225184118Y-60161932D01*
X225172267Y-60156701D01*
X225118653Y-60184917D01*
X225104623Y-60192919D01*
X225045848Y-60222769D01*
X224998301Y-60228199D01*
X224938111Y-60207034D01*
X224868419Y-60171398D01*
X224705502Y-60057686D01*
X224562349Y-59905866D01*
X224448957Y-59731108D01*
X224375325Y-59548584D01*
X224351294Y-59386728D01*
X224357902Y-59341142D01*
X224555942Y-59341142D01*
X224587246Y-59510070D01*
X224675325Y-59660218D01*
X224815123Y-59783306D01*
X224832829Y-59794466D01*
X224905067Y-59837217D01*
X224946488Y-59849732D01*
X224980620Y-59833078D01*
X225014876Y-59802732D01*
X225059903Y-59736220D01*
X225071533Y-59685140D01*
X225048584Y-59572177D01*
X224989639Y-59452199D01*
X224906249Y-59338739D01*
X224809965Y-59245333D01*
X224712340Y-59185516D01*
X224633209Y-59171549D01*
X224587014Y-59182257D01*
X224563920Y-59211901D01*
X224556282Y-59277261D01*
X224555942Y-59341142D01*
X224357902Y-59341142D01*
X224370602Y-59253544D01*
X224429236Y-59169206D01*
X224527214Y-59133691D01*
X224551835Y-59132441D01*
X224613111Y-59128844D01*
X224618588Y-59116151D01*
X224592997Y-59098957D01*
X224487012Y-59066064D01*
X224374991Y-59074842D01*
X224284848Y-59122931D01*
X224282517Y-59125212D01*
X224233435Y-59215812D01*
X224220310Y-59343389D01*
X223552361Y-59343389D01*
X223547829Y-59311708D01*
X223531107Y-59203757D01*
X223513716Y-59153440D01*
X223497650Y-59155731D01*
X223484905Y-59205605D01*
X223477477Y-59298037D01*
X223477359Y-59428000D01*
X223479527Y-59483748D01*
X223488934Y-59626852D01*
X223504890Y-59738752D01*
X223533334Y-59842661D01*
X223580206Y-59961796D01*
X223630582Y-60074136D01*
X223692482Y-60216932D01*
X223737129Y-60344869D01*
X223765501Y-60470136D01*
X223778576Y-60604922D01*
X223777329Y-60761418D01*
X223762739Y-60951813D01*
X223735782Y-61188297D01*
X223726057Y-61265164D01*
X223647801Y-61798384D01*
X223556202Y-62284321D01*
X223452030Y-62720222D01*
X223336059Y-63103336D01*
X223209060Y-63430912D01*
X223071805Y-63700198D01*
X223019768Y-63782735D01*
X222880289Y-63990707D01*
X222986253Y-64056196D01*
X223070936Y-64132701D01*
X223148100Y-64242489D01*
X223203252Y-64361002D01*
X223222098Y-64455916D01*
X223213615Y-64533164D01*
X223180930Y-64595278D01*
X223113188Y-64654948D01*
X222999538Y-64724864D01*
X222985151Y-64732952D01*
X222881134Y-64789644D01*
X222813874Y-64818710D01*
X222765778Y-64823819D01*
X222719251Y-64808639D01*
X222690637Y-64794359D01*
X222592869Y-64717120D01*
X222503771Y-64600943D01*
X222439599Y-64469147D01*
X222423115Y-64410616D01*
X222418934Y-64345948D01*
X222434411Y-64266072D01*
X222473383Y-64156999D01*
X222526300Y-64034320D01*
X222672572Y-63669368D01*
X222801130Y-63263186D01*
X222912483Y-62812819D01*
X223007140Y-62315315D01*
X223085611Y-61767720D01*
X223148405Y-61167078D01*
X223196031Y-60510437D01*
X223221062Y-60005098D01*
X223233204Y-59735865D01*
X223246567Y-59519843D01*
X223263329Y-59347537D01*
X223285669Y-59209448D01*
X223315764Y-59096080D01*
X223355792Y-58997937D01*
X223407931Y-58905521D01*
X223474359Y-58809335D01*
X223504594Y-58768771D01*
X223631072Y-58622067D01*
X223752190Y-58529104D01*
X223878792Y-58483035D01*
X223969952Y-58474994D01*
X224104701Y-58491682D01*
X224231681Y-58536006D01*
X224329211Y-58599016D01*
X224361324Y-58636565D01*
X224419826Y-58683429D01*
X224467696Y-58694383D01*
X224526160Y-58717077D01*
X224614709Y-58779112D01*
X224723558Y-58871418D01*
X224842925Y-58984922D01*
X224963024Y-59110554D01*
X225074071Y-59239242D01*
X225123568Y-59302463D01*
X225217019Y-59435779D01*
X225314250Y-59588607D01*
X225381593Y-59705147D01*
X225438085Y-59805636D01*
X225484362Y-59880330D01*
X225511912Y-59915663D01*
X225514426Y-59916813D01*
X225525395Y-59894180D01*
X225536758Y-59823992D01*
X225548699Y-59703735D01*
X225561402Y-59530896D01*
X225575052Y-59302959D01*
X225589833Y-59017411D01*
X225605929Y-58671737D01*
X225606317Y-58663025D01*
X225619607Y-58389487D01*
X225633840Y-58169299D01*
X225651122Y-57993107D01*
X225660945Y-57931130D01*
X225860005Y-57931130D01*
X225860821Y-58058875D01*
X225862116Y-58088416D01*
X225872005Y-58226208D01*
X225889729Y-58339587D01*
X225920992Y-58450955D01*
X225971503Y-58582714D01*
X226012475Y-58678704D01*
X226094866Y-58886009D01*
X226143997Y-59055747D01*
X226162588Y-59181377D01*
X226163145Y-59274788D01*
X226156474Y-59414469D01*
X226144084Y-59584583D01*
X226127479Y-59769297D01*
X226108168Y-59952773D01*
X226087658Y-60119178D01*
X226067453Y-60252675D01*
X226054518Y-60317160D01*
X226049493Y-60371428D01*
X226059708Y-60387716D01*
X226094364Y-60372795D01*
X226170698Y-60332454D01*
X226276481Y-60273327D01*
X226368849Y-60220024D01*
X226521146Y-60131157D01*
X226684379Y-60036124D01*
X226831810Y-59950485D01*
X226884021Y-59920229D01*
X227112240Y-59788127D01*
X226889341Y-59546995D01*
X226610201Y-59224653D01*
X226374643Y-58909824D01*
X226185322Y-58607050D01*
X226044896Y-58320874D01*
X225956022Y-58055838D01*
X225950040Y-58023436D01*
X226609165Y-58023436D01*
X226644903Y-58187037D01*
X226713530Y-58357761D01*
X226809741Y-58524853D01*
X226928230Y-58677560D01*
X227063690Y-58805126D01*
X227210817Y-58896799D01*
X227220247Y-58901076D01*
X227326390Y-58937596D01*
X227407877Y-58933554D01*
X227489391Y-58887104D01*
X227498240Y-58880255D01*
X227554809Y-58826498D01*
X227580695Y-58783629D01*
X227580864Y-58781321D01*
X227561906Y-58774017D01*
X227519402Y-58803001D01*
X227433862Y-58842490D01*
X227330017Y-58832249D01*
X227215602Y-58779603D01*
X227098357Y-58691876D01*
X226986018Y-58576391D01*
X226886322Y-58440471D01*
X226807008Y-58291441D01*
X226755814Y-58136624D01*
X226744281Y-58069333D01*
X226744467Y-57921376D01*
X226784278Y-57818482D01*
X226862300Y-57763080D01*
X226927928Y-57753642D01*
X226993461Y-57756239D01*
X227004859Y-57772451D01*
X226970694Y-57814908D01*
X226970019Y-57815654D01*
X226928262Y-57905387D01*
X226932605Y-58019925D01*
X226978314Y-58147342D01*
X227060653Y-58275712D01*
X227174890Y-58393111D01*
X227210454Y-58421280D01*
X227302017Y-58465447D01*
X227375525Y-58456357D01*
X227424817Y-58402330D01*
X227443736Y-58311687D01*
X227426120Y-58192748D01*
X227411579Y-58149591D01*
X227341643Y-58019292D01*
X227242578Y-57903493D01*
X227124995Y-57807668D01*
X226999505Y-57737292D01*
X226876720Y-57697839D01*
X226767252Y-57694783D01*
X226681712Y-57733599D01*
X226657580Y-57760619D01*
X226611622Y-57877712D01*
X226609165Y-58023436D01*
X225950040Y-58023436D01*
X225927910Y-57903571D01*
X225911818Y-57807685D01*
X225894855Y-57768471D01*
X225879149Y-57779955D01*
X225866823Y-57836166D01*
X225860005Y-57931130D01*
X225660945Y-57931130D01*
X225673559Y-57851554D01*
X225703257Y-57735287D01*
X225742322Y-57634950D01*
X225792860Y-57541187D01*
X225856977Y-57444645D01*
X225891290Y-57397163D01*
X226011638Y-57251844D01*
X226125836Y-57158369D01*
X226246675Y-57108794D01*
X226377657Y-57095123D01*
X226459599Y-57108398D01*
X226557530Y-57142271D01*
X226653180Y-57187819D01*
X226728280Y-57236118D01*
X226764558Y-57278243D01*
X226765555Y-57284593D01*
X226792572Y-57306563D01*
X226850019Y-57314630D01*
X226915058Y-57338704D01*
X227008331Y-57405169D01*
X227121610Y-57505387D01*
X227246667Y-57630721D01*
X227375275Y-57772532D01*
X227499205Y-57922184D01*
X227610231Y-58071038D01*
X227694984Y-58201682D01*
X227767852Y-58324201D01*
X227815368Y-58398768D01*
X227843942Y-58431507D01*
X227859985Y-58428543D01*
X227869909Y-58396002D01*
X227874169Y-58372869D01*
X227880503Y-58313852D01*
X227888728Y-58202069D01*
X227898262Y-58047422D01*
X227908523Y-57859812D01*
X227918929Y-57649140D01*
X227926254Y-57487099D01*
X227939357Y-57207195D01*
X227953049Y-56981040D01*
X227969277Y-56799682D01*
X227980890Y-56718090D01*
X228178990Y-56718090D01*
X228182610Y-56865453D01*
X228192525Y-57003411D01*
X228210309Y-57117014D01*
X228241670Y-57228703D01*
X228292315Y-57360918D01*
X228332726Y-57455741D01*
X228392812Y-57602727D01*
X228437404Y-57737643D01*
X228467044Y-57870932D01*
X228482275Y-58013040D01*
X228483639Y-58174412D01*
X228471681Y-58365492D01*
X228446941Y-58596725D01*
X228409964Y-58878557D01*
X228407569Y-58895853D01*
X228386145Y-59050287D01*
X228537235Y-58965841D01*
X228625776Y-58915780D01*
X228750971Y-58844248D01*
X228895262Y-58761306D01*
X229023160Y-58687408D01*
X229357994Y-58493421D01*
X229097841Y-58197573D01*
X228830742Y-57872556D01*
X228611412Y-57560188D01*
X228442057Y-57264277D01*
X228324880Y-56988628D01*
X228276093Y-56800473D01*
X228929659Y-56800473D01*
X228965397Y-56964074D01*
X229034024Y-57134798D01*
X229130235Y-57301890D01*
X229248724Y-57454597D01*
X229384184Y-57582163D01*
X229531311Y-57673836D01*
X229540740Y-57678114D01*
X229646884Y-57714633D01*
X229728370Y-57710591D01*
X229809884Y-57664141D01*
X229818734Y-57657292D01*
X229875303Y-57603535D01*
X229901189Y-57560666D01*
X229901358Y-57558358D01*
X229882400Y-57551054D01*
X229839896Y-57580038D01*
X229754356Y-57619527D01*
X229650510Y-57609286D01*
X229536096Y-57556641D01*
X229418851Y-57468913D01*
X229306511Y-57353428D01*
X229206816Y-57217508D01*
X229127502Y-57068478D01*
X229076307Y-56913661D01*
X229064775Y-56846370D01*
X229064961Y-56698413D01*
X229104772Y-56595519D01*
X229182794Y-56540117D01*
X229248422Y-56530679D01*
X229313421Y-56533591D01*
X229324912Y-56549900D01*
X229294736Y-56588025D01*
X229248310Y-56683032D01*
X229251008Y-56801371D01*
X229299443Y-56932079D01*
X229390229Y-57064194D01*
X229465659Y-57141424D01*
X229575058Y-57223173D01*
X229660430Y-57248038D01*
X229723689Y-57216234D01*
X229750231Y-57173611D01*
X229769911Y-57094461D01*
X229756132Y-56997369D01*
X229748723Y-56971197D01*
X229688787Y-56838731D01*
X229597529Y-56718002D01*
X229485159Y-56614754D01*
X229361886Y-56534730D01*
X229237920Y-56483674D01*
X229123469Y-56467328D01*
X229028744Y-56491437D01*
X228978074Y-56537656D01*
X228932116Y-56654749D01*
X228929659Y-56800473D01*
X228276093Y-56800473D01*
X228265846Y-56760957D01*
X228240209Y-56635967D01*
X228216911Y-56571439D01*
X228197745Y-56565118D01*
X228184507Y-56614753D01*
X228178990Y-56718090D01*
X227980890Y-56718090D01*
X227989988Y-56654170D01*
X228017129Y-56535552D01*
X228052647Y-56434874D01*
X228098488Y-56343187D01*
X228156600Y-56251536D01*
X228211783Y-56174200D01*
X228332132Y-56028881D01*
X228446330Y-55935406D01*
X228567169Y-55885831D01*
X228698151Y-55872160D01*
X228780092Y-55885435D01*
G37*
X228780092Y-55885435D02*
X228878024Y-55919308D01*
X228973674Y-55964856D01*
X229048773Y-56013155D01*
X229085051Y-56055280D01*
X229086049Y-56061630D01*
X229112857Y-56084333D01*
X229163297Y-56091667D01*
X229230130Y-56115361D01*
X229325700Y-56180927D01*
X229441081Y-56280086D01*
X229567346Y-56404563D01*
X229695571Y-56546079D01*
X229816828Y-56696358D01*
X229820158Y-56700774D01*
X230067764Y-57073430D01*
X230254775Y-57453581D01*
X230311108Y-57602904D01*
X230352283Y-57718690D01*
X230386733Y-57809852D01*
X230408777Y-57861560D01*
X230412484Y-57867567D01*
X230450633Y-57865679D01*
X230516365Y-57828325D01*
X230595146Y-57766510D01*
X230672440Y-57691236D01*
X230717979Y-57636291D01*
X230823818Y-57521810D01*
X230967938Y-57405052D01*
X231128601Y-57301933D01*
X231265432Y-57235494D01*
X231390864Y-57185686D01*
X231281111Y-57272638D01*
X231079968Y-57457150D01*
X230934357Y-57649897D01*
X230881306Y-57749509D01*
X230834567Y-57864609D01*
X230814998Y-57965899D01*
X230816535Y-58088164D01*
X230818257Y-58111049D01*
X230847526Y-58288483D01*
X230909867Y-58443173D01*
X231013817Y-58590949D01*
X231155338Y-58736072D01*
X231401045Y-58923610D01*
X231691078Y-59077294D01*
X232016445Y-59196296D01*
X232368153Y-59279787D01*
X232737212Y-59326938D01*
X233114630Y-59336919D01*
X233491415Y-59308901D01*
X233858576Y-59242056D01*
X234207120Y-59135554D01*
X234432592Y-59038251D01*
X234691612Y-58889626D01*
X234894525Y-58724412D01*
X235046855Y-58537617D01*
X235109736Y-58426607D01*
X235163188Y-58310754D01*
X235191024Y-58221689D01*
X235198922Y-58131852D01*
X235193191Y-58021453D01*
X235161797Y-57841271D01*
X235093672Y-57680489D01*
X234981052Y-57525083D01*
X234838844Y-57381520D01*
X234758322Y-57305570D01*
X234703180Y-57248926D01*
X234683055Y-57221627D01*
X234684379Y-57220555D01*
X234745510Y-57239131D01*
X234839227Y-57288170D01*
X234950231Y-57357640D01*
X235063220Y-57437508D01*
X235162891Y-57517740D01*
X235218328Y-57570647D01*
X235379735Y-57780158D01*
X235480889Y-57995557D01*
X235523545Y-58213308D01*
X235509453Y-58429874D01*
X235440366Y-58641718D01*
X235318036Y-58845304D01*
X235144216Y-59037095D01*
X234920657Y-59213554D01*
X234649112Y-59371145D01*
X234331333Y-59506330D01*
X234244444Y-59536353D01*
X233845822Y-59641648D01*
X233429565Y-59702665D01*
X233005192Y-59720536D01*
X232582225Y-59696393D01*
X232170184Y-59631369D01*
X231778590Y-59526595D01*
X231416964Y-59383205D01*
X231094825Y-59202331D01*
X231024283Y-59153351D01*
X230844338Y-59007348D01*
X230709107Y-58856686D01*
X230602524Y-58681244D01*
X230544129Y-58552047D01*
X230467291Y-58365123D01*
X230466546Y-58837642D01*
X230471408Y-59107592D01*
X230489466Y-59326837D01*
X230524516Y-59506682D01*
X230580356Y-59658429D01*
X230660781Y-59793382D01*
X230769588Y-59922844D01*
X230861362Y-60013171D01*
X231113957Y-60209950D01*
X231420905Y-60380940D01*
X231778632Y-60524383D01*
X232086066Y-60614864D01*
X232186594Y-60638829D01*
X232281051Y-60656661D01*
X232381162Y-60669207D01*
X232498650Y-60677313D01*
X232645236Y-60681827D01*
X232832644Y-60683593D01*
X233037160Y-60683557D01*
X233265083Y-60682505D01*
X233442286Y-60679942D01*
X233580760Y-60674831D01*
X233692501Y-60666136D01*
X233789499Y-60652821D01*
X233883750Y-60633850D01*
X233987247Y-60608187D01*
X234024938Y-60598216D01*
X234303812Y-60509546D01*
X234574690Y-60396797D01*
X234823153Y-60267310D01*
X235034784Y-60128426D01*
X235166128Y-60017206D01*
X235325797Y-59841064D01*
X235435230Y-59667372D01*
X235503164Y-59477241D01*
X235538339Y-59251783D01*
X235541947Y-59204784D01*
X235561481Y-58913517D01*
X236220000Y-59290744D01*
X236459048Y-59429581D01*
X236648947Y-59544469D01*
X236796455Y-59639884D01*
X236908327Y-59720305D01*
X236991318Y-59790208D01*
X237026634Y-59825296D01*
X237091021Y-59896636D01*
X237142981Y-59964769D01*
X237183842Y-60037234D01*
X237214929Y-60121574D01*
X237237568Y-60225330D01*
X237253087Y-60356043D01*
X237262809Y-60521256D01*
X237268063Y-60728510D01*
X237270175Y-60985345D01*
X237270493Y-61212029D01*
X237270389Y-61474095D01*
X237269716Y-61680823D01*
X237267937Y-61839588D01*
X237264516Y-61957768D01*
X237258913Y-62042741D01*
X237250593Y-62101882D01*
X237239016Y-62142569D01*
X237223646Y-62172179D01*
X237203945Y-62198090D01*
X237198131Y-62205031D01*
X237171048Y-62245066D01*
X237146610Y-62301816D01*
X237122684Y-62384058D01*
X237097140Y-62500567D01*
X237067845Y-62660118D01*
X237032668Y-62871487D01*
X237025643Y-62915113D01*
X236977128Y-63221240D01*
X236938344Y-63477892D01*
X236908216Y-63697371D01*
X236885666Y-63891980D01*
X236869618Y-64074022D01*
X236858995Y-64255799D01*
X236852721Y-64449614D01*
X236849718Y-64667769D01*
X236848911Y-64922567D01*
X236848910Y-64934630D01*
X236851647Y-65284703D01*
X236860860Y-65586205D01*
X236877961Y-65853076D01*
X236904364Y-66099254D01*
X236941484Y-66338681D01*
X236990735Y-66585295D01*
X237036409Y-66783044D01*
X237075121Y-66931328D01*
X237109585Y-67031043D01*
X237145567Y-67095534D01*
X237188833Y-67138145D01*
X237190333Y-67139246D01*
X237284423Y-67238241D01*
X237354897Y-67369429D01*
X237389303Y-67506465D01*
X237389848Y-67561339D01*
X237378164Y-67628271D01*
X237347691Y-67679166D01*
X237284943Y-67730109D01*
X237207777Y-67778512D01*
X237106513Y-67833117D01*
X237017207Y-67870676D01*
X236967159Y-67882154D01*
X236876717Y-67854067D01*
X236786090Y-67780039D01*
X236705859Y-67675911D01*
X236646605Y-67557528D01*
X236618910Y-67440733D01*
X236623988Y-67368318D01*
X236662383Y-67297793D01*
X236730093Y-67229210D01*
X236738341Y-67223100D01*
X236833200Y-67155555D01*
X236769408Y-67052337D01*
X236697784Y-66917497D01*
X236619830Y-66738819D01*
X236542362Y-66533785D01*
X236472198Y-66319879D01*
X236439730Y-66206778D01*
X236328680Y-65690730D01*
X236263806Y-65134042D01*
X236245152Y-64538561D01*
X236272764Y-63906135D01*
X236346688Y-63238613D01*
X236364063Y-63120468D01*
X236386475Y-62966071D01*
X236403394Y-62835278D01*
X236413452Y-62739854D01*
X236415284Y-62691560D01*
X236414258Y-62688188D01*
X236384475Y-62699313D01*
X236308288Y-62737886D01*
X236193433Y-62799701D01*
X236047646Y-62880549D01*
X235878664Y-62976224D01*
X235771758Y-63037610D01*
X235142809Y-63400583D01*
X235111414Y-63548285D01*
X235083925Y-63691847D01*
X235051733Y-63882757D01*
X235016986Y-64106019D01*
X234981833Y-64346640D01*
X234948425Y-64589628D01*
X234918910Y-64819987D01*
X234895436Y-65022725D01*
X234884638Y-65130389D01*
X234871253Y-65331350D01*
X234863249Y-65572626D01*
X234860340Y-65841209D01*
X234862241Y-66124093D01*
X234868666Y-66408269D01*
X234879331Y-66680729D01*
X234893950Y-66928467D01*
X234912238Y-67138474D01*
X234931939Y-67286481D01*
X234979909Y-67552582D01*
X235024634Y-67764419D01*
X235068678Y-67930176D01*
X235114606Y-68058036D01*
X235164982Y-68156182D01*
X235222372Y-68232796D01*
X235231709Y-68242901D01*
X235336476Y-68378735D01*
X235399463Y-68515964D01*
X235414986Y-68640797D01*
X235409458Y-68674085D01*
X235369897Y-68734300D01*
X235289683Y-68803336D01*
X235187432Y-68869508D01*
X235081759Y-68921131D01*
X234991280Y-68946520D01*
X234973993Y-68947413D01*
X234879520Y-68917700D01*
X234786784Y-68841575D01*
X234707571Y-68734532D01*
X234653670Y-68612063D01*
X234636537Y-68503878D01*
X234648766Y-68413297D01*
X234696137Y-68344719D01*
X234735698Y-68310861D01*
X234834976Y-68233164D01*
X234721430Y-68002847D01*
X234551774Y-67595718D01*
X234420603Y-67142857D01*
X234328288Y-66648343D01*
X234275202Y-66116252D01*
X234261719Y-65550661D01*
X234288211Y-64955647D01*
X234355052Y-64335289D01*
X234373936Y-64204264D01*
X234393185Y-64065909D01*
X234406146Y-63951894D01*
X234411488Y-63875530D01*
X234409240Y-63850331D01*
X234378937Y-63860977D01*
X234302267Y-63899248D01*
X234186926Y-63960973D01*
X234040608Y-64041984D01*
X233871005Y-64138111D01*
X233755930Y-64204400D01*
X233118162Y-64574012D01*
X233076950Y-64777839D01*
X233033254Y-65017485D01*
X232989184Y-65301382D01*
X232947047Y-65611124D01*
X232909152Y-65928304D01*
X232877804Y-66234516D01*
X232855312Y-66511352D01*
X232850926Y-66580926D01*
X232837041Y-67260896D01*
X232874335Y-67928607D01*
X232961991Y-68573764D01*
X233039251Y-68949320D01*
X233075051Y-69088901D01*
X233110142Y-69185528D01*
X233153570Y-69258196D01*
X233214381Y-69325903D01*
X233222248Y-69333600D01*
X233314637Y-69447217D01*
X233376664Y-69571938D01*
X233402414Y-69691024D01*
X233385973Y-69787738D01*
X233384053Y-69791471D01*
X233333155Y-69847395D01*
X233244517Y-69913197D01*
X233139012Y-69976448D01*
X233037515Y-70024718D01*
X232960901Y-70045581D01*
X232957077Y-70045693D01*
X232896855Y-70024135D01*
X232822527Y-69969678D01*
X232796210Y-69944074D01*
X232701367Y-69830731D01*
X232649441Y-69728844D01*
X232630344Y-69616350D01*
X232629506Y-69579452D01*
X232637568Y-69490204D01*
X232671358Y-69434880D01*
X232723580Y-69398160D01*
X232786393Y-69356284D01*
X232817058Y-69326473D01*
X232817654Y-69324034D01*
X232804434Y-69289133D01*
X232769410Y-69213405D01*
X232719536Y-69111758D01*
X232707450Y-69087770D01*
X232587921Y-68815073D01*
X232479210Y-68494186D01*
X232385794Y-68139313D01*
X232340191Y-67922496D01*
X232318622Y-67804040D01*
X232301954Y-67694730D01*
X232289607Y-67584060D01*
X232281003Y-67461527D01*
X232275560Y-67316624D01*
X232272701Y-67138848D01*
X232271845Y-66917693D01*
X232272251Y-66690679D01*
X232273983Y-66407395D01*
X232277576Y-66175506D01*
X232283632Y-65983705D01*
X232292753Y-65820684D01*
X232305540Y-65675134D01*
X232322594Y-65535748D01*
X232339776Y-65420679D01*
X232363149Y-65268991D01*
X232381413Y-65141518D01*
X232392988Y-65050005D01*
X232396295Y-65006198D01*
X232395801Y-65004168D01*
X232367751Y-65017543D01*
X232290903Y-65059342D01*
X232170685Y-65126487D01*
X232012527Y-65215896D01*
X231821860Y-65324491D01*
X231604111Y-65449190D01*
X231364712Y-65586913D01*
X231152049Y-65709724D01*
X229917037Y-66424136D01*
X229540740Y-66421214D01*
X229158884Y-66397339D01*
X228743533Y-66334005D01*
X228306388Y-66235233D01*
X227859152Y-66105042D01*
X227413526Y-65947455D01*
X226981213Y-65766492D01*
X226573913Y-65566173D01*
X226203330Y-65350519D01*
X225978191Y-65197105D01*
X225565516Y-64858675D01*
X225187902Y-64475081D01*
X224855204Y-64056899D01*
X224702103Y-63827494D01*
X224625610Y-63702511D01*
X224577619Y-63613142D01*
X224552171Y-63542603D01*
X224543303Y-63474110D01*
X224545054Y-63390879D01*
X224545313Y-63386049D01*
X224554814Y-63210695D01*
X224740233Y-63462019D01*
X224898795Y-63657536D01*
X225095664Y-63870351D01*
X225315282Y-64085641D01*
X225542089Y-64288588D01*
X225760524Y-64464369D01*
X225888003Y-64555273D01*
X226203101Y-64749315D01*
X226564150Y-64942920D01*
X226954789Y-65128552D01*
X227358655Y-65298678D01*
X227759386Y-65445761D01*
X227965455Y-65511962D01*
X228168441Y-65569009D01*
X228395645Y-65625212D01*
X228632245Y-65677591D01*
X228863419Y-65723167D01*
X229074346Y-65758963D01*
X229250202Y-65782000D01*
X229343487Y-65788903D01*
X229572098Y-65796975D01*
X229582274Y-65671941D01*
X229596687Y-65581689D01*
X229619535Y-65515938D01*
X229625312Y-65507311D01*
X229646613Y-65471526D01*
X229630338Y-65467659D01*
X229589417Y-65490450D01*
X229536781Y-65534636D01*
X229522688Y-65549069D01*
X229475047Y-65594056D01*
X229426942Y-65615641D01*
X229357124Y-65618699D01*
X229258518Y-65609678D01*
X228976796Y-65568409D01*
X228655459Y-65503957D01*
X228311288Y-65420571D01*
X227961068Y-65322500D01*
X227621580Y-65213991D01*
X227508820Y-65173851D01*
X228293984Y-65173851D01*
X228556745Y-65241903D01*
X228752909Y-65291851D01*
X228929909Y-65335297D01*
X229077133Y-65369751D01*
X229183970Y-65392721D01*
X229236921Y-65401526D01*
X229261850Y-65386160D01*
X229266199Y-65326968D01*
X229260490Y-65271728D01*
X229250348Y-65193828D01*
X229234152Y-65068393D01*
X229213790Y-64910098D01*
X229191152Y-64733618D01*
X229180360Y-64649323D01*
X229154112Y-64464765D01*
X229125996Y-64294986D01*
X231070946Y-64294986D01*
X231076430Y-64297471D01*
X231102123Y-64278474D01*
X231148393Y-64253906D01*
X231243161Y-64211881D01*
X231376103Y-64156688D01*
X231536890Y-64092614D01*
X231713605Y-64024552D01*
X231912555Y-63948194D01*
X232059708Y-63888902D01*
X232162472Y-63843044D01*
X232228251Y-63806987D01*
X232264451Y-63777098D01*
X232278478Y-63749744D01*
X232278909Y-63747266D01*
X232288169Y-63701137D01*
X232307018Y-63685916D01*
X232349582Y-63702436D01*
X232429986Y-63751525D01*
X232438059Y-63756621D01*
X232521517Y-63824754D01*
X232573489Y-63897222D01*
X232579144Y-63913411D01*
X232606898Y-63979865D01*
X232640874Y-63984009D01*
X232680656Y-63925893D01*
X232692485Y-63899180D01*
X232764109Y-63783561D01*
X232862797Y-63698614D01*
X232971957Y-63656519D01*
X233024757Y-63655284D01*
X233091676Y-63659300D01*
X233109419Y-63643615D01*
X233095457Y-63609336D01*
X233017117Y-63523323D01*
X232899394Y-63463141D01*
X232762031Y-63433700D01*
X232624768Y-63439908D01*
X232535432Y-63470050D01*
X232331074Y-63555238D01*
X232116466Y-63611451D01*
X232010752Y-63625905D01*
X231852839Y-63661655D01*
X231708484Y-63734839D01*
X231597307Y-63834060D01*
X231562077Y-63886483D01*
X231513317Y-63944128D01*
X231429032Y-64014609D01*
X231344007Y-64072175D01*
X231241415Y-64139764D01*
X231153356Y-64206939D01*
X231107033Y-64250538D01*
X231070946Y-64294986D01*
X229125996Y-64294986D01*
X229122019Y-64270974D01*
X229086384Y-64078863D01*
X229049512Y-63899349D01*
X229013708Y-63743346D01*
X228981277Y-63621768D01*
X228954523Y-63545530D01*
X228943437Y-63527244D01*
X228913456Y-63536425D01*
X228862691Y-63593531D01*
X228796470Y-63689464D01*
X228720120Y-63815126D01*
X228638969Y-63961420D01*
X228558344Y-64119248D01*
X228483572Y-64279512D01*
X228433988Y-64397221D01*
X228365372Y-64592584D01*
X228325886Y-64769765D01*
X228310049Y-64920969D01*
X228293984Y-65173851D01*
X227508820Y-65173851D01*
X227439753Y-65149265D01*
X226872031Y-64916793D01*
X226359524Y-64660335D01*
X225898341Y-64376876D01*
X225484593Y-64063404D01*
X225114388Y-63716904D01*
X224783838Y-63334365D01*
X224489050Y-62912771D01*
X224431317Y-62818981D01*
X224374988Y-62719576D01*
X224334850Y-62637563D01*
X224319901Y-62591694D01*
X224695926Y-62591694D01*
X224702239Y-62675582D01*
X224726793Y-62752046D01*
X224778008Y-62840702D01*
X224841100Y-62929874D01*
X224971062Y-63092565D01*
X225136257Y-63278642D01*
X225322195Y-63473263D01*
X225514388Y-63661588D01*
X225698349Y-63828774D01*
X225807307Y-63919607D01*
X225912418Y-64001074D01*
X225998323Y-64063584D01*
X226054140Y-64099457D01*
X226069479Y-64104615D01*
X226070676Y-64070471D01*
X226065819Y-63996932D01*
X226169753Y-63996932D01*
X226173072Y-64103325D01*
X226188136Y-64168310D01*
X226222598Y-64213063D01*
X226257797Y-64240459D01*
X226328473Y-64287427D01*
X226423805Y-64346473D01*
X226529943Y-64409593D01*
X226633039Y-64468781D01*
X226719243Y-64516033D01*
X226774707Y-64543344D01*
X226787638Y-64546703D01*
X226786234Y-64514609D01*
X226777452Y-64430259D01*
X226777289Y-64428875D01*
X226875157Y-64428875D01*
X226880740Y-64507335D01*
X226893160Y-64559713D01*
X226918215Y-64600760D01*
X226967378Y-64639833D01*
X227052120Y-64686291D01*
X227168994Y-64742484D01*
X227307174Y-64806757D01*
X227398498Y-64846610D01*
X227452487Y-64865090D01*
X227478666Y-64865247D01*
X227486558Y-64850127D01*
X227486790Y-64844205D01*
X227484523Y-64821507D01*
X227596052Y-64821507D01*
X227626166Y-64898466D01*
X227695633Y-64956971D01*
X227811401Y-65010847D01*
X227864571Y-65031327D01*
X228002760Y-65081865D01*
X228092930Y-65109515D01*
X228145202Y-65114912D01*
X228169695Y-65098692D01*
X228176528Y-65061489D01*
X228176666Y-65050920D01*
X228170819Y-64927824D01*
X228154757Y-64776097D01*
X228130703Y-64607004D01*
X228100877Y-64431811D01*
X228067501Y-64261782D01*
X228032797Y-64108183D01*
X227998986Y-63982279D01*
X227968288Y-63895336D01*
X227942926Y-63858617D01*
X227941481Y-63858232D01*
X227909273Y-63881837D01*
X227863169Y-63952313D01*
X227808898Y-64056964D01*
X227752192Y-64183093D01*
X227698781Y-64318006D01*
X227654396Y-64449007D01*
X227626087Y-64556936D01*
X227598342Y-64712272D01*
X227596052Y-64821507D01*
X227484523Y-64821507D01*
X227482870Y-64804964D01*
X227472060Y-64714955D01*
X227455781Y-64585570D01*
X227435457Y-64428205D01*
X227423173Y-64334637D01*
X227386998Y-64080698D01*
X227350315Y-63860549D01*
X227314475Y-63680691D01*
X227280830Y-63547626D01*
X227250733Y-63467857D01*
X227239668Y-63452002D01*
X227214195Y-63464482D01*
X227170931Y-63522045D01*
X227116925Y-63612184D01*
X227059221Y-63722394D01*
X227004865Y-63840168D01*
X226966686Y-63936526D01*
X226917810Y-64103620D01*
X226886132Y-64275497D01*
X226875157Y-64428875D01*
X226777289Y-64428875D01*
X226762459Y-64303532D01*
X226742421Y-64144304D01*
X226719081Y-63966730D01*
X226690970Y-63768519D01*
X226661056Y-63577391D01*
X226631821Y-63407891D01*
X226605749Y-63274569D01*
X226588974Y-63204229D01*
X226558866Y-63102655D01*
X226537222Y-63052758D01*
X226517247Y-63045384D01*
X226492143Y-63071378D01*
X226491234Y-63072587D01*
X226394313Y-63229523D01*
X226306182Y-63422683D01*
X226234367Y-63630429D01*
X226186393Y-63831122D01*
X226169753Y-63996932D01*
X226065819Y-63996932D01*
X226065064Y-63985501D01*
X226053624Y-63861106D01*
X226037337Y-63708691D01*
X226029736Y-63642869D01*
X225993710Y-63362129D01*
X225957082Y-63123869D01*
X225920721Y-62932154D01*
X225885495Y-62791049D01*
X225852274Y-62704617D01*
X225823313Y-62676852D01*
X225795575Y-62702964D01*
X225750791Y-62771796D01*
X225698125Y-62869086D01*
X225692359Y-62880679D01*
X225640896Y-62979986D01*
X225598553Y-63052525D01*
X225573672Y-63084135D01*
X225572308Y-63084506D01*
X225561562Y-63055319D01*
X225546780Y-62975866D01*
X225529918Y-62858311D01*
X225513064Y-62716049D01*
X225475122Y-62402021D01*
X225468584Y-62357589D01*
X226075679Y-62357589D01*
X226085699Y-62498198D01*
X226111121Y-62647447D01*
X226127397Y-62710358D01*
X226179116Y-62880679D01*
X226239860Y-62747688D01*
X226812541Y-62747688D01*
X226817772Y-62847445D01*
X226832343Y-62961026D01*
X226853459Y-63074335D01*
X226878324Y-63173273D01*
X226904142Y-63243742D01*
X226928117Y-63271643D01*
X226936770Y-63267500D01*
X226952368Y-63235634D01*
X226985525Y-63160309D01*
X227001091Y-63123724D01*
X227519998Y-63123724D01*
X227525914Y-63226619D01*
X227537634Y-63342332D01*
X227553665Y-63454517D01*
X227572511Y-63546822D01*
X227582651Y-63580771D01*
X227607659Y-63638922D01*
X227631667Y-63657400D01*
X227660212Y-63631296D01*
X227698834Y-63555700D01*
X227700028Y-63552841D01*
X228218030Y-63552841D01*
X228223488Y-63648443D01*
X228238580Y-63760266D01*
X228260376Y-63874112D01*
X228285950Y-63975786D01*
X228312371Y-64051089D01*
X228336714Y-64085824D01*
X228347881Y-64082809D01*
X228363476Y-64050945D01*
X228396638Y-63975609D01*
X228441020Y-63871305D01*
X228454674Y-63838690D01*
X228503435Y-63720169D01*
X228525611Y-63644015D01*
X228516703Y-63593894D01*
X228472211Y-63553476D01*
X228387635Y-63506427D01*
X228358968Y-63491327D01*
X228285462Y-63454611D01*
X228248846Y-63447722D01*
X228231107Y-63470166D01*
X228225132Y-63487658D01*
X228218030Y-63552841D01*
X227700028Y-63552841D01*
X227750583Y-63431877D01*
X227791170Y-63328043D01*
X227820271Y-63247680D01*
X227831114Y-63209938D01*
X233073793Y-63209938D01*
X233079104Y-63229762D01*
X233121899Y-63201310D01*
X233134772Y-63190067D01*
X233187759Y-63157862D01*
X233288844Y-63109583D01*
X233426975Y-63050017D01*
X233591105Y-62983949D01*
X233750184Y-62923524D01*
X233951676Y-62847731D01*
X234099908Y-62788420D01*
X234201236Y-62742600D01*
X234262017Y-62707281D01*
X234288606Y-62679473D01*
X234291110Y-62669012D01*
X234309847Y-62622589D01*
X234330679Y-62614253D01*
X234406780Y-62637338D01*
X234492387Y-62693497D01*
X234562911Y-62763648D01*
X234591940Y-62816990D01*
X234618458Y-62882617D01*
X234650187Y-62886216D01*
X234688129Y-62827677D01*
X234697852Y-62805381D01*
X234779128Y-62674366D01*
X234890314Y-62593704D01*
X235013576Y-62568524D01*
X235090541Y-62565901D01*
X235116540Y-62552268D01*
X235103278Y-62518980D01*
X235095941Y-62507690D01*
X235019125Y-62433682D01*
X234907433Y-62371811D01*
X234788683Y-62335916D01*
X234742612Y-62331913D01*
X234660428Y-62345058D01*
X234550401Y-62379034D01*
X234465519Y-62413624D01*
X234328189Y-62464692D01*
X234173201Y-62505479D01*
X234091118Y-62519632D01*
X233909210Y-62554596D01*
X233769882Y-62613672D01*
X233654809Y-62706009D01*
X233604762Y-62762432D01*
X233529975Y-62838889D01*
X233423562Y-62929376D01*
X233307481Y-63015331D01*
X233297936Y-63021790D01*
X233197594Y-63093575D01*
X233119408Y-63157836D01*
X233077124Y-63203034D01*
X233073793Y-63209938D01*
X227831114Y-63209938D01*
X227831721Y-63207828D01*
X227831728Y-63207511D01*
X227807203Y-63181307D01*
X227746512Y-63137839D01*
X227668983Y-63089065D01*
X227593941Y-63046943D01*
X227540715Y-63023431D01*
X227531556Y-63021790D01*
X227521380Y-63049998D01*
X227519998Y-63123724D01*
X227001091Y-63123724D01*
X227029887Y-63056047D01*
X227043385Y-63023806D01*
X227087625Y-62915166D01*
X227119404Y-62832098D01*
X227133437Y-62788599D01*
X227133415Y-62785370D01*
X227104559Y-62768117D01*
X227038155Y-62729414D01*
X226981069Y-62696394D01*
X226896938Y-62649384D01*
X226851758Y-62632397D01*
X226830502Y-62643525D01*
X226819446Y-62675856D01*
X226812541Y-62747688D01*
X226239860Y-62747688D01*
X226267027Y-62688212D01*
X226315294Y-62577409D01*
X226353883Y-62479549D01*
X226372767Y-62421669D01*
X226375352Y-62374744D01*
X226349040Y-62334948D01*
X226282356Y-62289110D01*
X226233137Y-62261367D01*
X226075679Y-62175142D01*
X226075679Y-62357589D01*
X225468584Y-62357589D01*
X225431187Y-62103473D01*
X225383380Y-61832568D01*
X225361689Y-61731410D01*
X227863673Y-61731410D01*
X227891664Y-61768357D01*
X227973627Y-61831630D01*
X228107342Y-61919705D01*
X228290587Y-62031058D01*
X228357562Y-62070333D01*
X228516182Y-62162109D01*
X228656237Y-62242067D01*
X228768703Y-62305143D01*
X228844556Y-62346273D01*
X228874382Y-62360395D01*
X228894058Y-62336998D01*
X228897901Y-62306417D01*
X228904165Y-62286532D01*
X228927934Y-62268624D01*
X228976674Y-62250911D01*
X229057853Y-62231612D01*
X229178937Y-62208942D01*
X229347391Y-62181121D01*
X229459919Y-62163599D01*
X235049781Y-62163599D01*
X235060038Y-62165315D01*
X235109342Y-62128331D01*
X235117480Y-62121934D01*
X235172765Y-62090382D01*
X235275801Y-62042451D01*
X235415315Y-61982968D01*
X235580037Y-61916763D01*
X235732970Y-61858243D01*
X235941261Y-61778536D01*
X236094252Y-61715531D01*
X236196470Y-61667110D01*
X236252440Y-61631157D01*
X236267037Y-61608508D01*
X236276242Y-61555463D01*
X236310782Y-61542054D01*
X236381039Y-61567125D01*
X236427150Y-61590693D01*
X236526750Y-61662608D01*
X236570487Y-61743950D01*
X236593554Y-61811744D01*
X236624857Y-61821834D01*
X236667767Y-61773260D01*
X236705719Y-61705399D01*
X236785266Y-61596621D01*
X236888011Y-61521443D01*
X236996733Y-61490793D01*
X237039333Y-61493691D01*
X237099849Y-61496566D01*
X237106195Y-61470742D01*
X237058428Y-61414794D01*
X237043148Y-61400557D01*
X236921683Y-61311999D01*
X236796503Y-61270894D01*
X236655756Y-61276475D01*
X236487588Y-61327976D01*
X236413174Y-61359815D01*
X236264044Y-61416942D01*
X236129076Y-61449568D01*
X236071738Y-61454577D01*
X235899170Y-61482028D01*
X235735872Y-61555374D01*
X235605838Y-61663717D01*
X235602381Y-61667774D01*
X235547827Y-61735748D01*
X235513431Y-61784440D01*
X235509604Y-61791728D01*
X235479272Y-61820004D01*
X235409281Y-61870001D01*
X235313977Y-61931554D01*
X235300863Y-61939637D01*
X235198752Y-62007753D01*
X235116480Y-62072699D01*
X235070863Y-62121108D01*
X235069508Y-62123476D01*
X235049781Y-62163599D01*
X229459919Y-62163599D01*
X229564259Y-62147352D01*
X229762042Y-62116061D01*
X229938922Y-62086263D01*
X230085463Y-62059697D01*
X230192228Y-62038101D01*
X230249781Y-62023213D01*
X230256643Y-62019821D01*
X230280958Y-61981244D01*
X230322429Y-61900894D01*
X230375259Y-61791563D01*
X230433650Y-61666041D01*
X230491804Y-61537119D01*
X230543923Y-61417586D01*
X230584210Y-61320235D01*
X230606865Y-61257854D01*
X230609252Y-61241948D01*
X230577429Y-61220634D01*
X230505885Y-61176831D01*
X230409196Y-61119440D01*
X230394604Y-61110898D01*
X230193470Y-60993362D01*
X230079079Y-61058996D01*
X230011180Y-61102702D01*
X229977309Y-61147385D01*
X229965647Y-61216331D01*
X229964381Y-61285030D01*
X229940138Y-61443280D01*
X229867103Y-61567633D01*
X229743810Y-61659033D01*
X229568791Y-61718423D01*
X229340581Y-61746749D01*
X229242839Y-61749542D01*
X229094389Y-61748563D01*
X228987804Y-61740498D01*
X228902327Y-61721643D01*
X228817197Y-61688298D01*
X228767857Y-61664828D01*
X228623613Y-61572631D01*
X228534640Y-61460267D01*
X228494301Y-61317598D01*
X228490247Y-61240771D01*
X228490247Y-61115527D01*
X228686234Y-61176703D01*
X228885006Y-61228459D01*
X229065944Y-61255971D01*
X229217323Y-61258434D01*
X229327416Y-61235042D01*
X229351352Y-61222399D01*
X229412307Y-61148934D01*
X229432906Y-61050152D01*
X229411557Y-60950040D01*
X229373137Y-60894310D01*
X229346916Y-60864551D01*
X229347452Y-60844546D01*
X229384444Y-60829108D01*
X229467593Y-60813047D01*
X229549289Y-60800080D01*
X229804570Y-60741431D01*
X230016522Y-60655113D01*
X230183563Y-60546650D01*
X230304109Y-60421566D01*
X230376580Y-60285384D01*
X230399392Y-60143628D01*
X230370965Y-60001821D01*
X230289714Y-59865486D01*
X230154060Y-59740147D01*
X229962418Y-59631328D01*
X229892405Y-59602202D01*
X229642921Y-59528222D01*
X229381215Y-59490202D01*
X229117665Y-59486459D01*
X228862650Y-59515312D01*
X228626548Y-59575076D01*
X228419736Y-59664070D01*
X228252593Y-59780610D01*
X228161034Y-59882904D01*
X228120199Y-59943891D01*
X228093291Y-59998132D01*
X228077409Y-60060698D01*
X228069654Y-60146660D01*
X228067127Y-60271088D01*
X228066913Y-60372111D01*
X228068014Y-60529595D01*
X228072853Y-60638573D01*
X228083736Y-60713239D01*
X228102967Y-60767787D01*
X228132851Y-60816410D01*
X228140849Y-60827403D01*
X228214785Y-60927407D01*
X228038935Y-61303540D01*
X227973353Y-61447667D01*
X227918972Y-61574514D01*
X227880850Y-61671733D01*
X227864046Y-61726978D01*
X227863673Y-61731410D01*
X225361689Y-61731410D01*
X225333825Y-61601469D01*
X225290440Y-61440635D01*
X225223148Y-61223555D01*
X225125999Y-61377919D01*
X225015370Y-61574208D01*
X224913131Y-61793743D01*
X224824677Y-62021295D01*
X224755404Y-62241636D01*
X224710709Y-62439537D01*
X224695926Y-62591694D01*
X224319901Y-62591694D01*
X224319629Y-62590862D01*
X224345901Y-62551899D01*
X224410643Y-62510636D01*
X224425966Y-62503789D01*
X224532303Y-62459359D01*
X224543621Y-62102810D01*
X224549678Y-61945036D01*
X224558937Y-61830769D01*
X224575736Y-61740807D01*
X224604414Y-61655952D01*
X224649310Y-61557003D01*
X224681927Y-61490745D01*
X224808914Y-61235229D01*
X224671644Y-61101534D01*
X224435321Y-60854698D01*
X224215714Y-60592999D01*
X224018138Y-60324902D01*
X223847906Y-60058867D01*
X223710333Y-59803360D01*
X223610732Y-59566841D01*
X223554418Y-59357775D01*
X223552361Y-59343389D01*
X224220310Y-59343389D01*
X224240242Y-59495693D01*
X224290330Y-59660474D01*
X224367674Y-59825481D01*
X224469374Y-59978463D01*
X224490702Y-60004557D01*
X224578547Y-60092860D01*
X224687434Y-60180986D01*
X224797327Y-60254375D01*
X224888187Y-60298468D01*
X224899911Y-60301905D01*
X224953172Y-60316283D01*
X224968267Y-60321362D01*
X224998109Y-60314321D01*
X225052595Y-60295143D01*
X225125726Y-60248877D01*
X225164855Y-60202260D01*
X225184118Y-60161932D01*
X225172267Y-60156701D01*
X225118653Y-60184917D01*
X225104623Y-60192919D01*
X225045848Y-60222769D01*
X224998301Y-60228199D01*
X224938111Y-60207034D01*
X224868419Y-60171398D01*
X224705502Y-60057686D01*
X224562349Y-59905866D01*
X224448957Y-59731108D01*
X224375325Y-59548584D01*
X224351294Y-59386728D01*
X224357902Y-59341142D01*
X224555942Y-59341142D01*
X224587246Y-59510070D01*
X224675325Y-59660218D01*
X224815123Y-59783306D01*
X224832829Y-59794466D01*
X224905067Y-59837217D01*
X224946488Y-59849732D01*
X224980620Y-59833078D01*
X225014876Y-59802732D01*
X225059903Y-59736220D01*
X225071533Y-59685140D01*
X225048584Y-59572177D01*
X224989639Y-59452199D01*
X224906249Y-59338739D01*
X224809965Y-59245333D01*
X224712340Y-59185516D01*
X224633209Y-59171549D01*
X224587014Y-59182257D01*
X224563920Y-59211901D01*
X224556282Y-59277261D01*
X224555942Y-59341142D01*
X224357902Y-59341142D01*
X224370602Y-59253544D01*
X224429236Y-59169206D01*
X224527214Y-59133691D01*
X224551835Y-59132441D01*
X224613111Y-59128844D01*
X224618588Y-59116151D01*
X224592997Y-59098957D01*
X224487012Y-59066064D01*
X224374991Y-59074842D01*
X224284848Y-59122931D01*
X224282517Y-59125212D01*
X224233435Y-59215812D01*
X224220310Y-59343389D01*
X223552361Y-59343389D01*
X223547829Y-59311708D01*
X223531107Y-59203757D01*
X223513716Y-59153440D01*
X223497650Y-59155731D01*
X223484905Y-59205605D01*
X223477477Y-59298037D01*
X223477359Y-59428000D01*
X223479527Y-59483748D01*
X223488934Y-59626852D01*
X223504890Y-59738752D01*
X223533334Y-59842661D01*
X223580206Y-59961796D01*
X223630582Y-60074136D01*
X223692482Y-60216932D01*
X223737129Y-60344869D01*
X223765501Y-60470136D01*
X223778576Y-60604922D01*
X223777329Y-60761418D01*
X223762739Y-60951813D01*
X223735782Y-61188297D01*
X223726057Y-61265164D01*
X223647801Y-61798384D01*
X223556202Y-62284321D01*
X223452030Y-62720222D01*
X223336059Y-63103336D01*
X223209060Y-63430912D01*
X223071805Y-63700198D01*
X223019768Y-63782735D01*
X222880289Y-63990707D01*
X222986253Y-64056196D01*
X223070936Y-64132701D01*
X223148100Y-64242489D01*
X223203252Y-64361002D01*
X223222098Y-64455916D01*
X223213615Y-64533164D01*
X223180930Y-64595278D01*
X223113188Y-64654948D01*
X222999538Y-64724864D01*
X222985151Y-64732952D01*
X222881134Y-64789644D01*
X222813874Y-64818710D01*
X222765778Y-64823819D01*
X222719251Y-64808639D01*
X222690637Y-64794359D01*
X222592869Y-64717120D01*
X222503771Y-64600943D01*
X222439599Y-64469147D01*
X222423115Y-64410616D01*
X222418934Y-64345948D01*
X222434411Y-64266072D01*
X222473383Y-64156999D01*
X222526300Y-64034320D01*
X222672572Y-63669368D01*
X222801130Y-63263186D01*
X222912483Y-62812819D01*
X223007140Y-62315315D01*
X223085611Y-61767720D01*
X223148405Y-61167078D01*
X223196031Y-60510437D01*
X223221062Y-60005098D01*
X223233204Y-59735865D01*
X223246567Y-59519843D01*
X223263329Y-59347537D01*
X223285669Y-59209448D01*
X223315764Y-59096080D01*
X223355792Y-58997937D01*
X223407931Y-58905521D01*
X223474359Y-58809335D01*
X223504594Y-58768771D01*
X223631072Y-58622067D01*
X223752190Y-58529104D01*
X223878792Y-58483035D01*
X223969952Y-58474994D01*
X224104701Y-58491682D01*
X224231681Y-58536006D01*
X224329211Y-58599016D01*
X224361324Y-58636565D01*
X224419826Y-58683429D01*
X224467696Y-58694383D01*
X224526160Y-58717077D01*
X224614709Y-58779112D01*
X224723558Y-58871418D01*
X224842925Y-58984922D01*
X224963024Y-59110554D01*
X225074071Y-59239242D01*
X225123568Y-59302463D01*
X225217019Y-59435779D01*
X225314250Y-59588607D01*
X225381593Y-59705147D01*
X225438085Y-59805636D01*
X225484362Y-59880330D01*
X225511912Y-59915663D01*
X225514426Y-59916813D01*
X225525395Y-59894180D01*
X225536758Y-59823992D01*
X225548699Y-59703735D01*
X225561402Y-59530896D01*
X225575052Y-59302959D01*
X225589833Y-59017411D01*
X225605929Y-58671737D01*
X225606317Y-58663025D01*
X225619607Y-58389487D01*
X225633840Y-58169299D01*
X225651122Y-57993107D01*
X225660945Y-57931130D01*
X225860005Y-57931130D01*
X225860821Y-58058875D01*
X225862116Y-58088416D01*
X225872005Y-58226208D01*
X225889729Y-58339587D01*
X225920992Y-58450955D01*
X225971503Y-58582714D01*
X226012475Y-58678704D01*
X226094866Y-58886009D01*
X226143997Y-59055747D01*
X226162588Y-59181377D01*
X226163145Y-59274788D01*
X226156474Y-59414469D01*
X226144084Y-59584583D01*
X226127479Y-59769297D01*
X226108168Y-59952773D01*
X226087658Y-60119178D01*
X226067453Y-60252675D01*
X226054518Y-60317160D01*
X226049493Y-60371428D01*
X226059708Y-60387716D01*
X226094364Y-60372795D01*
X226170698Y-60332454D01*
X226276481Y-60273327D01*
X226368849Y-60220024D01*
X226521146Y-60131157D01*
X226684379Y-60036124D01*
X226831810Y-59950485D01*
X226884021Y-59920229D01*
X227112240Y-59788127D01*
X226889341Y-59546995D01*
X226610201Y-59224653D01*
X226374643Y-58909824D01*
X226185322Y-58607050D01*
X226044896Y-58320874D01*
X225956022Y-58055838D01*
X225950040Y-58023436D01*
X226609165Y-58023436D01*
X226644903Y-58187037D01*
X226713530Y-58357761D01*
X226809741Y-58524853D01*
X226928230Y-58677560D01*
X227063690Y-58805126D01*
X227210817Y-58896799D01*
X227220247Y-58901076D01*
X227326390Y-58937596D01*
X227407877Y-58933554D01*
X227489391Y-58887104D01*
X227498240Y-58880255D01*
X227554809Y-58826498D01*
X227580695Y-58783629D01*
X227580864Y-58781321D01*
X227561906Y-58774017D01*
X227519402Y-58803001D01*
X227433862Y-58842490D01*
X227330017Y-58832249D01*
X227215602Y-58779603D01*
X227098357Y-58691876D01*
X226986018Y-58576391D01*
X226886322Y-58440471D01*
X226807008Y-58291441D01*
X226755814Y-58136624D01*
X226744281Y-58069333D01*
X226744467Y-57921376D01*
X226784278Y-57818482D01*
X226862300Y-57763080D01*
X226927928Y-57753642D01*
X226993461Y-57756239D01*
X227004859Y-57772451D01*
X226970694Y-57814908D01*
X226970019Y-57815654D01*
X226928262Y-57905387D01*
X226932605Y-58019925D01*
X226978314Y-58147342D01*
X227060653Y-58275712D01*
X227174890Y-58393111D01*
X227210454Y-58421280D01*
X227302017Y-58465447D01*
X227375525Y-58456357D01*
X227424817Y-58402330D01*
X227443736Y-58311687D01*
X227426120Y-58192748D01*
X227411579Y-58149591D01*
X227341643Y-58019292D01*
X227242578Y-57903493D01*
X227124995Y-57807668D01*
X226999505Y-57737292D01*
X226876720Y-57697839D01*
X226767252Y-57694783D01*
X226681712Y-57733599D01*
X226657580Y-57760619D01*
X226611622Y-57877712D01*
X226609165Y-58023436D01*
X225950040Y-58023436D01*
X225927910Y-57903571D01*
X225911818Y-57807685D01*
X225894855Y-57768471D01*
X225879149Y-57779955D01*
X225866823Y-57836166D01*
X225860005Y-57931130D01*
X225660945Y-57931130D01*
X225673559Y-57851554D01*
X225703257Y-57735287D01*
X225742322Y-57634950D01*
X225792860Y-57541187D01*
X225856977Y-57444645D01*
X225891290Y-57397163D01*
X226011638Y-57251844D01*
X226125836Y-57158369D01*
X226246675Y-57108794D01*
X226377657Y-57095123D01*
X226459599Y-57108398D01*
X226557530Y-57142271D01*
X226653180Y-57187819D01*
X226728280Y-57236118D01*
X226764558Y-57278243D01*
X226765555Y-57284593D01*
X226792572Y-57306563D01*
X226850019Y-57314630D01*
X226915058Y-57338704D01*
X227008331Y-57405169D01*
X227121610Y-57505387D01*
X227246667Y-57630721D01*
X227375275Y-57772532D01*
X227499205Y-57922184D01*
X227610231Y-58071038D01*
X227694984Y-58201682D01*
X227767852Y-58324201D01*
X227815368Y-58398768D01*
X227843942Y-58431507D01*
X227859985Y-58428543D01*
X227869909Y-58396002D01*
X227874169Y-58372869D01*
X227880503Y-58313852D01*
X227888728Y-58202069D01*
X227898262Y-58047422D01*
X227908523Y-57859812D01*
X227918929Y-57649140D01*
X227926254Y-57487099D01*
X227939357Y-57207195D01*
X227953049Y-56981040D01*
X227969277Y-56799682D01*
X227980890Y-56718090D01*
X228178990Y-56718090D01*
X228182610Y-56865453D01*
X228192525Y-57003411D01*
X228210309Y-57117014D01*
X228241670Y-57228703D01*
X228292315Y-57360918D01*
X228332726Y-57455741D01*
X228392812Y-57602727D01*
X228437404Y-57737643D01*
X228467044Y-57870932D01*
X228482275Y-58013040D01*
X228483639Y-58174412D01*
X228471681Y-58365492D01*
X228446941Y-58596725D01*
X228409964Y-58878557D01*
X228407569Y-58895853D01*
X228386145Y-59050287D01*
X228537235Y-58965841D01*
X228625776Y-58915780D01*
X228750971Y-58844248D01*
X228895262Y-58761306D01*
X229023160Y-58687408D01*
X229357994Y-58493421D01*
X229097841Y-58197573D01*
X228830742Y-57872556D01*
X228611412Y-57560188D01*
X228442057Y-57264277D01*
X228324880Y-56988628D01*
X228276093Y-56800473D01*
X228929659Y-56800473D01*
X228965397Y-56964074D01*
X229034024Y-57134798D01*
X229130235Y-57301890D01*
X229248724Y-57454597D01*
X229384184Y-57582163D01*
X229531311Y-57673836D01*
X229540740Y-57678114D01*
X229646884Y-57714633D01*
X229728370Y-57710591D01*
X229809884Y-57664141D01*
X229818734Y-57657292D01*
X229875303Y-57603535D01*
X229901189Y-57560666D01*
X229901358Y-57558358D01*
X229882400Y-57551054D01*
X229839896Y-57580038D01*
X229754356Y-57619527D01*
X229650510Y-57609286D01*
X229536096Y-57556641D01*
X229418851Y-57468913D01*
X229306511Y-57353428D01*
X229206816Y-57217508D01*
X229127502Y-57068478D01*
X229076307Y-56913661D01*
X229064775Y-56846370D01*
X229064961Y-56698413D01*
X229104772Y-56595519D01*
X229182794Y-56540117D01*
X229248422Y-56530679D01*
X229313421Y-56533591D01*
X229324912Y-56549900D01*
X229294736Y-56588025D01*
X229248310Y-56683032D01*
X229251008Y-56801371D01*
X229299443Y-56932079D01*
X229390229Y-57064194D01*
X229465659Y-57141424D01*
X229575058Y-57223173D01*
X229660430Y-57248038D01*
X229723689Y-57216234D01*
X229750231Y-57173611D01*
X229769911Y-57094461D01*
X229756132Y-56997369D01*
X229748723Y-56971197D01*
X229688787Y-56838731D01*
X229597529Y-56718002D01*
X229485159Y-56614754D01*
X229361886Y-56534730D01*
X229237920Y-56483674D01*
X229123469Y-56467328D01*
X229028744Y-56491437D01*
X228978074Y-56537656D01*
X228932116Y-56654749D01*
X228929659Y-56800473D01*
X228276093Y-56800473D01*
X228265846Y-56760957D01*
X228240209Y-56635967D01*
X228216911Y-56571439D01*
X228197745Y-56565118D01*
X228184507Y-56614753D01*
X228178990Y-56718090D01*
X227980890Y-56718090D01*
X227989988Y-56654170D01*
X228017129Y-56535552D01*
X228052647Y-56434874D01*
X228098488Y-56343187D01*
X228156600Y-56251536D01*
X228211783Y-56174200D01*
X228332132Y-56028881D01*
X228446330Y-55935406D01*
X228567169Y-55885831D01*
X228698151Y-55872160D01*
X228780092Y-55885435D01*
D11*
X239505000Y-72635000D02*
X221505000Y-72635000D01*
X239505000Y-55635000D02*
X239505000Y-72635000D01*
X221505000Y-55635000D02*
X239505000Y-55635000D01*
X221505000Y-72635000D02*
X221505000Y-55635000D01*
X221555000Y-55051000D02*
X224215000Y-55051000D01*
X221555000Y-54991000D02*
X221555000Y-55051000D01*
X224215000Y-54991000D02*
X224215000Y-55051000D01*
X221555000Y-54991000D02*
X224215000Y-54991000D01*
X221555000Y-53721000D02*
X221555000Y-52391000D01*
X221555000Y-52391000D02*
X222885000Y-52391000D01*
X229175000Y-52391000D02*
X230505000Y-52391000D01*
X229175000Y-53721000D02*
X229175000Y-52391000D01*
X229175000Y-54991000D02*
X231835000Y-54991000D01*
X231835000Y-54991000D02*
X231835000Y-55051000D01*
X229175000Y-54991000D02*
X229175000Y-55051000D01*
X229175000Y-55051000D02*
X231835000Y-55051000D01*
X236795000Y-55051000D02*
X239455000Y-55051000D01*
X236795000Y-54991000D02*
X236795000Y-55051000D01*
X239455000Y-54991000D02*
X239455000Y-55051000D01*
X236795000Y-54991000D02*
X239455000Y-54991000D01*
X236795000Y-53721000D02*
X236795000Y-52391000D01*
X236795000Y-52391000D02*
X238125000Y-52391000D01*
X219015000Y-55051000D02*
X221675000Y-55051000D01*
X219015000Y-54991000D02*
X219015000Y-55051000D01*
X221675000Y-54991000D02*
X221675000Y-55051000D01*
X219015000Y-54991000D02*
X221675000Y-54991000D01*
X219015000Y-53721000D02*
X219015000Y-52391000D01*
X219015000Y-52391000D02*
X220345000Y-52391000D01*
X224095000Y-52391000D02*
X225425000Y-52391000D01*
X224095000Y-53721000D02*
X224095000Y-52391000D01*
X224095000Y-54991000D02*
X226755000Y-54991000D01*
X226755000Y-54991000D02*
X226755000Y-55051000D01*
X224095000Y-54991000D02*
X224095000Y-55051000D01*
X224095000Y-55051000D02*
X226755000Y-55051000D01*
X226635000Y-55051000D02*
X229295000Y-55051000D01*
X226635000Y-54991000D02*
X226635000Y-55051000D01*
X229295000Y-54991000D02*
X229295000Y-55051000D01*
X226635000Y-54991000D02*
X229295000Y-54991000D01*
X226635000Y-53721000D02*
X226635000Y-52391000D01*
X226635000Y-52391000D02*
X227965000Y-52391000D01*
X231715000Y-52391000D02*
X233045000Y-52391000D01*
X231715000Y-53721000D02*
X231715000Y-52391000D01*
X231715000Y-54991000D02*
X234375000Y-54991000D01*
X234375000Y-54991000D02*
X234375000Y-55051000D01*
X231715000Y-54991000D02*
X231715000Y-55051000D01*
X231715000Y-55051000D02*
X234375000Y-55051000D01*
X234255000Y-55051000D02*
X236915000Y-55051000D01*
X234255000Y-54991000D02*
X234255000Y-55051000D01*
X236915000Y-54991000D02*
X236915000Y-55051000D01*
X234255000Y-54991000D02*
X236915000Y-54991000D01*
X234255000Y-53721000D02*
X234255000Y-52391000D01*
X234255000Y-52391000D02*
X235585000Y-52391000D01*
X239335000Y-52391000D02*
X240665000Y-52391000D01*
X239335000Y-53721000D02*
X239335000Y-52391000D01*
X239335000Y-54991000D02*
X241995000Y-54991000D01*
X241995000Y-54991000D02*
X241995000Y-55051000D01*
X239335000Y-54991000D02*
X239335000Y-55051000D01*
X239335000Y-55051000D02*
X241995000Y-55051000D01*
D12*
X224790714Y-71032714D02*
X224790714Y-72032714D01*
X224790714Y-71080333D02*
X224885952Y-71032714D01*
X225076428Y-71032714D01*
X225171666Y-71080333D01*
X225219285Y-71127952D01*
X225266904Y-71223190D01*
X225266904Y-71508904D01*
X225219285Y-71604142D01*
X225171666Y-71651761D01*
X225076428Y-71699380D01*
X224885952Y-71699380D01*
X224790714Y-71651761D01*
X226076428Y-71651761D02*
X225981190Y-71699380D01*
X225790714Y-71699380D01*
X225695476Y-71651761D01*
X225647857Y-71556523D01*
X225647857Y-71175571D01*
X225695476Y-71080333D01*
X225790714Y-71032714D01*
X225981190Y-71032714D01*
X226076428Y-71080333D01*
X226124047Y-71175571D01*
X226124047Y-71270809D01*
X225647857Y-71366047D01*
X226981190Y-71699380D02*
X226981190Y-70699380D01*
X226981190Y-71651761D02*
X226885952Y-71699380D01*
X226695476Y-71699380D01*
X226600238Y-71651761D01*
X226552619Y-71604142D01*
X226505000Y-71508904D01*
X226505000Y-71223190D01*
X226552619Y-71127952D01*
X226600238Y-71080333D01*
X226695476Y-71032714D01*
X226885952Y-71032714D01*
X226981190Y-71080333D01*
X227885952Y-71699380D02*
X227885952Y-71175571D01*
X227838333Y-71080333D01*
X227743095Y-71032714D01*
X227552619Y-71032714D01*
X227457380Y-71080333D01*
X227885952Y-71651761D02*
X227790714Y-71699380D01*
X227552619Y-71699380D01*
X227457380Y-71651761D01*
X227409761Y-71556523D01*
X227409761Y-71461285D01*
X227457380Y-71366047D01*
X227552619Y-71318428D01*
X227790714Y-71318428D01*
X227885952Y-71270809D01*
X228505000Y-71699380D02*
X228409761Y-71651761D01*
X228362142Y-71556523D01*
X228362142Y-70699380D01*
X228885952Y-71699380D02*
X228885952Y-71032714D01*
X228885952Y-71127952D02*
X228933571Y-71080333D01*
X229028809Y-71032714D01*
X229171666Y-71032714D01*
X229266904Y-71080333D01*
X229314523Y-71175571D01*
X229314523Y-71699380D01*
X229314523Y-71175571D02*
X229362142Y-71080333D01*
X229457380Y-71032714D01*
X229600238Y-71032714D01*
X229695476Y-71080333D01*
X229743095Y-71175571D01*
X229743095Y-71699380D01*
X230647857Y-71699380D02*
X230647857Y-71175571D01*
X230600238Y-71080333D01*
X230505000Y-71032714D01*
X230314523Y-71032714D01*
X230219285Y-71080333D01*
X230647857Y-71651761D02*
X230552619Y-71699380D01*
X230314523Y-71699380D01*
X230219285Y-71651761D01*
X230171666Y-71556523D01*
X230171666Y-71461285D01*
X230219285Y-71366047D01*
X230314523Y-71318428D01*
X230552619Y-71318428D01*
X230647857Y-71270809D01*
X231124047Y-71699380D02*
X231124047Y-71032714D01*
X231124047Y-71223190D02*
X231171666Y-71127952D01*
X231219285Y-71080333D01*
X231314523Y-71032714D01*
X231409761Y-71032714D01*
X231743095Y-71699380D02*
X231743095Y-70699380D01*
X231838333Y-71318428D02*
X232124047Y-71699380D01*
X232124047Y-71032714D02*
X231743095Y-71413666D01*
X232409761Y-71032714D02*
X232790714Y-71032714D01*
X232552619Y-70699380D02*
X232552619Y-71556523D01*
X232600238Y-71651761D01*
X232695476Y-71699380D01*
X232790714Y-71699380D01*
X233124047Y-71604142D02*
X233171666Y-71651761D01*
X233124047Y-71699380D01*
X233076428Y-71651761D01*
X233124047Y-71604142D01*
X233124047Y-71699380D01*
X234028809Y-71651761D02*
X233933571Y-71699380D01*
X233743095Y-71699380D01*
X233647857Y-71651761D01*
X233600238Y-71604142D01*
X233552619Y-71508904D01*
X233552619Y-71223190D01*
X233600238Y-71127952D01*
X233647857Y-71080333D01*
X233743095Y-71032714D01*
X233933571Y-71032714D01*
X234028809Y-71080333D01*
X234600238Y-71699380D02*
X234505000Y-71651761D01*
X234457380Y-71604142D01*
X234409761Y-71508904D01*
X234409761Y-71223190D01*
X234457380Y-71127952D01*
X234505000Y-71080333D01*
X234600238Y-71032714D01*
X234743095Y-71032714D01*
X234838333Y-71080333D01*
X234885952Y-71127952D01*
X234933571Y-71223190D01*
X234933571Y-71508904D01*
X234885952Y-71604142D01*
X234838333Y-71651761D01*
X234743095Y-71699380D01*
X234600238Y-71699380D01*
X235362142Y-71699380D02*
X235362142Y-71032714D01*
X235362142Y-71127952D02*
X235409761Y-71080333D01*
X235505000Y-71032714D01*
X235647857Y-71032714D01*
X235743095Y-71080333D01*
X235790714Y-71175571D01*
X235790714Y-71699380D01*
X235790714Y-71175571D02*
X235838333Y-71080333D01*
X235933571Y-71032714D01*
X236076428Y-71032714D01*
X236171666Y-71080333D01*
X236219285Y-71175571D01*
X236219285Y-71699380D01*
X222599285Y-51026619D02*
X222646904Y-50979000D01*
X222742142Y-50931380D01*
X222980238Y-50931380D01*
X223075476Y-50979000D01*
X223123095Y-51026619D01*
X223170714Y-51121857D01*
X223170714Y-51217095D01*
X223123095Y-51359952D01*
X222551666Y-51931380D01*
X223170714Y-51931380D01*
X230743095Y-50931380D02*
X230266904Y-50931380D01*
X230219285Y-51407571D01*
X230266904Y-51359952D01*
X230362142Y-51312333D01*
X230600238Y-51312333D01*
X230695476Y-51359952D01*
X230743095Y-51407571D01*
X230790714Y-51502809D01*
X230790714Y-51740904D01*
X230743095Y-51836142D01*
X230695476Y-51883761D01*
X230600238Y-51931380D01*
X230362142Y-51931380D01*
X230266904Y-51883761D01*
X230219285Y-51836142D01*
X238029761Y-51359952D02*
X237934523Y-51312333D01*
X237886904Y-51264714D01*
X237839285Y-51169476D01*
X237839285Y-51121857D01*
X237886904Y-51026619D01*
X237934523Y-50979000D01*
X238029761Y-50931380D01*
X238220238Y-50931380D01*
X238315476Y-50979000D01*
X238363095Y-51026619D01*
X238410714Y-51121857D01*
X238410714Y-51169476D01*
X238363095Y-51264714D01*
X238315476Y-51312333D01*
X238220238Y-51359952D01*
X238029761Y-51359952D01*
X237934523Y-51407571D01*
X237886904Y-51455190D01*
X237839285Y-51550428D01*
X237839285Y-51740904D01*
X237886904Y-51836142D01*
X237934523Y-51883761D01*
X238029761Y-51931380D01*
X238220238Y-51931380D01*
X238315476Y-51883761D01*
X238363095Y-51836142D01*
X238410714Y-51740904D01*
X238410714Y-51550428D01*
X238363095Y-51455190D01*
X238315476Y-51407571D01*
X238220238Y-51359952D01*
X220630714Y-51931380D02*
X220059285Y-51931380D01*
X220345000Y-51931380D02*
X220345000Y-50931380D01*
X220249761Y-51074238D01*
X220154523Y-51169476D01*
X220059285Y-51217095D01*
X225091666Y-50931380D02*
X225710714Y-50931380D01*
X225377380Y-51312333D01*
X225520238Y-51312333D01*
X225615476Y-51359952D01*
X225663095Y-51407571D01*
X225710714Y-51502809D01*
X225710714Y-51740904D01*
X225663095Y-51836142D01*
X225615476Y-51883761D01*
X225520238Y-51931380D01*
X225234523Y-51931380D01*
X225139285Y-51883761D01*
X225091666Y-51836142D01*
X228155476Y-51264714D02*
X228155476Y-51931380D01*
X227917380Y-50883761D02*
X227679285Y-51598047D01*
X228298333Y-51598047D01*
X233235476Y-50931380D02*
X233045000Y-50931380D01*
X232949761Y-50979000D01*
X232902142Y-51026619D01*
X232806904Y-51169476D01*
X232759285Y-51359952D01*
X232759285Y-51740904D01*
X232806904Y-51836142D01*
X232854523Y-51883761D01*
X232949761Y-51931380D01*
X233140238Y-51931380D01*
X233235476Y-51883761D01*
X233283095Y-51836142D01*
X233330714Y-51740904D01*
X233330714Y-51502809D01*
X233283095Y-51407571D01*
X233235476Y-51359952D01*
X233140238Y-51312333D01*
X232949761Y-51312333D01*
X232854523Y-51359952D01*
X232806904Y-51407571D01*
X232759285Y-51502809D01*
X235251666Y-50931380D02*
X235918333Y-50931380D01*
X235489761Y-51931380D01*
X240474523Y-51931380D02*
X240665000Y-51931380D01*
X240760238Y-51883761D01*
X240807857Y-51836142D01*
X240903095Y-51693285D01*
X240950714Y-51502809D01*
X240950714Y-51121857D01*
X240903095Y-51026619D01*
X240855476Y-50979000D01*
X240760238Y-50931380D01*
X240569761Y-50931380D01*
X240474523Y-50979000D01*
X240426904Y-51026619D01*
X240379285Y-51121857D01*
X240379285Y-51359952D01*
X240426904Y-51455190D01*
X240474523Y-51502809D01*
X240569761Y-51550428D01*
X240760238Y-51550428D01*
X240855476Y-51502809D01*
X240903095Y-51455190D01*
X240950714Y-51359952D01*
M02*
