M48
; DRILL file {KiCad (5.1.5-0-10_14)} date 2020 November 20, Friday 21:37:48
; FORMAT={-:-/ absolute / inch / decimal}
; #@! TF.CreationDate,2020-11-20T21:37:48+01:00
; #@! TF.GenerationSoftware,Kicad,Pcbnew,(5.1.5-0-10_14)
FMAT,2
INCH
T1C0.0394
T2C0.0630
%
G90
G05
T1
X8.775Y-2.115
X8.975Y-2.115
X9.075Y-2.115
X8.875Y-2.115
X8.675Y-2.115
X9.475Y-2.115
X9.375Y-2.115
X9.275Y-2.115
X9.175Y-2.115
T2
G00X8.8986Y-2.34
M15
G01X8.8514Y-2.34
M16
G05
G00X8.8986Y-2.525
M15
G01X8.8514Y-2.525
M16
G05
G00X8.8986Y-2.71
M15
G01X8.8514Y-2.71
M16
G05
G00X9.0986Y-2.34
M15
G01X9.0514Y-2.34
M16
G05
G00X9.0986Y-2.525
M15
G01X9.0514Y-2.525
M16
G05
G00X9.0986Y-2.71
M15
G01X9.0514Y-2.71
M16
G05
G00X9.2986Y-2.34
M15
G01X9.2514Y-2.34
M16
G05
G00X9.2986Y-2.525
M15
G01X9.2514Y-2.525
M16
G05
G00X9.2986Y-2.71
M15
G01X9.2514Y-2.71
M16
G05
T0
M30
