G04 #@! TF.GenerationSoftware,KiCad,Pcbnew,(5.1.5-0-10_14)*
G04 #@! TF.CreationDate,2020-11-20T14:40:15+01:00*
G04 #@! TF.ProjectId,3pdt,33706474-2e6b-4696-9361-645f70636258,rev?*
G04 #@! TF.SameCoordinates,Original*
G04 #@! TF.FileFunction,Copper,L2,Bot*
G04 #@! TF.FilePolarity,Positive*
%FSLAX46Y46*%
G04 Gerber Fmt 4.6, Leading zero omitted, Abs format (unit mm)*
G04 Created by KiCad (PCBNEW (5.1.5-0-10_14)) date 2020-11-20 14:40:15*
%MOMM*%
%LPD*%
G04 APERTURE LIST*
%ADD10O,4.200000X2.800000*%
%ADD11R,3.816000X3.816000*%
%ADD12R,2.000000X2.000000*%
%ADD13O,2.000000X2.000000*%
%ADD14R,1.700000X1.700000*%
%ADD15C,4.000500*%
%ADD16C,0.100000*%
%ADD17C,2.000000*%
%ADD18C,0.254000*%
G04 APERTURE END LIST*
D10*
X235585000Y-68835000D03*
X235585000Y-64135000D03*
X235585000Y-59435000D03*
X230505000Y-68835000D03*
X230505000Y-64135000D03*
X230505000Y-59435000D03*
X225425000Y-68835000D03*
X225425000Y-64135000D03*
D11*
X225425000Y-59435000D03*
D10*
X200660000Y-68200000D03*
X200660000Y-63500000D03*
X200660000Y-58800000D03*
X195580000Y-68200000D03*
X195580000Y-63500000D03*
X195580000Y-58800000D03*
X190500000Y-68200000D03*
X190500000Y-63500000D03*
D11*
X190500000Y-58800000D03*
D10*
X119380000Y-68200000D03*
X119380000Y-63500000D03*
X119380000Y-58800000D03*
X114300000Y-68200000D03*
X114300000Y-63500000D03*
X114300000Y-58800000D03*
X109220000Y-68200000D03*
X109220000Y-63500000D03*
D11*
X109220000Y-58800000D03*
D10*
X156210000Y-68200000D03*
X156210000Y-63500000D03*
X156210000Y-58800000D03*
X151130000Y-68200000D03*
X151130000Y-63500000D03*
X151130000Y-58800000D03*
X146050000Y-68200000D03*
X146050000Y-63500000D03*
D11*
X146050000Y-58800000D03*
D12*
X110236000Y-52451000D03*
D13*
X107696000Y-52451000D03*
X113538000Y-52578000D03*
X121158000Y-52578000D03*
D14*
X107950000Y-48768000D03*
X120650000Y-48768000D03*
X110490000Y-48768000D03*
X113030000Y-48768000D03*
X115570000Y-48768000D03*
X118110000Y-48768000D03*
D12*
X151193500Y-40767000D03*
D13*
X151193500Y-38227000D03*
D15*
X137795000Y-68580000D03*
X164465000Y-68580000D03*
X137795000Y-63500000D03*
X137795000Y-58420000D03*
X164465000Y-63500000D03*
X164465000Y-58420000D03*
D13*
X151130000Y-45339000D03*
X151130000Y-52959000D03*
G04 #@! TA.AperFunction,ComponentPad*
D16*
G36*
X173127240Y-47253026D02*
G01*
X171713026Y-48667240D01*
X170298812Y-47253026D01*
X171713026Y-45838812D01*
X173127240Y-47253026D01*
G37*
G04 #@! TD.AperFunction*
D17*
X169916974Y-45456974D02*
X169916974Y-45456974D01*
D15*
X182245000Y-68580000D03*
X208915000Y-68580000D03*
X182245000Y-63500000D03*
X182245000Y-58420000D03*
X208915000Y-63500000D03*
X208915000Y-58420000D03*
D14*
X222885000Y-53721000D03*
X230505000Y-53721000D03*
X238125000Y-53721000D03*
X220345000Y-53721000D03*
X225425000Y-53721000D03*
X227965000Y-53721000D03*
X233045000Y-53721000D03*
X235585000Y-53721000D03*
X240665000Y-53721000D03*
D17*
X173835923Y-49375923D02*
X173835923Y-49375923D01*
X179224077Y-54764077D02*
X179224077Y-54764077D01*
D18*
G36*
X122579200Y-45923559D02*
G01*
X122740041Y-45972120D01*
X122888378Y-46050992D01*
X123018574Y-46157176D01*
X123063000Y-46210878D01*
X123063000Y-71628000D01*
X105537000Y-71628000D01*
X105537000Y-68643160D01*
X106533840Y-68643160D01*
X106591304Y-68861427D01*
X106757401Y-69224988D01*
X106991234Y-69549159D01*
X107283817Y-69821483D01*
X107623906Y-70031494D01*
X107998431Y-70171122D01*
X108393000Y-70235000D01*
X109093000Y-70235000D01*
X109093000Y-68327000D01*
X109347000Y-68327000D01*
X109347000Y-70235000D01*
X110047000Y-70235000D01*
X110441569Y-70171122D01*
X110816094Y-70031494D01*
X111156183Y-69821483D01*
X111448766Y-69549159D01*
X111682599Y-69224988D01*
X111760000Y-69055569D01*
X111837401Y-69224988D01*
X112071234Y-69549159D01*
X112363817Y-69821483D01*
X112703906Y-70031494D01*
X113078431Y-70171122D01*
X113473000Y-70235000D01*
X114173000Y-70235000D01*
X114173000Y-68327000D01*
X109347000Y-68327000D01*
X109093000Y-68327000D01*
X106648053Y-68327000D01*
X106533840Y-68643160D01*
X105537000Y-68643160D01*
X105537000Y-67756840D01*
X106533840Y-67756840D01*
X106648053Y-68073000D01*
X109093000Y-68073000D01*
X109093000Y-66165000D01*
X109347000Y-66165000D01*
X109347000Y-68073000D01*
X114173000Y-68073000D01*
X114173000Y-66165000D01*
X114427000Y-66165000D01*
X114427000Y-68073000D01*
X114447000Y-68073000D01*
X114447000Y-68327000D01*
X114427000Y-68327000D01*
X114427000Y-70235000D01*
X115127000Y-70235000D01*
X115521569Y-70171122D01*
X115896094Y-70031494D01*
X116236183Y-69821483D01*
X116528766Y-69549159D01*
X116762599Y-69224988D01*
X116835322Y-69065808D01*
X116979773Y-69336056D01*
X117234076Y-69645924D01*
X117543944Y-69900227D01*
X117897471Y-70089191D01*
X118281070Y-70205555D01*
X118580031Y-70235000D01*
X120179969Y-70235000D01*
X120478930Y-70205555D01*
X120862529Y-70089191D01*
X121216056Y-69900227D01*
X121525924Y-69645924D01*
X121780227Y-69336056D01*
X121969191Y-68982529D01*
X122085555Y-68598930D01*
X122124846Y-68200000D01*
X122085555Y-67801070D01*
X121969191Y-67417471D01*
X121780227Y-67063944D01*
X121525924Y-66754076D01*
X121216056Y-66499773D01*
X120862529Y-66310809D01*
X120478930Y-66194445D01*
X120179969Y-66165000D01*
X118580031Y-66165000D01*
X118281070Y-66194445D01*
X117897471Y-66310809D01*
X117543944Y-66499773D01*
X117234076Y-66754076D01*
X116979773Y-67063944D01*
X116835322Y-67334192D01*
X116762599Y-67175012D01*
X116528766Y-66850841D01*
X116236183Y-66578517D01*
X115896094Y-66368506D01*
X115521569Y-66228878D01*
X115127000Y-66165000D01*
X114427000Y-66165000D01*
X114173000Y-66165000D01*
X113473000Y-66165000D01*
X113078431Y-66228878D01*
X112703906Y-66368506D01*
X112363817Y-66578517D01*
X112071234Y-66850841D01*
X111837401Y-67175012D01*
X111760000Y-67344431D01*
X111682599Y-67175012D01*
X111448766Y-66850841D01*
X111156183Y-66578517D01*
X110816094Y-66368506D01*
X110441569Y-66228878D01*
X110047000Y-66165000D01*
X109347000Y-66165000D01*
X109093000Y-66165000D01*
X108393000Y-66165000D01*
X107998431Y-66228878D01*
X107623906Y-66368506D01*
X107283817Y-66578517D01*
X106991234Y-66850841D01*
X106757401Y-67175012D01*
X106591304Y-67538573D01*
X106533840Y-67756840D01*
X105537000Y-67756840D01*
X105537000Y-63943160D01*
X106533840Y-63943160D01*
X106591304Y-64161427D01*
X106757401Y-64524988D01*
X106991234Y-64849159D01*
X107283817Y-65121483D01*
X107623906Y-65331494D01*
X107998431Y-65471122D01*
X108393000Y-65535000D01*
X109093000Y-65535000D01*
X109093000Y-63627000D01*
X106648053Y-63627000D01*
X106533840Y-63943160D01*
X105537000Y-63943160D01*
X105537000Y-63056840D01*
X106533840Y-63056840D01*
X106648053Y-63373000D01*
X109093000Y-63373000D01*
X109093000Y-61465000D01*
X109347000Y-61465000D01*
X109347000Y-63373000D01*
X109367000Y-63373000D01*
X109367000Y-63627000D01*
X109347000Y-63627000D01*
X109347000Y-65535000D01*
X110047000Y-65535000D01*
X110441569Y-65471122D01*
X110816094Y-65331494D01*
X111156183Y-65121483D01*
X111448766Y-64849159D01*
X111682599Y-64524988D01*
X111755322Y-64365808D01*
X111899773Y-64636056D01*
X112154076Y-64945924D01*
X112463944Y-65200227D01*
X112817471Y-65389191D01*
X113201070Y-65505555D01*
X113500031Y-65535000D01*
X115099969Y-65535000D01*
X115398930Y-65505555D01*
X115782529Y-65389191D01*
X116136056Y-65200227D01*
X116445924Y-64945924D01*
X116700227Y-64636056D01*
X116840000Y-64374559D01*
X116979773Y-64636056D01*
X117234076Y-64945924D01*
X117543944Y-65200227D01*
X117897471Y-65389191D01*
X118281070Y-65505555D01*
X118580031Y-65535000D01*
X120179969Y-65535000D01*
X120478930Y-65505555D01*
X120862529Y-65389191D01*
X121216056Y-65200227D01*
X121525924Y-64945924D01*
X121780227Y-64636056D01*
X121969191Y-64282529D01*
X122085555Y-63898930D01*
X122124846Y-63500000D01*
X122085555Y-63101070D01*
X121969191Y-62717471D01*
X121780227Y-62363944D01*
X121525924Y-62054076D01*
X121216056Y-61799773D01*
X120862529Y-61610809D01*
X120478930Y-61494445D01*
X120179969Y-61465000D01*
X118580031Y-61465000D01*
X118281070Y-61494445D01*
X117897471Y-61610809D01*
X117543944Y-61799773D01*
X117234076Y-62054076D01*
X116979773Y-62363944D01*
X116840000Y-62625441D01*
X116700227Y-62363944D01*
X116445924Y-62054076D01*
X116136056Y-61799773D01*
X115782529Y-61610809D01*
X115398930Y-61494445D01*
X115099969Y-61465000D01*
X113500031Y-61465000D01*
X113201070Y-61494445D01*
X112817471Y-61610809D01*
X112463944Y-61799773D01*
X112154076Y-62054076D01*
X111899773Y-62363944D01*
X111755322Y-62634192D01*
X111682599Y-62475012D01*
X111448766Y-62150841D01*
X111156183Y-61878517D01*
X110816094Y-61668506D01*
X110441569Y-61528878D01*
X110047000Y-61465000D01*
X109347000Y-61465000D01*
X109093000Y-61465000D01*
X108393000Y-61465000D01*
X107998431Y-61528878D01*
X107623906Y-61668506D01*
X107283817Y-61878517D01*
X106991234Y-62150841D01*
X106757401Y-62475012D01*
X106591304Y-62838573D01*
X106533840Y-63056840D01*
X105537000Y-63056840D01*
X105537000Y-56892000D01*
X106673928Y-56892000D01*
X106673928Y-60708000D01*
X106686188Y-60832482D01*
X106722498Y-60952180D01*
X106781463Y-61062494D01*
X106860815Y-61159185D01*
X106957506Y-61238537D01*
X107067820Y-61297502D01*
X107187518Y-61333812D01*
X107312000Y-61346072D01*
X111128000Y-61346072D01*
X111252482Y-61333812D01*
X111372180Y-61297502D01*
X111482494Y-61238537D01*
X111579185Y-61159185D01*
X111658537Y-61062494D01*
X111717502Y-60952180D01*
X111753812Y-60832482D01*
X111766072Y-60708000D01*
X111766072Y-59685919D01*
X111899773Y-59936056D01*
X112154076Y-60245924D01*
X112463944Y-60500227D01*
X112817471Y-60689191D01*
X113201070Y-60805555D01*
X113500031Y-60835000D01*
X115099969Y-60835000D01*
X115398930Y-60805555D01*
X115782529Y-60689191D01*
X116136056Y-60500227D01*
X116445924Y-60245924D01*
X116700227Y-59936056D01*
X116840000Y-59674559D01*
X116979773Y-59936056D01*
X117234076Y-60245924D01*
X117543944Y-60500227D01*
X117897471Y-60689191D01*
X118281070Y-60805555D01*
X118580031Y-60835000D01*
X120179969Y-60835000D01*
X120478930Y-60805555D01*
X120862529Y-60689191D01*
X121216056Y-60500227D01*
X121525924Y-60245924D01*
X121780227Y-59936056D01*
X121969191Y-59582529D01*
X122085555Y-59198930D01*
X122124846Y-58800000D01*
X122085555Y-58401070D01*
X121969191Y-58017471D01*
X121780227Y-57663944D01*
X121525924Y-57354076D01*
X121216056Y-57099773D01*
X120862529Y-56910809D01*
X120478930Y-56794445D01*
X120179969Y-56765000D01*
X118580031Y-56765000D01*
X118281070Y-56794445D01*
X117897471Y-56910809D01*
X117543944Y-57099773D01*
X117234076Y-57354076D01*
X116979773Y-57663944D01*
X116840000Y-57925441D01*
X116700227Y-57663944D01*
X116445924Y-57354076D01*
X116136056Y-57099773D01*
X115782529Y-56910809D01*
X115398930Y-56794445D01*
X115099969Y-56765000D01*
X113500031Y-56765000D01*
X113201070Y-56794445D01*
X112817471Y-56910809D01*
X112463944Y-57099773D01*
X112154076Y-57354076D01*
X111899773Y-57663944D01*
X111766072Y-57914081D01*
X111766072Y-56892000D01*
X111753812Y-56767518D01*
X111717502Y-56647820D01*
X111658537Y-56537506D01*
X111579185Y-56440815D01*
X111482494Y-56361463D01*
X111372180Y-56302498D01*
X111252482Y-56266188D01*
X111128000Y-56253928D01*
X107312000Y-56253928D01*
X107187518Y-56266188D01*
X107067820Y-56302498D01*
X106957506Y-56361463D01*
X106860815Y-56440815D01*
X106781463Y-56537506D01*
X106722498Y-56647820D01*
X106686188Y-56767518D01*
X106673928Y-56892000D01*
X105537000Y-56892000D01*
X105537000Y-52289967D01*
X106061000Y-52289967D01*
X106061000Y-52612033D01*
X106123832Y-52927912D01*
X106247082Y-53225463D01*
X106426013Y-53493252D01*
X106653748Y-53720987D01*
X106921537Y-53899918D01*
X107219088Y-54023168D01*
X107534967Y-54086000D01*
X107857033Y-54086000D01*
X108172912Y-54023168D01*
X108470463Y-53899918D01*
X108680809Y-53759370D01*
X108705463Y-53805494D01*
X108784815Y-53902185D01*
X108881506Y-53981537D01*
X108991820Y-54040502D01*
X109111518Y-54076812D01*
X109236000Y-54089072D01*
X111236000Y-54089072D01*
X111360482Y-54076812D01*
X111480180Y-54040502D01*
X111590494Y-53981537D01*
X111687185Y-53902185D01*
X111766537Y-53805494D01*
X111825502Y-53695180D01*
X111861812Y-53575482D01*
X111874072Y-53451000D01*
X111874072Y-52416967D01*
X111903000Y-52416967D01*
X111903000Y-52739033D01*
X111965832Y-53054912D01*
X112089082Y-53352463D01*
X112268013Y-53620252D01*
X112495748Y-53847987D01*
X112763537Y-54026918D01*
X113061088Y-54150168D01*
X113376967Y-54213000D01*
X113699033Y-54213000D01*
X114014912Y-54150168D01*
X114312463Y-54026918D01*
X114580252Y-53847987D01*
X114807987Y-53620252D01*
X114986918Y-53352463D01*
X115110168Y-53054912D01*
X115173000Y-52739033D01*
X115173000Y-52416967D01*
X119523000Y-52416967D01*
X119523000Y-52739033D01*
X119585832Y-53054912D01*
X119709082Y-53352463D01*
X119888013Y-53620252D01*
X120115748Y-53847987D01*
X120383537Y-54026918D01*
X120681088Y-54150168D01*
X120996967Y-54213000D01*
X121319033Y-54213000D01*
X121634912Y-54150168D01*
X121932463Y-54026918D01*
X122200252Y-53847987D01*
X122427987Y-53620252D01*
X122606918Y-53352463D01*
X122730168Y-53054912D01*
X122793000Y-52739033D01*
X122793000Y-52416967D01*
X122730168Y-52101088D01*
X122606918Y-51803537D01*
X122427987Y-51535748D01*
X122200252Y-51308013D01*
X121932463Y-51129082D01*
X121634912Y-51005832D01*
X121319033Y-50943000D01*
X120996967Y-50943000D01*
X120681088Y-51005832D01*
X120383537Y-51129082D01*
X120115748Y-51308013D01*
X119888013Y-51535748D01*
X119709082Y-51803537D01*
X119585832Y-52101088D01*
X119523000Y-52416967D01*
X115173000Y-52416967D01*
X115110168Y-52101088D01*
X114986918Y-51803537D01*
X114807987Y-51535748D01*
X114580252Y-51308013D01*
X114312463Y-51129082D01*
X114014912Y-51005832D01*
X113699033Y-50943000D01*
X113376967Y-50943000D01*
X113061088Y-51005832D01*
X112763537Y-51129082D01*
X112495748Y-51308013D01*
X112268013Y-51535748D01*
X112089082Y-51803537D01*
X111965832Y-52101088D01*
X111903000Y-52416967D01*
X111874072Y-52416967D01*
X111874072Y-51451000D01*
X111861812Y-51326518D01*
X111825502Y-51206820D01*
X111766537Y-51096506D01*
X111687185Y-50999815D01*
X111590494Y-50920463D01*
X111480180Y-50861498D01*
X111360482Y-50825188D01*
X111236000Y-50812928D01*
X109236000Y-50812928D01*
X109111518Y-50825188D01*
X108991820Y-50861498D01*
X108881506Y-50920463D01*
X108784815Y-50999815D01*
X108705463Y-51096506D01*
X108680809Y-51142630D01*
X108470463Y-51002082D01*
X108172912Y-50878832D01*
X107857033Y-50816000D01*
X107534967Y-50816000D01*
X107219088Y-50878832D01*
X106921537Y-51002082D01*
X106653748Y-51181013D01*
X106426013Y-51408748D01*
X106247082Y-51676537D01*
X106123832Y-51974088D01*
X106061000Y-52289967D01*
X105537000Y-52289967D01*
X105537000Y-47918000D01*
X106461928Y-47918000D01*
X106461928Y-49618000D01*
X106474188Y-49742482D01*
X106510498Y-49862180D01*
X106569463Y-49972494D01*
X106648815Y-50069185D01*
X106745506Y-50148537D01*
X106855820Y-50207502D01*
X106975518Y-50243812D01*
X107100000Y-50256072D01*
X108800000Y-50256072D01*
X108924482Y-50243812D01*
X109044180Y-50207502D01*
X109154494Y-50148537D01*
X109220000Y-50094778D01*
X109285506Y-50148537D01*
X109395820Y-50207502D01*
X109515518Y-50243812D01*
X109640000Y-50256072D01*
X110204250Y-50253000D01*
X110363000Y-50094250D01*
X110363000Y-48895000D01*
X110343000Y-48895000D01*
X110343000Y-48641000D01*
X110363000Y-48641000D01*
X110363000Y-47441750D01*
X110617000Y-47441750D01*
X110617000Y-48641000D01*
X110637000Y-48641000D01*
X110637000Y-48895000D01*
X110617000Y-48895000D01*
X110617000Y-50094250D01*
X110775750Y-50253000D01*
X111340000Y-50256072D01*
X111464482Y-50243812D01*
X111584180Y-50207502D01*
X111694494Y-50148537D01*
X111760000Y-50094778D01*
X111825506Y-50148537D01*
X111935820Y-50207502D01*
X112055518Y-50243812D01*
X112180000Y-50256072D01*
X113880000Y-50256072D01*
X114004482Y-50243812D01*
X114124180Y-50207502D01*
X114234494Y-50148537D01*
X114300000Y-50094778D01*
X114365506Y-50148537D01*
X114475820Y-50207502D01*
X114595518Y-50243812D01*
X114720000Y-50256072D01*
X116420000Y-50256072D01*
X116544482Y-50243812D01*
X116664180Y-50207502D01*
X116774494Y-50148537D01*
X116840000Y-50094778D01*
X116905506Y-50148537D01*
X117015820Y-50207502D01*
X117135518Y-50243812D01*
X117260000Y-50256072D01*
X118960000Y-50256072D01*
X119084482Y-50243812D01*
X119204180Y-50207502D01*
X119314494Y-50148537D01*
X119380000Y-50094778D01*
X119445506Y-50148537D01*
X119555820Y-50207502D01*
X119675518Y-50243812D01*
X119800000Y-50256072D01*
X121500000Y-50256072D01*
X121624482Y-50243812D01*
X121744180Y-50207502D01*
X121854494Y-50148537D01*
X121951185Y-50069185D01*
X122030537Y-49972494D01*
X122089502Y-49862180D01*
X122125812Y-49742482D01*
X122138072Y-49618000D01*
X122138072Y-47918000D01*
X122125812Y-47793518D01*
X122089502Y-47673820D01*
X122030537Y-47563506D01*
X121951185Y-47466815D01*
X121854494Y-47387463D01*
X121744180Y-47328498D01*
X121624482Y-47292188D01*
X121500000Y-47279928D01*
X119800000Y-47279928D01*
X119675518Y-47292188D01*
X119555820Y-47328498D01*
X119445506Y-47387463D01*
X119380000Y-47441222D01*
X119314494Y-47387463D01*
X119204180Y-47328498D01*
X119084482Y-47292188D01*
X118960000Y-47279928D01*
X117260000Y-47279928D01*
X117135518Y-47292188D01*
X117015820Y-47328498D01*
X116905506Y-47387463D01*
X116840000Y-47441222D01*
X116774494Y-47387463D01*
X116664180Y-47328498D01*
X116544482Y-47292188D01*
X116420000Y-47279928D01*
X114720000Y-47279928D01*
X114595518Y-47292188D01*
X114475820Y-47328498D01*
X114365506Y-47387463D01*
X114300000Y-47441222D01*
X114234494Y-47387463D01*
X114124180Y-47328498D01*
X114004482Y-47292188D01*
X113880000Y-47279928D01*
X112180000Y-47279928D01*
X112055518Y-47292188D01*
X111935820Y-47328498D01*
X111825506Y-47387463D01*
X111760000Y-47441222D01*
X111694494Y-47387463D01*
X111584180Y-47328498D01*
X111464482Y-47292188D01*
X111340000Y-47279928D01*
X110775750Y-47283000D01*
X110617000Y-47441750D01*
X110363000Y-47441750D01*
X110204250Y-47283000D01*
X109640000Y-47279928D01*
X109515518Y-47292188D01*
X109395820Y-47328498D01*
X109285506Y-47387463D01*
X109220000Y-47441222D01*
X109154494Y-47387463D01*
X109044180Y-47328498D01*
X108924482Y-47292188D01*
X108800000Y-47279928D01*
X107100000Y-47279928D01*
X106975518Y-47292188D01*
X106855820Y-47328498D01*
X106745506Y-47387463D01*
X106648815Y-47466815D01*
X106569463Y-47563506D01*
X106510498Y-47673820D01*
X106474188Y-47793518D01*
X106461928Y-47918000D01*
X105537000Y-47918000D01*
X105537000Y-46210687D01*
X105577176Y-46161426D01*
X105706626Y-46054336D01*
X105854414Y-45974428D01*
X106014902Y-45924748D01*
X106212306Y-45904000D01*
X122379723Y-45904000D01*
X122579200Y-45923559D01*
G37*
X122579200Y-45923559D02*
X122740041Y-45972120D01*
X122888378Y-46050992D01*
X123018574Y-46157176D01*
X123063000Y-46210878D01*
X123063000Y-71628000D01*
X105537000Y-71628000D01*
X105537000Y-68643160D01*
X106533840Y-68643160D01*
X106591304Y-68861427D01*
X106757401Y-69224988D01*
X106991234Y-69549159D01*
X107283817Y-69821483D01*
X107623906Y-70031494D01*
X107998431Y-70171122D01*
X108393000Y-70235000D01*
X109093000Y-70235000D01*
X109093000Y-68327000D01*
X109347000Y-68327000D01*
X109347000Y-70235000D01*
X110047000Y-70235000D01*
X110441569Y-70171122D01*
X110816094Y-70031494D01*
X111156183Y-69821483D01*
X111448766Y-69549159D01*
X111682599Y-69224988D01*
X111760000Y-69055569D01*
X111837401Y-69224988D01*
X112071234Y-69549159D01*
X112363817Y-69821483D01*
X112703906Y-70031494D01*
X113078431Y-70171122D01*
X113473000Y-70235000D01*
X114173000Y-70235000D01*
X114173000Y-68327000D01*
X109347000Y-68327000D01*
X109093000Y-68327000D01*
X106648053Y-68327000D01*
X106533840Y-68643160D01*
X105537000Y-68643160D01*
X105537000Y-67756840D01*
X106533840Y-67756840D01*
X106648053Y-68073000D01*
X109093000Y-68073000D01*
X109093000Y-66165000D01*
X109347000Y-66165000D01*
X109347000Y-68073000D01*
X114173000Y-68073000D01*
X114173000Y-66165000D01*
X114427000Y-66165000D01*
X114427000Y-68073000D01*
X114447000Y-68073000D01*
X114447000Y-68327000D01*
X114427000Y-68327000D01*
X114427000Y-70235000D01*
X115127000Y-70235000D01*
X115521569Y-70171122D01*
X115896094Y-70031494D01*
X116236183Y-69821483D01*
X116528766Y-69549159D01*
X116762599Y-69224988D01*
X116835322Y-69065808D01*
X116979773Y-69336056D01*
X117234076Y-69645924D01*
X117543944Y-69900227D01*
X117897471Y-70089191D01*
X118281070Y-70205555D01*
X118580031Y-70235000D01*
X120179969Y-70235000D01*
X120478930Y-70205555D01*
X120862529Y-70089191D01*
X121216056Y-69900227D01*
X121525924Y-69645924D01*
X121780227Y-69336056D01*
X121969191Y-68982529D01*
X122085555Y-68598930D01*
X122124846Y-68200000D01*
X122085555Y-67801070D01*
X121969191Y-67417471D01*
X121780227Y-67063944D01*
X121525924Y-66754076D01*
X121216056Y-66499773D01*
X120862529Y-66310809D01*
X120478930Y-66194445D01*
X120179969Y-66165000D01*
X118580031Y-66165000D01*
X118281070Y-66194445D01*
X117897471Y-66310809D01*
X117543944Y-66499773D01*
X117234076Y-66754076D01*
X116979773Y-67063944D01*
X116835322Y-67334192D01*
X116762599Y-67175012D01*
X116528766Y-66850841D01*
X116236183Y-66578517D01*
X115896094Y-66368506D01*
X115521569Y-66228878D01*
X115127000Y-66165000D01*
X114427000Y-66165000D01*
X114173000Y-66165000D01*
X113473000Y-66165000D01*
X113078431Y-66228878D01*
X112703906Y-66368506D01*
X112363817Y-66578517D01*
X112071234Y-66850841D01*
X111837401Y-67175012D01*
X111760000Y-67344431D01*
X111682599Y-67175012D01*
X111448766Y-66850841D01*
X111156183Y-66578517D01*
X110816094Y-66368506D01*
X110441569Y-66228878D01*
X110047000Y-66165000D01*
X109347000Y-66165000D01*
X109093000Y-66165000D01*
X108393000Y-66165000D01*
X107998431Y-66228878D01*
X107623906Y-66368506D01*
X107283817Y-66578517D01*
X106991234Y-66850841D01*
X106757401Y-67175012D01*
X106591304Y-67538573D01*
X106533840Y-67756840D01*
X105537000Y-67756840D01*
X105537000Y-63943160D01*
X106533840Y-63943160D01*
X106591304Y-64161427D01*
X106757401Y-64524988D01*
X106991234Y-64849159D01*
X107283817Y-65121483D01*
X107623906Y-65331494D01*
X107998431Y-65471122D01*
X108393000Y-65535000D01*
X109093000Y-65535000D01*
X109093000Y-63627000D01*
X106648053Y-63627000D01*
X106533840Y-63943160D01*
X105537000Y-63943160D01*
X105537000Y-63056840D01*
X106533840Y-63056840D01*
X106648053Y-63373000D01*
X109093000Y-63373000D01*
X109093000Y-61465000D01*
X109347000Y-61465000D01*
X109347000Y-63373000D01*
X109367000Y-63373000D01*
X109367000Y-63627000D01*
X109347000Y-63627000D01*
X109347000Y-65535000D01*
X110047000Y-65535000D01*
X110441569Y-65471122D01*
X110816094Y-65331494D01*
X111156183Y-65121483D01*
X111448766Y-64849159D01*
X111682599Y-64524988D01*
X111755322Y-64365808D01*
X111899773Y-64636056D01*
X112154076Y-64945924D01*
X112463944Y-65200227D01*
X112817471Y-65389191D01*
X113201070Y-65505555D01*
X113500031Y-65535000D01*
X115099969Y-65535000D01*
X115398930Y-65505555D01*
X115782529Y-65389191D01*
X116136056Y-65200227D01*
X116445924Y-64945924D01*
X116700227Y-64636056D01*
X116840000Y-64374559D01*
X116979773Y-64636056D01*
X117234076Y-64945924D01*
X117543944Y-65200227D01*
X117897471Y-65389191D01*
X118281070Y-65505555D01*
X118580031Y-65535000D01*
X120179969Y-65535000D01*
X120478930Y-65505555D01*
X120862529Y-65389191D01*
X121216056Y-65200227D01*
X121525924Y-64945924D01*
X121780227Y-64636056D01*
X121969191Y-64282529D01*
X122085555Y-63898930D01*
X122124846Y-63500000D01*
X122085555Y-63101070D01*
X121969191Y-62717471D01*
X121780227Y-62363944D01*
X121525924Y-62054076D01*
X121216056Y-61799773D01*
X120862529Y-61610809D01*
X120478930Y-61494445D01*
X120179969Y-61465000D01*
X118580031Y-61465000D01*
X118281070Y-61494445D01*
X117897471Y-61610809D01*
X117543944Y-61799773D01*
X117234076Y-62054076D01*
X116979773Y-62363944D01*
X116840000Y-62625441D01*
X116700227Y-62363944D01*
X116445924Y-62054076D01*
X116136056Y-61799773D01*
X115782529Y-61610809D01*
X115398930Y-61494445D01*
X115099969Y-61465000D01*
X113500031Y-61465000D01*
X113201070Y-61494445D01*
X112817471Y-61610809D01*
X112463944Y-61799773D01*
X112154076Y-62054076D01*
X111899773Y-62363944D01*
X111755322Y-62634192D01*
X111682599Y-62475012D01*
X111448766Y-62150841D01*
X111156183Y-61878517D01*
X110816094Y-61668506D01*
X110441569Y-61528878D01*
X110047000Y-61465000D01*
X109347000Y-61465000D01*
X109093000Y-61465000D01*
X108393000Y-61465000D01*
X107998431Y-61528878D01*
X107623906Y-61668506D01*
X107283817Y-61878517D01*
X106991234Y-62150841D01*
X106757401Y-62475012D01*
X106591304Y-62838573D01*
X106533840Y-63056840D01*
X105537000Y-63056840D01*
X105537000Y-56892000D01*
X106673928Y-56892000D01*
X106673928Y-60708000D01*
X106686188Y-60832482D01*
X106722498Y-60952180D01*
X106781463Y-61062494D01*
X106860815Y-61159185D01*
X106957506Y-61238537D01*
X107067820Y-61297502D01*
X107187518Y-61333812D01*
X107312000Y-61346072D01*
X111128000Y-61346072D01*
X111252482Y-61333812D01*
X111372180Y-61297502D01*
X111482494Y-61238537D01*
X111579185Y-61159185D01*
X111658537Y-61062494D01*
X111717502Y-60952180D01*
X111753812Y-60832482D01*
X111766072Y-60708000D01*
X111766072Y-59685919D01*
X111899773Y-59936056D01*
X112154076Y-60245924D01*
X112463944Y-60500227D01*
X112817471Y-60689191D01*
X113201070Y-60805555D01*
X113500031Y-60835000D01*
X115099969Y-60835000D01*
X115398930Y-60805555D01*
X115782529Y-60689191D01*
X116136056Y-60500227D01*
X116445924Y-60245924D01*
X116700227Y-59936056D01*
X116840000Y-59674559D01*
X116979773Y-59936056D01*
X117234076Y-60245924D01*
X117543944Y-60500227D01*
X117897471Y-60689191D01*
X118281070Y-60805555D01*
X118580031Y-60835000D01*
X120179969Y-60835000D01*
X120478930Y-60805555D01*
X120862529Y-60689191D01*
X121216056Y-60500227D01*
X121525924Y-60245924D01*
X121780227Y-59936056D01*
X121969191Y-59582529D01*
X122085555Y-59198930D01*
X122124846Y-58800000D01*
X122085555Y-58401070D01*
X121969191Y-58017471D01*
X121780227Y-57663944D01*
X121525924Y-57354076D01*
X121216056Y-57099773D01*
X120862529Y-56910809D01*
X120478930Y-56794445D01*
X120179969Y-56765000D01*
X118580031Y-56765000D01*
X118281070Y-56794445D01*
X117897471Y-56910809D01*
X117543944Y-57099773D01*
X117234076Y-57354076D01*
X116979773Y-57663944D01*
X116840000Y-57925441D01*
X116700227Y-57663944D01*
X116445924Y-57354076D01*
X116136056Y-57099773D01*
X115782529Y-56910809D01*
X115398930Y-56794445D01*
X115099969Y-56765000D01*
X113500031Y-56765000D01*
X113201070Y-56794445D01*
X112817471Y-56910809D01*
X112463944Y-57099773D01*
X112154076Y-57354076D01*
X111899773Y-57663944D01*
X111766072Y-57914081D01*
X111766072Y-56892000D01*
X111753812Y-56767518D01*
X111717502Y-56647820D01*
X111658537Y-56537506D01*
X111579185Y-56440815D01*
X111482494Y-56361463D01*
X111372180Y-56302498D01*
X111252482Y-56266188D01*
X111128000Y-56253928D01*
X107312000Y-56253928D01*
X107187518Y-56266188D01*
X107067820Y-56302498D01*
X106957506Y-56361463D01*
X106860815Y-56440815D01*
X106781463Y-56537506D01*
X106722498Y-56647820D01*
X106686188Y-56767518D01*
X106673928Y-56892000D01*
X105537000Y-56892000D01*
X105537000Y-52289967D01*
X106061000Y-52289967D01*
X106061000Y-52612033D01*
X106123832Y-52927912D01*
X106247082Y-53225463D01*
X106426013Y-53493252D01*
X106653748Y-53720987D01*
X106921537Y-53899918D01*
X107219088Y-54023168D01*
X107534967Y-54086000D01*
X107857033Y-54086000D01*
X108172912Y-54023168D01*
X108470463Y-53899918D01*
X108680809Y-53759370D01*
X108705463Y-53805494D01*
X108784815Y-53902185D01*
X108881506Y-53981537D01*
X108991820Y-54040502D01*
X109111518Y-54076812D01*
X109236000Y-54089072D01*
X111236000Y-54089072D01*
X111360482Y-54076812D01*
X111480180Y-54040502D01*
X111590494Y-53981537D01*
X111687185Y-53902185D01*
X111766537Y-53805494D01*
X111825502Y-53695180D01*
X111861812Y-53575482D01*
X111874072Y-53451000D01*
X111874072Y-52416967D01*
X111903000Y-52416967D01*
X111903000Y-52739033D01*
X111965832Y-53054912D01*
X112089082Y-53352463D01*
X112268013Y-53620252D01*
X112495748Y-53847987D01*
X112763537Y-54026918D01*
X113061088Y-54150168D01*
X113376967Y-54213000D01*
X113699033Y-54213000D01*
X114014912Y-54150168D01*
X114312463Y-54026918D01*
X114580252Y-53847987D01*
X114807987Y-53620252D01*
X114986918Y-53352463D01*
X115110168Y-53054912D01*
X115173000Y-52739033D01*
X115173000Y-52416967D01*
X119523000Y-52416967D01*
X119523000Y-52739033D01*
X119585832Y-53054912D01*
X119709082Y-53352463D01*
X119888013Y-53620252D01*
X120115748Y-53847987D01*
X120383537Y-54026918D01*
X120681088Y-54150168D01*
X120996967Y-54213000D01*
X121319033Y-54213000D01*
X121634912Y-54150168D01*
X121932463Y-54026918D01*
X122200252Y-53847987D01*
X122427987Y-53620252D01*
X122606918Y-53352463D01*
X122730168Y-53054912D01*
X122793000Y-52739033D01*
X122793000Y-52416967D01*
X122730168Y-52101088D01*
X122606918Y-51803537D01*
X122427987Y-51535748D01*
X122200252Y-51308013D01*
X121932463Y-51129082D01*
X121634912Y-51005832D01*
X121319033Y-50943000D01*
X120996967Y-50943000D01*
X120681088Y-51005832D01*
X120383537Y-51129082D01*
X120115748Y-51308013D01*
X119888013Y-51535748D01*
X119709082Y-51803537D01*
X119585832Y-52101088D01*
X119523000Y-52416967D01*
X115173000Y-52416967D01*
X115110168Y-52101088D01*
X114986918Y-51803537D01*
X114807987Y-51535748D01*
X114580252Y-51308013D01*
X114312463Y-51129082D01*
X114014912Y-51005832D01*
X113699033Y-50943000D01*
X113376967Y-50943000D01*
X113061088Y-51005832D01*
X112763537Y-51129082D01*
X112495748Y-51308013D01*
X112268013Y-51535748D01*
X112089082Y-51803537D01*
X111965832Y-52101088D01*
X111903000Y-52416967D01*
X111874072Y-52416967D01*
X111874072Y-51451000D01*
X111861812Y-51326518D01*
X111825502Y-51206820D01*
X111766537Y-51096506D01*
X111687185Y-50999815D01*
X111590494Y-50920463D01*
X111480180Y-50861498D01*
X111360482Y-50825188D01*
X111236000Y-50812928D01*
X109236000Y-50812928D01*
X109111518Y-50825188D01*
X108991820Y-50861498D01*
X108881506Y-50920463D01*
X108784815Y-50999815D01*
X108705463Y-51096506D01*
X108680809Y-51142630D01*
X108470463Y-51002082D01*
X108172912Y-50878832D01*
X107857033Y-50816000D01*
X107534967Y-50816000D01*
X107219088Y-50878832D01*
X106921537Y-51002082D01*
X106653748Y-51181013D01*
X106426013Y-51408748D01*
X106247082Y-51676537D01*
X106123832Y-51974088D01*
X106061000Y-52289967D01*
X105537000Y-52289967D01*
X105537000Y-47918000D01*
X106461928Y-47918000D01*
X106461928Y-49618000D01*
X106474188Y-49742482D01*
X106510498Y-49862180D01*
X106569463Y-49972494D01*
X106648815Y-50069185D01*
X106745506Y-50148537D01*
X106855820Y-50207502D01*
X106975518Y-50243812D01*
X107100000Y-50256072D01*
X108800000Y-50256072D01*
X108924482Y-50243812D01*
X109044180Y-50207502D01*
X109154494Y-50148537D01*
X109220000Y-50094778D01*
X109285506Y-50148537D01*
X109395820Y-50207502D01*
X109515518Y-50243812D01*
X109640000Y-50256072D01*
X110204250Y-50253000D01*
X110363000Y-50094250D01*
X110363000Y-48895000D01*
X110343000Y-48895000D01*
X110343000Y-48641000D01*
X110363000Y-48641000D01*
X110363000Y-47441750D01*
X110617000Y-47441750D01*
X110617000Y-48641000D01*
X110637000Y-48641000D01*
X110637000Y-48895000D01*
X110617000Y-48895000D01*
X110617000Y-50094250D01*
X110775750Y-50253000D01*
X111340000Y-50256072D01*
X111464482Y-50243812D01*
X111584180Y-50207502D01*
X111694494Y-50148537D01*
X111760000Y-50094778D01*
X111825506Y-50148537D01*
X111935820Y-50207502D01*
X112055518Y-50243812D01*
X112180000Y-50256072D01*
X113880000Y-50256072D01*
X114004482Y-50243812D01*
X114124180Y-50207502D01*
X114234494Y-50148537D01*
X114300000Y-50094778D01*
X114365506Y-50148537D01*
X114475820Y-50207502D01*
X114595518Y-50243812D01*
X114720000Y-50256072D01*
X116420000Y-50256072D01*
X116544482Y-50243812D01*
X116664180Y-50207502D01*
X116774494Y-50148537D01*
X116840000Y-50094778D01*
X116905506Y-50148537D01*
X117015820Y-50207502D01*
X117135518Y-50243812D01*
X117260000Y-50256072D01*
X118960000Y-50256072D01*
X119084482Y-50243812D01*
X119204180Y-50207502D01*
X119314494Y-50148537D01*
X119380000Y-50094778D01*
X119445506Y-50148537D01*
X119555820Y-50207502D01*
X119675518Y-50243812D01*
X119800000Y-50256072D01*
X121500000Y-50256072D01*
X121624482Y-50243812D01*
X121744180Y-50207502D01*
X121854494Y-50148537D01*
X121951185Y-50069185D01*
X122030537Y-49972494D01*
X122089502Y-49862180D01*
X122125812Y-49742482D01*
X122138072Y-49618000D01*
X122138072Y-47918000D01*
X122125812Y-47793518D01*
X122089502Y-47673820D01*
X122030537Y-47563506D01*
X121951185Y-47466815D01*
X121854494Y-47387463D01*
X121744180Y-47328498D01*
X121624482Y-47292188D01*
X121500000Y-47279928D01*
X119800000Y-47279928D01*
X119675518Y-47292188D01*
X119555820Y-47328498D01*
X119445506Y-47387463D01*
X119380000Y-47441222D01*
X119314494Y-47387463D01*
X119204180Y-47328498D01*
X119084482Y-47292188D01*
X118960000Y-47279928D01*
X117260000Y-47279928D01*
X117135518Y-47292188D01*
X117015820Y-47328498D01*
X116905506Y-47387463D01*
X116840000Y-47441222D01*
X116774494Y-47387463D01*
X116664180Y-47328498D01*
X116544482Y-47292188D01*
X116420000Y-47279928D01*
X114720000Y-47279928D01*
X114595518Y-47292188D01*
X114475820Y-47328498D01*
X114365506Y-47387463D01*
X114300000Y-47441222D01*
X114234494Y-47387463D01*
X114124180Y-47328498D01*
X114004482Y-47292188D01*
X113880000Y-47279928D01*
X112180000Y-47279928D01*
X112055518Y-47292188D01*
X111935820Y-47328498D01*
X111825506Y-47387463D01*
X111760000Y-47441222D01*
X111694494Y-47387463D01*
X111584180Y-47328498D01*
X111464482Y-47292188D01*
X111340000Y-47279928D01*
X110775750Y-47283000D01*
X110617000Y-47441750D01*
X110363000Y-47441750D01*
X110204250Y-47283000D01*
X109640000Y-47279928D01*
X109515518Y-47292188D01*
X109395820Y-47328498D01*
X109285506Y-47387463D01*
X109220000Y-47441222D01*
X109154494Y-47387463D01*
X109044180Y-47328498D01*
X108924482Y-47292188D01*
X108800000Y-47279928D01*
X107100000Y-47279928D01*
X106975518Y-47292188D01*
X106855820Y-47328498D01*
X106745506Y-47387463D01*
X106648815Y-47466815D01*
X106569463Y-47563506D01*
X106510498Y-47673820D01*
X106474188Y-47793518D01*
X106461928Y-47918000D01*
X105537000Y-47918000D01*
X105537000Y-46210687D01*
X105577176Y-46161426D01*
X105706626Y-46054336D01*
X105854414Y-45974428D01*
X106014902Y-45924748D01*
X106212306Y-45904000D01*
X122379723Y-45904000D01*
X122579200Y-45923559D01*
G36*
X136546741Y-56084672D02*
G01*
X136115126Y-56373068D01*
X135748068Y-56740126D01*
X135459672Y-57171741D01*
X135261021Y-57651326D01*
X135159750Y-58160451D01*
X135159750Y-58679549D01*
X135261021Y-59188674D01*
X135459672Y-59668259D01*
X135748068Y-60099874D01*
X136115126Y-60466932D01*
X136546741Y-60755328D01*
X137026326Y-60953979D01*
X137075752Y-60963810D01*
X136760386Y-61062483D01*
X136343080Y-61285539D01*
X136126929Y-61652324D01*
X137795000Y-63320395D01*
X139463071Y-61652324D01*
X139246920Y-61285539D01*
X138787002Y-61044833D01*
X138512481Y-60964162D01*
X138563674Y-60953979D01*
X139043259Y-60755328D01*
X139474874Y-60466932D01*
X139841932Y-60099874D01*
X140130328Y-59668259D01*
X140328979Y-59188674D01*
X140430250Y-58679549D01*
X140430250Y-58160451D01*
X140328979Y-57651326D01*
X140130328Y-57171741D01*
X139943411Y-56892000D01*
X143503928Y-56892000D01*
X143503928Y-60708000D01*
X143516188Y-60832482D01*
X143552498Y-60952180D01*
X143611463Y-61062494D01*
X143690815Y-61159185D01*
X143787506Y-61238537D01*
X143897820Y-61297502D01*
X144017518Y-61333812D01*
X144142000Y-61346072D01*
X147958000Y-61346072D01*
X148082482Y-61333812D01*
X148202180Y-61297502D01*
X148312494Y-61238537D01*
X148409185Y-61159185D01*
X148488537Y-61062494D01*
X148547502Y-60952180D01*
X148583812Y-60832482D01*
X148596072Y-60708000D01*
X148596072Y-59685919D01*
X148729773Y-59936056D01*
X148984076Y-60245924D01*
X149293944Y-60500227D01*
X149647471Y-60689191D01*
X150031070Y-60805555D01*
X150330031Y-60835000D01*
X151929969Y-60835000D01*
X152228930Y-60805555D01*
X152612529Y-60689191D01*
X152966056Y-60500227D01*
X153275924Y-60245924D01*
X153530227Y-59936056D01*
X153670000Y-59674559D01*
X153809773Y-59936056D01*
X154064076Y-60245924D01*
X154373944Y-60500227D01*
X154727471Y-60689191D01*
X155111070Y-60805555D01*
X155410031Y-60835000D01*
X157009969Y-60835000D01*
X157308930Y-60805555D01*
X157692529Y-60689191D01*
X158046056Y-60500227D01*
X158355924Y-60245924D01*
X158610227Y-59936056D01*
X158799191Y-59582529D01*
X158915555Y-59198930D01*
X158954846Y-58800000D01*
X158915555Y-58401070D01*
X158799191Y-58017471D01*
X158610227Y-57663944D01*
X158355924Y-57354076D01*
X158046056Y-57099773D01*
X157692529Y-56910809D01*
X157308930Y-56794445D01*
X157009969Y-56765000D01*
X155410031Y-56765000D01*
X155111070Y-56794445D01*
X154727471Y-56910809D01*
X154373944Y-57099773D01*
X154064076Y-57354076D01*
X153809773Y-57663944D01*
X153670000Y-57925441D01*
X153530227Y-57663944D01*
X153275924Y-57354076D01*
X152966056Y-57099773D01*
X152612529Y-56910809D01*
X152228930Y-56794445D01*
X151929969Y-56765000D01*
X150330031Y-56765000D01*
X150031070Y-56794445D01*
X149647471Y-56910809D01*
X149293944Y-57099773D01*
X148984076Y-57354076D01*
X148729773Y-57663944D01*
X148596072Y-57914081D01*
X148596072Y-56892000D01*
X148583812Y-56767518D01*
X148547502Y-56647820D01*
X148488537Y-56537506D01*
X148409185Y-56440815D01*
X148312494Y-56361463D01*
X148202180Y-56302498D01*
X148082482Y-56266188D01*
X147958000Y-56253928D01*
X144142000Y-56253928D01*
X144017518Y-56266188D01*
X143897820Y-56302498D01*
X143787506Y-56361463D01*
X143690815Y-56440815D01*
X143611463Y-56537506D01*
X143552498Y-56647820D01*
X143516188Y-56767518D01*
X143503928Y-56892000D01*
X139943411Y-56892000D01*
X139841932Y-56740126D01*
X139474874Y-56373068D01*
X139043259Y-56084672D01*
X138855743Y-56007000D01*
X163404257Y-56007000D01*
X163216741Y-56084672D01*
X162785126Y-56373068D01*
X162418068Y-56740126D01*
X162129672Y-57171741D01*
X161931021Y-57651326D01*
X161829750Y-58160451D01*
X161829750Y-58679549D01*
X161931021Y-59188674D01*
X162129672Y-59668259D01*
X162418068Y-60099874D01*
X162785126Y-60466932D01*
X163216741Y-60755328D01*
X163696326Y-60953979D01*
X163726596Y-60960000D01*
X163696326Y-60966021D01*
X163216741Y-61164672D01*
X162785126Y-61453068D01*
X162418068Y-61820126D01*
X162129672Y-62251741D01*
X161931021Y-62731326D01*
X161829750Y-63240451D01*
X161829750Y-63759549D01*
X161931021Y-64268674D01*
X162129672Y-64748259D01*
X162418068Y-65179874D01*
X162785126Y-65546932D01*
X163216741Y-65835328D01*
X163696326Y-66033979D01*
X163726596Y-66040000D01*
X163696326Y-66046021D01*
X163216741Y-66244672D01*
X162785126Y-66533068D01*
X162418068Y-66900126D01*
X162129672Y-67331741D01*
X161931021Y-67811326D01*
X161829750Y-68320451D01*
X161829750Y-68839549D01*
X161931021Y-69348674D01*
X162129672Y-69828259D01*
X162418068Y-70259874D01*
X162785126Y-70626932D01*
X163216741Y-70915328D01*
X163696326Y-71113979D01*
X164205451Y-71215250D01*
X164724549Y-71215250D01*
X165233674Y-71113979D01*
X165713259Y-70915328D01*
X166144874Y-70626932D01*
X166511932Y-70259874D01*
X166800328Y-69828259D01*
X166998979Y-69348674D01*
X167100250Y-68839549D01*
X167100250Y-68320451D01*
X166998979Y-67811326D01*
X166800328Y-67331741D01*
X166511932Y-66900126D01*
X166144874Y-66533068D01*
X165713259Y-66244672D01*
X165233674Y-66046021D01*
X165203404Y-66040000D01*
X165233674Y-66033979D01*
X165713259Y-65835328D01*
X166144874Y-65546932D01*
X166511932Y-65179874D01*
X166800328Y-64748259D01*
X166998979Y-64268674D01*
X167100250Y-63759549D01*
X167100250Y-63240451D01*
X166998979Y-62731326D01*
X166800328Y-62251741D01*
X166511932Y-61820126D01*
X166144874Y-61453068D01*
X165713259Y-61164672D01*
X165233674Y-60966021D01*
X165203404Y-60960000D01*
X165233674Y-60953979D01*
X165713259Y-60755328D01*
X166144874Y-60466932D01*
X166511932Y-60099874D01*
X166800328Y-59668259D01*
X166998979Y-59188674D01*
X167100250Y-58679549D01*
X167100250Y-58160451D01*
X166998979Y-57651326D01*
X166800328Y-57171741D01*
X166511932Y-56740126D01*
X166144874Y-56373068D01*
X165713259Y-56084672D01*
X165525743Y-56007000D01*
X167874756Y-56007000D01*
X167954502Y-56264614D01*
X167996001Y-56659452D01*
X167996000Y-70325721D01*
X167957091Y-70722545D01*
X167851220Y-71073206D01*
X167761320Y-71242285D01*
X138768582Y-71029103D01*
X139043259Y-70915328D01*
X139474874Y-70626932D01*
X139841932Y-70259874D01*
X140130328Y-69828259D01*
X140328979Y-69348674D01*
X140430250Y-68839549D01*
X140430250Y-68643160D01*
X143363840Y-68643160D01*
X143421304Y-68861427D01*
X143587401Y-69224988D01*
X143821234Y-69549159D01*
X144113817Y-69821483D01*
X144453906Y-70031494D01*
X144828431Y-70171122D01*
X145223000Y-70235000D01*
X145923000Y-70235000D01*
X145923000Y-68327000D01*
X146177000Y-68327000D01*
X146177000Y-70235000D01*
X146877000Y-70235000D01*
X147271569Y-70171122D01*
X147646094Y-70031494D01*
X147986183Y-69821483D01*
X148278766Y-69549159D01*
X148512599Y-69224988D01*
X148590000Y-69055569D01*
X148667401Y-69224988D01*
X148901234Y-69549159D01*
X149193817Y-69821483D01*
X149533906Y-70031494D01*
X149908431Y-70171122D01*
X150303000Y-70235000D01*
X151003000Y-70235000D01*
X151003000Y-68327000D01*
X146177000Y-68327000D01*
X145923000Y-68327000D01*
X143478053Y-68327000D01*
X143363840Y-68643160D01*
X140430250Y-68643160D01*
X140430250Y-68320451D01*
X140328979Y-67811326D01*
X140306411Y-67756840D01*
X143363840Y-67756840D01*
X143478053Y-68073000D01*
X145923000Y-68073000D01*
X145923000Y-66165000D01*
X146177000Y-66165000D01*
X146177000Y-68073000D01*
X151003000Y-68073000D01*
X151003000Y-66165000D01*
X151257000Y-66165000D01*
X151257000Y-68073000D01*
X151277000Y-68073000D01*
X151277000Y-68327000D01*
X151257000Y-68327000D01*
X151257000Y-70235000D01*
X151957000Y-70235000D01*
X152351569Y-70171122D01*
X152726094Y-70031494D01*
X153066183Y-69821483D01*
X153358766Y-69549159D01*
X153592599Y-69224988D01*
X153665322Y-69065808D01*
X153809773Y-69336056D01*
X154064076Y-69645924D01*
X154373944Y-69900227D01*
X154727471Y-70089191D01*
X155111070Y-70205555D01*
X155410031Y-70235000D01*
X157009969Y-70235000D01*
X157308930Y-70205555D01*
X157692529Y-70089191D01*
X158046056Y-69900227D01*
X158355924Y-69645924D01*
X158610227Y-69336056D01*
X158799191Y-68982529D01*
X158915555Y-68598930D01*
X158954846Y-68200000D01*
X158915555Y-67801070D01*
X158799191Y-67417471D01*
X158610227Y-67063944D01*
X158355924Y-66754076D01*
X158046056Y-66499773D01*
X157692529Y-66310809D01*
X157308930Y-66194445D01*
X157009969Y-66165000D01*
X155410031Y-66165000D01*
X155111070Y-66194445D01*
X154727471Y-66310809D01*
X154373944Y-66499773D01*
X154064076Y-66754076D01*
X153809773Y-67063944D01*
X153665322Y-67334192D01*
X153592599Y-67175012D01*
X153358766Y-66850841D01*
X153066183Y-66578517D01*
X152726094Y-66368506D01*
X152351569Y-66228878D01*
X151957000Y-66165000D01*
X151257000Y-66165000D01*
X151003000Y-66165000D01*
X150303000Y-66165000D01*
X149908431Y-66228878D01*
X149533906Y-66368506D01*
X149193817Y-66578517D01*
X148901234Y-66850841D01*
X148667401Y-67175012D01*
X148590000Y-67344431D01*
X148512599Y-67175012D01*
X148278766Y-66850841D01*
X147986183Y-66578517D01*
X147646094Y-66368506D01*
X147271569Y-66228878D01*
X146877000Y-66165000D01*
X146177000Y-66165000D01*
X145923000Y-66165000D01*
X145223000Y-66165000D01*
X144828431Y-66228878D01*
X144453906Y-66368506D01*
X144113817Y-66578517D01*
X143821234Y-66850841D01*
X143587401Y-67175012D01*
X143421304Y-67538573D01*
X143363840Y-67756840D01*
X140306411Y-67756840D01*
X140130328Y-67331741D01*
X139841932Y-66900126D01*
X139474874Y-66533068D01*
X139043259Y-66244672D01*
X138563674Y-66046021D01*
X138514248Y-66036190D01*
X138829614Y-65937517D01*
X139246920Y-65714461D01*
X139463071Y-65347676D01*
X137795000Y-63679605D01*
X136126929Y-65347676D01*
X136343080Y-65714461D01*
X136802998Y-65955167D01*
X137077519Y-66035838D01*
X137026326Y-66046021D01*
X136546741Y-66244672D01*
X136115126Y-66533068D01*
X135748068Y-66900126D01*
X135459672Y-67331741D01*
X135261021Y-67811326D01*
X135159750Y-68320451D01*
X135159750Y-68839549D01*
X135261021Y-69348674D01*
X135459672Y-69828259D01*
X135748068Y-70259874D01*
X136115126Y-70626932D01*
X136546741Y-70915328D01*
X136786229Y-71014527D01*
X134386445Y-70996882D01*
X134305498Y-70735385D01*
X134264000Y-70340557D01*
X134264000Y-63523062D01*
X135147099Y-63523062D01*
X135202476Y-64039199D01*
X135357483Y-64534614D01*
X135580539Y-64951920D01*
X135947324Y-65168071D01*
X137615395Y-63500000D01*
X137974605Y-63500000D01*
X139642676Y-65168071D01*
X140009461Y-64951920D01*
X140250167Y-64492002D01*
X140396522Y-63993961D01*
X140401079Y-63943160D01*
X143363840Y-63943160D01*
X143421304Y-64161427D01*
X143587401Y-64524988D01*
X143821234Y-64849159D01*
X144113817Y-65121483D01*
X144453906Y-65331494D01*
X144828431Y-65471122D01*
X145223000Y-65535000D01*
X145923000Y-65535000D01*
X145923000Y-63627000D01*
X143478053Y-63627000D01*
X143363840Y-63943160D01*
X140401079Y-63943160D01*
X140442901Y-63476938D01*
X140397829Y-63056840D01*
X143363840Y-63056840D01*
X143478053Y-63373000D01*
X145923000Y-63373000D01*
X145923000Y-61465000D01*
X146177000Y-61465000D01*
X146177000Y-63373000D01*
X146197000Y-63373000D01*
X146197000Y-63627000D01*
X146177000Y-63627000D01*
X146177000Y-65535000D01*
X146877000Y-65535000D01*
X147271569Y-65471122D01*
X147646094Y-65331494D01*
X147986183Y-65121483D01*
X148278766Y-64849159D01*
X148512599Y-64524988D01*
X148585322Y-64365808D01*
X148729773Y-64636056D01*
X148984076Y-64945924D01*
X149293944Y-65200227D01*
X149647471Y-65389191D01*
X150031070Y-65505555D01*
X150330031Y-65535000D01*
X151929969Y-65535000D01*
X152228930Y-65505555D01*
X152612529Y-65389191D01*
X152966056Y-65200227D01*
X153275924Y-64945924D01*
X153530227Y-64636056D01*
X153670000Y-64374559D01*
X153809773Y-64636056D01*
X154064076Y-64945924D01*
X154373944Y-65200227D01*
X154727471Y-65389191D01*
X155111070Y-65505555D01*
X155410031Y-65535000D01*
X157009969Y-65535000D01*
X157308930Y-65505555D01*
X157692529Y-65389191D01*
X158046056Y-65200227D01*
X158355924Y-64945924D01*
X158610227Y-64636056D01*
X158799191Y-64282529D01*
X158915555Y-63898930D01*
X158954846Y-63500000D01*
X158915555Y-63101070D01*
X158799191Y-62717471D01*
X158610227Y-62363944D01*
X158355924Y-62054076D01*
X158046056Y-61799773D01*
X157692529Y-61610809D01*
X157308930Y-61494445D01*
X157009969Y-61465000D01*
X155410031Y-61465000D01*
X155111070Y-61494445D01*
X154727471Y-61610809D01*
X154373944Y-61799773D01*
X154064076Y-62054076D01*
X153809773Y-62363944D01*
X153670000Y-62625441D01*
X153530227Y-62363944D01*
X153275924Y-62054076D01*
X152966056Y-61799773D01*
X152612529Y-61610809D01*
X152228930Y-61494445D01*
X151929969Y-61465000D01*
X150330031Y-61465000D01*
X150031070Y-61494445D01*
X149647471Y-61610809D01*
X149293944Y-61799773D01*
X148984076Y-62054076D01*
X148729773Y-62363944D01*
X148585322Y-62634192D01*
X148512599Y-62475012D01*
X148278766Y-62150841D01*
X147986183Y-61878517D01*
X147646094Y-61668506D01*
X147271569Y-61528878D01*
X146877000Y-61465000D01*
X146177000Y-61465000D01*
X145923000Y-61465000D01*
X145223000Y-61465000D01*
X144828431Y-61528878D01*
X144453906Y-61668506D01*
X144113817Y-61878517D01*
X143821234Y-62150841D01*
X143587401Y-62475012D01*
X143421304Y-62838573D01*
X143363840Y-63056840D01*
X140397829Y-63056840D01*
X140387524Y-62960801D01*
X140232517Y-62465386D01*
X140009461Y-62048080D01*
X139642676Y-61831929D01*
X137974605Y-63500000D01*
X137615395Y-63500000D01*
X135947324Y-61831929D01*
X135580539Y-62048080D01*
X135339833Y-62507998D01*
X135193478Y-63006039D01*
X135147099Y-63523062D01*
X134264000Y-63523062D01*
X134264000Y-56674279D01*
X134302909Y-56277455D01*
X134384564Y-56007000D01*
X136734257Y-56007000D01*
X136546741Y-56084672D01*
G37*
X136546741Y-56084672D02*
X136115126Y-56373068D01*
X135748068Y-56740126D01*
X135459672Y-57171741D01*
X135261021Y-57651326D01*
X135159750Y-58160451D01*
X135159750Y-58679549D01*
X135261021Y-59188674D01*
X135459672Y-59668259D01*
X135748068Y-60099874D01*
X136115126Y-60466932D01*
X136546741Y-60755328D01*
X137026326Y-60953979D01*
X137075752Y-60963810D01*
X136760386Y-61062483D01*
X136343080Y-61285539D01*
X136126929Y-61652324D01*
X137795000Y-63320395D01*
X139463071Y-61652324D01*
X139246920Y-61285539D01*
X138787002Y-61044833D01*
X138512481Y-60964162D01*
X138563674Y-60953979D01*
X139043259Y-60755328D01*
X139474874Y-60466932D01*
X139841932Y-60099874D01*
X140130328Y-59668259D01*
X140328979Y-59188674D01*
X140430250Y-58679549D01*
X140430250Y-58160451D01*
X140328979Y-57651326D01*
X140130328Y-57171741D01*
X139943411Y-56892000D01*
X143503928Y-56892000D01*
X143503928Y-60708000D01*
X143516188Y-60832482D01*
X143552498Y-60952180D01*
X143611463Y-61062494D01*
X143690815Y-61159185D01*
X143787506Y-61238537D01*
X143897820Y-61297502D01*
X144017518Y-61333812D01*
X144142000Y-61346072D01*
X147958000Y-61346072D01*
X148082482Y-61333812D01*
X148202180Y-61297502D01*
X148312494Y-61238537D01*
X148409185Y-61159185D01*
X148488537Y-61062494D01*
X148547502Y-60952180D01*
X148583812Y-60832482D01*
X148596072Y-60708000D01*
X148596072Y-59685919D01*
X148729773Y-59936056D01*
X148984076Y-60245924D01*
X149293944Y-60500227D01*
X149647471Y-60689191D01*
X150031070Y-60805555D01*
X150330031Y-60835000D01*
X151929969Y-60835000D01*
X152228930Y-60805555D01*
X152612529Y-60689191D01*
X152966056Y-60500227D01*
X153275924Y-60245924D01*
X153530227Y-59936056D01*
X153670000Y-59674559D01*
X153809773Y-59936056D01*
X154064076Y-60245924D01*
X154373944Y-60500227D01*
X154727471Y-60689191D01*
X155111070Y-60805555D01*
X155410031Y-60835000D01*
X157009969Y-60835000D01*
X157308930Y-60805555D01*
X157692529Y-60689191D01*
X158046056Y-60500227D01*
X158355924Y-60245924D01*
X158610227Y-59936056D01*
X158799191Y-59582529D01*
X158915555Y-59198930D01*
X158954846Y-58800000D01*
X158915555Y-58401070D01*
X158799191Y-58017471D01*
X158610227Y-57663944D01*
X158355924Y-57354076D01*
X158046056Y-57099773D01*
X157692529Y-56910809D01*
X157308930Y-56794445D01*
X157009969Y-56765000D01*
X155410031Y-56765000D01*
X155111070Y-56794445D01*
X154727471Y-56910809D01*
X154373944Y-57099773D01*
X154064076Y-57354076D01*
X153809773Y-57663944D01*
X153670000Y-57925441D01*
X153530227Y-57663944D01*
X153275924Y-57354076D01*
X152966056Y-57099773D01*
X152612529Y-56910809D01*
X152228930Y-56794445D01*
X151929969Y-56765000D01*
X150330031Y-56765000D01*
X150031070Y-56794445D01*
X149647471Y-56910809D01*
X149293944Y-57099773D01*
X148984076Y-57354076D01*
X148729773Y-57663944D01*
X148596072Y-57914081D01*
X148596072Y-56892000D01*
X148583812Y-56767518D01*
X148547502Y-56647820D01*
X148488537Y-56537506D01*
X148409185Y-56440815D01*
X148312494Y-56361463D01*
X148202180Y-56302498D01*
X148082482Y-56266188D01*
X147958000Y-56253928D01*
X144142000Y-56253928D01*
X144017518Y-56266188D01*
X143897820Y-56302498D01*
X143787506Y-56361463D01*
X143690815Y-56440815D01*
X143611463Y-56537506D01*
X143552498Y-56647820D01*
X143516188Y-56767518D01*
X143503928Y-56892000D01*
X139943411Y-56892000D01*
X139841932Y-56740126D01*
X139474874Y-56373068D01*
X139043259Y-56084672D01*
X138855743Y-56007000D01*
X163404257Y-56007000D01*
X163216741Y-56084672D01*
X162785126Y-56373068D01*
X162418068Y-56740126D01*
X162129672Y-57171741D01*
X161931021Y-57651326D01*
X161829750Y-58160451D01*
X161829750Y-58679549D01*
X161931021Y-59188674D01*
X162129672Y-59668259D01*
X162418068Y-60099874D01*
X162785126Y-60466932D01*
X163216741Y-60755328D01*
X163696326Y-60953979D01*
X163726596Y-60960000D01*
X163696326Y-60966021D01*
X163216741Y-61164672D01*
X162785126Y-61453068D01*
X162418068Y-61820126D01*
X162129672Y-62251741D01*
X161931021Y-62731326D01*
X161829750Y-63240451D01*
X161829750Y-63759549D01*
X161931021Y-64268674D01*
X162129672Y-64748259D01*
X162418068Y-65179874D01*
X162785126Y-65546932D01*
X163216741Y-65835328D01*
X163696326Y-66033979D01*
X163726596Y-66040000D01*
X163696326Y-66046021D01*
X163216741Y-66244672D01*
X162785126Y-66533068D01*
X162418068Y-66900126D01*
X162129672Y-67331741D01*
X161931021Y-67811326D01*
X161829750Y-68320451D01*
X161829750Y-68839549D01*
X161931021Y-69348674D01*
X162129672Y-69828259D01*
X162418068Y-70259874D01*
X162785126Y-70626932D01*
X163216741Y-70915328D01*
X163696326Y-71113979D01*
X164205451Y-71215250D01*
X164724549Y-71215250D01*
X165233674Y-71113979D01*
X165713259Y-70915328D01*
X166144874Y-70626932D01*
X166511932Y-70259874D01*
X166800328Y-69828259D01*
X166998979Y-69348674D01*
X167100250Y-68839549D01*
X167100250Y-68320451D01*
X166998979Y-67811326D01*
X166800328Y-67331741D01*
X166511932Y-66900126D01*
X166144874Y-66533068D01*
X165713259Y-66244672D01*
X165233674Y-66046021D01*
X165203404Y-66040000D01*
X165233674Y-66033979D01*
X165713259Y-65835328D01*
X166144874Y-65546932D01*
X166511932Y-65179874D01*
X166800328Y-64748259D01*
X166998979Y-64268674D01*
X167100250Y-63759549D01*
X167100250Y-63240451D01*
X166998979Y-62731326D01*
X166800328Y-62251741D01*
X166511932Y-61820126D01*
X166144874Y-61453068D01*
X165713259Y-61164672D01*
X165233674Y-60966021D01*
X165203404Y-60960000D01*
X165233674Y-60953979D01*
X165713259Y-60755328D01*
X166144874Y-60466932D01*
X166511932Y-60099874D01*
X166800328Y-59668259D01*
X166998979Y-59188674D01*
X167100250Y-58679549D01*
X167100250Y-58160451D01*
X166998979Y-57651326D01*
X166800328Y-57171741D01*
X166511932Y-56740126D01*
X166144874Y-56373068D01*
X165713259Y-56084672D01*
X165525743Y-56007000D01*
X167874756Y-56007000D01*
X167954502Y-56264614D01*
X167996001Y-56659452D01*
X167996000Y-70325721D01*
X167957091Y-70722545D01*
X167851220Y-71073206D01*
X167761320Y-71242285D01*
X138768582Y-71029103D01*
X139043259Y-70915328D01*
X139474874Y-70626932D01*
X139841932Y-70259874D01*
X140130328Y-69828259D01*
X140328979Y-69348674D01*
X140430250Y-68839549D01*
X140430250Y-68643160D01*
X143363840Y-68643160D01*
X143421304Y-68861427D01*
X143587401Y-69224988D01*
X143821234Y-69549159D01*
X144113817Y-69821483D01*
X144453906Y-70031494D01*
X144828431Y-70171122D01*
X145223000Y-70235000D01*
X145923000Y-70235000D01*
X145923000Y-68327000D01*
X146177000Y-68327000D01*
X146177000Y-70235000D01*
X146877000Y-70235000D01*
X147271569Y-70171122D01*
X147646094Y-70031494D01*
X147986183Y-69821483D01*
X148278766Y-69549159D01*
X148512599Y-69224988D01*
X148590000Y-69055569D01*
X148667401Y-69224988D01*
X148901234Y-69549159D01*
X149193817Y-69821483D01*
X149533906Y-70031494D01*
X149908431Y-70171122D01*
X150303000Y-70235000D01*
X151003000Y-70235000D01*
X151003000Y-68327000D01*
X146177000Y-68327000D01*
X145923000Y-68327000D01*
X143478053Y-68327000D01*
X143363840Y-68643160D01*
X140430250Y-68643160D01*
X140430250Y-68320451D01*
X140328979Y-67811326D01*
X140306411Y-67756840D01*
X143363840Y-67756840D01*
X143478053Y-68073000D01*
X145923000Y-68073000D01*
X145923000Y-66165000D01*
X146177000Y-66165000D01*
X146177000Y-68073000D01*
X151003000Y-68073000D01*
X151003000Y-66165000D01*
X151257000Y-66165000D01*
X151257000Y-68073000D01*
X151277000Y-68073000D01*
X151277000Y-68327000D01*
X151257000Y-68327000D01*
X151257000Y-70235000D01*
X151957000Y-70235000D01*
X152351569Y-70171122D01*
X152726094Y-70031494D01*
X153066183Y-69821483D01*
X153358766Y-69549159D01*
X153592599Y-69224988D01*
X153665322Y-69065808D01*
X153809773Y-69336056D01*
X154064076Y-69645924D01*
X154373944Y-69900227D01*
X154727471Y-70089191D01*
X155111070Y-70205555D01*
X155410031Y-70235000D01*
X157009969Y-70235000D01*
X157308930Y-70205555D01*
X157692529Y-70089191D01*
X158046056Y-69900227D01*
X158355924Y-69645924D01*
X158610227Y-69336056D01*
X158799191Y-68982529D01*
X158915555Y-68598930D01*
X158954846Y-68200000D01*
X158915555Y-67801070D01*
X158799191Y-67417471D01*
X158610227Y-67063944D01*
X158355924Y-66754076D01*
X158046056Y-66499773D01*
X157692529Y-66310809D01*
X157308930Y-66194445D01*
X157009969Y-66165000D01*
X155410031Y-66165000D01*
X155111070Y-66194445D01*
X154727471Y-66310809D01*
X154373944Y-66499773D01*
X154064076Y-66754076D01*
X153809773Y-67063944D01*
X153665322Y-67334192D01*
X153592599Y-67175012D01*
X153358766Y-66850841D01*
X153066183Y-66578517D01*
X152726094Y-66368506D01*
X152351569Y-66228878D01*
X151957000Y-66165000D01*
X151257000Y-66165000D01*
X151003000Y-66165000D01*
X150303000Y-66165000D01*
X149908431Y-66228878D01*
X149533906Y-66368506D01*
X149193817Y-66578517D01*
X148901234Y-66850841D01*
X148667401Y-67175012D01*
X148590000Y-67344431D01*
X148512599Y-67175012D01*
X148278766Y-66850841D01*
X147986183Y-66578517D01*
X147646094Y-66368506D01*
X147271569Y-66228878D01*
X146877000Y-66165000D01*
X146177000Y-66165000D01*
X145923000Y-66165000D01*
X145223000Y-66165000D01*
X144828431Y-66228878D01*
X144453906Y-66368506D01*
X144113817Y-66578517D01*
X143821234Y-66850841D01*
X143587401Y-67175012D01*
X143421304Y-67538573D01*
X143363840Y-67756840D01*
X140306411Y-67756840D01*
X140130328Y-67331741D01*
X139841932Y-66900126D01*
X139474874Y-66533068D01*
X139043259Y-66244672D01*
X138563674Y-66046021D01*
X138514248Y-66036190D01*
X138829614Y-65937517D01*
X139246920Y-65714461D01*
X139463071Y-65347676D01*
X137795000Y-63679605D01*
X136126929Y-65347676D01*
X136343080Y-65714461D01*
X136802998Y-65955167D01*
X137077519Y-66035838D01*
X137026326Y-66046021D01*
X136546741Y-66244672D01*
X136115126Y-66533068D01*
X135748068Y-66900126D01*
X135459672Y-67331741D01*
X135261021Y-67811326D01*
X135159750Y-68320451D01*
X135159750Y-68839549D01*
X135261021Y-69348674D01*
X135459672Y-69828259D01*
X135748068Y-70259874D01*
X136115126Y-70626932D01*
X136546741Y-70915328D01*
X136786229Y-71014527D01*
X134386445Y-70996882D01*
X134305498Y-70735385D01*
X134264000Y-70340557D01*
X134264000Y-63523062D01*
X135147099Y-63523062D01*
X135202476Y-64039199D01*
X135357483Y-64534614D01*
X135580539Y-64951920D01*
X135947324Y-65168071D01*
X137615395Y-63500000D01*
X137974605Y-63500000D01*
X139642676Y-65168071D01*
X140009461Y-64951920D01*
X140250167Y-64492002D01*
X140396522Y-63993961D01*
X140401079Y-63943160D01*
X143363840Y-63943160D01*
X143421304Y-64161427D01*
X143587401Y-64524988D01*
X143821234Y-64849159D01*
X144113817Y-65121483D01*
X144453906Y-65331494D01*
X144828431Y-65471122D01*
X145223000Y-65535000D01*
X145923000Y-65535000D01*
X145923000Y-63627000D01*
X143478053Y-63627000D01*
X143363840Y-63943160D01*
X140401079Y-63943160D01*
X140442901Y-63476938D01*
X140397829Y-63056840D01*
X143363840Y-63056840D01*
X143478053Y-63373000D01*
X145923000Y-63373000D01*
X145923000Y-61465000D01*
X146177000Y-61465000D01*
X146177000Y-63373000D01*
X146197000Y-63373000D01*
X146197000Y-63627000D01*
X146177000Y-63627000D01*
X146177000Y-65535000D01*
X146877000Y-65535000D01*
X147271569Y-65471122D01*
X147646094Y-65331494D01*
X147986183Y-65121483D01*
X148278766Y-64849159D01*
X148512599Y-64524988D01*
X148585322Y-64365808D01*
X148729773Y-64636056D01*
X148984076Y-64945924D01*
X149293944Y-65200227D01*
X149647471Y-65389191D01*
X150031070Y-65505555D01*
X150330031Y-65535000D01*
X151929969Y-65535000D01*
X152228930Y-65505555D01*
X152612529Y-65389191D01*
X152966056Y-65200227D01*
X153275924Y-64945924D01*
X153530227Y-64636056D01*
X153670000Y-64374559D01*
X153809773Y-64636056D01*
X154064076Y-64945924D01*
X154373944Y-65200227D01*
X154727471Y-65389191D01*
X155111070Y-65505555D01*
X155410031Y-65535000D01*
X157009969Y-65535000D01*
X157308930Y-65505555D01*
X157692529Y-65389191D01*
X158046056Y-65200227D01*
X158355924Y-64945924D01*
X158610227Y-64636056D01*
X158799191Y-64282529D01*
X158915555Y-63898930D01*
X158954846Y-63500000D01*
X158915555Y-63101070D01*
X158799191Y-62717471D01*
X158610227Y-62363944D01*
X158355924Y-62054076D01*
X158046056Y-61799773D01*
X157692529Y-61610809D01*
X157308930Y-61494445D01*
X157009969Y-61465000D01*
X155410031Y-61465000D01*
X155111070Y-61494445D01*
X154727471Y-61610809D01*
X154373944Y-61799773D01*
X154064076Y-62054076D01*
X153809773Y-62363944D01*
X153670000Y-62625441D01*
X153530227Y-62363944D01*
X153275924Y-62054076D01*
X152966056Y-61799773D01*
X152612529Y-61610809D01*
X152228930Y-61494445D01*
X151929969Y-61465000D01*
X150330031Y-61465000D01*
X150031070Y-61494445D01*
X149647471Y-61610809D01*
X149293944Y-61799773D01*
X148984076Y-62054076D01*
X148729773Y-62363944D01*
X148585322Y-62634192D01*
X148512599Y-62475012D01*
X148278766Y-62150841D01*
X147986183Y-61878517D01*
X147646094Y-61668506D01*
X147271569Y-61528878D01*
X146877000Y-61465000D01*
X146177000Y-61465000D01*
X145923000Y-61465000D01*
X145223000Y-61465000D01*
X144828431Y-61528878D01*
X144453906Y-61668506D01*
X144113817Y-61878517D01*
X143821234Y-62150841D01*
X143587401Y-62475012D01*
X143421304Y-62838573D01*
X143363840Y-63056840D01*
X140397829Y-63056840D01*
X140387524Y-62960801D01*
X140232517Y-62465386D01*
X140009461Y-62048080D01*
X139642676Y-61831929D01*
X137974605Y-63500000D01*
X137615395Y-63500000D01*
X135947324Y-61831929D01*
X135580539Y-62048080D01*
X135339833Y-62507998D01*
X135193478Y-63006039D01*
X135147099Y-63523062D01*
X134264000Y-63523062D01*
X134264000Y-56674279D01*
X134302909Y-56277455D01*
X134384564Y-56007000D01*
X136734257Y-56007000D01*
X136546741Y-56084672D01*
G36*
X180996741Y-56084672D02*
G01*
X180565126Y-56373068D01*
X180198068Y-56740126D01*
X179909672Y-57171741D01*
X179711021Y-57651326D01*
X179609750Y-58160451D01*
X179609750Y-58679549D01*
X179711021Y-59188674D01*
X179909672Y-59668259D01*
X180198068Y-60099874D01*
X180565126Y-60466932D01*
X180996741Y-60755328D01*
X181476326Y-60953979D01*
X181525752Y-60963810D01*
X181210386Y-61062483D01*
X180793080Y-61285539D01*
X180576929Y-61652324D01*
X182245000Y-63320395D01*
X183913071Y-61652324D01*
X183696920Y-61285539D01*
X183237002Y-61044833D01*
X182962481Y-60964162D01*
X183013674Y-60953979D01*
X183493259Y-60755328D01*
X183924874Y-60466932D01*
X184291932Y-60099874D01*
X184580328Y-59668259D01*
X184778979Y-59188674D01*
X184880250Y-58679549D01*
X184880250Y-58160451D01*
X184778979Y-57651326D01*
X184580328Y-57171741D01*
X184393411Y-56892000D01*
X187953928Y-56892000D01*
X187953928Y-60708000D01*
X187966188Y-60832482D01*
X188002498Y-60952180D01*
X188061463Y-61062494D01*
X188140815Y-61159185D01*
X188237506Y-61238537D01*
X188347820Y-61297502D01*
X188467518Y-61333812D01*
X188592000Y-61346072D01*
X192408000Y-61346072D01*
X192532482Y-61333812D01*
X192652180Y-61297502D01*
X192762494Y-61238537D01*
X192859185Y-61159185D01*
X192938537Y-61062494D01*
X192997502Y-60952180D01*
X193033812Y-60832482D01*
X193046072Y-60708000D01*
X193046072Y-59685919D01*
X193179773Y-59936056D01*
X193434076Y-60245924D01*
X193743944Y-60500227D01*
X194097471Y-60689191D01*
X194481070Y-60805555D01*
X194780031Y-60835000D01*
X196379969Y-60835000D01*
X196678930Y-60805555D01*
X197062529Y-60689191D01*
X197416056Y-60500227D01*
X197725924Y-60245924D01*
X197980227Y-59936056D01*
X198120000Y-59674559D01*
X198259773Y-59936056D01*
X198514076Y-60245924D01*
X198823944Y-60500227D01*
X199177471Y-60689191D01*
X199561070Y-60805555D01*
X199860031Y-60835000D01*
X201459969Y-60835000D01*
X201758930Y-60805555D01*
X202142529Y-60689191D01*
X202496056Y-60500227D01*
X202805924Y-60245924D01*
X203060227Y-59936056D01*
X203249191Y-59582529D01*
X203365555Y-59198930D01*
X203404846Y-58800000D01*
X203365555Y-58401070D01*
X203249191Y-58017471D01*
X203060227Y-57663944D01*
X202805924Y-57354076D01*
X202496056Y-57099773D01*
X202142529Y-56910809D01*
X201758930Y-56794445D01*
X201459969Y-56765000D01*
X199860031Y-56765000D01*
X199561070Y-56794445D01*
X199177471Y-56910809D01*
X198823944Y-57099773D01*
X198514076Y-57354076D01*
X198259773Y-57663944D01*
X198120000Y-57925441D01*
X197980227Y-57663944D01*
X197725924Y-57354076D01*
X197416056Y-57099773D01*
X197062529Y-56910809D01*
X196678930Y-56794445D01*
X196379969Y-56765000D01*
X194780031Y-56765000D01*
X194481070Y-56794445D01*
X194097471Y-56910809D01*
X193743944Y-57099773D01*
X193434076Y-57354076D01*
X193179773Y-57663944D01*
X193046072Y-57914081D01*
X193046072Y-56892000D01*
X193033812Y-56767518D01*
X192997502Y-56647820D01*
X192938537Y-56537506D01*
X192859185Y-56440815D01*
X192762494Y-56361463D01*
X192652180Y-56302498D01*
X192532482Y-56266188D01*
X192408000Y-56253928D01*
X188592000Y-56253928D01*
X188467518Y-56266188D01*
X188347820Y-56302498D01*
X188237506Y-56361463D01*
X188140815Y-56440815D01*
X188061463Y-56537506D01*
X188002498Y-56647820D01*
X187966188Y-56767518D01*
X187953928Y-56892000D01*
X184393411Y-56892000D01*
X184291932Y-56740126D01*
X183924874Y-56373068D01*
X183493259Y-56084672D01*
X183305743Y-56007000D01*
X207854257Y-56007000D01*
X207666741Y-56084672D01*
X207235126Y-56373068D01*
X206868068Y-56740126D01*
X206579672Y-57171741D01*
X206381021Y-57651326D01*
X206279750Y-58160451D01*
X206279750Y-58679549D01*
X206381021Y-59188674D01*
X206579672Y-59668259D01*
X206868068Y-60099874D01*
X207235126Y-60466932D01*
X207666741Y-60755328D01*
X208146326Y-60953979D01*
X208176596Y-60960000D01*
X208146326Y-60966021D01*
X207666741Y-61164672D01*
X207235126Y-61453068D01*
X206868068Y-61820126D01*
X206579672Y-62251741D01*
X206381021Y-62731326D01*
X206279750Y-63240451D01*
X206279750Y-63759549D01*
X206381021Y-64268674D01*
X206579672Y-64748259D01*
X206868068Y-65179874D01*
X207235126Y-65546932D01*
X207666741Y-65835328D01*
X208146326Y-66033979D01*
X208176596Y-66040000D01*
X208146326Y-66046021D01*
X207666741Y-66244672D01*
X207235126Y-66533068D01*
X206868068Y-66900126D01*
X206579672Y-67331741D01*
X206381021Y-67811326D01*
X206279750Y-68320451D01*
X206279750Y-68839549D01*
X206381021Y-69348674D01*
X206579672Y-69828259D01*
X206868068Y-70259874D01*
X207235126Y-70626932D01*
X207666741Y-70915328D01*
X207854257Y-70993000D01*
X183305743Y-70993000D01*
X183493259Y-70915328D01*
X183924874Y-70626932D01*
X184291932Y-70259874D01*
X184580328Y-69828259D01*
X184778979Y-69348674D01*
X184880250Y-68839549D01*
X184880250Y-68643160D01*
X187813840Y-68643160D01*
X187871304Y-68861427D01*
X188037401Y-69224988D01*
X188271234Y-69549159D01*
X188563817Y-69821483D01*
X188903906Y-70031494D01*
X189278431Y-70171122D01*
X189673000Y-70235000D01*
X190373000Y-70235000D01*
X190373000Y-68327000D01*
X190627000Y-68327000D01*
X190627000Y-70235000D01*
X191327000Y-70235000D01*
X191721569Y-70171122D01*
X192096094Y-70031494D01*
X192436183Y-69821483D01*
X192728766Y-69549159D01*
X192962599Y-69224988D01*
X193040000Y-69055569D01*
X193117401Y-69224988D01*
X193351234Y-69549159D01*
X193643817Y-69821483D01*
X193983906Y-70031494D01*
X194358431Y-70171122D01*
X194753000Y-70235000D01*
X195453000Y-70235000D01*
X195453000Y-68327000D01*
X190627000Y-68327000D01*
X190373000Y-68327000D01*
X187928053Y-68327000D01*
X187813840Y-68643160D01*
X184880250Y-68643160D01*
X184880250Y-68320451D01*
X184778979Y-67811326D01*
X184756411Y-67756840D01*
X187813840Y-67756840D01*
X187928053Y-68073000D01*
X190373000Y-68073000D01*
X190373000Y-66165000D01*
X190627000Y-66165000D01*
X190627000Y-68073000D01*
X195453000Y-68073000D01*
X195453000Y-66165000D01*
X195707000Y-66165000D01*
X195707000Y-68073000D01*
X195727000Y-68073000D01*
X195727000Y-68327000D01*
X195707000Y-68327000D01*
X195707000Y-70235000D01*
X196407000Y-70235000D01*
X196801569Y-70171122D01*
X197176094Y-70031494D01*
X197516183Y-69821483D01*
X197808766Y-69549159D01*
X198042599Y-69224988D01*
X198115322Y-69065808D01*
X198259773Y-69336056D01*
X198514076Y-69645924D01*
X198823944Y-69900227D01*
X199177471Y-70089191D01*
X199561070Y-70205555D01*
X199860031Y-70235000D01*
X201459969Y-70235000D01*
X201758930Y-70205555D01*
X202142529Y-70089191D01*
X202496056Y-69900227D01*
X202805924Y-69645924D01*
X203060227Y-69336056D01*
X203249191Y-68982529D01*
X203365555Y-68598930D01*
X203404846Y-68200000D01*
X203365555Y-67801070D01*
X203249191Y-67417471D01*
X203060227Y-67063944D01*
X202805924Y-66754076D01*
X202496056Y-66499773D01*
X202142529Y-66310809D01*
X201758930Y-66194445D01*
X201459969Y-66165000D01*
X199860031Y-66165000D01*
X199561070Y-66194445D01*
X199177471Y-66310809D01*
X198823944Y-66499773D01*
X198514076Y-66754076D01*
X198259773Y-67063944D01*
X198115322Y-67334192D01*
X198042599Y-67175012D01*
X197808766Y-66850841D01*
X197516183Y-66578517D01*
X197176094Y-66368506D01*
X196801569Y-66228878D01*
X196407000Y-66165000D01*
X195707000Y-66165000D01*
X195453000Y-66165000D01*
X194753000Y-66165000D01*
X194358431Y-66228878D01*
X193983906Y-66368506D01*
X193643817Y-66578517D01*
X193351234Y-66850841D01*
X193117401Y-67175012D01*
X193040000Y-67344431D01*
X192962599Y-67175012D01*
X192728766Y-66850841D01*
X192436183Y-66578517D01*
X192096094Y-66368506D01*
X191721569Y-66228878D01*
X191327000Y-66165000D01*
X190627000Y-66165000D01*
X190373000Y-66165000D01*
X189673000Y-66165000D01*
X189278431Y-66228878D01*
X188903906Y-66368506D01*
X188563817Y-66578517D01*
X188271234Y-66850841D01*
X188037401Y-67175012D01*
X187871304Y-67538573D01*
X187813840Y-67756840D01*
X184756411Y-67756840D01*
X184580328Y-67331741D01*
X184291932Y-66900126D01*
X183924874Y-66533068D01*
X183493259Y-66244672D01*
X183013674Y-66046021D01*
X182964248Y-66036190D01*
X183279614Y-65937517D01*
X183696920Y-65714461D01*
X183913071Y-65347676D01*
X182245000Y-63679605D01*
X180576929Y-65347676D01*
X180793080Y-65714461D01*
X181252998Y-65955167D01*
X181527519Y-66035838D01*
X181476326Y-66046021D01*
X180996741Y-66244672D01*
X180565126Y-66533068D01*
X180198068Y-66900126D01*
X179909672Y-67331741D01*
X179711021Y-67811326D01*
X179609750Y-68320451D01*
X179609750Y-68839549D01*
X179711021Y-69348674D01*
X179909672Y-69828259D01*
X180198068Y-70259874D01*
X180565126Y-70626932D01*
X180996741Y-70915328D01*
X181184257Y-70993000D01*
X178835243Y-70993000D01*
X178755498Y-70735385D01*
X178714000Y-70340557D01*
X178714000Y-63523062D01*
X179597099Y-63523062D01*
X179652476Y-64039199D01*
X179807483Y-64534614D01*
X180030539Y-64951920D01*
X180397324Y-65168071D01*
X182065395Y-63500000D01*
X182424605Y-63500000D01*
X184092676Y-65168071D01*
X184459461Y-64951920D01*
X184700167Y-64492002D01*
X184846522Y-63993961D01*
X184851079Y-63943160D01*
X187813840Y-63943160D01*
X187871304Y-64161427D01*
X188037401Y-64524988D01*
X188271234Y-64849159D01*
X188563817Y-65121483D01*
X188903906Y-65331494D01*
X189278431Y-65471122D01*
X189673000Y-65535000D01*
X190373000Y-65535000D01*
X190373000Y-63627000D01*
X187928053Y-63627000D01*
X187813840Y-63943160D01*
X184851079Y-63943160D01*
X184892901Y-63476938D01*
X184847829Y-63056840D01*
X187813840Y-63056840D01*
X187928053Y-63373000D01*
X190373000Y-63373000D01*
X190373000Y-61465000D01*
X190627000Y-61465000D01*
X190627000Y-63373000D01*
X190647000Y-63373000D01*
X190647000Y-63627000D01*
X190627000Y-63627000D01*
X190627000Y-65535000D01*
X191327000Y-65535000D01*
X191721569Y-65471122D01*
X192096094Y-65331494D01*
X192436183Y-65121483D01*
X192728766Y-64849159D01*
X192962599Y-64524988D01*
X193035322Y-64365808D01*
X193179773Y-64636056D01*
X193434076Y-64945924D01*
X193743944Y-65200227D01*
X194097471Y-65389191D01*
X194481070Y-65505555D01*
X194780031Y-65535000D01*
X196379969Y-65535000D01*
X196678930Y-65505555D01*
X197062529Y-65389191D01*
X197416056Y-65200227D01*
X197725924Y-64945924D01*
X197980227Y-64636056D01*
X198120000Y-64374559D01*
X198259773Y-64636056D01*
X198514076Y-64945924D01*
X198823944Y-65200227D01*
X199177471Y-65389191D01*
X199561070Y-65505555D01*
X199860031Y-65535000D01*
X201459969Y-65535000D01*
X201758930Y-65505555D01*
X202142529Y-65389191D01*
X202496056Y-65200227D01*
X202805924Y-64945924D01*
X203060227Y-64636056D01*
X203249191Y-64282529D01*
X203365555Y-63898930D01*
X203404846Y-63500000D01*
X203365555Y-63101070D01*
X203249191Y-62717471D01*
X203060227Y-62363944D01*
X202805924Y-62054076D01*
X202496056Y-61799773D01*
X202142529Y-61610809D01*
X201758930Y-61494445D01*
X201459969Y-61465000D01*
X199860031Y-61465000D01*
X199561070Y-61494445D01*
X199177471Y-61610809D01*
X198823944Y-61799773D01*
X198514076Y-62054076D01*
X198259773Y-62363944D01*
X198120000Y-62625441D01*
X197980227Y-62363944D01*
X197725924Y-62054076D01*
X197416056Y-61799773D01*
X197062529Y-61610809D01*
X196678930Y-61494445D01*
X196379969Y-61465000D01*
X194780031Y-61465000D01*
X194481070Y-61494445D01*
X194097471Y-61610809D01*
X193743944Y-61799773D01*
X193434076Y-62054076D01*
X193179773Y-62363944D01*
X193035322Y-62634192D01*
X192962599Y-62475012D01*
X192728766Y-62150841D01*
X192436183Y-61878517D01*
X192096094Y-61668506D01*
X191721569Y-61528878D01*
X191327000Y-61465000D01*
X190627000Y-61465000D01*
X190373000Y-61465000D01*
X189673000Y-61465000D01*
X189278431Y-61528878D01*
X188903906Y-61668506D01*
X188563817Y-61878517D01*
X188271234Y-62150841D01*
X188037401Y-62475012D01*
X187871304Y-62838573D01*
X187813840Y-63056840D01*
X184847829Y-63056840D01*
X184837524Y-62960801D01*
X184682517Y-62465386D01*
X184459461Y-62048080D01*
X184092676Y-61831929D01*
X182424605Y-63500000D01*
X182065395Y-63500000D01*
X180397324Y-61831929D01*
X180030539Y-62048080D01*
X179789833Y-62507998D01*
X179643478Y-63006039D01*
X179597099Y-63523062D01*
X178714000Y-63523062D01*
X178714000Y-57498581D01*
X178711384Y-57472020D01*
X178701904Y-57355022D01*
X178692262Y-57301610D01*
X178684276Y-57247940D01*
X178681974Y-57239017D01*
X178643824Y-57095276D01*
X178622914Y-57039243D01*
X178602780Y-56982900D01*
X178598789Y-56974594D01*
X178562000Y-56899380D01*
X178562000Y-56259547D01*
X178747165Y-56336245D01*
X179063044Y-56399077D01*
X179385110Y-56399077D01*
X179700989Y-56336245D01*
X179998540Y-56212995D01*
X180266329Y-56034064D01*
X180293393Y-56007000D01*
X181184257Y-56007000D01*
X180996741Y-56084672D01*
G37*
X180996741Y-56084672D02*
X180565126Y-56373068D01*
X180198068Y-56740126D01*
X179909672Y-57171741D01*
X179711021Y-57651326D01*
X179609750Y-58160451D01*
X179609750Y-58679549D01*
X179711021Y-59188674D01*
X179909672Y-59668259D01*
X180198068Y-60099874D01*
X180565126Y-60466932D01*
X180996741Y-60755328D01*
X181476326Y-60953979D01*
X181525752Y-60963810D01*
X181210386Y-61062483D01*
X180793080Y-61285539D01*
X180576929Y-61652324D01*
X182245000Y-63320395D01*
X183913071Y-61652324D01*
X183696920Y-61285539D01*
X183237002Y-61044833D01*
X182962481Y-60964162D01*
X183013674Y-60953979D01*
X183493259Y-60755328D01*
X183924874Y-60466932D01*
X184291932Y-60099874D01*
X184580328Y-59668259D01*
X184778979Y-59188674D01*
X184880250Y-58679549D01*
X184880250Y-58160451D01*
X184778979Y-57651326D01*
X184580328Y-57171741D01*
X184393411Y-56892000D01*
X187953928Y-56892000D01*
X187953928Y-60708000D01*
X187966188Y-60832482D01*
X188002498Y-60952180D01*
X188061463Y-61062494D01*
X188140815Y-61159185D01*
X188237506Y-61238537D01*
X188347820Y-61297502D01*
X188467518Y-61333812D01*
X188592000Y-61346072D01*
X192408000Y-61346072D01*
X192532482Y-61333812D01*
X192652180Y-61297502D01*
X192762494Y-61238537D01*
X192859185Y-61159185D01*
X192938537Y-61062494D01*
X192997502Y-60952180D01*
X193033812Y-60832482D01*
X193046072Y-60708000D01*
X193046072Y-59685919D01*
X193179773Y-59936056D01*
X193434076Y-60245924D01*
X193743944Y-60500227D01*
X194097471Y-60689191D01*
X194481070Y-60805555D01*
X194780031Y-60835000D01*
X196379969Y-60835000D01*
X196678930Y-60805555D01*
X197062529Y-60689191D01*
X197416056Y-60500227D01*
X197725924Y-60245924D01*
X197980227Y-59936056D01*
X198120000Y-59674559D01*
X198259773Y-59936056D01*
X198514076Y-60245924D01*
X198823944Y-60500227D01*
X199177471Y-60689191D01*
X199561070Y-60805555D01*
X199860031Y-60835000D01*
X201459969Y-60835000D01*
X201758930Y-60805555D01*
X202142529Y-60689191D01*
X202496056Y-60500227D01*
X202805924Y-60245924D01*
X203060227Y-59936056D01*
X203249191Y-59582529D01*
X203365555Y-59198930D01*
X203404846Y-58800000D01*
X203365555Y-58401070D01*
X203249191Y-58017471D01*
X203060227Y-57663944D01*
X202805924Y-57354076D01*
X202496056Y-57099773D01*
X202142529Y-56910809D01*
X201758930Y-56794445D01*
X201459969Y-56765000D01*
X199860031Y-56765000D01*
X199561070Y-56794445D01*
X199177471Y-56910809D01*
X198823944Y-57099773D01*
X198514076Y-57354076D01*
X198259773Y-57663944D01*
X198120000Y-57925441D01*
X197980227Y-57663944D01*
X197725924Y-57354076D01*
X197416056Y-57099773D01*
X197062529Y-56910809D01*
X196678930Y-56794445D01*
X196379969Y-56765000D01*
X194780031Y-56765000D01*
X194481070Y-56794445D01*
X194097471Y-56910809D01*
X193743944Y-57099773D01*
X193434076Y-57354076D01*
X193179773Y-57663944D01*
X193046072Y-57914081D01*
X193046072Y-56892000D01*
X193033812Y-56767518D01*
X192997502Y-56647820D01*
X192938537Y-56537506D01*
X192859185Y-56440815D01*
X192762494Y-56361463D01*
X192652180Y-56302498D01*
X192532482Y-56266188D01*
X192408000Y-56253928D01*
X188592000Y-56253928D01*
X188467518Y-56266188D01*
X188347820Y-56302498D01*
X188237506Y-56361463D01*
X188140815Y-56440815D01*
X188061463Y-56537506D01*
X188002498Y-56647820D01*
X187966188Y-56767518D01*
X187953928Y-56892000D01*
X184393411Y-56892000D01*
X184291932Y-56740126D01*
X183924874Y-56373068D01*
X183493259Y-56084672D01*
X183305743Y-56007000D01*
X207854257Y-56007000D01*
X207666741Y-56084672D01*
X207235126Y-56373068D01*
X206868068Y-56740126D01*
X206579672Y-57171741D01*
X206381021Y-57651326D01*
X206279750Y-58160451D01*
X206279750Y-58679549D01*
X206381021Y-59188674D01*
X206579672Y-59668259D01*
X206868068Y-60099874D01*
X207235126Y-60466932D01*
X207666741Y-60755328D01*
X208146326Y-60953979D01*
X208176596Y-60960000D01*
X208146326Y-60966021D01*
X207666741Y-61164672D01*
X207235126Y-61453068D01*
X206868068Y-61820126D01*
X206579672Y-62251741D01*
X206381021Y-62731326D01*
X206279750Y-63240451D01*
X206279750Y-63759549D01*
X206381021Y-64268674D01*
X206579672Y-64748259D01*
X206868068Y-65179874D01*
X207235126Y-65546932D01*
X207666741Y-65835328D01*
X208146326Y-66033979D01*
X208176596Y-66040000D01*
X208146326Y-66046021D01*
X207666741Y-66244672D01*
X207235126Y-66533068D01*
X206868068Y-66900126D01*
X206579672Y-67331741D01*
X206381021Y-67811326D01*
X206279750Y-68320451D01*
X206279750Y-68839549D01*
X206381021Y-69348674D01*
X206579672Y-69828259D01*
X206868068Y-70259874D01*
X207235126Y-70626932D01*
X207666741Y-70915328D01*
X207854257Y-70993000D01*
X183305743Y-70993000D01*
X183493259Y-70915328D01*
X183924874Y-70626932D01*
X184291932Y-70259874D01*
X184580328Y-69828259D01*
X184778979Y-69348674D01*
X184880250Y-68839549D01*
X184880250Y-68643160D01*
X187813840Y-68643160D01*
X187871304Y-68861427D01*
X188037401Y-69224988D01*
X188271234Y-69549159D01*
X188563817Y-69821483D01*
X188903906Y-70031494D01*
X189278431Y-70171122D01*
X189673000Y-70235000D01*
X190373000Y-70235000D01*
X190373000Y-68327000D01*
X190627000Y-68327000D01*
X190627000Y-70235000D01*
X191327000Y-70235000D01*
X191721569Y-70171122D01*
X192096094Y-70031494D01*
X192436183Y-69821483D01*
X192728766Y-69549159D01*
X192962599Y-69224988D01*
X193040000Y-69055569D01*
X193117401Y-69224988D01*
X193351234Y-69549159D01*
X193643817Y-69821483D01*
X193983906Y-70031494D01*
X194358431Y-70171122D01*
X194753000Y-70235000D01*
X195453000Y-70235000D01*
X195453000Y-68327000D01*
X190627000Y-68327000D01*
X190373000Y-68327000D01*
X187928053Y-68327000D01*
X187813840Y-68643160D01*
X184880250Y-68643160D01*
X184880250Y-68320451D01*
X184778979Y-67811326D01*
X184756411Y-67756840D01*
X187813840Y-67756840D01*
X187928053Y-68073000D01*
X190373000Y-68073000D01*
X190373000Y-66165000D01*
X190627000Y-66165000D01*
X190627000Y-68073000D01*
X195453000Y-68073000D01*
X195453000Y-66165000D01*
X195707000Y-66165000D01*
X195707000Y-68073000D01*
X195727000Y-68073000D01*
X195727000Y-68327000D01*
X195707000Y-68327000D01*
X195707000Y-70235000D01*
X196407000Y-70235000D01*
X196801569Y-70171122D01*
X197176094Y-70031494D01*
X197516183Y-69821483D01*
X197808766Y-69549159D01*
X198042599Y-69224988D01*
X198115322Y-69065808D01*
X198259773Y-69336056D01*
X198514076Y-69645924D01*
X198823944Y-69900227D01*
X199177471Y-70089191D01*
X199561070Y-70205555D01*
X199860031Y-70235000D01*
X201459969Y-70235000D01*
X201758930Y-70205555D01*
X202142529Y-70089191D01*
X202496056Y-69900227D01*
X202805924Y-69645924D01*
X203060227Y-69336056D01*
X203249191Y-68982529D01*
X203365555Y-68598930D01*
X203404846Y-68200000D01*
X203365555Y-67801070D01*
X203249191Y-67417471D01*
X203060227Y-67063944D01*
X202805924Y-66754076D01*
X202496056Y-66499773D01*
X202142529Y-66310809D01*
X201758930Y-66194445D01*
X201459969Y-66165000D01*
X199860031Y-66165000D01*
X199561070Y-66194445D01*
X199177471Y-66310809D01*
X198823944Y-66499773D01*
X198514076Y-66754076D01*
X198259773Y-67063944D01*
X198115322Y-67334192D01*
X198042599Y-67175012D01*
X197808766Y-66850841D01*
X197516183Y-66578517D01*
X197176094Y-66368506D01*
X196801569Y-66228878D01*
X196407000Y-66165000D01*
X195707000Y-66165000D01*
X195453000Y-66165000D01*
X194753000Y-66165000D01*
X194358431Y-66228878D01*
X193983906Y-66368506D01*
X193643817Y-66578517D01*
X193351234Y-66850841D01*
X193117401Y-67175012D01*
X193040000Y-67344431D01*
X192962599Y-67175012D01*
X192728766Y-66850841D01*
X192436183Y-66578517D01*
X192096094Y-66368506D01*
X191721569Y-66228878D01*
X191327000Y-66165000D01*
X190627000Y-66165000D01*
X190373000Y-66165000D01*
X189673000Y-66165000D01*
X189278431Y-66228878D01*
X188903906Y-66368506D01*
X188563817Y-66578517D01*
X188271234Y-66850841D01*
X188037401Y-67175012D01*
X187871304Y-67538573D01*
X187813840Y-67756840D01*
X184756411Y-67756840D01*
X184580328Y-67331741D01*
X184291932Y-66900126D01*
X183924874Y-66533068D01*
X183493259Y-66244672D01*
X183013674Y-66046021D01*
X182964248Y-66036190D01*
X183279614Y-65937517D01*
X183696920Y-65714461D01*
X183913071Y-65347676D01*
X182245000Y-63679605D01*
X180576929Y-65347676D01*
X180793080Y-65714461D01*
X181252998Y-65955167D01*
X181527519Y-66035838D01*
X181476326Y-66046021D01*
X180996741Y-66244672D01*
X180565126Y-66533068D01*
X180198068Y-66900126D01*
X179909672Y-67331741D01*
X179711021Y-67811326D01*
X179609750Y-68320451D01*
X179609750Y-68839549D01*
X179711021Y-69348674D01*
X179909672Y-69828259D01*
X180198068Y-70259874D01*
X180565126Y-70626932D01*
X180996741Y-70915328D01*
X181184257Y-70993000D01*
X178835243Y-70993000D01*
X178755498Y-70735385D01*
X178714000Y-70340557D01*
X178714000Y-63523062D01*
X179597099Y-63523062D01*
X179652476Y-64039199D01*
X179807483Y-64534614D01*
X180030539Y-64951920D01*
X180397324Y-65168071D01*
X182065395Y-63500000D01*
X182424605Y-63500000D01*
X184092676Y-65168071D01*
X184459461Y-64951920D01*
X184700167Y-64492002D01*
X184846522Y-63993961D01*
X184851079Y-63943160D01*
X187813840Y-63943160D01*
X187871304Y-64161427D01*
X188037401Y-64524988D01*
X188271234Y-64849159D01*
X188563817Y-65121483D01*
X188903906Y-65331494D01*
X189278431Y-65471122D01*
X189673000Y-65535000D01*
X190373000Y-65535000D01*
X190373000Y-63627000D01*
X187928053Y-63627000D01*
X187813840Y-63943160D01*
X184851079Y-63943160D01*
X184892901Y-63476938D01*
X184847829Y-63056840D01*
X187813840Y-63056840D01*
X187928053Y-63373000D01*
X190373000Y-63373000D01*
X190373000Y-61465000D01*
X190627000Y-61465000D01*
X190627000Y-63373000D01*
X190647000Y-63373000D01*
X190647000Y-63627000D01*
X190627000Y-63627000D01*
X190627000Y-65535000D01*
X191327000Y-65535000D01*
X191721569Y-65471122D01*
X192096094Y-65331494D01*
X192436183Y-65121483D01*
X192728766Y-64849159D01*
X192962599Y-64524988D01*
X193035322Y-64365808D01*
X193179773Y-64636056D01*
X193434076Y-64945924D01*
X193743944Y-65200227D01*
X194097471Y-65389191D01*
X194481070Y-65505555D01*
X194780031Y-65535000D01*
X196379969Y-65535000D01*
X196678930Y-65505555D01*
X197062529Y-65389191D01*
X197416056Y-65200227D01*
X197725924Y-64945924D01*
X197980227Y-64636056D01*
X198120000Y-64374559D01*
X198259773Y-64636056D01*
X198514076Y-64945924D01*
X198823944Y-65200227D01*
X199177471Y-65389191D01*
X199561070Y-65505555D01*
X199860031Y-65535000D01*
X201459969Y-65535000D01*
X201758930Y-65505555D01*
X202142529Y-65389191D01*
X202496056Y-65200227D01*
X202805924Y-64945924D01*
X203060227Y-64636056D01*
X203249191Y-64282529D01*
X203365555Y-63898930D01*
X203404846Y-63500000D01*
X203365555Y-63101070D01*
X203249191Y-62717471D01*
X203060227Y-62363944D01*
X202805924Y-62054076D01*
X202496056Y-61799773D01*
X202142529Y-61610809D01*
X201758930Y-61494445D01*
X201459969Y-61465000D01*
X199860031Y-61465000D01*
X199561070Y-61494445D01*
X199177471Y-61610809D01*
X198823944Y-61799773D01*
X198514076Y-62054076D01*
X198259773Y-62363944D01*
X198120000Y-62625441D01*
X197980227Y-62363944D01*
X197725924Y-62054076D01*
X197416056Y-61799773D01*
X197062529Y-61610809D01*
X196678930Y-61494445D01*
X196379969Y-61465000D01*
X194780031Y-61465000D01*
X194481070Y-61494445D01*
X194097471Y-61610809D01*
X193743944Y-61799773D01*
X193434076Y-62054076D01*
X193179773Y-62363944D01*
X193035322Y-62634192D01*
X192962599Y-62475012D01*
X192728766Y-62150841D01*
X192436183Y-61878517D01*
X192096094Y-61668506D01*
X191721569Y-61528878D01*
X191327000Y-61465000D01*
X190627000Y-61465000D01*
X190373000Y-61465000D01*
X189673000Y-61465000D01*
X189278431Y-61528878D01*
X188903906Y-61668506D01*
X188563817Y-61878517D01*
X188271234Y-62150841D01*
X188037401Y-62475012D01*
X187871304Y-62838573D01*
X187813840Y-63056840D01*
X184847829Y-63056840D01*
X184837524Y-62960801D01*
X184682517Y-62465386D01*
X184459461Y-62048080D01*
X184092676Y-61831929D01*
X182424605Y-63500000D01*
X182065395Y-63500000D01*
X180397324Y-61831929D01*
X180030539Y-62048080D01*
X179789833Y-62507998D01*
X179643478Y-63006039D01*
X179597099Y-63523062D01*
X178714000Y-63523062D01*
X178714000Y-57498581D01*
X178711384Y-57472020D01*
X178701904Y-57355022D01*
X178692262Y-57301610D01*
X178684276Y-57247940D01*
X178681974Y-57239017D01*
X178643824Y-57095276D01*
X178622914Y-57039243D01*
X178602780Y-56982900D01*
X178598789Y-56974594D01*
X178562000Y-56899380D01*
X178562000Y-56259547D01*
X178747165Y-56336245D01*
X179063044Y-56399077D01*
X179385110Y-56399077D01*
X179700989Y-56336245D01*
X179998540Y-56212995D01*
X180266329Y-56034064D01*
X180293393Y-56007000D01*
X181184257Y-56007000D01*
X180996741Y-56084672D01*
M02*
