G04 #@! TF.GenerationSoftware,KiCad,Pcbnew,(5.1.5-0-10_14)*
G04 #@! TF.CreationDate,2020-11-20T14:40:15+01:00*
G04 #@! TF.ProjectId,3pdt,33706474-2e6b-4696-9361-645f70636258,rev?*
G04 #@! TF.SameCoordinates,Original*
G04 #@! TF.FileFunction,Legend,Bot*
G04 #@! TF.FilePolarity,Positive*
%FSLAX46Y46*%
G04 Gerber Fmt 4.6, Leading zero omitted, Abs format (unit mm)*
G04 Created by KiCad (PCBNEW (5.1.5-0-10_14)) date 2020-11-20 14:40:15*
%MOMM*%
%LPD*%
G04 APERTURE LIST*
%ADD10C,0.127000*%
G04 APERTURE END LIST*
D10*
X111633001Y-52958999D02*
G75*
G02X110744000Y-53721000I-825501J63500D01*
G01*
X111633000Y-52959000D02*
X111633000Y-51943000D01*
X110743999Y-51181001D02*
G75*
G02X111633000Y-51943000I63501J-825500D01*
G01*
X110744000Y-51181000D02*
X107442000Y-51181000D01*
X107061000Y-50800000D02*
G75*
G03X107442000Y-51181000I381000J0D01*
G01*
X110744000Y-53721000D02*
X107442000Y-53721000D01*
X107061000Y-54102000D02*
G75*
G02X107442000Y-53721000I381000J0D01*
G01*
X107061000Y-50800000D02*
X106426000Y-50800000D01*
X106426000Y-50800000D02*
X106426000Y-54102000D01*
X106426000Y-54102000D02*
X107061000Y-54102000D01*
X108966000Y-53086000D02*
X108966000Y-51816000D01*
X109601000Y-52451000D02*
X108331000Y-52451000D01*
X150685501Y-42164001D02*
G75*
G02X149923500Y-41275000I63500J825501D01*
G01*
X150685500Y-42164000D02*
X151701500Y-42164000D01*
X152463499Y-41274999D02*
G75*
G02X151701500Y-42164000I-825500J-63501D01*
G01*
X152463500Y-41275000D02*
X152463500Y-37973000D01*
X152844500Y-37592000D02*
G75*
G03X152463500Y-37973000I0J-381000D01*
G01*
X149923500Y-41275000D02*
X149923500Y-37973000D01*
X149542500Y-37592000D02*
G75*
G02X149923500Y-37973000I0J-381000D01*
G01*
X152844500Y-37592000D02*
X152844500Y-36957000D01*
X152844500Y-36957000D02*
X149542500Y-36957000D01*
X149542500Y-36957000D02*
X149542500Y-37592000D01*
X150558500Y-39497000D02*
X151828500Y-39497000D01*
X151193500Y-40132000D02*
X151193500Y-38862000D01*
X172341645Y-48600064D02*
G75*
G02X171174210Y-48510261I-538816J628619D01*
G01*
X172341644Y-48600064D02*
X173060064Y-47881644D01*
X172970260Y-46714210D02*
G75*
G02X173060064Y-47881644I-538815J-628619D01*
G01*
X172970261Y-46714210D02*
X170635395Y-44379344D01*
X170635395Y-43840528D02*
G75*
G03X170635395Y-44379344I269408J-269408D01*
G01*
X171174210Y-48510261D02*
X168839344Y-46175395D01*
X168300528Y-46175395D02*
G75*
G02X168839344Y-46175395I269408J-269408D01*
G01*
X170635395Y-43840528D02*
X170186382Y-43391515D01*
X170186382Y-43391515D02*
X167851515Y-45726382D01*
X167851515Y-45726382D02*
X168300528Y-46175395D01*
X170365987Y-46804013D02*
X171264013Y-45905987D01*
X171264013Y-46804013D02*
X170365987Y-45905987D01*
M02*
