M48
; DRILL file {KiCad (5.1.5-0-10_14)} date 2020 November 20, Friday 14:40:13
; FORMAT={-:-/ absolute / inch / decimal}
; #@! TF.CreationDate,2020-11-20T14:40:13+01:00
; #@! TF.GenerationSoftware,Kicad,Pcbnew,(5.1.5-0-10_14)
FMAT,2
INCH
T1C0.0394
T2C0.0591
T3C0.0630
%
G90
G05
T1
X4.35Y-1.92
X4.47Y-2.07
X4.77Y-2.07
X4.55Y-1.92
X8.975Y-2.115
X9.175Y-2.115
X9.075Y-2.115
X5.95Y-1.785
X5.95Y-2.085
X9.375Y-2.115
X4.75Y-1.92
X4.24Y-2.065
X4.34Y-2.065
X6.8439Y-1.9439
X7.0561Y-2.1561
X4.45Y-1.92
X9.275Y-2.115
X4.25Y-1.92
X9.475Y-2.115
X8.675Y-2.115
X6.6896Y-1.7896
X6.7604Y-1.8604
X8.775Y-2.115
X5.9525Y-1.505
X5.9525Y-1.605
X8.875Y-2.115
X4.65Y-1.92
T2
X8.225Y-2.5
X7.175Y-2.3
X8.225Y-2.3
X7.175Y-2.5
X6.475Y-2.5
X8.225Y-2.7
X6.475Y-2.7
X6.475Y-2.3
X7.175Y-2.7
X5.425Y-2.5
X5.425Y-2.3
X5.425Y-2.7
T3
G00X8.8986Y-2.34
M15
G01X8.8514Y-2.34
M16
G05
G00X8.8986Y-2.525
M15
G01X8.8514Y-2.525
M16
G05
G00X8.8986Y-2.71
M15
G01X8.8514Y-2.71
M16
G05
G00X9.0986Y-2.34
M15
G01X9.0514Y-2.34
M16
G05
G00X9.0986Y-2.525
M15
G01X9.0514Y-2.525
M16
G05
G00X9.0986Y-2.71
M15
G01X9.0514Y-2.71
M16
G05
G00X9.2986Y-2.34
M15
G01X9.2514Y-2.34
M16
G05
G00X9.2986Y-2.525
M15
G01X9.2514Y-2.525
M16
G05
G00X9.2986Y-2.71
M15
G01X9.2514Y-2.71
M16
G05
G00X7.5236Y-2.315
M15
G01X7.4764Y-2.315
M16
G05
G00X7.5236Y-2.5
M15
G01X7.4764Y-2.5
M16
G05
G00X7.5236Y-2.685
M15
G01X7.4764Y-2.685
M16
G05
G00X7.7236Y-2.315
M15
G01X7.6764Y-2.315
M16
G05
G00X7.7236Y-2.5
M15
G01X7.6764Y-2.5
M16
G05
G00X7.7236Y-2.685
M15
G01X7.6764Y-2.685
M16
G05
G00X7.9236Y-2.315
M15
G01X7.8764Y-2.315
M16
G05
G00X7.9236Y-2.5
M15
G01X7.8764Y-2.5
M16
G05
G00X7.9236Y-2.685
M15
G01X7.8764Y-2.685
M16
G05
G00X5.7736Y-2.315
M15
G01X5.7264Y-2.315
M16
G05
G00X5.7736Y-2.5
M15
G01X5.7264Y-2.5
M16
G05
G00X5.7736Y-2.685
M15
G01X5.7264Y-2.685
M16
G05
G00X5.9736Y-2.315
M15
G01X5.9264Y-2.315
M16
G05
G00X5.9736Y-2.5
M15
G01X5.9264Y-2.5
M16
G05
G00X5.9736Y-2.685
M15
G01X5.9264Y-2.685
M16
G05
G00X6.1736Y-2.315
M15
G01X6.1264Y-2.315
M16
G05
G00X6.1736Y-2.5
M15
G01X6.1264Y-2.5
M16
G05
G00X6.1736Y-2.685
M15
G01X6.1264Y-2.685
M16
G05
G00X4.3236Y-2.315
M15
G01X4.2764Y-2.315
M16
G05
G00X4.3236Y-2.5
M15
G01X4.2764Y-2.5
M16
G05
G00X4.3236Y-2.685
M15
G01X4.2764Y-2.685
M16
G05
G00X4.5236Y-2.315
M15
G01X4.4764Y-2.315
M16
G05
G00X4.5236Y-2.5
M15
G01X4.4764Y-2.5
M16
G05
G00X4.5236Y-2.685
M15
G01X4.4764Y-2.685
M16
G05
G00X4.7236Y-2.315
M15
G01X4.6764Y-2.315
M16
G05
G00X4.7236Y-2.5
M15
G01X4.6764Y-2.5
M16
G05
G00X4.7236Y-2.685
M15
G01X4.6764Y-2.685
M16
G05
T0
M30
