G04 #@! TF.GenerationSoftware,KiCad,Pcbnew,(5.1.5-0-10_14)*
G04 #@! TF.CreationDate,2020-11-20T14:40:15+01:00*
G04 #@! TF.ProjectId,3pdt,33706474-2e6b-4696-9361-645f70636258,rev?*
G04 #@! TF.SameCoordinates,Original*
G04 #@! TF.FileFunction,Copper,L1,Top*
G04 #@! TF.FilePolarity,Positive*
%FSLAX46Y46*%
G04 Gerber Fmt 4.6, Leading zero omitted, Abs format (unit mm)*
G04 Created by KiCad (PCBNEW (5.1.5-0-10_14)) date 2020-11-20 14:40:15*
%MOMM*%
%LPD*%
G04 APERTURE LIST*
%ADD10O,4.200000X2.800000*%
%ADD11R,3.816000X3.816000*%
%ADD12R,2.000000X2.000000*%
%ADD13O,2.000000X2.000000*%
%ADD14R,1.700000X1.700000*%
%ADD15C,4.000500*%
%ADD16C,0.100000*%
%ADD17C,2.000000*%
%ADD18C,0.250000*%
%ADD19C,0.300000*%
G04 APERTURE END LIST*
D10*
X235585000Y-68835000D03*
X235585000Y-64135000D03*
X235585000Y-59435000D03*
X230505000Y-68835000D03*
X230505000Y-64135000D03*
X230505000Y-59435000D03*
X225425000Y-68835000D03*
X225425000Y-64135000D03*
D11*
X225425000Y-59435000D03*
D10*
X200660000Y-68200000D03*
X200660000Y-63500000D03*
X200660000Y-58800000D03*
X195580000Y-68200000D03*
X195580000Y-63500000D03*
X195580000Y-58800000D03*
X190500000Y-68200000D03*
X190500000Y-63500000D03*
D11*
X190500000Y-58800000D03*
D10*
X119380000Y-68200000D03*
X119380000Y-63500000D03*
X119380000Y-58800000D03*
X114300000Y-68200000D03*
X114300000Y-63500000D03*
X114300000Y-58800000D03*
X109220000Y-68200000D03*
X109220000Y-63500000D03*
D11*
X109220000Y-58800000D03*
D10*
X156210000Y-68200000D03*
X156210000Y-63500000D03*
X156210000Y-58800000D03*
X151130000Y-68200000D03*
X151130000Y-63500000D03*
X151130000Y-58800000D03*
X146050000Y-68200000D03*
X146050000Y-63500000D03*
D11*
X146050000Y-58800000D03*
D12*
X110236000Y-52451000D03*
D13*
X107696000Y-52451000D03*
X113538000Y-52578000D03*
X121158000Y-52578000D03*
D14*
X107950000Y-48768000D03*
X120650000Y-48768000D03*
X110490000Y-48768000D03*
X113030000Y-48768000D03*
X115570000Y-48768000D03*
X118110000Y-48768000D03*
D12*
X151193500Y-40767000D03*
D13*
X151193500Y-38227000D03*
D15*
X137795000Y-68580000D03*
X164465000Y-68580000D03*
X137795000Y-63500000D03*
X137795000Y-58420000D03*
X164465000Y-63500000D03*
X164465000Y-58420000D03*
D13*
X151130000Y-45339000D03*
X151130000Y-52959000D03*
G04 #@! TA.AperFunction,ComponentPad*
D16*
G36*
X173127240Y-47253026D02*
G01*
X171713026Y-48667240D01*
X170298812Y-47253026D01*
X171713026Y-45838812D01*
X173127240Y-47253026D01*
G37*
G04 #@! TD.AperFunction*
D17*
X169916974Y-45456974D02*
X169916974Y-45456974D01*
D15*
X182245000Y-68580000D03*
X208915000Y-68580000D03*
X182245000Y-63500000D03*
X182245000Y-58420000D03*
X208915000Y-63500000D03*
X208915000Y-58420000D03*
D14*
X222885000Y-53721000D03*
X230505000Y-53721000D03*
X238125000Y-53721000D03*
X220345000Y-53721000D03*
X225425000Y-53721000D03*
X227965000Y-53721000D03*
X233045000Y-53721000D03*
X235585000Y-53721000D03*
X240665000Y-53721000D03*
D17*
X173835923Y-49375923D02*
X173835923Y-49375923D01*
X179224077Y-54764077D02*
X179224077Y-54764077D01*
D18*
X113411000Y-52451000D02*
X113538000Y-52578000D01*
X110236000Y-52451000D02*
X113411000Y-52451000D01*
D19*
X107696000Y-57276000D02*
X109220000Y-58800000D01*
X107696000Y-52451000D02*
X107696000Y-57276000D01*
D18*
X113666999Y-61083001D02*
X114300000Y-60450000D01*
X114300000Y-60450000D02*
X114300000Y-58800000D01*
X117510243Y-68200000D02*
X114535253Y-65225010D01*
X119380000Y-68200000D02*
X117510243Y-68200000D01*
X111760000Y-60960000D02*
X113666999Y-61083001D01*
X112885478Y-65225010D02*
X111760000Y-64099532D01*
X114535253Y-65225010D02*
X112885478Y-65225010D01*
X106426000Y-61468000D02*
X111760000Y-61468000D01*
X106320999Y-61362999D02*
X106426000Y-61468000D01*
X107950000Y-48768000D02*
X106850000Y-48768000D01*
X111760000Y-61468000D02*
X111760000Y-60960000D01*
X106320999Y-49297001D02*
X106320999Y-61362999D01*
X106850000Y-48768000D02*
X106320999Y-49297001D01*
X111760000Y-64099532D02*
X111760000Y-61468000D01*
X119782999Y-50735001D02*
X120650000Y-49868000D01*
X119782999Y-53238001D02*
X119782999Y-50735001D01*
X121805010Y-55260012D02*
X119782999Y-53238001D01*
X120650000Y-49868000D02*
X120650000Y-48768000D01*
X121805010Y-63424990D02*
X121805010Y-55260012D01*
X121730000Y-63500000D02*
X121805010Y-63424990D01*
X119380000Y-63500000D02*
X121730000Y-63500000D01*
D19*
X122157999Y-51578001D02*
X121158000Y-52578000D01*
X122157999Y-47855997D02*
X122157999Y-51578001D01*
X121820001Y-47517999D02*
X122157999Y-47855997D01*
X113130001Y-47517999D02*
X121820001Y-47517999D01*
X113030000Y-47618000D02*
X113130001Y-47517999D01*
X113030000Y-48768000D02*
X113030000Y-47618000D01*
D18*
X116725010Y-63424990D02*
X116650000Y-63500000D01*
X116650000Y-63500000D02*
X114300000Y-63500000D01*
X116725010Y-51023010D02*
X116725010Y-63424990D01*
X115570000Y-49868000D02*
X116725010Y-51023010D01*
X115570000Y-48768000D02*
X115570000Y-49868000D01*
X118110000Y-55880000D02*
X118110000Y-49868000D01*
X119380000Y-57150000D02*
X118110000Y-55880000D01*
X118110000Y-49868000D02*
X118110000Y-48768000D01*
X119380000Y-58800000D02*
X119380000Y-57150000D01*
X151130000Y-40830500D02*
X151193500Y-40767000D01*
X151130000Y-45339000D02*
X151130000Y-40830500D01*
D19*
X152373501Y-39226999D02*
X152908000Y-39761498D01*
X152193499Y-39226999D02*
X152373501Y-39226999D01*
X151193500Y-38227000D02*
X152193499Y-39226999D01*
X147361002Y-58800000D02*
X146050000Y-58800000D01*
X152908000Y-53253002D02*
X147361002Y-58800000D01*
X152908000Y-39761498D02*
X152908000Y-53253002D01*
D18*
X151130000Y-60450000D02*
X151130000Y-58800000D01*
X150496999Y-61083001D02*
X151130000Y-60450000D01*
X145291999Y-61083001D02*
X150496999Y-61083001D01*
X155446000Y-65786000D02*
X140462000Y-65786000D01*
X156210000Y-66550000D02*
X155446000Y-65786000D01*
X156210000Y-68200000D02*
X156210000Y-66550000D01*
X140462000Y-65786000D02*
X145291999Y-61083001D01*
X137795000Y-68580000D02*
X140462000Y-65786000D01*
X156210000Y-63500000D02*
X156210000Y-65150000D01*
X161035000Y-65150000D02*
X164465000Y-68580000D01*
X156210000Y-65150000D02*
X161035000Y-65150000D01*
D19*
X150130001Y-53958999D02*
X151130000Y-52959000D01*
X149561990Y-54527010D02*
X150130001Y-53958999D01*
X144516770Y-54527010D02*
X149561990Y-54527010D01*
X140623780Y-58420000D02*
X144516770Y-54527010D01*
X137795000Y-58420000D02*
X140623780Y-58420000D01*
D18*
X162464751Y-61499751D02*
X164465000Y-63500000D01*
X153830249Y-61499751D02*
X162464751Y-61499751D01*
X151830000Y-63500000D02*
X153830249Y-61499751D01*
X151130000Y-63500000D02*
X151830000Y-63500000D01*
X164085000Y-58800000D02*
X164465000Y-58420000D01*
X156210000Y-58800000D02*
X164085000Y-58800000D01*
D19*
X195580000Y-60500000D02*
X195580000Y-58800000D01*
X194971999Y-61108001D02*
X195580000Y-60500000D01*
X189646401Y-61108001D02*
X194971999Y-61108001D01*
X184245249Y-66579751D02*
X184245249Y-66509153D01*
X182245000Y-68580000D02*
X184245249Y-66579751D01*
X184749701Y-66004701D02*
X200164701Y-66004701D01*
X200660000Y-66500000D02*
X200660000Y-68200000D01*
X184245249Y-66509153D02*
X184749701Y-66004701D01*
X200164701Y-66004701D02*
X200660000Y-66500000D01*
X184749701Y-66004701D02*
X189646401Y-61108001D01*
D18*
X173835923Y-49375923D02*
X171713026Y-47253026D01*
X188342000Y-58800000D02*
X190500000Y-58800000D01*
X186066372Y-58800000D02*
X188342000Y-58800000D01*
X172723346Y-45456974D02*
X186066372Y-58800000D01*
X169916974Y-45456974D02*
X172723346Y-45456974D01*
X203835000Y-63500000D02*
X208915000Y-68580000D01*
X200660000Y-63500000D02*
X203835000Y-63500000D01*
X182245000Y-57785000D02*
X182245000Y-58420000D01*
X179224077Y-54764077D02*
X182245000Y-57785000D01*
X206914751Y-61499751D02*
X208915000Y-63500000D01*
X197520468Y-63500000D02*
X199520717Y-61499751D01*
X199520717Y-61499751D02*
X206914751Y-61499751D01*
X195580000Y-63500000D02*
X197520468Y-63500000D01*
X208535000Y-58800000D02*
X208915000Y-58420000D01*
X200660000Y-58800000D02*
X208535000Y-58800000D01*
X222885000Y-52621000D02*
X221699000Y-51435000D01*
X222885000Y-53721000D02*
X222885000Y-52621000D01*
X219075000Y-51435000D02*
X218790010Y-51719990D01*
X221699000Y-51435000D02*
X219075000Y-51435000D01*
X223075000Y-64135000D02*
X225425000Y-64135000D01*
X218790010Y-59850010D02*
X223075000Y-64135000D01*
X218790010Y-51719990D02*
X218790010Y-59850010D01*
X232855000Y-64135000D02*
X230505000Y-64135000D01*
X232930010Y-57246010D02*
X232930010Y-64059990D01*
X230505000Y-54821000D02*
X232930010Y-57246010D01*
X232930010Y-64059990D02*
X232855000Y-64135000D01*
X230505000Y-53721000D02*
X230505000Y-54821000D01*
X223267000Y-59435000D02*
X225425000Y-59435000D01*
X220345000Y-56513000D02*
X223267000Y-59435000D01*
X220345000Y-53721000D02*
X220345000Y-56513000D01*
X227850010Y-68759990D02*
X227775000Y-68835000D01*
X227850010Y-57246010D02*
X227850010Y-68759990D01*
X225425000Y-54821000D02*
X227850010Y-57246010D01*
X227775000Y-68835000D02*
X225425000Y-68835000D01*
X225425000Y-53721000D02*
X225425000Y-54821000D01*
X230505000Y-57361000D02*
X230505000Y-57785000D01*
X227965000Y-54821000D02*
X230505000Y-57361000D01*
X230505000Y-57785000D02*
X230505000Y-59435000D01*
X227965000Y-53721000D02*
X227965000Y-54821000D01*
X230505000Y-67185000D02*
X230505000Y-68835000D01*
X235749542Y-67109990D02*
X230580010Y-67109990D01*
X239300001Y-63559531D02*
X235749542Y-67109990D01*
X239235001Y-52545999D02*
X239300001Y-52610999D01*
X233120001Y-52545999D02*
X239235001Y-52545999D01*
X230580010Y-67109990D02*
X230505000Y-67185000D01*
X239300001Y-52610999D02*
X239300001Y-63559531D01*
X233045000Y-52621000D02*
X233120001Y-52545999D01*
X233045000Y-53721000D02*
X233045000Y-52621000D01*
X235585000Y-53721000D02*
X235585000Y-59435000D01*
X240665000Y-54821000D02*
X241935000Y-56091000D01*
X240665000Y-53721000D02*
X240665000Y-54821000D01*
X241935000Y-69850000D02*
X239395000Y-72390000D01*
X241935000Y-56091000D02*
X241935000Y-69850000D01*
X239395000Y-72390000D02*
X236855000Y-72390000D01*
X235585000Y-71120000D02*
X235585000Y-68835000D01*
X236855000Y-72390000D02*
X235585000Y-71120000D01*
M02*
