G04 #@! TF.GenerationSoftware,KiCad,Pcbnew,(5.1.5-0-10_14)*
G04 #@! TF.CreationDate,2020-11-20T21:32:41+01:00*
G04 #@! TF.ProjectId,3pdt-minimal,33706474-2d6d-4696-9e69-6d616c2e6b69,rev?*
G04 #@! TF.SameCoordinates,Original*
G04 #@! TF.FileFunction,Soldermask,Top*
G04 #@! TF.FilePolarity,Negative*
%FSLAX46Y46*%
G04 Gerber Fmt 4.6, Leading zero omitted, Abs format (unit mm)*
G04 Created by KiCad (PCBNEW (5.1.5-0-10_14)) date 2020-11-20 21:32:41*
%MOMM*%
%LPD*%
G04 APERTURE LIST*
%ADD10C,0.100000*%
G04 APERTURE END LIST*
D10*
G36*
X120257861Y-66759498D02*
G01*
X120364446Y-66769995D01*
X120637960Y-66852965D01*
X120637963Y-66852966D01*
X120890028Y-66987698D01*
X120890029Y-66987699D01*
X120890033Y-66987701D01*
X121110976Y-67169024D01*
X121292299Y-67389967D01*
X121292301Y-67389971D01*
X121292302Y-67389972D01*
X121427034Y-67642037D01*
X121427035Y-67642040D01*
X121510005Y-67915554D01*
X121538020Y-68200000D01*
X121510005Y-68484446D01*
X121427035Y-68757960D01*
X121427034Y-68757963D01*
X121292302Y-69010028D01*
X121292299Y-69010033D01*
X121110976Y-69230976D01*
X120890033Y-69412299D01*
X120890029Y-69412301D01*
X120890028Y-69412302D01*
X120637963Y-69547034D01*
X120637960Y-69547035D01*
X120364446Y-69630005D01*
X120257861Y-69640502D01*
X120151278Y-69651000D01*
X118608722Y-69651000D01*
X118502139Y-69640502D01*
X118395554Y-69630005D01*
X118122040Y-69547035D01*
X118122037Y-69547034D01*
X117869972Y-69412302D01*
X117869971Y-69412301D01*
X117869967Y-69412299D01*
X117649024Y-69230976D01*
X117467701Y-69010033D01*
X117467698Y-69010028D01*
X117332966Y-68757963D01*
X117332965Y-68757960D01*
X117249995Y-68484446D01*
X117221980Y-68200000D01*
X117249995Y-67915554D01*
X117332965Y-67642040D01*
X117332966Y-67642037D01*
X117467698Y-67389972D01*
X117467699Y-67389971D01*
X117467701Y-67389967D01*
X117649024Y-67169024D01*
X117869967Y-66987701D01*
X117869971Y-66987699D01*
X117869972Y-66987698D01*
X118122037Y-66852966D01*
X118122040Y-66852965D01*
X118395554Y-66769995D01*
X118502139Y-66759498D01*
X118608722Y-66749000D01*
X120151278Y-66749000D01*
X120257861Y-66759498D01*
G37*
G36*
X115177861Y-66759498D02*
G01*
X115284446Y-66769995D01*
X115557960Y-66852965D01*
X115557963Y-66852966D01*
X115810028Y-66987698D01*
X115810029Y-66987699D01*
X115810033Y-66987701D01*
X116030976Y-67169024D01*
X116212299Y-67389967D01*
X116212301Y-67389971D01*
X116212302Y-67389972D01*
X116347034Y-67642037D01*
X116347035Y-67642040D01*
X116430005Y-67915554D01*
X116458020Y-68200000D01*
X116430005Y-68484446D01*
X116347035Y-68757960D01*
X116347034Y-68757963D01*
X116212302Y-69010028D01*
X116212299Y-69010033D01*
X116030976Y-69230976D01*
X115810033Y-69412299D01*
X115810029Y-69412301D01*
X115810028Y-69412302D01*
X115557963Y-69547034D01*
X115557960Y-69547035D01*
X115284446Y-69630005D01*
X115177861Y-69640502D01*
X115071278Y-69651000D01*
X113528722Y-69651000D01*
X113422139Y-69640502D01*
X113315554Y-69630005D01*
X113042040Y-69547035D01*
X113042037Y-69547034D01*
X112789972Y-69412302D01*
X112789971Y-69412301D01*
X112789967Y-69412299D01*
X112569024Y-69230976D01*
X112387701Y-69010033D01*
X112387698Y-69010028D01*
X112252966Y-68757963D01*
X112252965Y-68757960D01*
X112169995Y-68484446D01*
X112141980Y-68200000D01*
X112169995Y-67915554D01*
X112252965Y-67642040D01*
X112252966Y-67642037D01*
X112387698Y-67389972D01*
X112387699Y-67389971D01*
X112387701Y-67389967D01*
X112569024Y-67169024D01*
X112789967Y-66987701D01*
X112789971Y-66987699D01*
X112789972Y-66987698D01*
X113042037Y-66852966D01*
X113042040Y-66852965D01*
X113315554Y-66769995D01*
X113422139Y-66759498D01*
X113528722Y-66749000D01*
X115071278Y-66749000D01*
X115177861Y-66759498D01*
G37*
G36*
X110097861Y-66759498D02*
G01*
X110204446Y-66769995D01*
X110477960Y-66852965D01*
X110477963Y-66852966D01*
X110730028Y-66987698D01*
X110730029Y-66987699D01*
X110730033Y-66987701D01*
X110950976Y-67169024D01*
X111132299Y-67389967D01*
X111132301Y-67389971D01*
X111132302Y-67389972D01*
X111267034Y-67642037D01*
X111267035Y-67642040D01*
X111350005Y-67915554D01*
X111378020Y-68200000D01*
X111350005Y-68484446D01*
X111267035Y-68757960D01*
X111267034Y-68757963D01*
X111132302Y-69010028D01*
X111132299Y-69010033D01*
X110950976Y-69230976D01*
X110730033Y-69412299D01*
X110730029Y-69412301D01*
X110730028Y-69412302D01*
X110477963Y-69547034D01*
X110477960Y-69547035D01*
X110204446Y-69630005D01*
X110097861Y-69640502D01*
X109991278Y-69651000D01*
X108448722Y-69651000D01*
X108342139Y-69640502D01*
X108235554Y-69630005D01*
X107962040Y-69547035D01*
X107962037Y-69547034D01*
X107709972Y-69412302D01*
X107709971Y-69412301D01*
X107709967Y-69412299D01*
X107489024Y-69230976D01*
X107307701Y-69010033D01*
X107307698Y-69010028D01*
X107172966Y-68757963D01*
X107172965Y-68757960D01*
X107089995Y-68484446D01*
X107061980Y-68200000D01*
X107089995Y-67915554D01*
X107172965Y-67642040D01*
X107172966Y-67642037D01*
X107307698Y-67389972D01*
X107307699Y-67389971D01*
X107307701Y-67389967D01*
X107489024Y-67169024D01*
X107709967Y-66987701D01*
X107709971Y-66987699D01*
X107709972Y-66987698D01*
X107962037Y-66852966D01*
X107962040Y-66852965D01*
X108235554Y-66769995D01*
X108342139Y-66759498D01*
X108448722Y-66749000D01*
X109991278Y-66749000D01*
X110097861Y-66759498D01*
G37*
G36*
X115177861Y-62059497D02*
G01*
X115284446Y-62069995D01*
X115557960Y-62152965D01*
X115557963Y-62152966D01*
X115810028Y-62287698D01*
X115810029Y-62287699D01*
X115810033Y-62287701D01*
X116030976Y-62469024D01*
X116212299Y-62689967D01*
X116212301Y-62689971D01*
X116212302Y-62689972D01*
X116347034Y-62942037D01*
X116347035Y-62942040D01*
X116430005Y-63215554D01*
X116458020Y-63500000D01*
X116430005Y-63784446D01*
X116347035Y-64057960D01*
X116347034Y-64057963D01*
X116212302Y-64310028D01*
X116212299Y-64310033D01*
X116030976Y-64530976D01*
X115810033Y-64712299D01*
X115810029Y-64712301D01*
X115810028Y-64712302D01*
X115557963Y-64847034D01*
X115557960Y-64847035D01*
X115284446Y-64930005D01*
X115177861Y-64940502D01*
X115071278Y-64951000D01*
X113528722Y-64951000D01*
X113422139Y-64940502D01*
X113315554Y-64930005D01*
X113042040Y-64847035D01*
X113042037Y-64847034D01*
X112789972Y-64712302D01*
X112789971Y-64712301D01*
X112789967Y-64712299D01*
X112569024Y-64530976D01*
X112387701Y-64310033D01*
X112387698Y-64310028D01*
X112252966Y-64057963D01*
X112252965Y-64057960D01*
X112169995Y-63784446D01*
X112141980Y-63500000D01*
X112169995Y-63215554D01*
X112252965Y-62942040D01*
X112252966Y-62942037D01*
X112387698Y-62689972D01*
X112387699Y-62689971D01*
X112387701Y-62689967D01*
X112569024Y-62469024D01*
X112789967Y-62287701D01*
X112789971Y-62287699D01*
X112789972Y-62287698D01*
X113042037Y-62152966D01*
X113042040Y-62152965D01*
X113315554Y-62069995D01*
X113422139Y-62059497D01*
X113528722Y-62049000D01*
X115071278Y-62049000D01*
X115177861Y-62059497D01*
G37*
G36*
X110097861Y-62059497D02*
G01*
X110204446Y-62069995D01*
X110477960Y-62152965D01*
X110477963Y-62152966D01*
X110730028Y-62287698D01*
X110730029Y-62287699D01*
X110730033Y-62287701D01*
X110950976Y-62469024D01*
X111132299Y-62689967D01*
X111132301Y-62689971D01*
X111132302Y-62689972D01*
X111267034Y-62942037D01*
X111267035Y-62942040D01*
X111350005Y-63215554D01*
X111378020Y-63500000D01*
X111350005Y-63784446D01*
X111267035Y-64057960D01*
X111267034Y-64057963D01*
X111132302Y-64310028D01*
X111132299Y-64310033D01*
X110950976Y-64530976D01*
X110730033Y-64712299D01*
X110730029Y-64712301D01*
X110730028Y-64712302D01*
X110477963Y-64847034D01*
X110477960Y-64847035D01*
X110204446Y-64930005D01*
X110097861Y-64940502D01*
X109991278Y-64951000D01*
X108448722Y-64951000D01*
X108342139Y-64940502D01*
X108235554Y-64930005D01*
X107962040Y-64847035D01*
X107962037Y-64847034D01*
X107709972Y-64712302D01*
X107709971Y-64712301D01*
X107709967Y-64712299D01*
X107489024Y-64530976D01*
X107307701Y-64310033D01*
X107307698Y-64310028D01*
X107172966Y-64057963D01*
X107172965Y-64057960D01*
X107089995Y-63784446D01*
X107061980Y-63500000D01*
X107089995Y-63215554D01*
X107172965Y-62942040D01*
X107172966Y-62942037D01*
X107307698Y-62689972D01*
X107307699Y-62689971D01*
X107307701Y-62689967D01*
X107489024Y-62469024D01*
X107709967Y-62287701D01*
X107709971Y-62287699D01*
X107709972Y-62287698D01*
X107962037Y-62152966D01*
X107962040Y-62152965D01*
X108235554Y-62069995D01*
X108342139Y-62059497D01*
X108448722Y-62049000D01*
X109991278Y-62049000D01*
X110097861Y-62059497D01*
G37*
G36*
X120257861Y-62059497D02*
G01*
X120364446Y-62069995D01*
X120637960Y-62152965D01*
X120637963Y-62152966D01*
X120890028Y-62287698D01*
X120890029Y-62287699D01*
X120890033Y-62287701D01*
X121110976Y-62469024D01*
X121292299Y-62689967D01*
X121292301Y-62689971D01*
X121292302Y-62689972D01*
X121427034Y-62942037D01*
X121427035Y-62942040D01*
X121510005Y-63215554D01*
X121538020Y-63500000D01*
X121510005Y-63784446D01*
X121427035Y-64057960D01*
X121427034Y-64057963D01*
X121292302Y-64310028D01*
X121292299Y-64310033D01*
X121110976Y-64530976D01*
X120890033Y-64712299D01*
X120890029Y-64712301D01*
X120890028Y-64712302D01*
X120637963Y-64847034D01*
X120637960Y-64847035D01*
X120364446Y-64930005D01*
X120257861Y-64940502D01*
X120151278Y-64951000D01*
X118608722Y-64951000D01*
X118502139Y-64940502D01*
X118395554Y-64930005D01*
X118122040Y-64847035D01*
X118122037Y-64847034D01*
X117869972Y-64712302D01*
X117869971Y-64712301D01*
X117869967Y-64712299D01*
X117649024Y-64530976D01*
X117467701Y-64310033D01*
X117467698Y-64310028D01*
X117332966Y-64057963D01*
X117332965Y-64057960D01*
X117249995Y-63784446D01*
X117221980Y-63500000D01*
X117249995Y-63215554D01*
X117332965Y-62942040D01*
X117332966Y-62942037D01*
X117467698Y-62689972D01*
X117467699Y-62689971D01*
X117467701Y-62689967D01*
X117649024Y-62469024D01*
X117869967Y-62287701D01*
X117869971Y-62287699D01*
X117869972Y-62287698D01*
X118122037Y-62152966D01*
X118122040Y-62152965D01*
X118395554Y-62069995D01*
X118502139Y-62059497D01*
X118608722Y-62049000D01*
X120151278Y-62049000D01*
X120257861Y-62059497D01*
G37*
G36*
X111179000Y-60759000D02*
G01*
X107261000Y-60759000D01*
X107261000Y-56841000D01*
X111179000Y-56841000D01*
X111179000Y-60759000D01*
G37*
G36*
X120257861Y-57359497D02*
G01*
X120364446Y-57369995D01*
X120637960Y-57452965D01*
X120637963Y-57452966D01*
X120890028Y-57587698D01*
X120890029Y-57587699D01*
X120890033Y-57587701D01*
X121110976Y-57769024D01*
X121292299Y-57989967D01*
X121292301Y-57989971D01*
X121292302Y-57989972D01*
X121427034Y-58242037D01*
X121427035Y-58242040D01*
X121510005Y-58515554D01*
X121538020Y-58800000D01*
X121510005Y-59084446D01*
X121427035Y-59357960D01*
X121427034Y-59357963D01*
X121292302Y-59610028D01*
X121292299Y-59610033D01*
X121110976Y-59830976D01*
X120890033Y-60012299D01*
X120890029Y-60012301D01*
X120890028Y-60012302D01*
X120637963Y-60147034D01*
X120637960Y-60147035D01*
X120364446Y-60230005D01*
X120257861Y-60240503D01*
X120151278Y-60251000D01*
X118608722Y-60251000D01*
X118502139Y-60240503D01*
X118395554Y-60230005D01*
X118122040Y-60147035D01*
X118122037Y-60147034D01*
X117869972Y-60012302D01*
X117869971Y-60012301D01*
X117869967Y-60012299D01*
X117649024Y-59830976D01*
X117467701Y-59610033D01*
X117467698Y-59610028D01*
X117332966Y-59357963D01*
X117332965Y-59357960D01*
X117249995Y-59084446D01*
X117221980Y-58800000D01*
X117249995Y-58515554D01*
X117332965Y-58242040D01*
X117332966Y-58242037D01*
X117467698Y-57989972D01*
X117467699Y-57989971D01*
X117467701Y-57989967D01*
X117649024Y-57769024D01*
X117869967Y-57587701D01*
X117869971Y-57587699D01*
X117869972Y-57587698D01*
X118122037Y-57452966D01*
X118122040Y-57452965D01*
X118395554Y-57369995D01*
X118502139Y-57359497D01*
X118608722Y-57349000D01*
X120151278Y-57349000D01*
X120257861Y-57359497D01*
G37*
G36*
X115177861Y-57359497D02*
G01*
X115284446Y-57369995D01*
X115557960Y-57452965D01*
X115557963Y-57452966D01*
X115810028Y-57587698D01*
X115810029Y-57587699D01*
X115810033Y-57587701D01*
X116030976Y-57769024D01*
X116212299Y-57989967D01*
X116212301Y-57989971D01*
X116212302Y-57989972D01*
X116347034Y-58242037D01*
X116347035Y-58242040D01*
X116430005Y-58515554D01*
X116458020Y-58800000D01*
X116430005Y-59084446D01*
X116347035Y-59357960D01*
X116347034Y-59357963D01*
X116212302Y-59610028D01*
X116212299Y-59610033D01*
X116030976Y-59830976D01*
X115810033Y-60012299D01*
X115810029Y-60012301D01*
X115810028Y-60012302D01*
X115557963Y-60147034D01*
X115557960Y-60147035D01*
X115284446Y-60230005D01*
X115177861Y-60240503D01*
X115071278Y-60251000D01*
X113528722Y-60251000D01*
X113422139Y-60240503D01*
X113315554Y-60230005D01*
X113042040Y-60147035D01*
X113042037Y-60147034D01*
X112789972Y-60012302D01*
X112789971Y-60012301D01*
X112789967Y-60012299D01*
X112569024Y-59830976D01*
X112387701Y-59610033D01*
X112387698Y-59610028D01*
X112252966Y-59357963D01*
X112252965Y-59357960D01*
X112169995Y-59084446D01*
X112141980Y-58800000D01*
X112169995Y-58515554D01*
X112252965Y-58242040D01*
X112252966Y-58242037D01*
X112387698Y-57989972D01*
X112387699Y-57989971D01*
X112387701Y-57989967D01*
X112569024Y-57769024D01*
X112789967Y-57587701D01*
X112789971Y-57587699D01*
X112789972Y-57587698D01*
X113042037Y-57452966D01*
X113042040Y-57452965D01*
X113315554Y-57369995D01*
X113422139Y-57359497D01*
X113528722Y-57349000D01*
X115071278Y-57349000D01*
X115177861Y-57359497D01*
G37*
G36*
X113844564Y-51567389D02*
G01*
X114035833Y-51646615D01*
X114035835Y-51646616D01*
X114207973Y-51761635D01*
X114354365Y-51908027D01*
X114469385Y-52080167D01*
X114548611Y-52271436D01*
X114589000Y-52474484D01*
X114589000Y-52681516D01*
X114548611Y-52884564D01*
X114521990Y-52948833D01*
X114469384Y-53075835D01*
X114354365Y-53247973D01*
X114207973Y-53394365D01*
X114035835Y-53509384D01*
X114035834Y-53509385D01*
X114035833Y-53509385D01*
X113844564Y-53588611D01*
X113641516Y-53629000D01*
X113434484Y-53629000D01*
X113231436Y-53588611D01*
X113040167Y-53509385D01*
X113040166Y-53509385D01*
X113040165Y-53509384D01*
X112868027Y-53394365D01*
X112721635Y-53247973D01*
X112606616Y-53075835D01*
X112554010Y-52948833D01*
X112527389Y-52884564D01*
X112487000Y-52681516D01*
X112487000Y-52474484D01*
X112527389Y-52271436D01*
X112606615Y-52080167D01*
X112721635Y-51908027D01*
X112868027Y-51761635D01*
X113040165Y-51646616D01*
X113040167Y-51646615D01*
X113231436Y-51567389D01*
X113434484Y-51527000D01*
X113641516Y-51527000D01*
X113844564Y-51567389D01*
G37*
G36*
X121464564Y-51567389D02*
G01*
X121655833Y-51646615D01*
X121655835Y-51646616D01*
X121827973Y-51761635D01*
X121974365Y-51908027D01*
X122089385Y-52080167D01*
X122168611Y-52271436D01*
X122209000Y-52474484D01*
X122209000Y-52681516D01*
X122168611Y-52884564D01*
X122141990Y-52948833D01*
X122089384Y-53075835D01*
X121974365Y-53247973D01*
X121827973Y-53394365D01*
X121655835Y-53509384D01*
X121655834Y-53509385D01*
X121655833Y-53509385D01*
X121464564Y-53588611D01*
X121261516Y-53629000D01*
X121054484Y-53629000D01*
X120851436Y-53588611D01*
X120660167Y-53509385D01*
X120660166Y-53509385D01*
X120660165Y-53509384D01*
X120488027Y-53394365D01*
X120341635Y-53247973D01*
X120226616Y-53075835D01*
X120174010Y-52948833D01*
X120147389Y-52884564D01*
X120107000Y-52681516D01*
X120107000Y-52474484D01*
X120147389Y-52271436D01*
X120226615Y-52080167D01*
X120341635Y-51908027D01*
X120488027Y-51761635D01*
X120660165Y-51646616D01*
X120660167Y-51646615D01*
X120851436Y-51567389D01*
X121054484Y-51527000D01*
X121261516Y-51527000D01*
X121464564Y-51567389D01*
G37*
G36*
X111287000Y-53502000D02*
G01*
X109185000Y-53502000D01*
X109185000Y-51400000D01*
X111287000Y-51400000D01*
X111287000Y-53502000D01*
G37*
G36*
X108002564Y-51440389D02*
G01*
X108193833Y-51519615D01*
X108193835Y-51519616D01*
X108365973Y-51634635D01*
X108512365Y-51781027D01*
X108597224Y-51908027D01*
X108627385Y-51953167D01*
X108706611Y-52144436D01*
X108747000Y-52347484D01*
X108747000Y-52554516D01*
X108706611Y-52757564D01*
X108627385Y-52948833D01*
X108627384Y-52948835D01*
X108512365Y-53120973D01*
X108365973Y-53267365D01*
X108193835Y-53382384D01*
X108193834Y-53382385D01*
X108193833Y-53382385D01*
X108002564Y-53461611D01*
X107799516Y-53502000D01*
X107592484Y-53502000D01*
X107389436Y-53461611D01*
X107198167Y-53382385D01*
X107198166Y-53382385D01*
X107198165Y-53382384D01*
X107026027Y-53267365D01*
X106879635Y-53120973D01*
X106764616Y-52948835D01*
X106764615Y-52948833D01*
X106685389Y-52757564D01*
X106645000Y-52554516D01*
X106645000Y-52347484D01*
X106685389Y-52144436D01*
X106764615Y-51953167D01*
X106794777Y-51908027D01*
X106879635Y-51781027D01*
X107026027Y-51634635D01*
X107198165Y-51519616D01*
X107198167Y-51519615D01*
X107389436Y-51440389D01*
X107592484Y-51400000D01*
X107799516Y-51400000D01*
X108002564Y-51440389D01*
G37*
G36*
X121551000Y-49669000D02*
G01*
X119749000Y-49669000D01*
X119749000Y-47867000D01*
X121551000Y-47867000D01*
X121551000Y-49669000D01*
G37*
G36*
X119011000Y-49669000D02*
G01*
X117209000Y-49669000D01*
X117209000Y-47867000D01*
X119011000Y-47867000D01*
X119011000Y-49669000D01*
G37*
G36*
X116471000Y-49669000D02*
G01*
X114669000Y-49669000D01*
X114669000Y-47867000D01*
X116471000Y-47867000D01*
X116471000Y-49669000D01*
G37*
G36*
X113931000Y-49669000D02*
G01*
X112129000Y-49669000D01*
X112129000Y-47867000D01*
X113931000Y-47867000D01*
X113931000Y-49669000D01*
G37*
G36*
X111391000Y-49669000D02*
G01*
X109589000Y-49669000D01*
X109589000Y-47867000D01*
X111391000Y-47867000D01*
X111391000Y-49669000D01*
G37*
G36*
X108851000Y-49669000D02*
G01*
X107049000Y-49669000D01*
X107049000Y-47867000D01*
X108851000Y-47867000D01*
X108851000Y-49669000D01*
G37*
M02*
