G04 #@! TF.GenerationSoftware,KiCad,Pcbnew,(5.1.5-0-10_14)*
G04 #@! TF.CreationDate,2020-11-20T21:32:41+01:00*
G04 #@! TF.ProjectId,3pdt-minimal,33706474-2d6d-4696-9e69-6d616c2e6b69,rev?*
G04 #@! TF.SameCoordinates,Original*
G04 #@! TF.FileFunction,Copper,L1,Top*
G04 #@! TF.FilePolarity,Positive*
%FSLAX46Y46*%
G04 Gerber Fmt 4.6, Leading zero omitted, Abs format (unit mm)*
G04 Created by KiCad (PCBNEW (5.1.5-0-10_14)) date 2020-11-20 21:32:41*
%MOMM*%
%LPD*%
G04 APERTURE LIST*
%ADD10O,4.200000X2.800000*%
%ADD11R,3.816000X3.816000*%
%ADD12R,2.000000X2.000000*%
%ADD13O,2.000000X2.000000*%
%ADD14R,1.700000X1.700000*%
%ADD15C,0.250000*%
%ADD16C,0.300000*%
G04 APERTURE END LIST*
D10*
X119380000Y-68200000D03*
X119380000Y-63500000D03*
X119380000Y-58800000D03*
X114300000Y-68200000D03*
X114300000Y-63500000D03*
X114300000Y-58800000D03*
X109220000Y-68200000D03*
X109220000Y-63500000D03*
D11*
X109220000Y-58800000D03*
D12*
X110236000Y-52451000D03*
D13*
X107696000Y-52451000D03*
X113538000Y-52578000D03*
X121158000Y-52578000D03*
D14*
X107950000Y-48768000D03*
X120650000Y-48768000D03*
X110490000Y-48768000D03*
X113030000Y-48768000D03*
X115570000Y-48768000D03*
X118110000Y-48768000D03*
D15*
X113411000Y-52451000D02*
X113538000Y-52578000D01*
X110236000Y-52451000D02*
X113411000Y-52451000D01*
D16*
X107696000Y-57276000D02*
X109220000Y-58800000D01*
X107696000Y-52451000D02*
X107696000Y-57276000D01*
D15*
X113666999Y-61083001D02*
X114300000Y-60450000D01*
X114300000Y-60450000D02*
X114300000Y-58800000D01*
X117510243Y-68200000D02*
X114535253Y-65225010D01*
X119380000Y-68200000D02*
X117510243Y-68200000D01*
X111760000Y-60960000D02*
X113666999Y-61083001D01*
X112885478Y-65225010D02*
X111760000Y-64099532D01*
X114535253Y-65225010D02*
X112885478Y-65225010D01*
X106426000Y-61468000D02*
X111760000Y-61468000D01*
X106320999Y-61362999D02*
X106426000Y-61468000D01*
X107950000Y-48768000D02*
X106850000Y-48768000D01*
X111760000Y-61468000D02*
X111760000Y-60960000D01*
X106320999Y-49297001D02*
X106320999Y-61362999D01*
X106850000Y-48768000D02*
X106320999Y-49297001D01*
X111760000Y-64099532D02*
X111760000Y-61468000D01*
X119782999Y-50735001D02*
X120650000Y-49868000D01*
X119782999Y-53238001D02*
X119782999Y-50735001D01*
X121805010Y-55260012D02*
X119782999Y-53238001D01*
X120650000Y-49868000D02*
X120650000Y-48768000D01*
X121805010Y-63424990D02*
X121805010Y-55260012D01*
X121730000Y-63500000D02*
X121805010Y-63424990D01*
X119380000Y-63500000D02*
X121730000Y-63500000D01*
D16*
X122157999Y-51578001D02*
X121158000Y-52578000D01*
X122157999Y-47855997D02*
X122157999Y-51578001D01*
X121820001Y-47517999D02*
X122157999Y-47855997D01*
X113130001Y-47517999D02*
X121820001Y-47517999D01*
X113030000Y-47618000D02*
X113130001Y-47517999D01*
X113030000Y-48768000D02*
X113030000Y-47618000D01*
D15*
X116725010Y-63424990D02*
X116650000Y-63500000D01*
X116650000Y-63500000D02*
X114300000Y-63500000D01*
X116725010Y-51023010D02*
X116725010Y-63424990D01*
X115570000Y-49868000D02*
X116725010Y-51023010D01*
X115570000Y-48768000D02*
X115570000Y-49868000D01*
X118110000Y-55880000D02*
X118110000Y-49868000D01*
X119380000Y-57150000D02*
X118110000Y-55880000D01*
X118110000Y-49868000D02*
X118110000Y-48768000D01*
X119380000Y-58800000D02*
X119380000Y-57150000D01*
M02*
