G04 #@! TF.GenerationSoftware,KiCad,Pcbnew,(5.1.5-0-10_14)*
G04 #@! TF.CreationDate,2020-11-20T21:32:41+01:00*
G04 #@! TF.ProjectId,3pdt-minimal,33706474-2d6d-4696-9e69-6d616c2e6b69,rev?*
G04 #@! TF.SameCoordinates,Original*
G04 #@! TF.FileFunction,Legend,Top*
G04 #@! TF.FilePolarity,Positive*
%FSLAX46Y46*%
G04 Gerber Fmt 4.6, Leading zero omitted, Abs format (unit mm)*
G04 Created by KiCad (PCBNEW (5.1.5-0-10_14)) date 2020-11-20 21:32:41*
%MOMM*%
%LPD*%
G04 APERTURE LIST*
%ADD10C,0.010000*%
%ADD11C,0.120000*%
%ADD12C,0.127000*%
%ADD13C,0.152400*%
%ADD14C,0.150000*%
G04 APERTURE END LIST*
D10*
G36*
X119066419Y-56569876D02*
G01*
X119050740Y-56585555D01*
X119035061Y-56569876D01*
X119050740Y-56554197D01*
X119066419Y-56569876D01*
G37*
X119066419Y-56569876D02*
X119050740Y-56585555D01*
X119035061Y-56569876D01*
X119050740Y-56554197D01*
X119066419Y-56569876D01*
G36*
X117584926Y-56006784D02*
G01*
X117733469Y-56011860D01*
X117849456Y-56022188D01*
X117947946Y-56039299D01*
X118043999Y-56064721D01*
X118078642Y-56075486D01*
X118186812Y-56114742D01*
X118305029Y-56165051D01*
X118420481Y-56219893D01*
X118520354Y-56272747D01*
X118591835Y-56317091D01*
X118622112Y-56346405D01*
X118621027Y-56351524D01*
X118586708Y-56350280D01*
X118512409Y-56333676D01*
X118457256Y-56318141D01*
X118283707Y-56288975D01*
X118124220Y-56305825D01*
X117993949Y-56366728D01*
X117976974Y-56380306D01*
X117920866Y-56447933D01*
X117918436Y-56512078D01*
X117967161Y-56577015D01*
X118053886Y-56627069D01*
X118153900Y-56648224D01*
X118158512Y-56648271D01*
X118211216Y-56661332D01*
X118207734Y-56699292D01*
X118148612Y-56760318D01*
X118117839Y-56784563D01*
X117960306Y-56872711D01*
X117762834Y-56937331D01*
X117544942Y-56974847D01*
X117326149Y-56981686D01*
X117155000Y-56960910D01*
X116954950Y-56901148D01*
X116789507Y-56816422D01*
X116664094Y-56712765D01*
X116584136Y-56596210D01*
X116555056Y-56472790D01*
X116582276Y-56348539D01*
X116590239Y-56332630D01*
X116603501Y-56289944D01*
X116579752Y-56273117D01*
X116512963Y-56282191D01*
X116397102Y-56317205D01*
X116347544Y-56334294D01*
X116251601Y-56365333D01*
X116182164Y-56382774D01*
X116157262Y-56383641D01*
X116167197Y-56355660D01*
X116223017Y-56310274D01*
X116312779Y-56254348D01*
X116424539Y-56194751D01*
X116546354Y-56138349D01*
X116661819Y-56093533D01*
X116767579Y-56058834D01*
X116858830Y-56034633D01*
X116950992Y-56019061D01*
X117059484Y-56010249D01*
X117199726Y-56006329D01*
X117387139Y-56005432D01*
X117388765Y-56005432D01*
X117584926Y-56006784D01*
G37*
X117584926Y-56006784D02*
X117733469Y-56011860D01*
X117849456Y-56022188D01*
X117947946Y-56039299D01*
X118043999Y-56064721D01*
X118078642Y-56075486D01*
X118186812Y-56114742D01*
X118305029Y-56165051D01*
X118420481Y-56219893D01*
X118520354Y-56272747D01*
X118591835Y-56317091D01*
X118622112Y-56346405D01*
X118621027Y-56351524D01*
X118586708Y-56350280D01*
X118512409Y-56333676D01*
X118457256Y-56318141D01*
X118283707Y-56288975D01*
X118124220Y-56305825D01*
X117993949Y-56366728D01*
X117976974Y-56380306D01*
X117920866Y-56447933D01*
X117918436Y-56512078D01*
X117967161Y-56577015D01*
X118053886Y-56627069D01*
X118153900Y-56648224D01*
X118158512Y-56648271D01*
X118211216Y-56661332D01*
X118207734Y-56699292D01*
X118148612Y-56760318D01*
X118117839Y-56784563D01*
X117960306Y-56872711D01*
X117762834Y-56937331D01*
X117544942Y-56974847D01*
X117326149Y-56981686D01*
X117155000Y-56960910D01*
X116954950Y-56901148D01*
X116789507Y-56816422D01*
X116664094Y-56712765D01*
X116584136Y-56596210D01*
X116555056Y-56472790D01*
X116582276Y-56348539D01*
X116590239Y-56332630D01*
X116603501Y-56289944D01*
X116579752Y-56273117D01*
X116512963Y-56282191D01*
X116397102Y-56317205D01*
X116347544Y-56334294D01*
X116251601Y-56365333D01*
X116182164Y-56382774D01*
X116157262Y-56383641D01*
X116167197Y-56355660D01*
X116223017Y-56310274D01*
X116312779Y-56254348D01*
X116424539Y-56194751D01*
X116546354Y-56138349D01*
X116661819Y-56093533D01*
X116767579Y-56058834D01*
X116858830Y-56034633D01*
X116950992Y-56019061D01*
X117059484Y-56010249D01*
X117199726Y-56006329D01*
X117387139Y-56005432D01*
X117388765Y-56005432D01*
X117584926Y-56006784D01*
G36*
X113210092Y-55250435D02*
G01*
X113308024Y-55284308D01*
X113403674Y-55329856D01*
X113478773Y-55378155D01*
X113515051Y-55420280D01*
X113516049Y-55426630D01*
X113542857Y-55449333D01*
X113593297Y-55456667D01*
X113660130Y-55480361D01*
X113755700Y-55545927D01*
X113871081Y-55645086D01*
X113997346Y-55769563D01*
X114125571Y-55911079D01*
X114246828Y-56061358D01*
X114250158Y-56065774D01*
X114497764Y-56438430D01*
X114684775Y-56818581D01*
X114741108Y-56967904D01*
X114782283Y-57083690D01*
X114816733Y-57174852D01*
X114838777Y-57226560D01*
X114842484Y-57232567D01*
X114880633Y-57230679D01*
X114946365Y-57193325D01*
X115025146Y-57131510D01*
X115102440Y-57056236D01*
X115147979Y-57001291D01*
X115253818Y-56886810D01*
X115397938Y-56770052D01*
X115558601Y-56666933D01*
X115695432Y-56600494D01*
X115820864Y-56550686D01*
X115711111Y-56637638D01*
X115509968Y-56822150D01*
X115364357Y-57014897D01*
X115311306Y-57114509D01*
X115264567Y-57229609D01*
X115244998Y-57330899D01*
X115246535Y-57453164D01*
X115248257Y-57476049D01*
X115277526Y-57653483D01*
X115339867Y-57808173D01*
X115443817Y-57955949D01*
X115585338Y-58101072D01*
X115831045Y-58288610D01*
X116121078Y-58442294D01*
X116446445Y-58561296D01*
X116798153Y-58644787D01*
X117167212Y-58691938D01*
X117544630Y-58701919D01*
X117921415Y-58673901D01*
X118288576Y-58607056D01*
X118637120Y-58500554D01*
X118862592Y-58403251D01*
X119121612Y-58254626D01*
X119324525Y-58089412D01*
X119476855Y-57902617D01*
X119539736Y-57791607D01*
X119593188Y-57675754D01*
X119621024Y-57586689D01*
X119628922Y-57496852D01*
X119623191Y-57386453D01*
X119591797Y-57206271D01*
X119523672Y-57045489D01*
X119411052Y-56890083D01*
X119268844Y-56746520D01*
X119188322Y-56670570D01*
X119133180Y-56613926D01*
X119113055Y-56586627D01*
X119114379Y-56585555D01*
X119175510Y-56604131D01*
X119269227Y-56653170D01*
X119380231Y-56722640D01*
X119493220Y-56802508D01*
X119592891Y-56882740D01*
X119648328Y-56935647D01*
X119809735Y-57145158D01*
X119910889Y-57360557D01*
X119953545Y-57578308D01*
X119939453Y-57794874D01*
X119870366Y-58006718D01*
X119748036Y-58210304D01*
X119574216Y-58402095D01*
X119350657Y-58578554D01*
X119079112Y-58736145D01*
X118761333Y-58871330D01*
X118674444Y-58901353D01*
X118275822Y-59006648D01*
X117859565Y-59067665D01*
X117435192Y-59085536D01*
X117012225Y-59061393D01*
X116600184Y-58996369D01*
X116208590Y-58891595D01*
X115846964Y-58748205D01*
X115524825Y-58567331D01*
X115454283Y-58518351D01*
X115274338Y-58372348D01*
X115139107Y-58221686D01*
X115032524Y-58046244D01*
X114974129Y-57917047D01*
X114897291Y-57730123D01*
X114896546Y-58202642D01*
X114901408Y-58472592D01*
X114919466Y-58691837D01*
X114954516Y-58871682D01*
X115010356Y-59023429D01*
X115090781Y-59158382D01*
X115199588Y-59287844D01*
X115291362Y-59378171D01*
X115543957Y-59574950D01*
X115850905Y-59745940D01*
X116208632Y-59889383D01*
X116516066Y-59979864D01*
X116616594Y-60003829D01*
X116711051Y-60021661D01*
X116811162Y-60034207D01*
X116928650Y-60042313D01*
X117075236Y-60046827D01*
X117262644Y-60048593D01*
X117467160Y-60048557D01*
X117695083Y-60047505D01*
X117872286Y-60044942D01*
X118010760Y-60039831D01*
X118122501Y-60031136D01*
X118219499Y-60017821D01*
X118313750Y-59998850D01*
X118417247Y-59973187D01*
X118454938Y-59963216D01*
X118733812Y-59874546D01*
X119004690Y-59761797D01*
X119253153Y-59632310D01*
X119464784Y-59493426D01*
X119596128Y-59382206D01*
X119755797Y-59206064D01*
X119865230Y-59032372D01*
X119933164Y-58842241D01*
X119968339Y-58616783D01*
X119971947Y-58569784D01*
X119991481Y-58278517D01*
X120650000Y-58655744D01*
X120889048Y-58794581D01*
X121078947Y-58909469D01*
X121226455Y-59004884D01*
X121338327Y-59085305D01*
X121421318Y-59155208D01*
X121456634Y-59190296D01*
X121521021Y-59261636D01*
X121572981Y-59329769D01*
X121613842Y-59402234D01*
X121644929Y-59486574D01*
X121667568Y-59590330D01*
X121683087Y-59721043D01*
X121692809Y-59886256D01*
X121698063Y-60093510D01*
X121700175Y-60350345D01*
X121700493Y-60577029D01*
X121700389Y-60839095D01*
X121699716Y-61045823D01*
X121697937Y-61204588D01*
X121694516Y-61322768D01*
X121688913Y-61407741D01*
X121680593Y-61466882D01*
X121669016Y-61507569D01*
X121653646Y-61537179D01*
X121633945Y-61563090D01*
X121628131Y-61570031D01*
X121601048Y-61610066D01*
X121576610Y-61666816D01*
X121552684Y-61749058D01*
X121527140Y-61865567D01*
X121497845Y-62025118D01*
X121462668Y-62236487D01*
X121455643Y-62280113D01*
X121407128Y-62586240D01*
X121368344Y-62842892D01*
X121338216Y-63062371D01*
X121315666Y-63256980D01*
X121299618Y-63439022D01*
X121288995Y-63620799D01*
X121282721Y-63814614D01*
X121279718Y-64032769D01*
X121278911Y-64287567D01*
X121278910Y-64299630D01*
X121281647Y-64649703D01*
X121290860Y-64951205D01*
X121307961Y-65218076D01*
X121334364Y-65464254D01*
X121371484Y-65703681D01*
X121420735Y-65950295D01*
X121466409Y-66148044D01*
X121505121Y-66296328D01*
X121539585Y-66396043D01*
X121575567Y-66460534D01*
X121618833Y-66503145D01*
X121620333Y-66504246D01*
X121714423Y-66603241D01*
X121784897Y-66734429D01*
X121819303Y-66871465D01*
X121819848Y-66926339D01*
X121808164Y-66993271D01*
X121777691Y-67044166D01*
X121714943Y-67095109D01*
X121637777Y-67143512D01*
X121536513Y-67198117D01*
X121447207Y-67235676D01*
X121397159Y-67247154D01*
X121306717Y-67219067D01*
X121216090Y-67145039D01*
X121135859Y-67040911D01*
X121076605Y-66922528D01*
X121048910Y-66805733D01*
X121053988Y-66733318D01*
X121092383Y-66662793D01*
X121160093Y-66594210D01*
X121168341Y-66588100D01*
X121263200Y-66520555D01*
X121199408Y-66417337D01*
X121127784Y-66282497D01*
X121049830Y-66103819D01*
X120972362Y-65898785D01*
X120902198Y-65684879D01*
X120869730Y-65571778D01*
X120758680Y-65055730D01*
X120693806Y-64499042D01*
X120675152Y-63903561D01*
X120702764Y-63271135D01*
X120776688Y-62603613D01*
X120794063Y-62485468D01*
X120816475Y-62331071D01*
X120833394Y-62200278D01*
X120843452Y-62104854D01*
X120845284Y-62056560D01*
X120844258Y-62053188D01*
X120814475Y-62064313D01*
X120738288Y-62102886D01*
X120623433Y-62164701D01*
X120477646Y-62245549D01*
X120308664Y-62341224D01*
X120201758Y-62402610D01*
X119572809Y-62765583D01*
X119541414Y-62913285D01*
X119513925Y-63056847D01*
X119481733Y-63247757D01*
X119446986Y-63471019D01*
X119411833Y-63711640D01*
X119378425Y-63954628D01*
X119348910Y-64184987D01*
X119325436Y-64387725D01*
X119314638Y-64495389D01*
X119301253Y-64696350D01*
X119293249Y-64937626D01*
X119290340Y-65206209D01*
X119292241Y-65489093D01*
X119298666Y-65773269D01*
X119309331Y-66045729D01*
X119323950Y-66293467D01*
X119342238Y-66503474D01*
X119361939Y-66651481D01*
X119409909Y-66917582D01*
X119454634Y-67129419D01*
X119498678Y-67295176D01*
X119544606Y-67423036D01*
X119594982Y-67521182D01*
X119652372Y-67597796D01*
X119661709Y-67607901D01*
X119766476Y-67743735D01*
X119829463Y-67880964D01*
X119844986Y-68005797D01*
X119839458Y-68039085D01*
X119799897Y-68099300D01*
X119719683Y-68168336D01*
X119617432Y-68234508D01*
X119511759Y-68286131D01*
X119421280Y-68311520D01*
X119403993Y-68312413D01*
X119309520Y-68282700D01*
X119216784Y-68206575D01*
X119137571Y-68099532D01*
X119083670Y-67977063D01*
X119066537Y-67868878D01*
X119078766Y-67778297D01*
X119126137Y-67709719D01*
X119165698Y-67675861D01*
X119264976Y-67598164D01*
X119151430Y-67367847D01*
X118981774Y-66960718D01*
X118850603Y-66507857D01*
X118758288Y-66013343D01*
X118705202Y-65481252D01*
X118691719Y-64915661D01*
X118718211Y-64320647D01*
X118785052Y-63700289D01*
X118803936Y-63569264D01*
X118823185Y-63430909D01*
X118836146Y-63316894D01*
X118841488Y-63240530D01*
X118839240Y-63215331D01*
X118808937Y-63225977D01*
X118732267Y-63264248D01*
X118616926Y-63325973D01*
X118470608Y-63406984D01*
X118301005Y-63503111D01*
X118185930Y-63569400D01*
X117548162Y-63939012D01*
X117506950Y-64142839D01*
X117463254Y-64382485D01*
X117419184Y-64666382D01*
X117377047Y-64976124D01*
X117339152Y-65293304D01*
X117307804Y-65599516D01*
X117285312Y-65876352D01*
X117280926Y-65945926D01*
X117267041Y-66625896D01*
X117304335Y-67293607D01*
X117391991Y-67938764D01*
X117469251Y-68314320D01*
X117505051Y-68453901D01*
X117540142Y-68550528D01*
X117583570Y-68623196D01*
X117644381Y-68690903D01*
X117652248Y-68698600D01*
X117744637Y-68812217D01*
X117806664Y-68936938D01*
X117832414Y-69056024D01*
X117815973Y-69152738D01*
X117814053Y-69156471D01*
X117763155Y-69212395D01*
X117674517Y-69278197D01*
X117569012Y-69341448D01*
X117467515Y-69389718D01*
X117390901Y-69410581D01*
X117387077Y-69410693D01*
X117326855Y-69389135D01*
X117252527Y-69334678D01*
X117226210Y-69309074D01*
X117131367Y-69195731D01*
X117079441Y-69093844D01*
X117060344Y-68981350D01*
X117059506Y-68944452D01*
X117067568Y-68855204D01*
X117101358Y-68799880D01*
X117153580Y-68763160D01*
X117216393Y-68721284D01*
X117247058Y-68691473D01*
X117247654Y-68689034D01*
X117234434Y-68654133D01*
X117199410Y-68578405D01*
X117149536Y-68476758D01*
X117137450Y-68452770D01*
X117017921Y-68180073D01*
X116909210Y-67859186D01*
X116815794Y-67504313D01*
X116770191Y-67287496D01*
X116748622Y-67169040D01*
X116731954Y-67059730D01*
X116719607Y-66949060D01*
X116711003Y-66826527D01*
X116705560Y-66681624D01*
X116702701Y-66503848D01*
X116701845Y-66282693D01*
X116702251Y-66055679D01*
X116703983Y-65772395D01*
X116707576Y-65540506D01*
X116713632Y-65348705D01*
X116722753Y-65185684D01*
X116735540Y-65040134D01*
X116752594Y-64900748D01*
X116769776Y-64785679D01*
X116793149Y-64633991D01*
X116811413Y-64506518D01*
X116822988Y-64415005D01*
X116826295Y-64371198D01*
X116825801Y-64369168D01*
X116797751Y-64382543D01*
X116720903Y-64424342D01*
X116600685Y-64491487D01*
X116442527Y-64580896D01*
X116251860Y-64689491D01*
X116034111Y-64814190D01*
X115794712Y-64951913D01*
X115582049Y-65074724D01*
X114347037Y-65789136D01*
X113970740Y-65786214D01*
X113588884Y-65762339D01*
X113173533Y-65699005D01*
X112736388Y-65600233D01*
X112289152Y-65470042D01*
X111843526Y-65312455D01*
X111411213Y-65131492D01*
X111003913Y-64931173D01*
X110633330Y-64715519D01*
X110408191Y-64562105D01*
X109995516Y-64223675D01*
X109617902Y-63840081D01*
X109285204Y-63421899D01*
X109132103Y-63192494D01*
X109055610Y-63067511D01*
X109007619Y-62978142D01*
X108982171Y-62907603D01*
X108973303Y-62839110D01*
X108975054Y-62755879D01*
X108975313Y-62751049D01*
X108984814Y-62575695D01*
X109170233Y-62827019D01*
X109328795Y-63022536D01*
X109525664Y-63235351D01*
X109745282Y-63450641D01*
X109972089Y-63653588D01*
X110190524Y-63829369D01*
X110318003Y-63920273D01*
X110633101Y-64114315D01*
X110994150Y-64307920D01*
X111384789Y-64493552D01*
X111788655Y-64663678D01*
X112189386Y-64810761D01*
X112395455Y-64876962D01*
X112598441Y-64934009D01*
X112825645Y-64990212D01*
X113062245Y-65042591D01*
X113293419Y-65088167D01*
X113504346Y-65123963D01*
X113680202Y-65147000D01*
X113773487Y-65153903D01*
X114002098Y-65161975D01*
X114012274Y-65036941D01*
X114026687Y-64946689D01*
X114049535Y-64880938D01*
X114055312Y-64872311D01*
X114076613Y-64836526D01*
X114060338Y-64832659D01*
X114019417Y-64855450D01*
X113966781Y-64899636D01*
X113952688Y-64914069D01*
X113905047Y-64959056D01*
X113856942Y-64980641D01*
X113787124Y-64983699D01*
X113688518Y-64974678D01*
X113406796Y-64933409D01*
X113085459Y-64868957D01*
X112741288Y-64785571D01*
X112391068Y-64687500D01*
X112051580Y-64578991D01*
X111938820Y-64538851D01*
X112723984Y-64538851D01*
X112986745Y-64606903D01*
X113182909Y-64656851D01*
X113359909Y-64700297D01*
X113507133Y-64734751D01*
X113613970Y-64757721D01*
X113666921Y-64766526D01*
X113691850Y-64751160D01*
X113696199Y-64691968D01*
X113690490Y-64636728D01*
X113680348Y-64558828D01*
X113664152Y-64433393D01*
X113643790Y-64275098D01*
X113621152Y-64098618D01*
X113610360Y-64014323D01*
X113584112Y-63829765D01*
X113555996Y-63659986D01*
X115500946Y-63659986D01*
X115506430Y-63662471D01*
X115532123Y-63643474D01*
X115578393Y-63618906D01*
X115673161Y-63576881D01*
X115806103Y-63521688D01*
X115966890Y-63457614D01*
X116143605Y-63389552D01*
X116342555Y-63313194D01*
X116489708Y-63253902D01*
X116592472Y-63208044D01*
X116658251Y-63171987D01*
X116694451Y-63142098D01*
X116708478Y-63114744D01*
X116708909Y-63112266D01*
X116718169Y-63066137D01*
X116737018Y-63050916D01*
X116779582Y-63067436D01*
X116859986Y-63116525D01*
X116868059Y-63121621D01*
X116951517Y-63189754D01*
X117003489Y-63262222D01*
X117009144Y-63278411D01*
X117036898Y-63344865D01*
X117070874Y-63349009D01*
X117110656Y-63290893D01*
X117122485Y-63264180D01*
X117194109Y-63148561D01*
X117292797Y-63063614D01*
X117401957Y-63021519D01*
X117454757Y-63020284D01*
X117521676Y-63024300D01*
X117539419Y-63008615D01*
X117525457Y-62974336D01*
X117447117Y-62888323D01*
X117329394Y-62828141D01*
X117192031Y-62798700D01*
X117054768Y-62804908D01*
X116965432Y-62835050D01*
X116761074Y-62920238D01*
X116546466Y-62976451D01*
X116440752Y-62990905D01*
X116282839Y-63026655D01*
X116138484Y-63099839D01*
X116027307Y-63199060D01*
X115992077Y-63251483D01*
X115943317Y-63309128D01*
X115859032Y-63379609D01*
X115774007Y-63437175D01*
X115671415Y-63504764D01*
X115583356Y-63571939D01*
X115537033Y-63615538D01*
X115500946Y-63659986D01*
X113555996Y-63659986D01*
X113552019Y-63635974D01*
X113516384Y-63443863D01*
X113479512Y-63264349D01*
X113443708Y-63108346D01*
X113411277Y-62986768D01*
X113384523Y-62910530D01*
X113373437Y-62892244D01*
X113343456Y-62901425D01*
X113292691Y-62958531D01*
X113226470Y-63054464D01*
X113150120Y-63180126D01*
X113068969Y-63326420D01*
X112988344Y-63484248D01*
X112913572Y-63644512D01*
X112863988Y-63762221D01*
X112795372Y-63957584D01*
X112755886Y-64134765D01*
X112740049Y-64285969D01*
X112723984Y-64538851D01*
X111938820Y-64538851D01*
X111869753Y-64514265D01*
X111302031Y-64281793D01*
X110789524Y-64025335D01*
X110328341Y-63741876D01*
X109914593Y-63428404D01*
X109544388Y-63081904D01*
X109213838Y-62699365D01*
X108919050Y-62277771D01*
X108861317Y-62183981D01*
X108804988Y-62084576D01*
X108764850Y-62002563D01*
X108749901Y-61956694D01*
X109125926Y-61956694D01*
X109132239Y-62040582D01*
X109156793Y-62117046D01*
X109208008Y-62205702D01*
X109271100Y-62294874D01*
X109401062Y-62457565D01*
X109566257Y-62643642D01*
X109752195Y-62838263D01*
X109944388Y-63026588D01*
X110128349Y-63193774D01*
X110237307Y-63284607D01*
X110342418Y-63366074D01*
X110428323Y-63428584D01*
X110484140Y-63464457D01*
X110499479Y-63469615D01*
X110500676Y-63435471D01*
X110495819Y-63361932D01*
X110599753Y-63361932D01*
X110603072Y-63468325D01*
X110618136Y-63533310D01*
X110652598Y-63578063D01*
X110687797Y-63605459D01*
X110758473Y-63652427D01*
X110853805Y-63711473D01*
X110959943Y-63774593D01*
X111063039Y-63833781D01*
X111149243Y-63881033D01*
X111204707Y-63908344D01*
X111217638Y-63911703D01*
X111216234Y-63879609D01*
X111207452Y-63795259D01*
X111207289Y-63793875D01*
X111305157Y-63793875D01*
X111310740Y-63872335D01*
X111323160Y-63924713D01*
X111348215Y-63965760D01*
X111397378Y-64004833D01*
X111482120Y-64051291D01*
X111598994Y-64107484D01*
X111737174Y-64171757D01*
X111828498Y-64211610D01*
X111882487Y-64230090D01*
X111908666Y-64230247D01*
X111916558Y-64215127D01*
X111916790Y-64209205D01*
X111914523Y-64186507D01*
X112026052Y-64186507D01*
X112056166Y-64263466D01*
X112125633Y-64321971D01*
X112241401Y-64375847D01*
X112294571Y-64396327D01*
X112432760Y-64446865D01*
X112522930Y-64474515D01*
X112575202Y-64479912D01*
X112599695Y-64463692D01*
X112606528Y-64426489D01*
X112606666Y-64415920D01*
X112600819Y-64292824D01*
X112584757Y-64141097D01*
X112560703Y-63972004D01*
X112530877Y-63796811D01*
X112497501Y-63626782D01*
X112462797Y-63473183D01*
X112428986Y-63347279D01*
X112398288Y-63260336D01*
X112372926Y-63223617D01*
X112371481Y-63223232D01*
X112339273Y-63246837D01*
X112293169Y-63317313D01*
X112238898Y-63421964D01*
X112182192Y-63548093D01*
X112128781Y-63683006D01*
X112084396Y-63814007D01*
X112056087Y-63921936D01*
X112028342Y-64077272D01*
X112026052Y-64186507D01*
X111914523Y-64186507D01*
X111912870Y-64169964D01*
X111902060Y-64079955D01*
X111885781Y-63950570D01*
X111865457Y-63793205D01*
X111853173Y-63699637D01*
X111816998Y-63445698D01*
X111780315Y-63225549D01*
X111744475Y-63045691D01*
X111710830Y-62912626D01*
X111680733Y-62832857D01*
X111669668Y-62817002D01*
X111644195Y-62829482D01*
X111600931Y-62887045D01*
X111546925Y-62977184D01*
X111489221Y-63087394D01*
X111434865Y-63205168D01*
X111396686Y-63301526D01*
X111347810Y-63468620D01*
X111316132Y-63640497D01*
X111305157Y-63793875D01*
X111207289Y-63793875D01*
X111192459Y-63668532D01*
X111172421Y-63509304D01*
X111149081Y-63331730D01*
X111120970Y-63133519D01*
X111091056Y-62942391D01*
X111061821Y-62772891D01*
X111035749Y-62639569D01*
X111018974Y-62569229D01*
X110988866Y-62467655D01*
X110967222Y-62417758D01*
X110947247Y-62410384D01*
X110922143Y-62436378D01*
X110921234Y-62437587D01*
X110824313Y-62594523D01*
X110736182Y-62787683D01*
X110664367Y-62995429D01*
X110616393Y-63196122D01*
X110599753Y-63361932D01*
X110495819Y-63361932D01*
X110495064Y-63350501D01*
X110483624Y-63226106D01*
X110467337Y-63073691D01*
X110459736Y-63007869D01*
X110423710Y-62727129D01*
X110387082Y-62488869D01*
X110350721Y-62297154D01*
X110315495Y-62156049D01*
X110282274Y-62069617D01*
X110253313Y-62041852D01*
X110225575Y-62067964D01*
X110180791Y-62136796D01*
X110128125Y-62234086D01*
X110122359Y-62245679D01*
X110070896Y-62344986D01*
X110028553Y-62417525D01*
X110003672Y-62449135D01*
X110002308Y-62449506D01*
X109991562Y-62420319D01*
X109976780Y-62340866D01*
X109959918Y-62223311D01*
X109943064Y-62081049D01*
X109905122Y-61767021D01*
X109898584Y-61722589D01*
X110505679Y-61722589D01*
X110515699Y-61863198D01*
X110541121Y-62012447D01*
X110557397Y-62075358D01*
X110609116Y-62245679D01*
X110669860Y-62112688D01*
X111242541Y-62112688D01*
X111247772Y-62212445D01*
X111262343Y-62326026D01*
X111283459Y-62439335D01*
X111308324Y-62538273D01*
X111334142Y-62608742D01*
X111358117Y-62636643D01*
X111366770Y-62632500D01*
X111382368Y-62600634D01*
X111415525Y-62525309D01*
X111431091Y-62488724D01*
X111949998Y-62488724D01*
X111955914Y-62591619D01*
X111967634Y-62707332D01*
X111983665Y-62819517D01*
X112002511Y-62911822D01*
X112012651Y-62945771D01*
X112037659Y-63003922D01*
X112061667Y-63022400D01*
X112090212Y-62996296D01*
X112128834Y-62920700D01*
X112130028Y-62917841D01*
X112648030Y-62917841D01*
X112653488Y-63013443D01*
X112668580Y-63125266D01*
X112690376Y-63239112D01*
X112715950Y-63340786D01*
X112742371Y-63416089D01*
X112766714Y-63450824D01*
X112777881Y-63447809D01*
X112793476Y-63415945D01*
X112826638Y-63340609D01*
X112871020Y-63236305D01*
X112884674Y-63203690D01*
X112933435Y-63085169D01*
X112955611Y-63009015D01*
X112946703Y-62958894D01*
X112902211Y-62918476D01*
X112817635Y-62871427D01*
X112788968Y-62856327D01*
X112715462Y-62819611D01*
X112678846Y-62812722D01*
X112661107Y-62835166D01*
X112655132Y-62852658D01*
X112648030Y-62917841D01*
X112130028Y-62917841D01*
X112180583Y-62796877D01*
X112221170Y-62693043D01*
X112250271Y-62612680D01*
X112261114Y-62574938D01*
X117503793Y-62574938D01*
X117509104Y-62594762D01*
X117551899Y-62566310D01*
X117564772Y-62555067D01*
X117617759Y-62522862D01*
X117718844Y-62474583D01*
X117856975Y-62415017D01*
X118021105Y-62348949D01*
X118180184Y-62288524D01*
X118381676Y-62212731D01*
X118529908Y-62153420D01*
X118631236Y-62107600D01*
X118692017Y-62072281D01*
X118718606Y-62044473D01*
X118721110Y-62034012D01*
X118739847Y-61987589D01*
X118760679Y-61979253D01*
X118836780Y-62002338D01*
X118922387Y-62058497D01*
X118992911Y-62128648D01*
X119021940Y-62181990D01*
X119048458Y-62247617D01*
X119080187Y-62251216D01*
X119118129Y-62192677D01*
X119127852Y-62170381D01*
X119209128Y-62039366D01*
X119320314Y-61958704D01*
X119443576Y-61933524D01*
X119520541Y-61930901D01*
X119546540Y-61917268D01*
X119533278Y-61883980D01*
X119525941Y-61872690D01*
X119449125Y-61798682D01*
X119337433Y-61736811D01*
X119218683Y-61700916D01*
X119172612Y-61696913D01*
X119090428Y-61710058D01*
X118980401Y-61744034D01*
X118895519Y-61778624D01*
X118758189Y-61829692D01*
X118603201Y-61870479D01*
X118521118Y-61884632D01*
X118339210Y-61919596D01*
X118199882Y-61978672D01*
X118084809Y-62071009D01*
X118034762Y-62127432D01*
X117959975Y-62203889D01*
X117853562Y-62294376D01*
X117737481Y-62380331D01*
X117727936Y-62386790D01*
X117627594Y-62458575D01*
X117549408Y-62522836D01*
X117507124Y-62568034D01*
X117503793Y-62574938D01*
X112261114Y-62574938D01*
X112261721Y-62572828D01*
X112261728Y-62572511D01*
X112237203Y-62546307D01*
X112176512Y-62502839D01*
X112098983Y-62454065D01*
X112023941Y-62411943D01*
X111970715Y-62388431D01*
X111961556Y-62386790D01*
X111951380Y-62414998D01*
X111949998Y-62488724D01*
X111431091Y-62488724D01*
X111459887Y-62421047D01*
X111473385Y-62388806D01*
X111517625Y-62280166D01*
X111549404Y-62197098D01*
X111563437Y-62153599D01*
X111563415Y-62150370D01*
X111534559Y-62133117D01*
X111468155Y-62094414D01*
X111411069Y-62061394D01*
X111326938Y-62014384D01*
X111281758Y-61997397D01*
X111260502Y-62008525D01*
X111249446Y-62040856D01*
X111242541Y-62112688D01*
X110669860Y-62112688D01*
X110697027Y-62053212D01*
X110745294Y-61942409D01*
X110783883Y-61844549D01*
X110802767Y-61786669D01*
X110805352Y-61739744D01*
X110779040Y-61699948D01*
X110712356Y-61654110D01*
X110663137Y-61626367D01*
X110505679Y-61540142D01*
X110505679Y-61722589D01*
X109898584Y-61722589D01*
X109861187Y-61468473D01*
X109813380Y-61197568D01*
X109791689Y-61096410D01*
X112293673Y-61096410D01*
X112321664Y-61133357D01*
X112403627Y-61196630D01*
X112537342Y-61284705D01*
X112720587Y-61396058D01*
X112787562Y-61435333D01*
X112946182Y-61527109D01*
X113086237Y-61607067D01*
X113198703Y-61670143D01*
X113274556Y-61711273D01*
X113304382Y-61725395D01*
X113324058Y-61701998D01*
X113327901Y-61671417D01*
X113334165Y-61651532D01*
X113357934Y-61633624D01*
X113406674Y-61615911D01*
X113487853Y-61596612D01*
X113608937Y-61573942D01*
X113777391Y-61546121D01*
X113889919Y-61528599D01*
X119479781Y-61528599D01*
X119490038Y-61530315D01*
X119539342Y-61493331D01*
X119547480Y-61486934D01*
X119602765Y-61455382D01*
X119705801Y-61407451D01*
X119845315Y-61347968D01*
X120010037Y-61281763D01*
X120162970Y-61223243D01*
X120371261Y-61143536D01*
X120524252Y-61080531D01*
X120626470Y-61032110D01*
X120682440Y-60996157D01*
X120697037Y-60973508D01*
X120706242Y-60920463D01*
X120740782Y-60907054D01*
X120811039Y-60932125D01*
X120857150Y-60955693D01*
X120956750Y-61027608D01*
X121000487Y-61108950D01*
X121023554Y-61176744D01*
X121054857Y-61186834D01*
X121097767Y-61138260D01*
X121135719Y-61070399D01*
X121215266Y-60961621D01*
X121318011Y-60886443D01*
X121426733Y-60855793D01*
X121469333Y-60858691D01*
X121529849Y-60861566D01*
X121536195Y-60835742D01*
X121488428Y-60779794D01*
X121473148Y-60765557D01*
X121351683Y-60676999D01*
X121226503Y-60635894D01*
X121085756Y-60641475D01*
X120917588Y-60692976D01*
X120843174Y-60724815D01*
X120694044Y-60781942D01*
X120559076Y-60814568D01*
X120501738Y-60819577D01*
X120329170Y-60847028D01*
X120165872Y-60920374D01*
X120035838Y-61028717D01*
X120032381Y-61032774D01*
X119977827Y-61100748D01*
X119943431Y-61149440D01*
X119939604Y-61156728D01*
X119909272Y-61185004D01*
X119839281Y-61235001D01*
X119743977Y-61296554D01*
X119730863Y-61304637D01*
X119628752Y-61372753D01*
X119546480Y-61437699D01*
X119500863Y-61486108D01*
X119499508Y-61488476D01*
X119479781Y-61528599D01*
X113889919Y-61528599D01*
X113994259Y-61512352D01*
X114192042Y-61481061D01*
X114368922Y-61451263D01*
X114515463Y-61424697D01*
X114622228Y-61403101D01*
X114679781Y-61388213D01*
X114686643Y-61384821D01*
X114710958Y-61346244D01*
X114752429Y-61265894D01*
X114805259Y-61156563D01*
X114863650Y-61031041D01*
X114921804Y-60902119D01*
X114973923Y-60782586D01*
X115014210Y-60685235D01*
X115036865Y-60622854D01*
X115039252Y-60606948D01*
X115007429Y-60585634D01*
X114935885Y-60541831D01*
X114839196Y-60484440D01*
X114824604Y-60475898D01*
X114623470Y-60358362D01*
X114509079Y-60423996D01*
X114441180Y-60467702D01*
X114407309Y-60512385D01*
X114395647Y-60581331D01*
X114394381Y-60650030D01*
X114370138Y-60808280D01*
X114297103Y-60932633D01*
X114173810Y-61024033D01*
X113998791Y-61083423D01*
X113770581Y-61111749D01*
X113672839Y-61114542D01*
X113524389Y-61113563D01*
X113417804Y-61105498D01*
X113332327Y-61086643D01*
X113247197Y-61053298D01*
X113197857Y-61029828D01*
X113053613Y-60937631D01*
X112964640Y-60825267D01*
X112924301Y-60682598D01*
X112920247Y-60605771D01*
X112920247Y-60480527D01*
X113116234Y-60541703D01*
X113315006Y-60593459D01*
X113495944Y-60620971D01*
X113647323Y-60623434D01*
X113757416Y-60600042D01*
X113781352Y-60587399D01*
X113842307Y-60513934D01*
X113862906Y-60415152D01*
X113841557Y-60315040D01*
X113803137Y-60259310D01*
X113776916Y-60229551D01*
X113777452Y-60209546D01*
X113814444Y-60194108D01*
X113897593Y-60178047D01*
X113979289Y-60165080D01*
X114234570Y-60106431D01*
X114446522Y-60020113D01*
X114613563Y-59911650D01*
X114734109Y-59786566D01*
X114806580Y-59650384D01*
X114829392Y-59508628D01*
X114800965Y-59366821D01*
X114719714Y-59230486D01*
X114584060Y-59105147D01*
X114392418Y-58996328D01*
X114322405Y-58967202D01*
X114072921Y-58893222D01*
X113811215Y-58855202D01*
X113547665Y-58851459D01*
X113292650Y-58880312D01*
X113056548Y-58940076D01*
X112849736Y-59029070D01*
X112682593Y-59145610D01*
X112591034Y-59247904D01*
X112550199Y-59308891D01*
X112523291Y-59363132D01*
X112507409Y-59425698D01*
X112499654Y-59511660D01*
X112497127Y-59636088D01*
X112496913Y-59737111D01*
X112498014Y-59894595D01*
X112502853Y-60003573D01*
X112513736Y-60078239D01*
X112532967Y-60132787D01*
X112562851Y-60181410D01*
X112570849Y-60192403D01*
X112644785Y-60292407D01*
X112468935Y-60668540D01*
X112403353Y-60812667D01*
X112348972Y-60939514D01*
X112310850Y-61036733D01*
X112294046Y-61091978D01*
X112293673Y-61096410D01*
X109791689Y-61096410D01*
X109763825Y-60966469D01*
X109720440Y-60805635D01*
X109653148Y-60588555D01*
X109555999Y-60742919D01*
X109445370Y-60939208D01*
X109343131Y-61158743D01*
X109254677Y-61386295D01*
X109185404Y-61606636D01*
X109140709Y-61804537D01*
X109125926Y-61956694D01*
X108749901Y-61956694D01*
X108749629Y-61955862D01*
X108775901Y-61916899D01*
X108840643Y-61875636D01*
X108855966Y-61868789D01*
X108962303Y-61824359D01*
X108973621Y-61467810D01*
X108979678Y-61310036D01*
X108988937Y-61195769D01*
X109005736Y-61105807D01*
X109034414Y-61020952D01*
X109079310Y-60922003D01*
X109111927Y-60855745D01*
X109238914Y-60600229D01*
X109101644Y-60466534D01*
X108865321Y-60219698D01*
X108645714Y-59957999D01*
X108448138Y-59689902D01*
X108277906Y-59423867D01*
X108140333Y-59168360D01*
X108040732Y-58931841D01*
X107984418Y-58722775D01*
X107982361Y-58708389D01*
X108650310Y-58708389D01*
X108670242Y-58860693D01*
X108720330Y-59025474D01*
X108797674Y-59190481D01*
X108899374Y-59343463D01*
X108920702Y-59369557D01*
X109008547Y-59457860D01*
X109117434Y-59545986D01*
X109227327Y-59619375D01*
X109318187Y-59663468D01*
X109329911Y-59666905D01*
X109383172Y-59681283D01*
X109398267Y-59686362D01*
X109428109Y-59679321D01*
X109482595Y-59660143D01*
X109555726Y-59613877D01*
X109594855Y-59567260D01*
X109614118Y-59526932D01*
X109602267Y-59521701D01*
X109548653Y-59549917D01*
X109534623Y-59557919D01*
X109475848Y-59587769D01*
X109428301Y-59593199D01*
X109368111Y-59572034D01*
X109298419Y-59536398D01*
X109135502Y-59422686D01*
X108992349Y-59270866D01*
X108878957Y-59096108D01*
X108805325Y-58913584D01*
X108781294Y-58751728D01*
X108787902Y-58706142D01*
X108985942Y-58706142D01*
X109017246Y-58875070D01*
X109105325Y-59025218D01*
X109245123Y-59148306D01*
X109262829Y-59159466D01*
X109335067Y-59202217D01*
X109376488Y-59214732D01*
X109410620Y-59198078D01*
X109444876Y-59167732D01*
X109489903Y-59101220D01*
X109501533Y-59050140D01*
X109478584Y-58937177D01*
X109419639Y-58817199D01*
X109336249Y-58703739D01*
X109239965Y-58610333D01*
X109142340Y-58550516D01*
X109063209Y-58536549D01*
X109017014Y-58547257D01*
X108993920Y-58576901D01*
X108986282Y-58642261D01*
X108985942Y-58706142D01*
X108787902Y-58706142D01*
X108800602Y-58618544D01*
X108859236Y-58534206D01*
X108957214Y-58498691D01*
X108981835Y-58497441D01*
X109043111Y-58493844D01*
X109048588Y-58481151D01*
X109022997Y-58463957D01*
X108917012Y-58431064D01*
X108804991Y-58439842D01*
X108714848Y-58487931D01*
X108712517Y-58490212D01*
X108663435Y-58580812D01*
X108650310Y-58708389D01*
X107982361Y-58708389D01*
X107977829Y-58676708D01*
X107961107Y-58568757D01*
X107943716Y-58518440D01*
X107927650Y-58520731D01*
X107914905Y-58570605D01*
X107907477Y-58663037D01*
X107907359Y-58793000D01*
X107909527Y-58848748D01*
X107918934Y-58991852D01*
X107934890Y-59103752D01*
X107963334Y-59207661D01*
X108010206Y-59326796D01*
X108060582Y-59439136D01*
X108122482Y-59581932D01*
X108167129Y-59709869D01*
X108195501Y-59835136D01*
X108208576Y-59969922D01*
X108207329Y-60126418D01*
X108192739Y-60316813D01*
X108165782Y-60553297D01*
X108156057Y-60630164D01*
X108077801Y-61163384D01*
X107986202Y-61649321D01*
X107882030Y-62085222D01*
X107766059Y-62468336D01*
X107639060Y-62795912D01*
X107501805Y-63065198D01*
X107449768Y-63147735D01*
X107310289Y-63355707D01*
X107416253Y-63421196D01*
X107500936Y-63497701D01*
X107578100Y-63607489D01*
X107633252Y-63726002D01*
X107652098Y-63820916D01*
X107643615Y-63898164D01*
X107610930Y-63960278D01*
X107543188Y-64019948D01*
X107429538Y-64089864D01*
X107415151Y-64097952D01*
X107311134Y-64154644D01*
X107243874Y-64183710D01*
X107195778Y-64188819D01*
X107149251Y-64173639D01*
X107120637Y-64159359D01*
X107022869Y-64082120D01*
X106933771Y-63965943D01*
X106869599Y-63834147D01*
X106853115Y-63775616D01*
X106848934Y-63710948D01*
X106864411Y-63631072D01*
X106903383Y-63521999D01*
X106956300Y-63399320D01*
X107102572Y-63034368D01*
X107231130Y-62628186D01*
X107342483Y-62177819D01*
X107437140Y-61680315D01*
X107515611Y-61132720D01*
X107578405Y-60532078D01*
X107626031Y-59875437D01*
X107651062Y-59370098D01*
X107663204Y-59100865D01*
X107676567Y-58884843D01*
X107693329Y-58712537D01*
X107715669Y-58574448D01*
X107745764Y-58461080D01*
X107785792Y-58362937D01*
X107837931Y-58270521D01*
X107904359Y-58174335D01*
X107934594Y-58133771D01*
X108061072Y-57987067D01*
X108182190Y-57894104D01*
X108308792Y-57848035D01*
X108399952Y-57839994D01*
X108534701Y-57856682D01*
X108661681Y-57901006D01*
X108759211Y-57964016D01*
X108791324Y-58001565D01*
X108849826Y-58048429D01*
X108897696Y-58059383D01*
X108956160Y-58082077D01*
X109044709Y-58144112D01*
X109153558Y-58236418D01*
X109272925Y-58349922D01*
X109393024Y-58475554D01*
X109504071Y-58604242D01*
X109553568Y-58667463D01*
X109647019Y-58800779D01*
X109744250Y-58953607D01*
X109811593Y-59070147D01*
X109868085Y-59170636D01*
X109914362Y-59245330D01*
X109941912Y-59280663D01*
X109944426Y-59281813D01*
X109955395Y-59259180D01*
X109966758Y-59188992D01*
X109978699Y-59068735D01*
X109991402Y-58895896D01*
X110005052Y-58667959D01*
X110019833Y-58382411D01*
X110035929Y-58036737D01*
X110036317Y-58028025D01*
X110049607Y-57754487D01*
X110063840Y-57534299D01*
X110081122Y-57358107D01*
X110090945Y-57296130D01*
X110290005Y-57296130D01*
X110290821Y-57423875D01*
X110292116Y-57453416D01*
X110302005Y-57591208D01*
X110319729Y-57704587D01*
X110350992Y-57815955D01*
X110401503Y-57947714D01*
X110442475Y-58043704D01*
X110524866Y-58251009D01*
X110573997Y-58420747D01*
X110592588Y-58546377D01*
X110593145Y-58639788D01*
X110586474Y-58779469D01*
X110574084Y-58949583D01*
X110557479Y-59134297D01*
X110538168Y-59317773D01*
X110517658Y-59484178D01*
X110497453Y-59617675D01*
X110484518Y-59682160D01*
X110479493Y-59736428D01*
X110489708Y-59752716D01*
X110524364Y-59737795D01*
X110600698Y-59697454D01*
X110706481Y-59638327D01*
X110798849Y-59585024D01*
X110951146Y-59496157D01*
X111114379Y-59401124D01*
X111261810Y-59315485D01*
X111314021Y-59285229D01*
X111542240Y-59153127D01*
X111319341Y-58911995D01*
X111040201Y-58589653D01*
X110804643Y-58274824D01*
X110615322Y-57972050D01*
X110474896Y-57685874D01*
X110386022Y-57420838D01*
X110380040Y-57388436D01*
X111039165Y-57388436D01*
X111074903Y-57552037D01*
X111143530Y-57722761D01*
X111239741Y-57889853D01*
X111358230Y-58042560D01*
X111493690Y-58170126D01*
X111640817Y-58261799D01*
X111650247Y-58266076D01*
X111756390Y-58302596D01*
X111837877Y-58298554D01*
X111919391Y-58252104D01*
X111928240Y-58245255D01*
X111984809Y-58191498D01*
X112010695Y-58148629D01*
X112010864Y-58146321D01*
X111991906Y-58139017D01*
X111949402Y-58168001D01*
X111863862Y-58207490D01*
X111760017Y-58197249D01*
X111645602Y-58144603D01*
X111528357Y-58056876D01*
X111416018Y-57941391D01*
X111316322Y-57805471D01*
X111237008Y-57656441D01*
X111185814Y-57501624D01*
X111174281Y-57434333D01*
X111174467Y-57286376D01*
X111214278Y-57183482D01*
X111292300Y-57128080D01*
X111357928Y-57118642D01*
X111423461Y-57121239D01*
X111434859Y-57137451D01*
X111400694Y-57179908D01*
X111400019Y-57180654D01*
X111358262Y-57270387D01*
X111362605Y-57384925D01*
X111408314Y-57512342D01*
X111490653Y-57640712D01*
X111604890Y-57758111D01*
X111640454Y-57786280D01*
X111732017Y-57830447D01*
X111805525Y-57821357D01*
X111854817Y-57767330D01*
X111873736Y-57676687D01*
X111856120Y-57557748D01*
X111841579Y-57514591D01*
X111771643Y-57384292D01*
X111672578Y-57268493D01*
X111554995Y-57172668D01*
X111429505Y-57102292D01*
X111306720Y-57062839D01*
X111197252Y-57059783D01*
X111111712Y-57098599D01*
X111087580Y-57125619D01*
X111041622Y-57242712D01*
X111039165Y-57388436D01*
X110380040Y-57388436D01*
X110357910Y-57268571D01*
X110341818Y-57172685D01*
X110324855Y-57133471D01*
X110309149Y-57144955D01*
X110296823Y-57201166D01*
X110290005Y-57296130D01*
X110090945Y-57296130D01*
X110103559Y-57216554D01*
X110133257Y-57100287D01*
X110172322Y-56999950D01*
X110222860Y-56906187D01*
X110286977Y-56809645D01*
X110321290Y-56762163D01*
X110441638Y-56616844D01*
X110555836Y-56523369D01*
X110676675Y-56473794D01*
X110807657Y-56460123D01*
X110889599Y-56473398D01*
X110987530Y-56507271D01*
X111083180Y-56552819D01*
X111158280Y-56601118D01*
X111194558Y-56643243D01*
X111195555Y-56649593D01*
X111222572Y-56671563D01*
X111280019Y-56679630D01*
X111345058Y-56703704D01*
X111438331Y-56770169D01*
X111551610Y-56870387D01*
X111676667Y-56995721D01*
X111805275Y-57137532D01*
X111929205Y-57287184D01*
X112040231Y-57436038D01*
X112124984Y-57566682D01*
X112197852Y-57689201D01*
X112245368Y-57763768D01*
X112273942Y-57796507D01*
X112289985Y-57793543D01*
X112299909Y-57761002D01*
X112304169Y-57737869D01*
X112310503Y-57678852D01*
X112318728Y-57567069D01*
X112328262Y-57412422D01*
X112338523Y-57224812D01*
X112348929Y-57014140D01*
X112356254Y-56852099D01*
X112369357Y-56572195D01*
X112383049Y-56346040D01*
X112399277Y-56164682D01*
X112410890Y-56083090D01*
X112608990Y-56083090D01*
X112612610Y-56230453D01*
X112622525Y-56368411D01*
X112640309Y-56482014D01*
X112671670Y-56593703D01*
X112722315Y-56725918D01*
X112762726Y-56820741D01*
X112822812Y-56967727D01*
X112867404Y-57102643D01*
X112897044Y-57235932D01*
X112912275Y-57378040D01*
X112913639Y-57539412D01*
X112901681Y-57730492D01*
X112876941Y-57961725D01*
X112839964Y-58243557D01*
X112837569Y-58260853D01*
X112816145Y-58415287D01*
X112967235Y-58330841D01*
X113055776Y-58280780D01*
X113180971Y-58209248D01*
X113325262Y-58126306D01*
X113453160Y-58052408D01*
X113787994Y-57858421D01*
X113527841Y-57562573D01*
X113260742Y-57237556D01*
X113041412Y-56925188D01*
X112872057Y-56629277D01*
X112754880Y-56353628D01*
X112706093Y-56165473D01*
X113359659Y-56165473D01*
X113395397Y-56329074D01*
X113464024Y-56499798D01*
X113560235Y-56666890D01*
X113678724Y-56819597D01*
X113814184Y-56947163D01*
X113961311Y-57038836D01*
X113970740Y-57043114D01*
X114076884Y-57079633D01*
X114158370Y-57075591D01*
X114239884Y-57029141D01*
X114248734Y-57022292D01*
X114305303Y-56968535D01*
X114331189Y-56925666D01*
X114331358Y-56923358D01*
X114312400Y-56916054D01*
X114269896Y-56945038D01*
X114184356Y-56984527D01*
X114080510Y-56974286D01*
X113966096Y-56921641D01*
X113848851Y-56833913D01*
X113736511Y-56718428D01*
X113636816Y-56582508D01*
X113557502Y-56433478D01*
X113506307Y-56278661D01*
X113494775Y-56211370D01*
X113494961Y-56063413D01*
X113534772Y-55960519D01*
X113612794Y-55905117D01*
X113678422Y-55895679D01*
X113743421Y-55898591D01*
X113754912Y-55914900D01*
X113724736Y-55953025D01*
X113678310Y-56048032D01*
X113681008Y-56166371D01*
X113729443Y-56297079D01*
X113820229Y-56429194D01*
X113895659Y-56506424D01*
X114005058Y-56588173D01*
X114090430Y-56613038D01*
X114153689Y-56581234D01*
X114180231Y-56538611D01*
X114199911Y-56459461D01*
X114186132Y-56362369D01*
X114178723Y-56336197D01*
X114118787Y-56203731D01*
X114027529Y-56083002D01*
X113915159Y-55979754D01*
X113791886Y-55899730D01*
X113667920Y-55848674D01*
X113553469Y-55832328D01*
X113458744Y-55856437D01*
X113408074Y-55902656D01*
X113362116Y-56019749D01*
X113359659Y-56165473D01*
X112706093Y-56165473D01*
X112695846Y-56125957D01*
X112670209Y-56000967D01*
X112646911Y-55936439D01*
X112627745Y-55930118D01*
X112614507Y-55979753D01*
X112608990Y-56083090D01*
X112410890Y-56083090D01*
X112419988Y-56019170D01*
X112447129Y-55900552D01*
X112482647Y-55799874D01*
X112528488Y-55708187D01*
X112586600Y-55616536D01*
X112641783Y-55539200D01*
X112762132Y-55393881D01*
X112876330Y-55300406D01*
X112997169Y-55250831D01*
X113128151Y-55237160D01*
X113210092Y-55250435D01*
G37*
X113210092Y-55250435D02*
X113308024Y-55284308D01*
X113403674Y-55329856D01*
X113478773Y-55378155D01*
X113515051Y-55420280D01*
X113516049Y-55426630D01*
X113542857Y-55449333D01*
X113593297Y-55456667D01*
X113660130Y-55480361D01*
X113755700Y-55545927D01*
X113871081Y-55645086D01*
X113997346Y-55769563D01*
X114125571Y-55911079D01*
X114246828Y-56061358D01*
X114250158Y-56065774D01*
X114497764Y-56438430D01*
X114684775Y-56818581D01*
X114741108Y-56967904D01*
X114782283Y-57083690D01*
X114816733Y-57174852D01*
X114838777Y-57226560D01*
X114842484Y-57232567D01*
X114880633Y-57230679D01*
X114946365Y-57193325D01*
X115025146Y-57131510D01*
X115102440Y-57056236D01*
X115147979Y-57001291D01*
X115253818Y-56886810D01*
X115397938Y-56770052D01*
X115558601Y-56666933D01*
X115695432Y-56600494D01*
X115820864Y-56550686D01*
X115711111Y-56637638D01*
X115509968Y-56822150D01*
X115364357Y-57014897D01*
X115311306Y-57114509D01*
X115264567Y-57229609D01*
X115244998Y-57330899D01*
X115246535Y-57453164D01*
X115248257Y-57476049D01*
X115277526Y-57653483D01*
X115339867Y-57808173D01*
X115443817Y-57955949D01*
X115585338Y-58101072D01*
X115831045Y-58288610D01*
X116121078Y-58442294D01*
X116446445Y-58561296D01*
X116798153Y-58644787D01*
X117167212Y-58691938D01*
X117544630Y-58701919D01*
X117921415Y-58673901D01*
X118288576Y-58607056D01*
X118637120Y-58500554D01*
X118862592Y-58403251D01*
X119121612Y-58254626D01*
X119324525Y-58089412D01*
X119476855Y-57902617D01*
X119539736Y-57791607D01*
X119593188Y-57675754D01*
X119621024Y-57586689D01*
X119628922Y-57496852D01*
X119623191Y-57386453D01*
X119591797Y-57206271D01*
X119523672Y-57045489D01*
X119411052Y-56890083D01*
X119268844Y-56746520D01*
X119188322Y-56670570D01*
X119133180Y-56613926D01*
X119113055Y-56586627D01*
X119114379Y-56585555D01*
X119175510Y-56604131D01*
X119269227Y-56653170D01*
X119380231Y-56722640D01*
X119493220Y-56802508D01*
X119592891Y-56882740D01*
X119648328Y-56935647D01*
X119809735Y-57145158D01*
X119910889Y-57360557D01*
X119953545Y-57578308D01*
X119939453Y-57794874D01*
X119870366Y-58006718D01*
X119748036Y-58210304D01*
X119574216Y-58402095D01*
X119350657Y-58578554D01*
X119079112Y-58736145D01*
X118761333Y-58871330D01*
X118674444Y-58901353D01*
X118275822Y-59006648D01*
X117859565Y-59067665D01*
X117435192Y-59085536D01*
X117012225Y-59061393D01*
X116600184Y-58996369D01*
X116208590Y-58891595D01*
X115846964Y-58748205D01*
X115524825Y-58567331D01*
X115454283Y-58518351D01*
X115274338Y-58372348D01*
X115139107Y-58221686D01*
X115032524Y-58046244D01*
X114974129Y-57917047D01*
X114897291Y-57730123D01*
X114896546Y-58202642D01*
X114901408Y-58472592D01*
X114919466Y-58691837D01*
X114954516Y-58871682D01*
X115010356Y-59023429D01*
X115090781Y-59158382D01*
X115199588Y-59287844D01*
X115291362Y-59378171D01*
X115543957Y-59574950D01*
X115850905Y-59745940D01*
X116208632Y-59889383D01*
X116516066Y-59979864D01*
X116616594Y-60003829D01*
X116711051Y-60021661D01*
X116811162Y-60034207D01*
X116928650Y-60042313D01*
X117075236Y-60046827D01*
X117262644Y-60048593D01*
X117467160Y-60048557D01*
X117695083Y-60047505D01*
X117872286Y-60044942D01*
X118010760Y-60039831D01*
X118122501Y-60031136D01*
X118219499Y-60017821D01*
X118313750Y-59998850D01*
X118417247Y-59973187D01*
X118454938Y-59963216D01*
X118733812Y-59874546D01*
X119004690Y-59761797D01*
X119253153Y-59632310D01*
X119464784Y-59493426D01*
X119596128Y-59382206D01*
X119755797Y-59206064D01*
X119865230Y-59032372D01*
X119933164Y-58842241D01*
X119968339Y-58616783D01*
X119971947Y-58569784D01*
X119991481Y-58278517D01*
X120650000Y-58655744D01*
X120889048Y-58794581D01*
X121078947Y-58909469D01*
X121226455Y-59004884D01*
X121338327Y-59085305D01*
X121421318Y-59155208D01*
X121456634Y-59190296D01*
X121521021Y-59261636D01*
X121572981Y-59329769D01*
X121613842Y-59402234D01*
X121644929Y-59486574D01*
X121667568Y-59590330D01*
X121683087Y-59721043D01*
X121692809Y-59886256D01*
X121698063Y-60093510D01*
X121700175Y-60350345D01*
X121700493Y-60577029D01*
X121700389Y-60839095D01*
X121699716Y-61045823D01*
X121697937Y-61204588D01*
X121694516Y-61322768D01*
X121688913Y-61407741D01*
X121680593Y-61466882D01*
X121669016Y-61507569D01*
X121653646Y-61537179D01*
X121633945Y-61563090D01*
X121628131Y-61570031D01*
X121601048Y-61610066D01*
X121576610Y-61666816D01*
X121552684Y-61749058D01*
X121527140Y-61865567D01*
X121497845Y-62025118D01*
X121462668Y-62236487D01*
X121455643Y-62280113D01*
X121407128Y-62586240D01*
X121368344Y-62842892D01*
X121338216Y-63062371D01*
X121315666Y-63256980D01*
X121299618Y-63439022D01*
X121288995Y-63620799D01*
X121282721Y-63814614D01*
X121279718Y-64032769D01*
X121278911Y-64287567D01*
X121278910Y-64299630D01*
X121281647Y-64649703D01*
X121290860Y-64951205D01*
X121307961Y-65218076D01*
X121334364Y-65464254D01*
X121371484Y-65703681D01*
X121420735Y-65950295D01*
X121466409Y-66148044D01*
X121505121Y-66296328D01*
X121539585Y-66396043D01*
X121575567Y-66460534D01*
X121618833Y-66503145D01*
X121620333Y-66504246D01*
X121714423Y-66603241D01*
X121784897Y-66734429D01*
X121819303Y-66871465D01*
X121819848Y-66926339D01*
X121808164Y-66993271D01*
X121777691Y-67044166D01*
X121714943Y-67095109D01*
X121637777Y-67143512D01*
X121536513Y-67198117D01*
X121447207Y-67235676D01*
X121397159Y-67247154D01*
X121306717Y-67219067D01*
X121216090Y-67145039D01*
X121135859Y-67040911D01*
X121076605Y-66922528D01*
X121048910Y-66805733D01*
X121053988Y-66733318D01*
X121092383Y-66662793D01*
X121160093Y-66594210D01*
X121168341Y-66588100D01*
X121263200Y-66520555D01*
X121199408Y-66417337D01*
X121127784Y-66282497D01*
X121049830Y-66103819D01*
X120972362Y-65898785D01*
X120902198Y-65684879D01*
X120869730Y-65571778D01*
X120758680Y-65055730D01*
X120693806Y-64499042D01*
X120675152Y-63903561D01*
X120702764Y-63271135D01*
X120776688Y-62603613D01*
X120794063Y-62485468D01*
X120816475Y-62331071D01*
X120833394Y-62200278D01*
X120843452Y-62104854D01*
X120845284Y-62056560D01*
X120844258Y-62053188D01*
X120814475Y-62064313D01*
X120738288Y-62102886D01*
X120623433Y-62164701D01*
X120477646Y-62245549D01*
X120308664Y-62341224D01*
X120201758Y-62402610D01*
X119572809Y-62765583D01*
X119541414Y-62913285D01*
X119513925Y-63056847D01*
X119481733Y-63247757D01*
X119446986Y-63471019D01*
X119411833Y-63711640D01*
X119378425Y-63954628D01*
X119348910Y-64184987D01*
X119325436Y-64387725D01*
X119314638Y-64495389D01*
X119301253Y-64696350D01*
X119293249Y-64937626D01*
X119290340Y-65206209D01*
X119292241Y-65489093D01*
X119298666Y-65773269D01*
X119309331Y-66045729D01*
X119323950Y-66293467D01*
X119342238Y-66503474D01*
X119361939Y-66651481D01*
X119409909Y-66917582D01*
X119454634Y-67129419D01*
X119498678Y-67295176D01*
X119544606Y-67423036D01*
X119594982Y-67521182D01*
X119652372Y-67597796D01*
X119661709Y-67607901D01*
X119766476Y-67743735D01*
X119829463Y-67880964D01*
X119844986Y-68005797D01*
X119839458Y-68039085D01*
X119799897Y-68099300D01*
X119719683Y-68168336D01*
X119617432Y-68234508D01*
X119511759Y-68286131D01*
X119421280Y-68311520D01*
X119403993Y-68312413D01*
X119309520Y-68282700D01*
X119216784Y-68206575D01*
X119137571Y-68099532D01*
X119083670Y-67977063D01*
X119066537Y-67868878D01*
X119078766Y-67778297D01*
X119126137Y-67709719D01*
X119165698Y-67675861D01*
X119264976Y-67598164D01*
X119151430Y-67367847D01*
X118981774Y-66960718D01*
X118850603Y-66507857D01*
X118758288Y-66013343D01*
X118705202Y-65481252D01*
X118691719Y-64915661D01*
X118718211Y-64320647D01*
X118785052Y-63700289D01*
X118803936Y-63569264D01*
X118823185Y-63430909D01*
X118836146Y-63316894D01*
X118841488Y-63240530D01*
X118839240Y-63215331D01*
X118808937Y-63225977D01*
X118732267Y-63264248D01*
X118616926Y-63325973D01*
X118470608Y-63406984D01*
X118301005Y-63503111D01*
X118185930Y-63569400D01*
X117548162Y-63939012D01*
X117506950Y-64142839D01*
X117463254Y-64382485D01*
X117419184Y-64666382D01*
X117377047Y-64976124D01*
X117339152Y-65293304D01*
X117307804Y-65599516D01*
X117285312Y-65876352D01*
X117280926Y-65945926D01*
X117267041Y-66625896D01*
X117304335Y-67293607D01*
X117391991Y-67938764D01*
X117469251Y-68314320D01*
X117505051Y-68453901D01*
X117540142Y-68550528D01*
X117583570Y-68623196D01*
X117644381Y-68690903D01*
X117652248Y-68698600D01*
X117744637Y-68812217D01*
X117806664Y-68936938D01*
X117832414Y-69056024D01*
X117815973Y-69152738D01*
X117814053Y-69156471D01*
X117763155Y-69212395D01*
X117674517Y-69278197D01*
X117569012Y-69341448D01*
X117467515Y-69389718D01*
X117390901Y-69410581D01*
X117387077Y-69410693D01*
X117326855Y-69389135D01*
X117252527Y-69334678D01*
X117226210Y-69309074D01*
X117131367Y-69195731D01*
X117079441Y-69093844D01*
X117060344Y-68981350D01*
X117059506Y-68944452D01*
X117067568Y-68855204D01*
X117101358Y-68799880D01*
X117153580Y-68763160D01*
X117216393Y-68721284D01*
X117247058Y-68691473D01*
X117247654Y-68689034D01*
X117234434Y-68654133D01*
X117199410Y-68578405D01*
X117149536Y-68476758D01*
X117137450Y-68452770D01*
X117017921Y-68180073D01*
X116909210Y-67859186D01*
X116815794Y-67504313D01*
X116770191Y-67287496D01*
X116748622Y-67169040D01*
X116731954Y-67059730D01*
X116719607Y-66949060D01*
X116711003Y-66826527D01*
X116705560Y-66681624D01*
X116702701Y-66503848D01*
X116701845Y-66282693D01*
X116702251Y-66055679D01*
X116703983Y-65772395D01*
X116707576Y-65540506D01*
X116713632Y-65348705D01*
X116722753Y-65185684D01*
X116735540Y-65040134D01*
X116752594Y-64900748D01*
X116769776Y-64785679D01*
X116793149Y-64633991D01*
X116811413Y-64506518D01*
X116822988Y-64415005D01*
X116826295Y-64371198D01*
X116825801Y-64369168D01*
X116797751Y-64382543D01*
X116720903Y-64424342D01*
X116600685Y-64491487D01*
X116442527Y-64580896D01*
X116251860Y-64689491D01*
X116034111Y-64814190D01*
X115794712Y-64951913D01*
X115582049Y-65074724D01*
X114347037Y-65789136D01*
X113970740Y-65786214D01*
X113588884Y-65762339D01*
X113173533Y-65699005D01*
X112736388Y-65600233D01*
X112289152Y-65470042D01*
X111843526Y-65312455D01*
X111411213Y-65131492D01*
X111003913Y-64931173D01*
X110633330Y-64715519D01*
X110408191Y-64562105D01*
X109995516Y-64223675D01*
X109617902Y-63840081D01*
X109285204Y-63421899D01*
X109132103Y-63192494D01*
X109055610Y-63067511D01*
X109007619Y-62978142D01*
X108982171Y-62907603D01*
X108973303Y-62839110D01*
X108975054Y-62755879D01*
X108975313Y-62751049D01*
X108984814Y-62575695D01*
X109170233Y-62827019D01*
X109328795Y-63022536D01*
X109525664Y-63235351D01*
X109745282Y-63450641D01*
X109972089Y-63653588D01*
X110190524Y-63829369D01*
X110318003Y-63920273D01*
X110633101Y-64114315D01*
X110994150Y-64307920D01*
X111384789Y-64493552D01*
X111788655Y-64663678D01*
X112189386Y-64810761D01*
X112395455Y-64876962D01*
X112598441Y-64934009D01*
X112825645Y-64990212D01*
X113062245Y-65042591D01*
X113293419Y-65088167D01*
X113504346Y-65123963D01*
X113680202Y-65147000D01*
X113773487Y-65153903D01*
X114002098Y-65161975D01*
X114012274Y-65036941D01*
X114026687Y-64946689D01*
X114049535Y-64880938D01*
X114055312Y-64872311D01*
X114076613Y-64836526D01*
X114060338Y-64832659D01*
X114019417Y-64855450D01*
X113966781Y-64899636D01*
X113952688Y-64914069D01*
X113905047Y-64959056D01*
X113856942Y-64980641D01*
X113787124Y-64983699D01*
X113688518Y-64974678D01*
X113406796Y-64933409D01*
X113085459Y-64868957D01*
X112741288Y-64785571D01*
X112391068Y-64687500D01*
X112051580Y-64578991D01*
X111938820Y-64538851D01*
X112723984Y-64538851D01*
X112986745Y-64606903D01*
X113182909Y-64656851D01*
X113359909Y-64700297D01*
X113507133Y-64734751D01*
X113613970Y-64757721D01*
X113666921Y-64766526D01*
X113691850Y-64751160D01*
X113696199Y-64691968D01*
X113690490Y-64636728D01*
X113680348Y-64558828D01*
X113664152Y-64433393D01*
X113643790Y-64275098D01*
X113621152Y-64098618D01*
X113610360Y-64014323D01*
X113584112Y-63829765D01*
X113555996Y-63659986D01*
X115500946Y-63659986D01*
X115506430Y-63662471D01*
X115532123Y-63643474D01*
X115578393Y-63618906D01*
X115673161Y-63576881D01*
X115806103Y-63521688D01*
X115966890Y-63457614D01*
X116143605Y-63389552D01*
X116342555Y-63313194D01*
X116489708Y-63253902D01*
X116592472Y-63208044D01*
X116658251Y-63171987D01*
X116694451Y-63142098D01*
X116708478Y-63114744D01*
X116708909Y-63112266D01*
X116718169Y-63066137D01*
X116737018Y-63050916D01*
X116779582Y-63067436D01*
X116859986Y-63116525D01*
X116868059Y-63121621D01*
X116951517Y-63189754D01*
X117003489Y-63262222D01*
X117009144Y-63278411D01*
X117036898Y-63344865D01*
X117070874Y-63349009D01*
X117110656Y-63290893D01*
X117122485Y-63264180D01*
X117194109Y-63148561D01*
X117292797Y-63063614D01*
X117401957Y-63021519D01*
X117454757Y-63020284D01*
X117521676Y-63024300D01*
X117539419Y-63008615D01*
X117525457Y-62974336D01*
X117447117Y-62888323D01*
X117329394Y-62828141D01*
X117192031Y-62798700D01*
X117054768Y-62804908D01*
X116965432Y-62835050D01*
X116761074Y-62920238D01*
X116546466Y-62976451D01*
X116440752Y-62990905D01*
X116282839Y-63026655D01*
X116138484Y-63099839D01*
X116027307Y-63199060D01*
X115992077Y-63251483D01*
X115943317Y-63309128D01*
X115859032Y-63379609D01*
X115774007Y-63437175D01*
X115671415Y-63504764D01*
X115583356Y-63571939D01*
X115537033Y-63615538D01*
X115500946Y-63659986D01*
X113555996Y-63659986D01*
X113552019Y-63635974D01*
X113516384Y-63443863D01*
X113479512Y-63264349D01*
X113443708Y-63108346D01*
X113411277Y-62986768D01*
X113384523Y-62910530D01*
X113373437Y-62892244D01*
X113343456Y-62901425D01*
X113292691Y-62958531D01*
X113226470Y-63054464D01*
X113150120Y-63180126D01*
X113068969Y-63326420D01*
X112988344Y-63484248D01*
X112913572Y-63644512D01*
X112863988Y-63762221D01*
X112795372Y-63957584D01*
X112755886Y-64134765D01*
X112740049Y-64285969D01*
X112723984Y-64538851D01*
X111938820Y-64538851D01*
X111869753Y-64514265D01*
X111302031Y-64281793D01*
X110789524Y-64025335D01*
X110328341Y-63741876D01*
X109914593Y-63428404D01*
X109544388Y-63081904D01*
X109213838Y-62699365D01*
X108919050Y-62277771D01*
X108861317Y-62183981D01*
X108804988Y-62084576D01*
X108764850Y-62002563D01*
X108749901Y-61956694D01*
X109125926Y-61956694D01*
X109132239Y-62040582D01*
X109156793Y-62117046D01*
X109208008Y-62205702D01*
X109271100Y-62294874D01*
X109401062Y-62457565D01*
X109566257Y-62643642D01*
X109752195Y-62838263D01*
X109944388Y-63026588D01*
X110128349Y-63193774D01*
X110237307Y-63284607D01*
X110342418Y-63366074D01*
X110428323Y-63428584D01*
X110484140Y-63464457D01*
X110499479Y-63469615D01*
X110500676Y-63435471D01*
X110495819Y-63361932D01*
X110599753Y-63361932D01*
X110603072Y-63468325D01*
X110618136Y-63533310D01*
X110652598Y-63578063D01*
X110687797Y-63605459D01*
X110758473Y-63652427D01*
X110853805Y-63711473D01*
X110959943Y-63774593D01*
X111063039Y-63833781D01*
X111149243Y-63881033D01*
X111204707Y-63908344D01*
X111217638Y-63911703D01*
X111216234Y-63879609D01*
X111207452Y-63795259D01*
X111207289Y-63793875D01*
X111305157Y-63793875D01*
X111310740Y-63872335D01*
X111323160Y-63924713D01*
X111348215Y-63965760D01*
X111397378Y-64004833D01*
X111482120Y-64051291D01*
X111598994Y-64107484D01*
X111737174Y-64171757D01*
X111828498Y-64211610D01*
X111882487Y-64230090D01*
X111908666Y-64230247D01*
X111916558Y-64215127D01*
X111916790Y-64209205D01*
X111914523Y-64186507D01*
X112026052Y-64186507D01*
X112056166Y-64263466D01*
X112125633Y-64321971D01*
X112241401Y-64375847D01*
X112294571Y-64396327D01*
X112432760Y-64446865D01*
X112522930Y-64474515D01*
X112575202Y-64479912D01*
X112599695Y-64463692D01*
X112606528Y-64426489D01*
X112606666Y-64415920D01*
X112600819Y-64292824D01*
X112584757Y-64141097D01*
X112560703Y-63972004D01*
X112530877Y-63796811D01*
X112497501Y-63626782D01*
X112462797Y-63473183D01*
X112428986Y-63347279D01*
X112398288Y-63260336D01*
X112372926Y-63223617D01*
X112371481Y-63223232D01*
X112339273Y-63246837D01*
X112293169Y-63317313D01*
X112238898Y-63421964D01*
X112182192Y-63548093D01*
X112128781Y-63683006D01*
X112084396Y-63814007D01*
X112056087Y-63921936D01*
X112028342Y-64077272D01*
X112026052Y-64186507D01*
X111914523Y-64186507D01*
X111912870Y-64169964D01*
X111902060Y-64079955D01*
X111885781Y-63950570D01*
X111865457Y-63793205D01*
X111853173Y-63699637D01*
X111816998Y-63445698D01*
X111780315Y-63225549D01*
X111744475Y-63045691D01*
X111710830Y-62912626D01*
X111680733Y-62832857D01*
X111669668Y-62817002D01*
X111644195Y-62829482D01*
X111600931Y-62887045D01*
X111546925Y-62977184D01*
X111489221Y-63087394D01*
X111434865Y-63205168D01*
X111396686Y-63301526D01*
X111347810Y-63468620D01*
X111316132Y-63640497D01*
X111305157Y-63793875D01*
X111207289Y-63793875D01*
X111192459Y-63668532D01*
X111172421Y-63509304D01*
X111149081Y-63331730D01*
X111120970Y-63133519D01*
X111091056Y-62942391D01*
X111061821Y-62772891D01*
X111035749Y-62639569D01*
X111018974Y-62569229D01*
X110988866Y-62467655D01*
X110967222Y-62417758D01*
X110947247Y-62410384D01*
X110922143Y-62436378D01*
X110921234Y-62437587D01*
X110824313Y-62594523D01*
X110736182Y-62787683D01*
X110664367Y-62995429D01*
X110616393Y-63196122D01*
X110599753Y-63361932D01*
X110495819Y-63361932D01*
X110495064Y-63350501D01*
X110483624Y-63226106D01*
X110467337Y-63073691D01*
X110459736Y-63007869D01*
X110423710Y-62727129D01*
X110387082Y-62488869D01*
X110350721Y-62297154D01*
X110315495Y-62156049D01*
X110282274Y-62069617D01*
X110253313Y-62041852D01*
X110225575Y-62067964D01*
X110180791Y-62136796D01*
X110128125Y-62234086D01*
X110122359Y-62245679D01*
X110070896Y-62344986D01*
X110028553Y-62417525D01*
X110003672Y-62449135D01*
X110002308Y-62449506D01*
X109991562Y-62420319D01*
X109976780Y-62340866D01*
X109959918Y-62223311D01*
X109943064Y-62081049D01*
X109905122Y-61767021D01*
X109898584Y-61722589D01*
X110505679Y-61722589D01*
X110515699Y-61863198D01*
X110541121Y-62012447D01*
X110557397Y-62075358D01*
X110609116Y-62245679D01*
X110669860Y-62112688D01*
X111242541Y-62112688D01*
X111247772Y-62212445D01*
X111262343Y-62326026D01*
X111283459Y-62439335D01*
X111308324Y-62538273D01*
X111334142Y-62608742D01*
X111358117Y-62636643D01*
X111366770Y-62632500D01*
X111382368Y-62600634D01*
X111415525Y-62525309D01*
X111431091Y-62488724D01*
X111949998Y-62488724D01*
X111955914Y-62591619D01*
X111967634Y-62707332D01*
X111983665Y-62819517D01*
X112002511Y-62911822D01*
X112012651Y-62945771D01*
X112037659Y-63003922D01*
X112061667Y-63022400D01*
X112090212Y-62996296D01*
X112128834Y-62920700D01*
X112130028Y-62917841D01*
X112648030Y-62917841D01*
X112653488Y-63013443D01*
X112668580Y-63125266D01*
X112690376Y-63239112D01*
X112715950Y-63340786D01*
X112742371Y-63416089D01*
X112766714Y-63450824D01*
X112777881Y-63447809D01*
X112793476Y-63415945D01*
X112826638Y-63340609D01*
X112871020Y-63236305D01*
X112884674Y-63203690D01*
X112933435Y-63085169D01*
X112955611Y-63009015D01*
X112946703Y-62958894D01*
X112902211Y-62918476D01*
X112817635Y-62871427D01*
X112788968Y-62856327D01*
X112715462Y-62819611D01*
X112678846Y-62812722D01*
X112661107Y-62835166D01*
X112655132Y-62852658D01*
X112648030Y-62917841D01*
X112130028Y-62917841D01*
X112180583Y-62796877D01*
X112221170Y-62693043D01*
X112250271Y-62612680D01*
X112261114Y-62574938D01*
X117503793Y-62574938D01*
X117509104Y-62594762D01*
X117551899Y-62566310D01*
X117564772Y-62555067D01*
X117617759Y-62522862D01*
X117718844Y-62474583D01*
X117856975Y-62415017D01*
X118021105Y-62348949D01*
X118180184Y-62288524D01*
X118381676Y-62212731D01*
X118529908Y-62153420D01*
X118631236Y-62107600D01*
X118692017Y-62072281D01*
X118718606Y-62044473D01*
X118721110Y-62034012D01*
X118739847Y-61987589D01*
X118760679Y-61979253D01*
X118836780Y-62002338D01*
X118922387Y-62058497D01*
X118992911Y-62128648D01*
X119021940Y-62181990D01*
X119048458Y-62247617D01*
X119080187Y-62251216D01*
X119118129Y-62192677D01*
X119127852Y-62170381D01*
X119209128Y-62039366D01*
X119320314Y-61958704D01*
X119443576Y-61933524D01*
X119520541Y-61930901D01*
X119546540Y-61917268D01*
X119533278Y-61883980D01*
X119525941Y-61872690D01*
X119449125Y-61798682D01*
X119337433Y-61736811D01*
X119218683Y-61700916D01*
X119172612Y-61696913D01*
X119090428Y-61710058D01*
X118980401Y-61744034D01*
X118895519Y-61778624D01*
X118758189Y-61829692D01*
X118603201Y-61870479D01*
X118521118Y-61884632D01*
X118339210Y-61919596D01*
X118199882Y-61978672D01*
X118084809Y-62071009D01*
X118034762Y-62127432D01*
X117959975Y-62203889D01*
X117853562Y-62294376D01*
X117737481Y-62380331D01*
X117727936Y-62386790D01*
X117627594Y-62458575D01*
X117549408Y-62522836D01*
X117507124Y-62568034D01*
X117503793Y-62574938D01*
X112261114Y-62574938D01*
X112261721Y-62572828D01*
X112261728Y-62572511D01*
X112237203Y-62546307D01*
X112176512Y-62502839D01*
X112098983Y-62454065D01*
X112023941Y-62411943D01*
X111970715Y-62388431D01*
X111961556Y-62386790D01*
X111951380Y-62414998D01*
X111949998Y-62488724D01*
X111431091Y-62488724D01*
X111459887Y-62421047D01*
X111473385Y-62388806D01*
X111517625Y-62280166D01*
X111549404Y-62197098D01*
X111563437Y-62153599D01*
X111563415Y-62150370D01*
X111534559Y-62133117D01*
X111468155Y-62094414D01*
X111411069Y-62061394D01*
X111326938Y-62014384D01*
X111281758Y-61997397D01*
X111260502Y-62008525D01*
X111249446Y-62040856D01*
X111242541Y-62112688D01*
X110669860Y-62112688D01*
X110697027Y-62053212D01*
X110745294Y-61942409D01*
X110783883Y-61844549D01*
X110802767Y-61786669D01*
X110805352Y-61739744D01*
X110779040Y-61699948D01*
X110712356Y-61654110D01*
X110663137Y-61626367D01*
X110505679Y-61540142D01*
X110505679Y-61722589D01*
X109898584Y-61722589D01*
X109861187Y-61468473D01*
X109813380Y-61197568D01*
X109791689Y-61096410D01*
X112293673Y-61096410D01*
X112321664Y-61133357D01*
X112403627Y-61196630D01*
X112537342Y-61284705D01*
X112720587Y-61396058D01*
X112787562Y-61435333D01*
X112946182Y-61527109D01*
X113086237Y-61607067D01*
X113198703Y-61670143D01*
X113274556Y-61711273D01*
X113304382Y-61725395D01*
X113324058Y-61701998D01*
X113327901Y-61671417D01*
X113334165Y-61651532D01*
X113357934Y-61633624D01*
X113406674Y-61615911D01*
X113487853Y-61596612D01*
X113608937Y-61573942D01*
X113777391Y-61546121D01*
X113889919Y-61528599D01*
X119479781Y-61528599D01*
X119490038Y-61530315D01*
X119539342Y-61493331D01*
X119547480Y-61486934D01*
X119602765Y-61455382D01*
X119705801Y-61407451D01*
X119845315Y-61347968D01*
X120010037Y-61281763D01*
X120162970Y-61223243D01*
X120371261Y-61143536D01*
X120524252Y-61080531D01*
X120626470Y-61032110D01*
X120682440Y-60996157D01*
X120697037Y-60973508D01*
X120706242Y-60920463D01*
X120740782Y-60907054D01*
X120811039Y-60932125D01*
X120857150Y-60955693D01*
X120956750Y-61027608D01*
X121000487Y-61108950D01*
X121023554Y-61176744D01*
X121054857Y-61186834D01*
X121097767Y-61138260D01*
X121135719Y-61070399D01*
X121215266Y-60961621D01*
X121318011Y-60886443D01*
X121426733Y-60855793D01*
X121469333Y-60858691D01*
X121529849Y-60861566D01*
X121536195Y-60835742D01*
X121488428Y-60779794D01*
X121473148Y-60765557D01*
X121351683Y-60676999D01*
X121226503Y-60635894D01*
X121085756Y-60641475D01*
X120917588Y-60692976D01*
X120843174Y-60724815D01*
X120694044Y-60781942D01*
X120559076Y-60814568D01*
X120501738Y-60819577D01*
X120329170Y-60847028D01*
X120165872Y-60920374D01*
X120035838Y-61028717D01*
X120032381Y-61032774D01*
X119977827Y-61100748D01*
X119943431Y-61149440D01*
X119939604Y-61156728D01*
X119909272Y-61185004D01*
X119839281Y-61235001D01*
X119743977Y-61296554D01*
X119730863Y-61304637D01*
X119628752Y-61372753D01*
X119546480Y-61437699D01*
X119500863Y-61486108D01*
X119499508Y-61488476D01*
X119479781Y-61528599D01*
X113889919Y-61528599D01*
X113994259Y-61512352D01*
X114192042Y-61481061D01*
X114368922Y-61451263D01*
X114515463Y-61424697D01*
X114622228Y-61403101D01*
X114679781Y-61388213D01*
X114686643Y-61384821D01*
X114710958Y-61346244D01*
X114752429Y-61265894D01*
X114805259Y-61156563D01*
X114863650Y-61031041D01*
X114921804Y-60902119D01*
X114973923Y-60782586D01*
X115014210Y-60685235D01*
X115036865Y-60622854D01*
X115039252Y-60606948D01*
X115007429Y-60585634D01*
X114935885Y-60541831D01*
X114839196Y-60484440D01*
X114824604Y-60475898D01*
X114623470Y-60358362D01*
X114509079Y-60423996D01*
X114441180Y-60467702D01*
X114407309Y-60512385D01*
X114395647Y-60581331D01*
X114394381Y-60650030D01*
X114370138Y-60808280D01*
X114297103Y-60932633D01*
X114173810Y-61024033D01*
X113998791Y-61083423D01*
X113770581Y-61111749D01*
X113672839Y-61114542D01*
X113524389Y-61113563D01*
X113417804Y-61105498D01*
X113332327Y-61086643D01*
X113247197Y-61053298D01*
X113197857Y-61029828D01*
X113053613Y-60937631D01*
X112964640Y-60825267D01*
X112924301Y-60682598D01*
X112920247Y-60605771D01*
X112920247Y-60480527D01*
X113116234Y-60541703D01*
X113315006Y-60593459D01*
X113495944Y-60620971D01*
X113647323Y-60623434D01*
X113757416Y-60600042D01*
X113781352Y-60587399D01*
X113842307Y-60513934D01*
X113862906Y-60415152D01*
X113841557Y-60315040D01*
X113803137Y-60259310D01*
X113776916Y-60229551D01*
X113777452Y-60209546D01*
X113814444Y-60194108D01*
X113897593Y-60178047D01*
X113979289Y-60165080D01*
X114234570Y-60106431D01*
X114446522Y-60020113D01*
X114613563Y-59911650D01*
X114734109Y-59786566D01*
X114806580Y-59650384D01*
X114829392Y-59508628D01*
X114800965Y-59366821D01*
X114719714Y-59230486D01*
X114584060Y-59105147D01*
X114392418Y-58996328D01*
X114322405Y-58967202D01*
X114072921Y-58893222D01*
X113811215Y-58855202D01*
X113547665Y-58851459D01*
X113292650Y-58880312D01*
X113056548Y-58940076D01*
X112849736Y-59029070D01*
X112682593Y-59145610D01*
X112591034Y-59247904D01*
X112550199Y-59308891D01*
X112523291Y-59363132D01*
X112507409Y-59425698D01*
X112499654Y-59511660D01*
X112497127Y-59636088D01*
X112496913Y-59737111D01*
X112498014Y-59894595D01*
X112502853Y-60003573D01*
X112513736Y-60078239D01*
X112532967Y-60132787D01*
X112562851Y-60181410D01*
X112570849Y-60192403D01*
X112644785Y-60292407D01*
X112468935Y-60668540D01*
X112403353Y-60812667D01*
X112348972Y-60939514D01*
X112310850Y-61036733D01*
X112294046Y-61091978D01*
X112293673Y-61096410D01*
X109791689Y-61096410D01*
X109763825Y-60966469D01*
X109720440Y-60805635D01*
X109653148Y-60588555D01*
X109555999Y-60742919D01*
X109445370Y-60939208D01*
X109343131Y-61158743D01*
X109254677Y-61386295D01*
X109185404Y-61606636D01*
X109140709Y-61804537D01*
X109125926Y-61956694D01*
X108749901Y-61956694D01*
X108749629Y-61955862D01*
X108775901Y-61916899D01*
X108840643Y-61875636D01*
X108855966Y-61868789D01*
X108962303Y-61824359D01*
X108973621Y-61467810D01*
X108979678Y-61310036D01*
X108988937Y-61195769D01*
X109005736Y-61105807D01*
X109034414Y-61020952D01*
X109079310Y-60922003D01*
X109111927Y-60855745D01*
X109238914Y-60600229D01*
X109101644Y-60466534D01*
X108865321Y-60219698D01*
X108645714Y-59957999D01*
X108448138Y-59689902D01*
X108277906Y-59423867D01*
X108140333Y-59168360D01*
X108040732Y-58931841D01*
X107984418Y-58722775D01*
X107982361Y-58708389D01*
X108650310Y-58708389D01*
X108670242Y-58860693D01*
X108720330Y-59025474D01*
X108797674Y-59190481D01*
X108899374Y-59343463D01*
X108920702Y-59369557D01*
X109008547Y-59457860D01*
X109117434Y-59545986D01*
X109227327Y-59619375D01*
X109318187Y-59663468D01*
X109329911Y-59666905D01*
X109383172Y-59681283D01*
X109398267Y-59686362D01*
X109428109Y-59679321D01*
X109482595Y-59660143D01*
X109555726Y-59613877D01*
X109594855Y-59567260D01*
X109614118Y-59526932D01*
X109602267Y-59521701D01*
X109548653Y-59549917D01*
X109534623Y-59557919D01*
X109475848Y-59587769D01*
X109428301Y-59593199D01*
X109368111Y-59572034D01*
X109298419Y-59536398D01*
X109135502Y-59422686D01*
X108992349Y-59270866D01*
X108878957Y-59096108D01*
X108805325Y-58913584D01*
X108781294Y-58751728D01*
X108787902Y-58706142D01*
X108985942Y-58706142D01*
X109017246Y-58875070D01*
X109105325Y-59025218D01*
X109245123Y-59148306D01*
X109262829Y-59159466D01*
X109335067Y-59202217D01*
X109376488Y-59214732D01*
X109410620Y-59198078D01*
X109444876Y-59167732D01*
X109489903Y-59101220D01*
X109501533Y-59050140D01*
X109478584Y-58937177D01*
X109419639Y-58817199D01*
X109336249Y-58703739D01*
X109239965Y-58610333D01*
X109142340Y-58550516D01*
X109063209Y-58536549D01*
X109017014Y-58547257D01*
X108993920Y-58576901D01*
X108986282Y-58642261D01*
X108985942Y-58706142D01*
X108787902Y-58706142D01*
X108800602Y-58618544D01*
X108859236Y-58534206D01*
X108957214Y-58498691D01*
X108981835Y-58497441D01*
X109043111Y-58493844D01*
X109048588Y-58481151D01*
X109022997Y-58463957D01*
X108917012Y-58431064D01*
X108804991Y-58439842D01*
X108714848Y-58487931D01*
X108712517Y-58490212D01*
X108663435Y-58580812D01*
X108650310Y-58708389D01*
X107982361Y-58708389D01*
X107977829Y-58676708D01*
X107961107Y-58568757D01*
X107943716Y-58518440D01*
X107927650Y-58520731D01*
X107914905Y-58570605D01*
X107907477Y-58663037D01*
X107907359Y-58793000D01*
X107909527Y-58848748D01*
X107918934Y-58991852D01*
X107934890Y-59103752D01*
X107963334Y-59207661D01*
X108010206Y-59326796D01*
X108060582Y-59439136D01*
X108122482Y-59581932D01*
X108167129Y-59709869D01*
X108195501Y-59835136D01*
X108208576Y-59969922D01*
X108207329Y-60126418D01*
X108192739Y-60316813D01*
X108165782Y-60553297D01*
X108156057Y-60630164D01*
X108077801Y-61163384D01*
X107986202Y-61649321D01*
X107882030Y-62085222D01*
X107766059Y-62468336D01*
X107639060Y-62795912D01*
X107501805Y-63065198D01*
X107449768Y-63147735D01*
X107310289Y-63355707D01*
X107416253Y-63421196D01*
X107500936Y-63497701D01*
X107578100Y-63607489D01*
X107633252Y-63726002D01*
X107652098Y-63820916D01*
X107643615Y-63898164D01*
X107610930Y-63960278D01*
X107543188Y-64019948D01*
X107429538Y-64089864D01*
X107415151Y-64097952D01*
X107311134Y-64154644D01*
X107243874Y-64183710D01*
X107195778Y-64188819D01*
X107149251Y-64173639D01*
X107120637Y-64159359D01*
X107022869Y-64082120D01*
X106933771Y-63965943D01*
X106869599Y-63834147D01*
X106853115Y-63775616D01*
X106848934Y-63710948D01*
X106864411Y-63631072D01*
X106903383Y-63521999D01*
X106956300Y-63399320D01*
X107102572Y-63034368D01*
X107231130Y-62628186D01*
X107342483Y-62177819D01*
X107437140Y-61680315D01*
X107515611Y-61132720D01*
X107578405Y-60532078D01*
X107626031Y-59875437D01*
X107651062Y-59370098D01*
X107663204Y-59100865D01*
X107676567Y-58884843D01*
X107693329Y-58712537D01*
X107715669Y-58574448D01*
X107745764Y-58461080D01*
X107785792Y-58362937D01*
X107837931Y-58270521D01*
X107904359Y-58174335D01*
X107934594Y-58133771D01*
X108061072Y-57987067D01*
X108182190Y-57894104D01*
X108308792Y-57848035D01*
X108399952Y-57839994D01*
X108534701Y-57856682D01*
X108661681Y-57901006D01*
X108759211Y-57964016D01*
X108791324Y-58001565D01*
X108849826Y-58048429D01*
X108897696Y-58059383D01*
X108956160Y-58082077D01*
X109044709Y-58144112D01*
X109153558Y-58236418D01*
X109272925Y-58349922D01*
X109393024Y-58475554D01*
X109504071Y-58604242D01*
X109553568Y-58667463D01*
X109647019Y-58800779D01*
X109744250Y-58953607D01*
X109811593Y-59070147D01*
X109868085Y-59170636D01*
X109914362Y-59245330D01*
X109941912Y-59280663D01*
X109944426Y-59281813D01*
X109955395Y-59259180D01*
X109966758Y-59188992D01*
X109978699Y-59068735D01*
X109991402Y-58895896D01*
X110005052Y-58667959D01*
X110019833Y-58382411D01*
X110035929Y-58036737D01*
X110036317Y-58028025D01*
X110049607Y-57754487D01*
X110063840Y-57534299D01*
X110081122Y-57358107D01*
X110090945Y-57296130D01*
X110290005Y-57296130D01*
X110290821Y-57423875D01*
X110292116Y-57453416D01*
X110302005Y-57591208D01*
X110319729Y-57704587D01*
X110350992Y-57815955D01*
X110401503Y-57947714D01*
X110442475Y-58043704D01*
X110524866Y-58251009D01*
X110573997Y-58420747D01*
X110592588Y-58546377D01*
X110593145Y-58639788D01*
X110586474Y-58779469D01*
X110574084Y-58949583D01*
X110557479Y-59134297D01*
X110538168Y-59317773D01*
X110517658Y-59484178D01*
X110497453Y-59617675D01*
X110484518Y-59682160D01*
X110479493Y-59736428D01*
X110489708Y-59752716D01*
X110524364Y-59737795D01*
X110600698Y-59697454D01*
X110706481Y-59638327D01*
X110798849Y-59585024D01*
X110951146Y-59496157D01*
X111114379Y-59401124D01*
X111261810Y-59315485D01*
X111314021Y-59285229D01*
X111542240Y-59153127D01*
X111319341Y-58911995D01*
X111040201Y-58589653D01*
X110804643Y-58274824D01*
X110615322Y-57972050D01*
X110474896Y-57685874D01*
X110386022Y-57420838D01*
X110380040Y-57388436D01*
X111039165Y-57388436D01*
X111074903Y-57552037D01*
X111143530Y-57722761D01*
X111239741Y-57889853D01*
X111358230Y-58042560D01*
X111493690Y-58170126D01*
X111640817Y-58261799D01*
X111650247Y-58266076D01*
X111756390Y-58302596D01*
X111837877Y-58298554D01*
X111919391Y-58252104D01*
X111928240Y-58245255D01*
X111984809Y-58191498D01*
X112010695Y-58148629D01*
X112010864Y-58146321D01*
X111991906Y-58139017D01*
X111949402Y-58168001D01*
X111863862Y-58207490D01*
X111760017Y-58197249D01*
X111645602Y-58144603D01*
X111528357Y-58056876D01*
X111416018Y-57941391D01*
X111316322Y-57805471D01*
X111237008Y-57656441D01*
X111185814Y-57501624D01*
X111174281Y-57434333D01*
X111174467Y-57286376D01*
X111214278Y-57183482D01*
X111292300Y-57128080D01*
X111357928Y-57118642D01*
X111423461Y-57121239D01*
X111434859Y-57137451D01*
X111400694Y-57179908D01*
X111400019Y-57180654D01*
X111358262Y-57270387D01*
X111362605Y-57384925D01*
X111408314Y-57512342D01*
X111490653Y-57640712D01*
X111604890Y-57758111D01*
X111640454Y-57786280D01*
X111732017Y-57830447D01*
X111805525Y-57821357D01*
X111854817Y-57767330D01*
X111873736Y-57676687D01*
X111856120Y-57557748D01*
X111841579Y-57514591D01*
X111771643Y-57384292D01*
X111672578Y-57268493D01*
X111554995Y-57172668D01*
X111429505Y-57102292D01*
X111306720Y-57062839D01*
X111197252Y-57059783D01*
X111111712Y-57098599D01*
X111087580Y-57125619D01*
X111041622Y-57242712D01*
X111039165Y-57388436D01*
X110380040Y-57388436D01*
X110357910Y-57268571D01*
X110341818Y-57172685D01*
X110324855Y-57133471D01*
X110309149Y-57144955D01*
X110296823Y-57201166D01*
X110290005Y-57296130D01*
X110090945Y-57296130D01*
X110103559Y-57216554D01*
X110133257Y-57100287D01*
X110172322Y-56999950D01*
X110222860Y-56906187D01*
X110286977Y-56809645D01*
X110321290Y-56762163D01*
X110441638Y-56616844D01*
X110555836Y-56523369D01*
X110676675Y-56473794D01*
X110807657Y-56460123D01*
X110889599Y-56473398D01*
X110987530Y-56507271D01*
X111083180Y-56552819D01*
X111158280Y-56601118D01*
X111194558Y-56643243D01*
X111195555Y-56649593D01*
X111222572Y-56671563D01*
X111280019Y-56679630D01*
X111345058Y-56703704D01*
X111438331Y-56770169D01*
X111551610Y-56870387D01*
X111676667Y-56995721D01*
X111805275Y-57137532D01*
X111929205Y-57287184D01*
X112040231Y-57436038D01*
X112124984Y-57566682D01*
X112197852Y-57689201D01*
X112245368Y-57763768D01*
X112273942Y-57796507D01*
X112289985Y-57793543D01*
X112299909Y-57761002D01*
X112304169Y-57737869D01*
X112310503Y-57678852D01*
X112318728Y-57567069D01*
X112328262Y-57412422D01*
X112338523Y-57224812D01*
X112348929Y-57014140D01*
X112356254Y-56852099D01*
X112369357Y-56572195D01*
X112383049Y-56346040D01*
X112399277Y-56164682D01*
X112410890Y-56083090D01*
X112608990Y-56083090D01*
X112612610Y-56230453D01*
X112622525Y-56368411D01*
X112640309Y-56482014D01*
X112671670Y-56593703D01*
X112722315Y-56725918D01*
X112762726Y-56820741D01*
X112822812Y-56967727D01*
X112867404Y-57102643D01*
X112897044Y-57235932D01*
X112912275Y-57378040D01*
X112913639Y-57539412D01*
X112901681Y-57730492D01*
X112876941Y-57961725D01*
X112839964Y-58243557D01*
X112837569Y-58260853D01*
X112816145Y-58415287D01*
X112967235Y-58330841D01*
X113055776Y-58280780D01*
X113180971Y-58209248D01*
X113325262Y-58126306D01*
X113453160Y-58052408D01*
X113787994Y-57858421D01*
X113527841Y-57562573D01*
X113260742Y-57237556D01*
X113041412Y-56925188D01*
X112872057Y-56629277D01*
X112754880Y-56353628D01*
X112706093Y-56165473D01*
X113359659Y-56165473D01*
X113395397Y-56329074D01*
X113464024Y-56499798D01*
X113560235Y-56666890D01*
X113678724Y-56819597D01*
X113814184Y-56947163D01*
X113961311Y-57038836D01*
X113970740Y-57043114D01*
X114076884Y-57079633D01*
X114158370Y-57075591D01*
X114239884Y-57029141D01*
X114248734Y-57022292D01*
X114305303Y-56968535D01*
X114331189Y-56925666D01*
X114331358Y-56923358D01*
X114312400Y-56916054D01*
X114269896Y-56945038D01*
X114184356Y-56984527D01*
X114080510Y-56974286D01*
X113966096Y-56921641D01*
X113848851Y-56833913D01*
X113736511Y-56718428D01*
X113636816Y-56582508D01*
X113557502Y-56433478D01*
X113506307Y-56278661D01*
X113494775Y-56211370D01*
X113494961Y-56063413D01*
X113534772Y-55960519D01*
X113612794Y-55905117D01*
X113678422Y-55895679D01*
X113743421Y-55898591D01*
X113754912Y-55914900D01*
X113724736Y-55953025D01*
X113678310Y-56048032D01*
X113681008Y-56166371D01*
X113729443Y-56297079D01*
X113820229Y-56429194D01*
X113895659Y-56506424D01*
X114005058Y-56588173D01*
X114090430Y-56613038D01*
X114153689Y-56581234D01*
X114180231Y-56538611D01*
X114199911Y-56459461D01*
X114186132Y-56362369D01*
X114178723Y-56336197D01*
X114118787Y-56203731D01*
X114027529Y-56083002D01*
X113915159Y-55979754D01*
X113791886Y-55899730D01*
X113667920Y-55848674D01*
X113553469Y-55832328D01*
X113458744Y-55856437D01*
X113408074Y-55902656D01*
X113362116Y-56019749D01*
X113359659Y-56165473D01*
X112706093Y-56165473D01*
X112695846Y-56125957D01*
X112670209Y-56000967D01*
X112646911Y-55936439D01*
X112627745Y-55930118D01*
X112614507Y-55979753D01*
X112608990Y-56083090D01*
X112410890Y-56083090D01*
X112419988Y-56019170D01*
X112447129Y-55900552D01*
X112482647Y-55799874D01*
X112528488Y-55708187D01*
X112586600Y-55616536D01*
X112641783Y-55539200D01*
X112762132Y-55393881D01*
X112876330Y-55300406D01*
X112997169Y-55250831D01*
X113128151Y-55237160D01*
X113210092Y-55250435D01*
D11*
X123300000Y-72000000D02*
X105300000Y-72000000D01*
X123300000Y-55000000D02*
X123300000Y-72000000D01*
X105300000Y-55000000D02*
X123300000Y-55000000D01*
X105300000Y-72000000D02*
X105300000Y-55000000D01*
D12*
X111633001Y-51943001D02*
G75*
G03X110744000Y-51181000I-825501J-63500D01*
G01*
X111633000Y-51943000D02*
X111633000Y-52959000D01*
X110743999Y-53720999D02*
G75*
G03X111633000Y-52959000I63501J825500D01*
G01*
X110744000Y-53721000D02*
X107442000Y-53721000D01*
X107061000Y-54102000D02*
G75*
G02X107442000Y-53721000I381000J0D01*
G01*
X110744000Y-51181000D02*
X107442000Y-51181000D01*
X107061000Y-50800000D02*
G75*
G03X107442000Y-51181000I381000J0D01*
G01*
X107061000Y-54102000D02*
X106426000Y-54102000D01*
X106426000Y-54102000D02*
X106426000Y-50800000D01*
X106426000Y-50800000D02*
X107061000Y-50800000D01*
D13*
X114792000Y-51562000D02*
G75*
G03X114538000Y-51816000I0J-254000D01*
G01*
X114792000Y-53594000D02*
G75*
G02X114538000Y-53340000I0J254000D01*
G01*
X120158000Y-53340000D02*
G75*
G02X119904000Y-53594000I-254000J0D01*
G01*
X120158000Y-51816000D02*
G75*
G03X119904000Y-51562000I-254000J0D01*
G01*
X114538000Y-53340000D02*
X114538000Y-51816000D01*
X114792000Y-51562000D02*
X115808000Y-51562000D01*
X115935000Y-51689000D02*
X115808000Y-51562000D01*
X114792000Y-53594000D02*
X115808000Y-53594000D01*
X115935000Y-53467000D02*
X115808000Y-53594000D01*
X118761000Y-51689000D02*
X118888000Y-51562000D01*
X118761000Y-51689000D02*
X115935000Y-51689000D01*
X118761000Y-53467000D02*
X118888000Y-53594000D01*
X118761000Y-53467000D02*
X115935000Y-53467000D01*
X119904000Y-51562000D02*
X118888000Y-51562000D01*
X119904000Y-53594000D02*
X118888000Y-53594000D01*
X120158000Y-53340000D02*
X120158000Y-51816000D01*
D11*
X109280000Y-50098000D02*
X107950000Y-50098000D01*
X109280000Y-48768000D02*
X109280000Y-50098000D01*
X109280000Y-47498000D02*
X106620000Y-47498000D01*
X106620000Y-47498000D02*
X106620000Y-47438000D01*
X109280000Y-47498000D02*
X109280000Y-47438000D01*
X109280000Y-47438000D02*
X106620000Y-47438000D01*
X121980000Y-47438000D02*
X119320000Y-47438000D01*
X121980000Y-47498000D02*
X121980000Y-47438000D01*
X119320000Y-47498000D02*
X119320000Y-47438000D01*
X121980000Y-47498000D02*
X119320000Y-47498000D01*
X121980000Y-48768000D02*
X121980000Y-50098000D01*
X121980000Y-50098000D02*
X120650000Y-50098000D01*
X111820000Y-50098000D02*
X110490000Y-50098000D01*
X111820000Y-48768000D02*
X111820000Y-50098000D01*
X111820000Y-47498000D02*
X109160000Y-47498000D01*
X109160000Y-47498000D02*
X109160000Y-47438000D01*
X111820000Y-47498000D02*
X111820000Y-47438000D01*
X111820000Y-47438000D02*
X109160000Y-47438000D01*
X114360000Y-47438000D02*
X111700000Y-47438000D01*
X114360000Y-47498000D02*
X114360000Y-47438000D01*
X111700000Y-47498000D02*
X111700000Y-47438000D01*
X114360000Y-47498000D02*
X111700000Y-47498000D01*
X114360000Y-48768000D02*
X114360000Y-50098000D01*
X114360000Y-50098000D02*
X113030000Y-50098000D01*
X116900000Y-47438000D02*
X114240000Y-47438000D01*
X116900000Y-47498000D02*
X116900000Y-47438000D01*
X114240000Y-47498000D02*
X114240000Y-47438000D01*
X116900000Y-47498000D02*
X114240000Y-47498000D01*
X116900000Y-48768000D02*
X116900000Y-50098000D01*
X116900000Y-50098000D02*
X115570000Y-50098000D01*
X119440000Y-50098000D02*
X118110000Y-50098000D01*
X119440000Y-48768000D02*
X119440000Y-50098000D01*
X119440000Y-47498000D02*
X116780000Y-47498000D01*
X116780000Y-47498000D02*
X116780000Y-47438000D01*
X119440000Y-47498000D02*
X119440000Y-47438000D01*
X119440000Y-47438000D02*
X116780000Y-47438000D01*
D14*
X108585714Y-70397714D02*
X108585714Y-71397714D01*
X108585714Y-70445333D02*
X108680952Y-70397714D01*
X108871428Y-70397714D01*
X108966666Y-70445333D01*
X109014285Y-70492952D01*
X109061904Y-70588190D01*
X109061904Y-70873904D01*
X109014285Y-70969142D01*
X108966666Y-71016761D01*
X108871428Y-71064380D01*
X108680952Y-71064380D01*
X108585714Y-71016761D01*
X109871428Y-71016761D02*
X109776190Y-71064380D01*
X109585714Y-71064380D01*
X109490476Y-71016761D01*
X109442857Y-70921523D01*
X109442857Y-70540571D01*
X109490476Y-70445333D01*
X109585714Y-70397714D01*
X109776190Y-70397714D01*
X109871428Y-70445333D01*
X109919047Y-70540571D01*
X109919047Y-70635809D01*
X109442857Y-70731047D01*
X110776190Y-71064380D02*
X110776190Y-70064380D01*
X110776190Y-71016761D02*
X110680952Y-71064380D01*
X110490476Y-71064380D01*
X110395238Y-71016761D01*
X110347619Y-70969142D01*
X110300000Y-70873904D01*
X110300000Y-70588190D01*
X110347619Y-70492952D01*
X110395238Y-70445333D01*
X110490476Y-70397714D01*
X110680952Y-70397714D01*
X110776190Y-70445333D01*
X111680952Y-71064380D02*
X111680952Y-70540571D01*
X111633333Y-70445333D01*
X111538095Y-70397714D01*
X111347619Y-70397714D01*
X111252380Y-70445333D01*
X111680952Y-71016761D02*
X111585714Y-71064380D01*
X111347619Y-71064380D01*
X111252380Y-71016761D01*
X111204761Y-70921523D01*
X111204761Y-70826285D01*
X111252380Y-70731047D01*
X111347619Y-70683428D01*
X111585714Y-70683428D01*
X111680952Y-70635809D01*
X112300000Y-71064380D02*
X112204761Y-71016761D01*
X112157142Y-70921523D01*
X112157142Y-70064380D01*
X112680952Y-71064380D02*
X112680952Y-70397714D01*
X112680952Y-70492952D02*
X112728571Y-70445333D01*
X112823809Y-70397714D01*
X112966666Y-70397714D01*
X113061904Y-70445333D01*
X113109523Y-70540571D01*
X113109523Y-71064380D01*
X113109523Y-70540571D02*
X113157142Y-70445333D01*
X113252380Y-70397714D01*
X113395238Y-70397714D01*
X113490476Y-70445333D01*
X113538095Y-70540571D01*
X113538095Y-71064380D01*
X114442857Y-71064380D02*
X114442857Y-70540571D01*
X114395238Y-70445333D01*
X114300000Y-70397714D01*
X114109523Y-70397714D01*
X114014285Y-70445333D01*
X114442857Y-71016761D02*
X114347619Y-71064380D01*
X114109523Y-71064380D01*
X114014285Y-71016761D01*
X113966666Y-70921523D01*
X113966666Y-70826285D01*
X114014285Y-70731047D01*
X114109523Y-70683428D01*
X114347619Y-70683428D01*
X114442857Y-70635809D01*
X114919047Y-71064380D02*
X114919047Y-70397714D01*
X114919047Y-70588190D02*
X114966666Y-70492952D01*
X115014285Y-70445333D01*
X115109523Y-70397714D01*
X115204761Y-70397714D01*
X115538095Y-71064380D02*
X115538095Y-70064380D01*
X115633333Y-70683428D02*
X115919047Y-71064380D01*
X115919047Y-70397714D02*
X115538095Y-70778666D01*
X116204761Y-70397714D02*
X116585714Y-70397714D01*
X116347619Y-70064380D02*
X116347619Y-70921523D01*
X116395238Y-71016761D01*
X116490476Y-71064380D01*
X116585714Y-71064380D01*
X116919047Y-70969142D02*
X116966666Y-71016761D01*
X116919047Y-71064380D01*
X116871428Y-71016761D01*
X116919047Y-70969142D01*
X116919047Y-71064380D01*
X117823809Y-71016761D02*
X117728571Y-71064380D01*
X117538095Y-71064380D01*
X117442857Y-71016761D01*
X117395238Y-70969142D01*
X117347619Y-70873904D01*
X117347619Y-70588190D01*
X117395238Y-70492952D01*
X117442857Y-70445333D01*
X117538095Y-70397714D01*
X117728571Y-70397714D01*
X117823809Y-70445333D01*
X118395238Y-71064380D02*
X118300000Y-71016761D01*
X118252380Y-70969142D01*
X118204761Y-70873904D01*
X118204761Y-70588190D01*
X118252380Y-70492952D01*
X118300000Y-70445333D01*
X118395238Y-70397714D01*
X118538095Y-70397714D01*
X118633333Y-70445333D01*
X118680952Y-70492952D01*
X118728571Y-70588190D01*
X118728571Y-70873904D01*
X118680952Y-70969142D01*
X118633333Y-71016761D01*
X118538095Y-71064380D01*
X118395238Y-71064380D01*
X119157142Y-71064380D02*
X119157142Y-70397714D01*
X119157142Y-70492952D02*
X119204761Y-70445333D01*
X119300000Y-70397714D01*
X119442857Y-70397714D01*
X119538095Y-70445333D01*
X119585714Y-70540571D01*
X119585714Y-71064380D01*
X119585714Y-70540571D02*
X119633333Y-70445333D01*
X119728571Y-70397714D01*
X119871428Y-70397714D01*
X119966666Y-70445333D01*
X120014285Y-70540571D01*
X120014285Y-71064380D01*
X116371809Y-53030380D02*
X116038476Y-52554190D01*
X115800380Y-53030380D02*
X115800380Y-52030380D01*
X116181333Y-52030380D01*
X116276571Y-52078000D01*
X116324190Y-52125619D01*
X116371809Y-52220857D01*
X116371809Y-52363714D01*
X116324190Y-52458952D01*
X116276571Y-52506571D01*
X116181333Y-52554190D01*
X115800380Y-52554190D01*
X117276571Y-53030380D02*
X116800380Y-53030380D01*
X116800380Y-52030380D01*
X117990857Y-52982761D02*
X117895619Y-53030380D01*
X117705142Y-53030380D01*
X117609904Y-52982761D01*
X117562285Y-52887523D01*
X117562285Y-52506571D01*
X117609904Y-52411333D01*
X117705142Y-52363714D01*
X117895619Y-52363714D01*
X117990857Y-52411333D01*
X118038476Y-52506571D01*
X118038476Y-52601809D01*
X117562285Y-52697047D01*
X118895619Y-53030380D02*
X118895619Y-52030380D01*
X118895619Y-52982761D02*
X118800380Y-53030380D01*
X118609904Y-53030380D01*
X118514666Y-52982761D01*
X118467047Y-52935142D01*
X118419428Y-52839904D01*
X118419428Y-52554190D01*
X118467047Y-52458952D01*
X118514666Y-52411333D01*
X118609904Y-52363714D01*
X118800380Y-52363714D01*
X118895619Y-52411333D01*
D11*
X107588095Y-46799904D02*
X107588095Y-45999904D01*
X107969047Y-46266571D02*
X107969047Y-46799904D01*
X107969047Y-46342761D02*
X108007142Y-46304666D01*
X108083333Y-46266571D01*
X108197619Y-46266571D01*
X108273809Y-46304666D01*
X108311904Y-46380857D01*
X108311904Y-46799904D01*
X119983333Y-45999904D02*
X120135714Y-45999904D01*
X120211904Y-46038000D01*
X120288095Y-46114190D01*
X120326190Y-46266571D01*
X120326190Y-46533238D01*
X120288095Y-46685619D01*
X120211904Y-46761809D01*
X120135714Y-46799904D01*
X119983333Y-46799904D01*
X119907142Y-46761809D01*
X119830952Y-46685619D01*
X119792857Y-46533238D01*
X119792857Y-46266571D01*
X119830952Y-46114190D01*
X119907142Y-46038000D01*
X119983333Y-45999904D01*
X121011904Y-46266571D02*
X121011904Y-46799904D01*
X120669047Y-46266571D02*
X120669047Y-46685619D01*
X120707142Y-46761809D01*
X120783333Y-46799904D01*
X120897619Y-46799904D01*
X120973809Y-46761809D01*
X121011904Y-46723714D01*
X121278571Y-46266571D02*
X121583333Y-46266571D01*
X121392857Y-45999904D02*
X121392857Y-46685619D01*
X121430952Y-46761809D01*
X121507142Y-46799904D01*
X121583333Y-46799904D01*
X109753476Y-46082000D02*
X109677285Y-46043904D01*
X109563000Y-46043904D01*
X109448714Y-46082000D01*
X109372523Y-46158190D01*
X109334428Y-46234380D01*
X109296333Y-46386761D01*
X109296333Y-46501047D01*
X109334428Y-46653428D01*
X109372523Y-46729619D01*
X109448714Y-46805809D01*
X109563000Y-46843904D01*
X109639190Y-46843904D01*
X109753476Y-46805809D01*
X109791571Y-46767714D01*
X109791571Y-46501047D01*
X109639190Y-46501047D01*
X110134428Y-46843904D02*
X110134428Y-46043904D01*
X110591571Y-46843904D01*
X110591571Y-46043904D01*
X110972523Y-46843904D02*
X110972523Y-46043904D01*
X111163000Y-46043904D01*
X111277285Y-46082000D01*
X111353476Y-46158190D01*
X111391571Y-46234380D01*
X111429666Y-46386761D01*
X111429666Y-46501047D01*
X111391571Y-46653428D01*
X111353476Y-46729619D01*
X111277285Y-46805809D01*
X111163000Y-46843904D01*
X110972523Y-46843904D01*
X111747428Y-46539142D02*
X112356952Y-46539142D01*
X112052190Y-46843904D02*
X112052190Y-46234380D01*
X112776000Y-46843904D02*
X112928380Y-46843904D01*
X113004571Y-46805809D01*
X113042666Y-46767714D01*
X113118857Y-46653428D01*
X113156952Y-46501047D01*
X113156952Y-46196285D01*
X113118857Y-46120095D01*
X113080761Y-46082000D01*
X113004571Y-46043904D01*
X112852190Y-46043904D01*
X112776000Y-46082000D01*
X112737904Y-46120095D01*
X112699809Y-46196285D01*
X112699809Y-46386761D01*
X112737904Y-46462952D01*
X112776000Y-46501047D01*
X112852190Y-46539142D01*
X113004571Y-46539142D01*
X113080761Y-46501047D01*
X113118857Y-46462952D01*
X113156952Y-46386761D01*
X113385523Y-46043904D02*
X113652190Y-46843904D01*
X113918857Y-46043904D01*
X114473142Y-46395142D02*
X114273142Y-46395142D01*
X114273142Y-46709428D02*
X114273142Y-46109428D01*
X114558857Y-46109428D01*
X114730285Y-46109428D02*
X115130285Y-46709428D01*
X115130285Y-46109428D02*
X114730285Y-46709428D01*
X115216000Y-46766571D02*
X115673142Y-46766571D01*
X115816000Y-46709428D02*
X115816000Y-46109428D01*
X116101714Y-46309428D02*
X116101714Y-46709428D01*
X116101714Y-46366571D02*
X116130285Y-46338000D01*
X116187428Y-46309428D01*
X116273142Y-46309428D01*
X116330285Y-46338000D01*
X116358857Y-46395142D01*
X116358857Y-46709428D01*
X116797285Y-46395142D02*
X116597285Y-46395142D01*
X116597285Y-46709428D02*
X116597285Y-46109428D01*
X116883000Y-46109428D01*
X117054428Y-46109428D02*
X117454428Y-46709428D01*
X117454428Y-46109428D02*
X117054428Y-46709428D01*
X117540142Y-46766571D02*
X117997285Y-46766571D01*
X118254428Y-46109428D02*
X118368714Y-46109428D01*
X118425857Y-46138000D01*
X118483000Y-46195142D01*
X118511571Y-46309428D01*
X118511571Y-46509428D01*
X118483000Y-46623714D01*
X118425857Y-46680857D01*
X118368714Y-46709428D01*
X118254428Y-46709428D01*
X118197285Y-46680857D01*
X118140142Y-46623714D01*
X118111571Y-46509428D01*
X118111571Y-46309428D01*
X118140142Y-46195142D01*
X118197285Y-46138000D01*
X118254428Y-46109428D01*
X119025857Y-46309428D02*
X119025857Y-46709428D01*
X118768714Y-46309428D02*
X118768714Y-46623714D01*
X118797285Y-46680857D01*
X118854428Y-46709428D01*
X118940142Y-46709428D01*
X118997285Y-46680857D01*
X119025857Y-46652285D01*
X119225857Y-46309428D02*
X119454428Y-46309428D01*
X119311571Y-46109428D02*
X119311571Y-46623714D01*
X119340142Y-46680857D01*
X119397285Y-46709428D01*
X119454428Y-46709428D01*
M02*
