G04 #@! TF.GenerationSoftware,KiCad,Pcbnew,(5.1.5-0-10_14)*
G04 #@! TF.CreationDate,2020-11-20T21:32:41+01:00*
G04 #@! TF.ProjectId,3pdt-minimal,33706474-2d6d-4696-9e69-6d616c2e6b69,rev?*
G04 #@! TF.SameCoordinates,Original*
G04 #@! TF.FileFunction,Copper,L2,Bot*
G04 #@! TF.FilePolarity,Positive*
%FSLAX46Y46*%
G04 Gerber Fmt 4.6, Leading zero omitted, Abs format (unit mm)*
G04 Created by KiCad (PCBNEW (5.1.5-0-10_14)) date 2020-11-20 21:32:41*
%MOMM*%
%LPD*%
G04 APERTURE LIST*
%ADD10O,4.200000X2.800000*%
%ADD11R,3.816000X3.816000*%
%ADD12R,2.000000X2.000000*%
%ADD13O,2.000000X2.000000*%
%ADD14R,1.700000X1.700000*%
%ADD15C,0.254000*%
G04 APERTURE END LIST*
D10*
X119380000Y-68200000D03*
X119380000Y-63500000D03*
X119380000Y-58800000D03*
X114300000Y-68200000D03*
X114300000Y-63500000D03*
X114300000Y-58800000D03*
X109220000Y-68200000D03*
X109220000Y-63500000D03*
D11*
X109220000Y-58800000D03*
D12*
X110236000Y-52451000D03*
D13*
X107696000Y-52451000D03*
X113538000Y-52578000D03*
X121158000Y-52578000D03*
D14*
X107950000Y-48768000D03*
X120650000Y-48768000D03*
X110490000Y-48768000D03*
X113030000Y-48768000D03*
X115570000Y-48768000D03*
X118110000Y-48768000D03*
D15*
G36*
X122579200Y-45923559D02*
G01*
X122740041Y-45972120D01*
X122888378Y-46050992D01*
X123018574Y-46157176D01*
X123063000Y-46210878D01*
X123063000Y-71628000D01*
X105537000Y-71628000D01*
X105537000Y-68643160D01*
X106533840Y-68643160D01*
X106591304Y-68861427D01*
X106757401Y-69224988D01*
X106991234Y-69549159D01*
X107283817Y-69821483D01*
X107623906Y-70031494D01*
X107998431Y-70171122D01*
X108393000Y-70235000D01*
X109093000Y-70235000D01*
X109093000Y-68327000D01*
X109347000Y-68327000D01*
X109347000Y-70235000D01*
X110047000Y-70235000D01*
X110441569Y-70171122D01*
X110816094Y-70031494D01*
X111156183Y-69821483D01*
X111448766Y-69549159D01*
X111682599Y-69224988D01*
X111760000Y-69055569D01*
X111837401Y-69224988D01*
X112071234Y-69549159D01*
X112363817Y-69821483D01*
X112703906Y-70031494D01*
X113078431Y-70171122D01*
X113473000Y-70235000D01*
X114173000Y-70235000D01*
X114173000Y-68327000D01*
X109347000Y-68327000D01*
X109093000Y-68327000D01*
X106648053Y-68327000D01*
X106533840Y-68643160D01*
X105537000Y-68643160D01*
X105537000Y-67756840D01*
X106533840Y-67756840D01*
X106648053Y-68073000D01*
X109093000Y-68073000D01*
X109093000Y-66165000D01*
X109347000Y-66165000D01*
X109347000Y-68073000D01*
X114173000Y-68073000D01*
X114173000Y-66165000D01*
X114427000Y-66165000D01*
X114427000Y-68073000D01*
X114447000Y-68073000D01*
X114447000Y-68327000D01*
X114427000Y-68327000D01*
X114427000Y-70235000D01*
X115127000Y-70235000D01*
X115521569Y-70171122D01*
X115896094Y-70031494D01*
X116236183Y-69821483D01*
X116528766Y-69549159D01*
X116762599Y-69224988D01*
X116835322Y-69065808D01*
X116979773Y-69336056D01*
X117234076Y-69645924D01*
X117543944Y-69900227D01*
X117897471Y-70089191D01*
X118281070Y-70205555D01*
X118580031Y-70235000D01*
X120179969Y-70235000D01*
X120478930Y-70205555D01*
X120862529Y-70089191D01*
X121216056Y-69900227D01*
X121525924Y-69645924D01*
X121780227Y-69336056D01*
X121969191Y-68982529D01*
X122085555Y-68598930D01*
X122124846Y-68200000D01*
X122085555Y-67801070D01*
X121969191Y-67417471D01*
X121780227Y-67063944D01*
X121525924Y-66754076D01*
X121216056Y-66499773D01*
X120862529Y-66310809D01*
X120478930Y-66194445D01*
X120179969Y-66165000D01*
X118580031Y-66165000D01*
X118281070Y-66194445D01*
X117897471Y-66310809D01*
X117543944Y-66499773D01*
X117234076Y-66754076D01*
X116979773Y-67063944D01*
X116835322Y-67334192D01*
X116762599Y-67175012D01*
X116528766Y-66850841D01*
X116236183Y-66578517D01*
X115896094Y-66368506D01*
X115521569Y-66228878D01*
X115127000Y-66165000D01*
X114427000Y-66165000D01*
X114173000Y-66165000D01*
X113473000Y-66165000D01*
X113078431Y-66228878D01*
X112703906Y-66368506D01*
X112363817Y-66578517D01*
X112071234Y-66850841D01*
X111837401Y-67175012D01*
X111760000Y-67344431D01*
X111682599Y-67175012D01*
X111448766Y-66850841D01*
X111156183Y-66578517D01*
X110816094Y-66368506D01*
X110441569Y-66228878D01*
X110047000Y-66165000D01*
X109347000Y-66165000D01*
X109093000Y-66165000D01*
X108393000Y-66165000D01*
X107998431Y-66228878D01*
X107623906Y-66368506D01*
X107283817Y-66578517D01*
X106991234Y-66850841D01*
X106757401Y-67175012D01*
X106591304Y-67538573D01*
X106533840Y-67756840D01*
X105537000Y-67756840D01*
X105537000Y-63943160D01*
X106533840Y-63943160D01*
X106591304Y-64161427D01*
X106757401Y-64524988D01*
X106991234Y-64849159D01*
X107283817Y-65121483D01*
X107623906Y-65331494D01*
X107998431Y-65471122D01*
X108393000Y-65535000D01*
X109093000Y-65535000D01*
X109093000Y-63627000D01*
X106648053Y-63627000D01*
X106533840Y-63943160D01*
X105537000Y-63943160D01*
X105537000Y-63056840D01*
X106533840Y-63056840D01*
X106648053Y-63373000D01*
X109093000Y-63373000D01*
X109093000Y-61465000D01*
X109347000Y-61465000D01*
X109347000Y-63373000D01*
X109367000Y-63373000D01*
X109367000Y-63627000D01*
X109347000Y-63627000D01*
X109347000Y-65535000D01*
X110047000Y-65535000D01*
X110441569Y-65471122D01*
X110816094Y-65331494D01*
X111156183Y-65121483D01*
X111448766Y-64849159D01*
X111682599Y-64524988D01*
X111755322Y-64365808D01*
X111899773Y-64636056D01*
X112154076Y-64945924D01*
X112463944Y-65200227D01*
X112817471Y-65389191D01*
X113201070Y-65505555D01*
X113500031Y-65535000D01*
X115099969Y-65535000D01*
X115398930Y-65505555D01*
X115782529Y-65389191D01*
X116136056Y-65200227D01*
X116445924Y-64945924D01*
X116700227Y-64636056D01*
X116840000Y-64374559D01*
X116979773Y-64636056D01*
X117234076Y-64945924D01*
X117543944Y-65200227D01*
X117897471Y-65389191D01*
X118281070Y-65505555D01*
X118580031Y-65535000D01*
X120179969Y-65535000D01*
X120478930Y-65505555D01*
X120862529Y-65389191D01*
X121216056Y-65200227D01*
X121525924Y-64945924D01*
X121780227Y-64636056D01*
X121969191Y-64282529D01*
X122085555Y-63898930D01*
X122124846Y-63500000D01*
X122085555Y-63101070D01*
X121969191Y-62717471D01*
X121780227Y-62363944D01*
X121525924Y-62054076D01*
X121216056Y-61799773D01*
X120862529Y-61610809D01*
X120478930Y-61494445D01*
X120179969Y-61465000D01*
X118580031Y-61465000D01*
X118281070Y-61494445D01*
X117897471Y-61610809D01*
X117543944Y-61799773D01*
X117234076Y-62054076D01*
X116979773Y-62363944D01*
X116840000Y-62625441D01*
X116700227Y-62363944D01*
X116445924Y-62054076D01*
X116136056Y-61799773D01*
X115782529Y-61610809D01*
X115398930Y-61494445D01*
X115099969Y-61465000D01*
X113500031Y-61465000D01*
X113201070Y-61494445D01*
X112817471Y-61610809D01*
X112463944Y-61799773D01*
X112154076Y-62054076D01*
X111899773Y-62363944D01*
X111755322Y-62634192D01*
X111682599Y-62475012D01*
X111448766Y-62150841D01*
X111156183Y-61878517D01*
X110816094Y-61668506D01*
X110441569Y-61528878D01*
X110047000Y-61465000D01*
X109347000Y-61465000D01*
X109093000Y-61465000D01*
X108393000Y-61465000D01*
X107998431Y-61528878D01*
X107623906Y-61668506D01*
X107283817Y-61878517D01*
X106991234Y-62150841D01*
X106757401Y-62475012D01*
X106591304Y-62838573D01*
X106533840Y-63056840D01*
X105537000Y-63056840D01*
X105537000Y-56892000D01*
X106673928Y-56892000D01*
X106673928Y-60708000D01*
X106686188Y-60832482D01*
X106722498Y-60952180D01*
X106781463Y-61062494D01*
X106860815Y-61159185D01*
X106957506Y-61238537D01*
X107067820Y-61297502D01*
X107187518Y-61333812D01*
X107312000Y-61346072D01*
X111128000Y-61346072D01*
X111252482Y-61333812D01*
X111372180Y-61297502D01*
X111482494Y-61238537D01*
X111579185Y-61159185D01*
X111658537Y-61062494D01*
X111717502Y-60952180D01*
X111753812Y-60832482D01*
X111766072Y-60708000D01*
X111766072Y-59685919D01*
X111899773Y-59936056D01*
X112154076Y-60245924D01*
X112463944Y-60500227D01*
X112817471Y-60689191D01*
X113201070Y-60805555D01*
X113500031Y-60835000D01*
X115099969Y-60835000D01*
X115398930Y-60805555D01*
X115782529Y-60689191D01*
X116136056Y-60500227D01*
X116445924Y-60245924D01*
X116700227Y-59936056D01*
X116840000Y-59674559D01*
X116979773Y-59936056D01*
X117234076Y-60245924D01*
X117543944Y-60500227D01*
X117897471Y-60689191D01*
X118281070Y-60805555D01*
X118580031Y-60835000D01*
X120179969Y-60835000D01*
X120478930Y-60805555D01*
X120862529Y-60689191D01*
X121216056Y-60500227D01*
X121525924Y-60245924D01*
X121780227Y-59936056D01*
X121969191Y-59582529D01*
X122085555Y-59198930D01*
X122124846Y-58800000D01*
X122085555Y-58401070D01*
X121969191Y-58017471D01*
X121780227Y-57663944D01*
X121525924Y-57354076D01*
X121216056Y-57099773D01*
X120862529Y-56910809D01*
X120478930Y-56794445D01*
X120179969Y-56765000D01*
X118580031Y-56765000D01*
X118281070Y-56794445D01*
X117897471Y-56910809D01*
X117543944Y-57099773D01*
X117234076Y-57354076D01*
X116979773Y-57663944D01*
X116840000Y-57925441D01*
X116700227Y-57663944D01*
X116445924Y-57354076D01*
X116136056Y-57099773D01*
X115782529Y-56910809D01*
X115398930Y-56794445D01*
X115099969Y-56765000D01*
X113500031Y-56765000D01*
X113201070Y-56794445D01*
X112817471Y-56910809D01*
X112463944Y-57099773D01*
X112154076Y-57354076D01*
X111899773Y-57663944D01*
X111766072Y-57914081D01*
X111766072Y-56892000D01*
X111753812Y-56767518D01*
X111717502Y-56647820D01*
X111658537Y-56537506D01*
X111579185Y-56440815D01*
X111482494Y-56361463D01*
X111372180Y-56302498D01*
X111252482Y-56266188D01*
X111128000Y-56253928D01*
X107312000Y-56253928D01*
X107187518Y-56266188D01*
X107067820Y-56302498D01*
X106957506Y-56361463D01*
X106860815Y-56440815D01*
X106781463Y-56537506D01*
X106722498Y-56647820D01*
X106686188Y-56767518D01*
X106673928Y-56892000D01*
X105537000Y-56892000D01*
X105537000Y-52289967D01*
X106061000Y-52289967D01*
X106061000Y-52612033D01*
X106123832Y-52927912D01*
X106247082Y-53225463D01*
X106426013Y-53493252D01*
X106653748Y-53720987D01*
X106921537Y-53899918D01*
X107219088Y-54023168D01*
X107534967Y-54086000D01*
X107857033Y-54086000D01*
X108172912Y-54023168D01*
X108470463Y-53899918D01*
X108680809Y-53759370D01*
X108705463Y-53805494D01*
X108784815Y-53902185D01*
X108881506Y-53981537D01*
X108991820Y-54040502D01*
X109111518Y-54076812D01*
X109236000Y-54089072D01*
X111236000Y-54089072D01*
X111360482Y-54076812D01*
X111480180Y-54040502D01*
X111590494Y-53981537D01*
X111687185Y-53902185D01*
X111766537Y-53805494D01*
X111825502Y-53695180D01*
X111861812Y-53575482D01*
X111874072Y-53451000D01*
X111874072Y-52416967D01*
X111903000Y-52416967D01*
X111903000Y-52739033D01*
X111965832Y-53054912D01*
X112089082Y-53352463D01*
X112268013Y-53620252D01*
X112495748Y-53847987D01*
X112763537Y-54026918D01*
X113061088Y-54150168D01*
X113376967Y-54213000D01*
X113699033Y-54213000D01*
X114014912Y-54150168D01*
X114312463Y-54026918D01*
X114580252Y-53847987D01*
X114807987Y-53620252D01*
X114986918Y-53352463D01*
X115110168Y-53054912D01*
X115173000Y-52739033D01*
X115173000Y-52416967D01*
X119523000Y-52416967D01*
X119523000Y-52739033D01*
X119585832Y-53054912D01*
X119709082Y-53352463D01*
X119888013Y-53620252D01*
X120115748Y-53847987D01*
X120383537Y-54026918D01*
X120681088Y-54150168D01*
X120996967Y-54213000D01*
X121319033Y-54213000D01*
X121634912Y-54150168D01*
X121932463Y-54026918D01*
X122200252Y-53847987D01*
X122427987Y-53620252D01*
X122606918Y-53352463D01*
X122730168Y-53054912D01*
X122793000Y-52739033D01*
X122793000Y-52416967D01*
X122730168Y-52101088D01*
X122606918Y-51803537D01*
X122427987Y-51535748D01*
X122200252Y-51308013D01*
X121932463Y-51129082D01*
X121634912Y-51005832D01*
X121319033Y-50943000D01*
X120996967Y-50943000D01*
X120681088Y-51005832D01*
X120383537Y-51129082D01*
X120115748Y-51308013D01*
X119888013Y-51535748D01*
X119709082Y-51803537D01*
X119585832Y-52101088D01*
X119523000Y-52416967D01*
X115173000Y-52416967D01*
X115110168Y-52101088D01*
X114986918Y-51803537D01*
X114807987Y-51535748D01*
X114580252Y-51308013D01*
X114312463Y-51129082D01*
X114014912Y-51005832D01*
X113699033Y-50943000D01*
X113376967Y-50943000D01*
X113061088Y-51005832D01*
X112763537Y-51129082D01*
X112495748Y-51308013D01*
X112268013Y-51535748D01*
X112089082Y-51803537D01*
X111965832Y-52101088D01*
X111903000Y-52416967D01*
X111874072Y-52416967D01*
X111874072Y-51451000D01*
X111861812Y-51326518D01*
X111825502Y-51206820D01*
X111766537Y-51096506D01*
X111687185Y-50999815D01*
X111590494Y-50920463D01*
X111480180Y-50861498D01*
X111360482Y-50825188D01*
X111236000Y-50812928D01*
X109236000Y-50812928D01*
X109111518Y-50825188D01*
X108991820Y-50861498D01*
X108881506Y-50920463D01*
X108784815Y-50999815D01*
X108705463Y-51096506D01*
X108680809Y-51142630D01*
X108470463Y-51002082D01*
X108172912Y-50878832D01*
X107857033Y-50816000D01*
X107534967Y-50816000D01*
X107219088Y-50878832D01*
X106921537Y-51002082D01*
X106653748Y-51181013D01*
X106426013Y-51408748D01*
X106247082Y-51676537D01*
X106123832Y-51974088D01*
X106061000Y-52289967D01*
X105537000Y-52289967D01*
X105537000Y-47918000D01*
X106461928Y-47918000D01*
X106461928Y-49618000D01*
X106474188Y-49742482D01*
X106510498Y-49862180D01*
X106569463Y-49972494D01*
X106648815Y-50069185D01*
X106745506Y-50148537D01*
X106855820Y-50207502D01*
X106975518Y-50243812D01*
X107100000Y-50256072D01*
X108800000Y-50256072D01*
X108924482Y-50243812D01*
X109044180Y-50207502D01*
X109154494Y-50148537D01*
X109220000Y-50094778D01*
X109285506Y-50148537D01*
X109395820Y-50207502D01*
X109515518Y-50243812D01*
X109640000Y-50256072D01*
X110204250Y-50253000D01*
X110363000Y-50094250D01*
X110363000Y-48895000D01*
X110343000Y-48895000D01*
X110343000Y-48641000D01*
X110363000Y-48641000D01*
X110363000Y-47441750D01*
X110617000Y-47441750D01*
X110617000Y-48641000D01*
X110637000Y-48641000D01*
X110637000Y-48895000D01*
X110617000Y-48895000D01*
X110617000Y-50094250D01*
X110775750Y-50253000D01*
X111340000Y-50256072D01*
X111464482Y-50243812D01*
X111584180Y-50207502D01*
X111694494Y-50148537D01*
X111760000Y-50094778D01*
X111825506Y-50148537D01*
X111935820Y-50207502D01*
X112055518Y-50243812D01*
X112180000Y-50256072D01*
X113880000Y-50256072D01*
X114004482Y-50243812D01*
X114124180Y-50207502D01*
X114234494Y-50148537D01*
X114300000Y-50094778D01*
X114365506Y-50148537D01*
X114475820Y-50207502D01*
X114595518Y-50243812D01*
X114720000Y-50256072D01*
X116420000Y-50256072D01*
X116544482Y-50243812D01*
X116664180Y-50207502D01*
X116774494Y-50148537D01*
X116840000Y-50094778D01*
X116905506Y-50148537D01*
X117015820Y-50207502D01*
X117135518Y-50243812D01*
X117260000Y-50256072D01*
X118960000Y-50256072D01*
X119084482Y-50243812D01*
X119204180Y-50207502D01*
X119314494Y-50148537D01*
X119380000Y-50094778D01*
X119445506Y-50148537D01*
X119555820Y-50207502D01*
X119675518Y-50243812D01*
X119800000Y-50256072D01*
X121500000Y-50256072D01*
X121624482Y-50243812D01*
X121744180Y-50207502D01*
X121854494Y-50148537D01*
X121951185Y-50069185D01*
X122030537Y-49972494D01*
X122089502Y-49862180D01*
X122125812Y-49742482D01*
X122138072Y-49618000D01*
X122138072Y-47918000D01*
X122125812Y-47793518D01*
X122089502Y-47673820D01*
X122030537Y-47563506D01*
X121951185Y-47466815D01*
X121854494Y-47387463D01*
X121744180Y-47328498D01*
X121624482Y-47292188D01*
X121500000Y-47279928D01*
X119800000Y-47279928D01*
X119675518Y-47292188D01*
X119555820Y-47328498D01*
X119445506Y-47387463D01*
X119380000Y-47441222D01*
X119314494Y-47387463D01*
X119204180Y-47328498D01*
X119084482Y-47292188D01*
X118960000Y-47279928D01*
X117260000Y-47279928D01*
X117135518Y-47292188D01*
X117015820Y-47328498D01*
X116905506Y-47387463D01*
X116840000Y-47441222D01*
X116774494Y-47387463D01*
X116664180Y-47328498D01*
X116544482Y-47292188D01*
X116420000Y-47279928D01*
X114720000Y-47279928D01*
X114595518Y-47292188D01*
X114475820Y-47328498D01*
X114365506Y-47387463D01*
X114300000Y-47441222D01*
X114234494Y-47387463D01*
X114124180Y-47328498D01*
X114004482Y-47292188D01*
X113880000Y-47279928D01*
X112180000Y-47279928D01*
X112055518Y-47292188D01*
X111935820Y-47328498D01*
X111825506Y-47387463D01*
X111760000Y-47441222D01*
X111694494Y-47387463D01*
X111584180Y-47328498D01*
X111464482Y-47292188D01*
X111340000Y-47279928D01*
X110775750Y-47283000D01*
X110617000Y-47441750D01*
X110363000Y-47441750D01*
X110204250Y-47283000D01*
X109640000Y-47279928D01*
X109515518Y-47292188D01*
X109395820Y-47328498D01*
X109285506Y-47387463D01*
X109220000Y-47441222D01*
X109154494Y-47387463D01*
X109044180Y-47328498D01*
X108924482Y-47292188D01*
X108800000Y-47279928D01*
X107100000Y-47279928D01*
X106975518Y-47292188D01*
X106855820Y-47328498D01*
X106745506Y-47387463D01*
X106648815Y-47466815D01*
X106569463Y-47563506D01*
X106510498Y-47673820D01*
X106474188Y-47793518D01*
X106461928Y-47918000D01*
X105537000Y-47918000D01*
X105537000Y-46210687D01*
X105577176Y-46161426D01*
X105706626Y-46054336D01*
X105854414Y-45974428D01*
X106014902Y-45924748D01*
X106212306Y-45904000D01*
X122379723Y-45904000D01*
X122579200Y-45923559D01*
G37*
X122579200Y-45923559D02*
X122740041Y-45972120D01*
X122888378Y-46050992D01*
X123018574Y-46157176D01*
X123063000Y-46210878D01*
X123063000Y-71628000D01*
X105537000Y-71628000D01*
X105537000Y-68643160D01*
X106533840Y-68643160D01*
X106591304Y-68861427D01*
X106757401Y-69224988D01*
X106991234Y-69549159D01*
X107283817Y-69821483D01*
X107623906Y-70031494D01*
X107998431Y-70171122D01*
X108393000Y-70235000D01*
X109093000Y-70235000D01*
X109093000Y-68327000D01*
X109347000Y-68327000D01*
X109347000Y-70235000D01*
X110047000Y-70235000D01*
X110441569Y-70171122D01*
X110816094Y-70031494D01*
X111156183Y-69821483D01*
X111448766Y-69549159D01*
X111682599Y-69224988D01*
X111760000Y-69055569D01*
X111837401Y-69224988D01*
X112071234Y-69549159D01*
X112363817Y-69821483D01*
X112703906Y-70031494D01*
X113078431Y-70171122D01*
X113473000Y-70235000D01*
X114173000Y-70235000D01*
X114173000Y-68327000D01*
X109347000Y-68327000D01*
X109093000Y-68327000D01*
X106648053Y-68327000D01*
X106533840Y-68643160D01*
X105537000Y-68643160D01*
X105537000Y-67756840D01*
X106533840Y-67756840D01*
X106648053Y-68073000D01*
X109093000Y-68073000D01*
X109093000Y-66165000D01*
X109347000Y-66165000D01*
X109347000Y-68073000D01*
X114173000Y-68073000D01*
X114173000Y-66165000D01*
X114427000Y-66165000D01*
X114427000Y-68073000D01*
X114447000Y-68073000D01*
X114447000Y-68327000D01*
X114427000Y-68327000D01*
X114427000Y-70235000D01*
X115127000Y-70235000D01*
X115521569Y-70171122D01*
X115896094Y-70031494D01*
X116236183Y-69821483D01*
X116528766Y-69549159D01*
X116762599Y-69224988D01*
X116835322Y-69065808D01*
X116979773Y-69336056D01*
X117234076Y-69645924D01*
X117543944Y-69900227D01*
X117897471Y-70089191D01*
X118281070Y-70205555D01*
X118580031Y-70235000D01*
X120179969Y-70235000D01*
X120478930Y-70205555D01*
X120862529Y-70089191D01*
X121216056Y-69900227D01*
X121525924Y-69645924D01*
X121780227Y-69336056D01*
X121969191Y-68982529D01*
X122085555Y-68598930D01*
X122124846Y-68200000D01*
X122085555Y-67801070D01*
X121969191Y-67417471D01*
X121780227Y-67063944D01*
X121525924Y-66754076D01*
X121216056Y-66499773D01*
X120862529Y-66310809D01*
X120478930Y-66194445D01*
X120179969Y-66165000D01*
X118580031Y-66165000D01*
X118281070Y-66194445D01*
X117897471Y-66310809D01*
X117543944Y-66499773D01*
X117234076Y-66754076D01*
X116979773Y-67063944D01*
X116835322Y-67334192D01*
X116762599Y-67175012D01*
X116528766Y-66850841D01*
X116236183Y-66578517D01*
X115896094Y-66368506D01*
X115521569Y-66228878D01*
X115127000Y-66165000D01*
X114427000Y-66165000D01*
X114173000Y-66165000D01*
X113473000Y-66165000D01*
X113078431Y-66228878D01*
X112703906Y-66368506D01*
X112363817Y-66578517D01*
X112071234Y-66850841D01*
X111837401Y-67175012D01*
X111760000Y-67344431D01*
X111682599Y-67175012D01*
X111448766Y-66850841D01*
X111156183Y-66578517D01*
X110816094Y-66368506D01*
X110441569Y-66228878D01*
X110047000Y-66165000D01*
X109347000Y-66165000D01*
X109093000Y-66165000D01*
X108393000Y-66165000D01*
X107998431Y-66228878D01*
X107623906Y-66368506D01*
X107283817Y-66578517D01*
X106991234Y-66850841D01*
X106757401Y-67175012D01*
X106591304Y-67538573D01*
X106533840Y-67756840D01*
X105537000Y-67756840D01*
X105537000Y-63943160D01*
X106533840Y-63943160D01*
X106591304Y-64161427D01*
X106757401Y-64524988D01*
X106991234Y-64849159D01*
X107283817Y-65121483D01*
X107623906Y-65331494D01*
X107998431Y-65471122D01*
X108393000Y-65535000D01*
X109093000Y-65535000D01*
X109093000Y-63627000D01*
X106648053Y-63627000D01*
X106533840Y-63943160D01*
X105537000Y-63943160D01*
X105537000Y-63056840D01*
X106533840Y-63056840D01*
X106648053Y-63373000D01*
X109093000Y-63373000D01*
X109093000Y-61465000D01*
X109347000Y-61465000D01*
X109347000Y-63373000D01*
X109367000Y-63373000D01*
X109367000Y-63627000D01*
X109347000Y-63627000D01*
X109347000Y-65535000D01*
X110047000Y-65535000D01*
X110441569Y-65471122D01*
X110816094Y-65331494D01*
X111156183Y-65121483D01*
X111448766Y-64849159D01*
X111682599Y-64524988D01*
X111755322Y-64365808D01*
X111899773Y-64636056D01*
X112154076Y-64945924D01*
X112463944Y-65200227D01*
X112817471Y-65389191D01*
X113201070Y-65505555D01*
X113500031Y-65535000D01*
X115099969Y-65535000D01*
X115398930Y-65505555D01*
X115782529Y-65389191D01*
X116136056Y-65200227D01*
X116445924Y-64945924D01*
X116700227Y-64636056D01*
X116840000Y-64374559D01*
X116979773Y-64636056D01*
X117234076Y-64945924D01*
X117543944Y-65200227D01*
X117897471Y-65389191D01*
X118281070Y-65505555D01*
X118580031Y-65535000D01*
X120179969Y-65535000D01*
X120478930Y-65505555D01*
X120862529Y-65389191D01*
X121216056Y-65200227D01*
X121525924Y-64945924D01*
X121780227Y-64636056D01*
X121969191Y-64282529D01*
X122085555Y-63898930D01*
X122124846Y-63500000D01*
X122085555Y-63101070D01*
X121969191Y-62717471D01*
X121780227Y-62363944D01*
X121525924Y-62054076D01*
X121216056Y-61799773D01*
X120862529Y-61610809D01*
X120478930Y-61494445D01*
X120179969Y-61465000D01*
X118580031Y-61465000D01*
X118281070Y-61494445D01*
X117897471Y-61610809D01*
X117543944Y-61799773D01*
X117234076Y-62054076D01*
X116979773Y-62363944D01*
X116840000Y-62625441D01*
X116700227Y-62363944D01*
X116445924Y-62054076D01*
X116136056Y-61799773D01*
X115782529Y-61610809D01*
X115398930Y-61494445D01*
X115099969Y-61465000D01*
X113500031Y-61465000D01*
X113201070Y-61494445D01*
X112817471Y-61610809D01*
X112463944Y-61799773D01*
X112154076Y-62054076D01*
X111899773Y-62363944D01*
X111755322Y-62634192D01*
X111682599Y-62475012D01*
X111448766Y-62150841D01*
X111156183Y-61878517D01*
X110816094Y-61668506D01*
X110441569Y-61528878D01*
X110047000Y-61465000D01*
X109347000Y-61465000D01*
X109093000Y-61465000D01*
X108393000Y-61465000D01*
X107998431Y-61528878D01*
X107623906Y-61668506D01*
X107283817Y-61878517D01*
X106991234Y-62150841D01*
X106757401Y-62475012D01*
X106591304Y-62838573D01*
X106533840Y-63056840D01*
X105537000Y-63056840D01*
X105537000Y-56892000D01*
X106673928Y-56892000D01*
X106673928Y-60708000D01*
X106686188Y-60832482D01*
X106722498Y-60952180D01*
X106781463Y-61062494D01*
X106860815Y-61159185D01*
X106957506Y-61238537D01*
X107067820Y-61297502D01*
X107187518Y-61333812D01*
X107312000Y-61346072D01*
X111128000Y-61346072D01*
X111252482Y-61333812D01*
X111372180Y-61297502D01*
X111482494Y-61238537D01*
X111579185Y-61159185D01*
X111658537Y-61062494D01*
X111717502Y-60952180D01*
X111753812Y-60832482D01*
X111766072Y-60708000D01*
X111766072Y-59685919D01*
X111899773Y-59936056D01*
X112154076Y-60245924D01*
X112463944Y-60500227D01*
X112817471Y-60689191D01*
X113201070Y-60805555D01*
X113500031Y-60835000D01*
X115099969Y-60835000D01*
X115398930Y-60805555D01*
X115782529Y-60689191D01*
X116136056Y-60500227D01*
X116445924Y-60245924D01*
X116700227Y-59936056D01*
X116840000Y-59674559D01*
X116979773Y-59936056D01*
X117234076Y-60245924D01*
X117543944Y-60500227D01*
X117897471Y-60689191D01*
X118281070Y-60805555D01*
X118580031Y-60835000D01*
X120179969Y-60835000D01*
X120478930Y-60805555D01*
X120862529Y-60689191D01*
X121216056Y-60500227D01*
X121525924Y-60245924D01*
X121780227Y-59936056D01*
X121969191Y-59582529D01*
X122085555Y-59198930D01*
X122124846Y-58800000D01*
X122085555Y-58401070D01*
X121969191Y-58017471D01*
X121780227Y-57663944D01*
X121525924Y-57354076D01*
X121216056Y-57099773D01*
X120862529Y-56910809D01*
X120478930Y-56794445D01*
X120179969Y-56765000D01*
X118580031Y-56765000D01*
X118281070Y-56794445D01*
X117897471Y-56910809D01*
X117543944Y-57099773D01*
X117234076Y-57354076D01*
X116979773Y-57663944D01*
X116840000Y-57925441D01*
X116700227Y-57663944D01*
X116445924Y-57354076D01*
X116136056Y-57099773D01*
X115782529Y-56910809D01*
X115398930Y-56794445D01*
X115099969Y-56765000D01*
X113500031Y-56765000D01*
X113201070Y-56794445D01*
X112817471Y-56910809D01*
X112463944Y-57099773D01*
X112154076Y-57354076D01*
X111899773Y-57663944D01*
X111766072Y-57914081D01*
X111766072Y-56892000D01*
X111753812Y-56767518D01*
X111717502Y-56647820D01*
X111658537Y-56537506D01*
X111579185Y-56440815D01*
X111482494Y-56361463D01*
X111372180Y-56302498D01*
X111252482Y-56266188D01*
X111128000Y-56253928D01*
X107312000Y-56253928D01*
X107187518Y-56266188D01*
X107067820Y-56302498D01*
X106957506Y-56361463D01*
X106860815Y-56440815D01*
X106781463Y-56537506D01*
X106722498Y-56647820D01*
X106686188Y-56767518D01*
X106673928Y-56892000D01*
X105537000Y-56892000D01*
X105537000Y-52289967D01*
X106061000Y-52289967D01*
X106061000Y-52612033D01*
X106123832Y-52927912D01*
X106247082Y-53225463D01*
X106426013Y-53493252D01*
X106653748Y-53720987D01*
X106921537Y-53899918D01*
X107219088Y-54023168D01*
X107534967Y-54086000D01*
X107857033Y-54086000D01*
X108172912Y-54023168D01*
X108470463Y-53899918D01*
X108680809Y-53759370D01*
X108705463Y-53805494D01*
X108784815Y-53902185D01*
X108881506Y-53981537D01*
X108991820Y-54040502D01*
X109111518Y-54076812D01*
X109236000Y-54089072D01*
X111236000Y-54089072D01*
X111360482Y-54076812D01*
X111480180Y-54040502D01*
X111590494Y-53981537D01*
X111687185Y-53902185D01*
X111766537Y-53805494D01*
X111825502Y-53695180D01*
X111861812Y-53575482D01*
X111874072Y-53451000D01*
X111874072Y-52416967D01*
X111903000Y-52416967D01*
X111903000Y-52739033D01*
X111965832Y-53054912D01*
X112089082Y-53352463D01*
X112268013Y-53620252D01*
X112495748Y-53847987D01*
X112763537Y-54026918D01*
X113061088Y-54150168D01*
X113376967Y-54213000D01*
X113699033Y-54213000D01*
X114014912Y-54150168D01*
X114312463Y-54026918D01*
X114580252Y-53847987D01*
X114807987Y-53620252D01*
X114986918Y-53352463D01*
X115110168Y-53054912D01*
X115173000Y-52739033D01*
X115173000Y-52416967D01*
X119523000Y-52416967D01*
X119523000Y-52739033D01*
X119585832Y-53054912D01*
X119709082Y-53352463D01*
X119888013Y-53620252D01*
X120115748Y-53847987D01*
X120383537Y-54026918D01*
X120681088Y-54150168D01*
X120996967Y-54213000D01*
X121319033Y-54213000D01*
X121634912Y-54150168D01*
X121932463Y-54026918D01*
X122200252Y-53847987D01*
X122427987Y-53620252D01*
X122606918Y-53352463D01*
X122730168Y-53054912D01*
X122793000Y-52739033D01*
X122793000Y-52416967D01*
X122730168Y-52101088D01*
X122606918Y-51803537D01*
X122427987Y-51535748D01*
X122200252Y-51308013D01*
X121932463Y-51129082D01*
X121634912Y-51005832D01*
X121319033Y-50943000D01*
X120996967Y-50943000D01*
X120681088Y-51005832D01*
X120383537Y-51129082D01*
X120115748Y-51308013D01*
X119888013Y-51535748D01*
X119709082Y-51803537D01*
X119585832Y-52101088D01*
X119523000Y-52416967D01*
X115173000Y-52416967D01*
X115110168Y-52101088D01*
X114986918Y-51803537D01*
X114807987Y-51535748D01*
X114580252Y-51308013D01*
X114312463Y-51129082D01*
X114014912Y-51005832D01*
X113699033Y-50943000D01*
X113376967Y-50943000D01*
X113061088Y-51005832D01*
X112763537Y-51129082D01*
X112495748Y-51308013D01*
X112268013Y-51535748D01*
X112089082Y-51803537D01*
X111965832Y-52101088D01*
X111903000Y-52416967D01*
X111874072Y-52416967D01*
X111874072Y-51451000D01*
X111861812Y-51326518D01*
X111825502Y-51206820D01*
X111766537Y-51096506D01*
X111687185Y-50999815D01*
X111590494Y-50920463D01*
X111480180Y-50861498D01*
X111360482Y-50825188D01*
X111236000Y-50812928D01*
X109236000Y-50812928D01*
X109111518Y-50825188D01*
X108991820Y-50861498D01*
X108881506Y-50920463D01*
X108784815Y-50999815D01*
X108705463Y-51096506D01*
X108680809Y-51142630D01*
X108470463Y-51002082D01*
X108172912Y-50878832D01*
X107857033Y-50816000D01*
X107534967Y-50816000D01*
X107219088Y-50878832D01*
X106921537Y-51002082D01*
X106653748Y-51181013D01*
X106426013Y-51408748D01*
X106247082Y-51676537D01*
X106123832Y-51974088D01*
X106061000Y-52289967D01*
X105537000Y-52289967D01*
X105537000Y-47918000D01*
X106461928Y-47918000D01*
X106461928Y-49618000D01*
X106474188Y-49742482D01*
X106510498Y-49862180D01*
X106569463Y-49972494D01*
X106648815Y-50069185D01*
X106745506Y-50148537D01*
X106855820Y-50207502D01*
X106975518Y-50243812D01*
X107100000Y-50256072D01*
X108800000Y-50256072D01*
X108924482Y-50243812D01*
X109044180Y-50207502D01*
X109154494Y-50148537D01*
X109220000Y-50094778D01*
X109285506Y-50148537D01*
X109395820Y-50207502D01*
X109515518Y-50243812D01*
X109640000Y-50256072D01*
X110204250Y-50253000D01*
X110363000Y-50094250D01*
X110363000Y-48895000D01*
X110343000Y-48895000D01*
X110343000Y-48641000D01*
X110363000Y-48641000D01*
X110363000Y-47441750D01*
X110617000Y-47441750D01*
X110617000Y-48641000D01*
X110637000Y-48641000D01*
X110637000Y-48895000D01*
X110617000Y-48895000D01*
X110617000Y-50094250D01*
X110775750Y-50253000D01*
X111340000Y-50256072D01*
X111464482Y-50243812D01*
X111584180Y-50207502D01*
X111694494Y-50148537D01*
X111760000Y-50094778D01*
X111825506Y-50148537D01*
X111935820Y-50207502D01*
X112055518Y-50243812D01*
X112180000Y-50256072D01*
X113880000Y-50256072D01*
X114004482Y-50243812D01*
X114124180Y-50207502D01*
X114234494Y-50148537D01*
X114300000Y-50094778D01*
X114365506Y-50148537D01*
X114475820Y-50207502D01*
X114595518Y-50243812D01*
X114720000Y-50256072D01*
X116420000Y-50256072D01*
X116544482Y-50243812D01*
X116664180Y-50207502D01*
X116774494Y-50148537D01*
X116840000Y-50094778D01*
X116905506Y-50148537D01*
X117015820Y-50207502D01*
X117135518Y-50243812D01*
X117260000Y-50256072D01*
X118960000Y-50256072D01*
X119084482Y-50243812D01*
X119204180Y-50207502D01*
X119314494Y-50148537D01*
X119380000Y-50094778D01*
X119445506Y-50148537D01*
X119555820Y-50207502D01*
X119675518Y-50243812D01*
X119800000Y-50256072D01*
X121500000Y-50256072D01*
X121624482Y-50243812D01*
X121744180Y-50207502D01*
X121854494Y-50148537D01*
X121951185Y-50069185D01*
X122030537Y-49972494D01*
X122089502Y-49862180D01*
X122125812Y-49742482D01*
X122138072Y-49618000D01*
X122138072Y-47918000D01*
X122125812Y-47793518D01*
X122089502Y-47673820D01*
X122030537Y-47563506D01*
X121951185Y-47466815D01*
X121854494Y-47387463D01*
X121744180Y-47328498D01*
X121624482Y-47292188D01*
X121500000Y-47279928D01*
X119800000Y-47279928D01*
X119675518Y-47292188D01*
X119555820Y-47328498D01*
X119445506Y-47387463D01*
X119380000Y-47441222D01*
X119314494Y-47387463D01*
X119204180Y-47328498D01*
X119084482Y-47292188D01*
X118960000Y-47279928D01*
X117260000Y-47279928D01*
X117135518Y-47292188D01*
X117015820Y-47328498D01*
X116905506Y-47387463D01*
X116840000Y-47441222D01*
X116774494Y-47387463D01*
X116664180Y-47328498D01*
X116544482Y-47292188D01*
X116420000Y-47279928D01*
X114720000Y-47279928D01*
X114595518Y-47292188D01*
X114475820Y-47328498D01*
X114365506Y-47387463D01*
X114300000Y-47441222D01*
X114234494Y-47387463D01*
X114124180Y-47328498D01*
X114004482Y-47292188D01*
X113880000Y-47279928D01*
X112180000Y-47279928D01*
X112055518Y-47292188D01*
X111935820Y-47328498D01*
X111825506Y-47387463D01*
X111760000Y-47441222D01*
X111694494Y-47387463D01*
X111584180Y-47328498D01*
X111464482Y-47292188D01*
X111340000Y-47279928D01*
X110775750Y-47283000D01*
X110617000Y-47441750D01*
X110363000Y-47441750D01*
X110204250Y-47283000D01*
X109640000Y-47279928D01*
X109515518Y-47292188D01*
X109395820Y-47328498D01*
X109285506Y-47387463D01*
X109220000Y-47441222D01*
X109154494Y-47387463D01*
X109044180Y-47328498D01*
X108924482Y-47292188D01*
X108800000Y-47279928D01*
X107100000Y-47279928D01*
X106975518Y-47292188D01*
X106855820Y-47328498D01*
X106745506Y-47387463D01*
X106648815Y-47466815D01*
X106569463Y-47563506D01*
X106510498Y-47673820D01*
X106474188Y-47793518D01*
X106461928Y-47918000D01*
X105537000Y-47918000D01*
X105537000Y-46210687D01*
X105577176Y-46161426D01*
X105706626Y-46054336D01*
X105854414Y-45974428D01*
X106014902Y-45924748D01*
X106212306Y-45904000D01*
X122379723Y-45904000D01*
X122579200Y-45923559D01*
M02*
