M48
; DRILL file {KiCad (5.1.5-0-10_14)} date 2020 November 20, Friday 21:32:44
; FORMAT={-:-/ absolute / inch / decimal}
; #@! TF.CreationDate,2020-11-20T21:32:44+01:00
; #@! TF.GenerationSoftware,Kicad,Pcbnew,(5.1.5-0-10_14)
FMAT,2
INCH
T1C0.0394
T2C0.0630
%
G90
G05
T1
X4.24Y-2.065
X4.34Y-2.065
X4.75Y-1.92
X4.55Y-1.92
X4.25Y-1.92
X4.47Y-2.07
X4.77Y-2.07
X4.45Y-1.92
X4.35Y-1.92
X4.65Y-1.92
T2
G00X4.3236Y-2.315
M15
G01X4.2764Y-2.315
M16
G05
G00X4.3236Y-2.5
M15
G01X4.2764Y-2.5
M16
G05
G00X4.3236Y-2.685
M15
G01X4.2764Y-2.685
M16
G05
G00X4.5236Y-2.315
M15
G01X4.4764Y-2.315
M16
G05
G00X4.5236Y-2.5
M15
G01X4.4764Y-2.5
M16
G05
G00X4.5236Y-2.685
M15
G01X4.4764Y-2.685
M16
G05
G00X4.7236Y-2.315
M15
G01X4.6764Y-2.315
M16
G05
G00X4.7236Y-2.5
M15
G01X4.6764Y-2.5
M16
G05
G00X4.7236Y-2.685
M15
G01X4.6764Y-2.685
M16
G05
T0
M30
