G04 #@! TF.GenerationSoftware,KiCad,Pcbnew,(5.1.5-0-10_14)*
G04 #@! TF.CreationDate,2020-11-20T21:35:50+01:00*
G04 #@! TF.ProjectId,3pdt-90deg,33706474-2d39-4306-9465-672e6b696361,rev?*
G04 #@! TF.SameCoordinates,Original*
G04 #@! TF.FileFunction,Legend,Top*
G04 #@! TF.FilePolarity,Positive*
%FSLAX46Y46*%
G04 Gerber Fmt 4.6, Leading zero omitted, Abs format (unit mm)*
G04 Created by KiCad (PCBNEW (5.1.5-0-10_14)) date 2020-11-20 21:35:50*
%MOMM*%
%LPD*%
G04 APERTURE LIST*
%ADD10C,0.010000*%
%ADD11C,0.120000*%
%ADD12C,0.127000*%
%ADD13C,0.152400*%
%ADD14C,0.150000*%
G04 APERTURE END LIST*
D10*
G36*
X155896419Y-56569876D02*
G01*
X155880740Y-56585555D01*
X155865061Y-56569876D01*
X155880740Y-56554197D01*
X155896419Y-56569876D01*
G37*
X155896419Y-56569876D02*
X155880740Y-56585555D01*
X155865061Y-56569876D01*
X155880740Y-56554197D01*
X155896419Y-56569876D01*
G36*
X154414926Y-56006784D02*
G01*
X154563469Y-56011860D01*
X154679456Y-56022188D01*
X154777946Y-56039299D01*
X154873999Y-56064721D01*
X154908642Y-56075486D01*
X155016812Y-56114742D01*
X155135029Y-56165051D01*
X155250481Y-56219893D01*
X155350354Y-56272747D01*
X155421835Y-56317091D01*
X155452112Y-56346405D01*
X155451027Y-56351524D01*
X155416708Y-56350280D01*
X155342409Y-56333676D01*
X155287256Y-56318141D01*
X155113707Y-56288975D01*
X154954220Y-56305825D01*
X154823949Y-56366728D01*
X154806974Y-56380306D01*
X154750866Y-56447933D01*
X154748436Y-56512078D01*
X154797161Y-56577015D01*
X154883886Y-56627069D01*
X154983900Y-56648224D01*
X154988512Y-56648271D01*
X155041216Y-56661332D01*
X155037734Y-56699292D01*
X154978612Y-56760318D01*
X154947839Y-56784563D01*
X154790306Y-56872711D01*
X154592834Y-56937331D01*
X154374942Y-56974847D01*
X154156149Y-56981686D01*
X153985000Y-56960910D01*
X153784950Y-56901148D01*
X153619507Y-56816422D01*
X153494094Y-56712765D01*
X153414136Y-56596210D01*
X153385056Y-56472790D01*
X153412276Y-56348539D01*
X153420239Y-56332630D01*
X153433501Y-56289944D01*
X153409752Y-56273117D01*
X153342963Y-56282191D01*
X153227102Y-56317205D01*
X153177544Y-56334294D01*
X153081601Y-56365333D01*
X153012164Y-56382774D01*
X152987262Y-56383641D01*
X152997197Y-56355660D01*
X153053017Y-56310274D01*
X153142779Y-56254348D01*
X153254539Y-56194751D01*
X153376354Y-56138349D01*
X153491819Y-56093533D01*
X153597579Y-56058834D01*
X153688830Y-56034633D01*
X153780992Y-56019061D01*
X153889484Y-56010249D01*
X154029726Y-56006329D01*
X154217139Y-56005432D01*
X154218765Y-56005432D01*
X154414926Y-56006784D01*
G37*
X154414926Y-56006784D02*
X154563469Y-56011860D01*
X154679456Y-56022188D01*
X154777946Y-56039299D01*
X154873999Y-56064721D01*
X154908642Y-56075486D01*
X155016812Y-56114742D01*
X155135029Y-56165051D01*
X155250481Y-56219893D01*
X155350354Y-56272747D01*
X155421835Y-56317091D01*
X155452112Y-56346405D01*
X155451027Y-56351524D01*
X155416708Y-56350280D01*
X155342409Y-56333676D01*
X155287256Y-56318141D01*
X155113707Y-56288975D01*
X154954220Y-56305825D01*
X154823949Y-56366728D01*
X154806974Y-56380306D01*
X154750866Y-56447933D01*
X154748436Y-56512078D01*
X154797161Y-56577015D01*
X154883886Y-56627069D01*
X154983900Y-56648224D01*
X154988512Y-56648271D01*
X155041216Y-56661332D01*
X155037734Y-56699292D01*
X154978612Y-56760318D01*
X154947839Y-56784563D01*
X154790306Y-56872711D01*
X154592834Y-56937331D01*
X154374942Y-56974847D01*
X154156149Y-56981686D01*
X153985000Y-56960910D01*
X153784950Y-56901148D01*
X153619507Y-56816422D01*
X153494094Y-56712765D01*
X153414136Y-56596210D01*
X153385056Y-56472790D01*
X153412276Y-56348539D01*
X153420239Y-56332630D01*
X153433501Y-56289944D01*
X153409752Y-56273117D01*
X153342963Y-56282191D01*
X153227102Y-56317205D01*
X153177544Y-56334294D01*
X153081601Y-56365333D01*
X153012164Y-56382774D01*
X152987262Y-56383641D01*
X152997197Y-56355660D01*
X153053017Y-56310274D01*
X153142779Y-56254348D01*
X153254539Y-56194751D01*
X153376354Y-56138349D01*
X153491819Y-56093533D01*
X153597579Y-56058834D01*
X153688830Y-56034633D01*
X153780992Y-56019061D01*
X153889484Y-56010249D01*
X154029726Y-56006329D01*
X154217139Y-56005432D01*
X154218765Y-56005432D01*
X154414926Y-56006784D01*
G36*
X150040092Y-55250435D02*
G01*
X150138024Y-55284308D01*
X150233674Y-55329856D01*
X150308773Y-55378155D01*
X150345051Y-55420280D01*
X150346049Y-55426630D01*
X150372857Y-55449333D01*
X150423297Y-55456667D01*
X150490130Y-55480361D01*
X150585700Y-55545927D01*
X150701081Y-55645086D01*
X150827346Y-55769563D01*
X150955571Y-55911079D01*
X151076828Y-56061358D01*
X151080158Y-56065774D01*
X151327764Y-56438430D01*
X151514775Y-56818581D01*
X151571108Y-56967904D01*
X151612283Y-57083690D01*
X151646733Y-57174852D01*
X151668777Y-57226560D01*
X151672484Y-57232567D01*
X151710633Y-57230679D01*
X151776365Y-57193325D01*
X151855146Y-57131510D01*
X151932440Y-57056236D01*
X151977979Y-57001291D01*
X152083818Y-56886810D01*
X152227938Y-56770052D01*
X152388601Y-56666933D01*
X152525432Y-56600494D01*
X152650864Y-56550686D01*
X152541111Y-56637638D01*
X152339968Y-56822150D01*
X152194357Y-57014897D01*
X152141306Y-57114509D01*
X152094567Y-57229609D01*
X152074998Y-57330899D01*
X152076535Y-57453164D01*
X152078257Y-57476049D01*
X152107526Y-57653483D01*
X152169867Y-57808173D01*
X152273817Y-57955949D01*
X152415338Y-58101072D01*
X152661045Y-58288610D01*
X152951078Y-58442294D01*
X153276445Y-58561296D01*
X153628153Y-58644787D01*
X153997212Y-58691938D01*
X154374630Y-58701919D01*
X154751415Y-58673901D01*
X155118576Y-58607056D01*
X155467120Y-58500554D01*
X155692592Y-58403251D01*
X155951612Y-58254626D01*
X156154525Y-58089412D01*
X156306855Y-57902617D01*
X156369736Y-57791607D01*
X156423188Y-57675754D01*
X156451024Y-57586689D01*
X156458922Y-57496852D01*
X156453191Y-57386453D01*
X156421797Y-57206271D01*
X156353672Y-57045489D01*
X156241052Y-56890083D01*
X156098844Y-56746520D01*
X156018322Y-56670570D01*
X155963180Y-56613926D01*
X155943055Y-56586627D01*
X155944379Y-56585555D01*
X156005510Y-56604131D01*
X156099227Y-56653170D01*
X156210231Y-56722640D01*
X156323220Y-56802508D01*
X156422891Y-56882740D01*
X156478328Y-56935647D01*
X156639735Y-57145158D01*
X156740889Y-57360557D01*
X156783545Y-57578308D01*
X156769453Y-57794874D01*
X156700366Y-58006718D01*
X156578036Y-58210304D01*
X156404216Y-58402095D01*
X156180657Y-58578554D01*
X155909112Y-58736145D01*
X155591333Y-58871330D01*
X155504444Y-58901353D01*
X155105822Y-59006648D01*
X154689565Y-59067665D01*
X154265192Y-59085536D01*
X153842225Y-59061393D01*
X153430184Y-58996369D01*
X153038590Y-58891595D01*
X152676964Y-58748205D01*
X152354825Y-58567331D01*
X152284283Y-58518351D01*
X152104338Y-58372348D01*
X151969107Y-58221686D01*
X151862524Y-58046244D01*
X151804129Y-57917047D01*
X151727291Y-57730123D01*
X151726546Y-58202642D01*
X151731408Y-58472592D01*
X151749466Y-58691837D01*
X151784516Y-58871682D01*
X151840356Y-59023429D01*
X151920781Y-59158382D01*
X152029588Y-59287844D01*
X152121362Y-59378171D01*
X152373957Y-59574950D01*
X152680905Y-59745940D01*
X153038632Y-59889383D01*
X153346066Y-59979864D01*
X153446594Y-60003829D01*
X153541051Y-60021661D01*
X153641162Y-60034207D01*
X153758650Y-60042313D01*
X153905236Y-60046827D01*
X154092644Y-60048593D01*
X154297160Y-60048557D01*
X154525083Y-60047505D01*
X154702286Y-60044942D01*
X154840760Y-60039831D01*
X154952501Y-60031136D01*
X155049499Y-60017821D01*
X155143750Y-59998850D01*
X155247247Y-59973187D01*
X155284938Y-59963216D01*
X155563812Y-59874546D01*
X155834690Y-59761797D01*
X156083153Y-59632310D01*
X156294784Y-59493426D01*
X156426128Y-59382206D01*
X156585797Y-59206064D01*
X156695230Y-59032372D01*
X156763164Y-58842241D01*
X156798339Y-58616783D01*
X156801947Y-58569784D01*
X156821481Y-58278517D01*
X157480000Y-58655744D01*
X157719048Y-58794581D01*
X157908947Y-58909469D01*
X158056455Y-59004884D01*
X158168327Y-59085305D01*
X158251318Y-59155208D01*
X158286634Y-59190296D01*
X158351021Y-59261636D01*
X158402981Y-59329769D01*
X158443842Y-59402234D01*
X158474929Y-59486574D01*
X158497568Y-59590330D01*
X158513087Y-59721043D01*
X158522809Y-59886256D01*
X158528063Y-60093510D01*
X158530175Y-60350345D01*
X158530493Y-60577029D01*
X158530389Y-60839095D01*
X158529716Y-61045823D01*
X158527937Y-61204588D01*
X158524516Y-61322768D01*
X158518913Y-61407741D01*
X158510593Y-61466882D01*
X158499016Y-61507569D01*
X158483646Y-61537179D01*
X158463945Y-61563090D01*
X158458131Y-61570031D01*
X158431048Y-61610066D01*
X158406610Y-61666816D01*
X158382684Y-61749058D01*
X158357140Y-61865567D01*
X158327845Y-62025118D01*
X158292668Y-62236487D01*
X158285643Y-62280113D01*
X158237128Y-62586240D01*
X158198344Y-62842892D01*
X158168216Y-63062371D01*
X158145666Y-63256980D01*
X158129618Y-63439022D01*
X158118995Y-63620799D01*
X158112721Y-63814614D01*
X158109718Y-64032769D01*
X158108911Y-64287567D01*
X158108910Y-64299630D01*
X158111647Y-64649703D01*
X158120860Y-64951205D01*
X158137961Y-65218076D01*
X158164364Y-65464254D01*
X158201484Y-65703681D01*
X158250735Y-65950295D01*
X158296409Y-66148044D01*
X158335121Y-66296328D01*
X158369585Y-66396043D01*
X158405567Y-66460534D01*
X158448833Y-66503145D01*
X158450333Y-66504246D01*
X158544423Y-66603241D01*
X158614897Y-66734429D01*
X158649303Y-66871465D01*
X158649848Y-66926339D01*
X158638164Y-66993271D01*
X158607691Y-67044166D01*
X158544943Y-67095109D01*
X158467777Y-67143512D01*
X158366513Y-67198117D01*
X158277207Y-67235676D01*
X158227159Y-67247154D01*
X158136717Y-67219067D01*
X158046090Y-67145039D01*
X157965859Y-67040911D01*
X157906605Y-66922528D01*
X157878910Y-66805733D01*
X157883988Y-66733318D01*
X157922383Y-66662793D01*
X157990093Y-66594210D01*
X157998341Y-66588100D01*
X158093200Y-66520555D01*
X158029408Y-66417337D01*
X157957784Y-66282497D01*
X157879830Y-66103819D01*
X157802362Y-65898785D01*
X157732198Y-65684879D01*
X157699730Y-65571778D01*
X157588680Y-65055730D01*
X157523806Y-64499042D01*
X157505152Y-63903561D01*
X157532764Y-63271135D01*
X157606688Y-62603613D01*
X157624063Y-62485468D01*
X157646475Y-62331071D01*
X157663394Y-62200278D01*
X157673452Y-62104854D01*
X157675284Y-62056560D01*
X157674258Y-62053188D01*
X157644475Y-62064313D01*
X157568288Y-62102886D01*
X157453433Y-62164701D01*
X157307646Y-62245549D01*
X157138664Y-62341224D01*
X157031758Y-62402610D01*
X156402809Y-62765583D01*
X156371414Y-62913285D01*
X156343925Y-63056847D01*
X156311733Y-63247757D01*
X156276986Y-63471019D01*
X156241833Y-63711640D01*
X156208425Y-63954628D01*
X156178910Y-64184987D01*
X156155436Y-64387725D01*
X156144638Y-64495389D01*
X156131253Y-64696350D01*
X156123249Y-64937626D01*
X156120340Y-65206209D01*
X156122241Y-65489093D01*
X156128666Y-65773269D01*
X156139331Y-66045729D01*
X156153950Y-66293467D01*
X156172238Y-66503474D01*
X156191939Y-66651481D01*
X156239909Y-66917582D01*
X156284634Y-67129419D01*
X156328678Y-67295176D01*
X156374606Y-67423036D01*
X156424982Y-67521182D01*
X156482372Y-67597796D01*
X156491709Y-67607901D01*
X156596476Y-67743735D01*
X156659463Y-67880964D01*
X156674986Y-68005797D01*
X156669458Y-68039085D01*
X156629897Y-68099300D01*
X156549683Y-68168336D01*
X156447432Y-68234508D01*
X156341759Y-68286131D01*
X156251280Y-68311520D01*
X156233993Y-68312413D01*
X156139520Y-68282700D01*
X156046784Y-68206575D01*
X155967571Y-68099532D01*
X155913670Y-67977063D01*
X155896537Y-67868878D01*
X155908766Y-67778297D01*
X155956137Y-67709719D01*
X155995698Y-67675861D01*
X156094976Y-67598164D01*
X155981430Y-67367847D01*
X155811774Y-66960718D01*
X155680603Y-66507857D01*
X155588288Y-66013343D01*
X155535202Y-65481252D01*
X155521719Y-64915661D01*
X155548211Y-64320647D01*
X155615052Y-63700289D01*
X155633936Y-63569264D01*
X155653185Y-63430909D01*
X155666146Y-63316894D01*
X155671488Y-63240530D01*
X155669240Y-63215331D01*
X155638937Y-63225977D01*
X155562267Y-63264248D01*
X155446926Y-63325973D01*
X155300608Y-63406984D01*
X155131005Y-63503111D01*
X155015930Y-63569400D01*
X154378162Y-63939012D01*
X154336950Y-64142839D01*
X154293254Y-64382485D01*
X154249184Y-64666382D01*
X154207047Y-64976124D01*
X154169152Y-65293304D01*
X154137804Y-65599516D01*
X154115312Y-65876352D01*
X154110926Y-65945926D01*
X154097041Y-66625896D01*
X154134335Y-67293607D01*
X154221991Y-67938764D01*
X154299251Y-68314320D01*
X154335051Y-68453901D01*
X154370142Y-68550528D01*
X154413570Y-68623196D01*
X154474381Y-68690903D01*
X154482248Y-68698600D01*
X154574637Y-68812217D01*
X154636664Y-68936938D01*
X154662414Y-69056024D01*
X154645973Y-69152738D01*
X154644053Y-69156471D01*
X154593155Y-69212395D01*
X154504517Y-69278197D01*
X154399012Y-69341448D01*
X154297515Y-69389718D01*
X154220901Y-69410581D01*
X154217077Y-69410693D01*
X154156855Y-69389135D01*
X154082527Y-69334678D01*
X154056210Y-69309074D01*
X153961367Y-69195731D01*
X153909441Y-69093844D01*
X153890344Y-68981350D01*
X153889506Y-68944452D01*
X153897568Y-68855204D01*
X153931358Y-68799880D01*
X153983580Y-68763160D01*
X154046393Y-68721284D01*
X154077058Y-68691473D01*
X154077654Y-68689034D01*
X154064434Y-68654133D01*
X154029410Y-68578405D01*
X153979536Y-68476758D01*
X153967450Y-68452770D01*
X153847921Y-68180073D01*
X153739210Y-67859186D01*
X153645794Y-67504313D01*
X153600191Y-67287496D01*
X153578622Y-67169040D01*
X153561954Y-67059730D01*
X153549607Y-66949060D01*
X153541003Y-66826527D01*
X153535560Y-66681624D01*
X153532701Y-66503848D01*
X153531845Y-66282693D01*
X153532251Y-66055679D01*
X153533983Y-65772395D01*
X153537576Y-65540506D01*
X153543632Y-65348705D01*
X153552753Y-65185684D01*
X153565540Y-65040134D01*
X153582594Y-64900748D01*
X153599776Y-64785679D01*
X153623149Y-64633991D01*
X153641413Y-64506518D01*
X153652988Y-64415005D01*
X153656295Y-64371198D01*
X153655801Y-64369168D01*
X153627751Y-64382543D01*
X153550903Y-64424342D01*
X153430685Y-64491487D01*
X153272527Y-64580896D01*
X153081860Y-64689491D01*
X152864111Y-64814190D01*
X152624712Y-64951913D01*
X152412049Y-65074724D01*
X151177037Y-65789136D01*
X150800740Y-65786214D01*
X150418884Y-65762339D01*
X150003533Y-65699005D01*
X149566388Y-65600233D01*
X149119152Y-65470042D01*
X148673526Y-65312455D01*
X148241213Y-65131492D01*
X147833913Y-64931173D01*
X147463330Y-64715519D01*
X147238191Y-64562105D01*
X146825516Y-64223675D01*
X146447902Y-63840081D01*
X146115204Y-63421899D01*
X145962103Y-63192494D01*
X145885610Y-63067511D01*
X145837619Y-62978142D01*
X145812171Y-62907603D01*
X145803303Y-62839110D01*
X145805054Y-62755879D01*
X145805313Y-62751049D01*
X145814814Y-62575695D01*
X146000233Y-62827019D01*
X146158795Y-63022536D01*
X146355664Y-63235351D01*
X146575282Y-63450641D01*
X146802089Y-63653588D01*
X147020524Y-63829369D01*
X147148003Y-63920273D01*
X147463101Y-64114315D01*
X147824150Y-64307920D01*
X148214789Y-64493552D01*
X148618655Y-64663678D01*
X149019386Y-64810761D01*
X149225455Y-64876962D01*
X149428441Y-64934009D01*
X149655645Y-64990212D01*
X149892245Y-65042591D01*
X150123419Y-65088167D01*
X150334346Y-65123963D01*
X150510202Y-65147000D01*
X150603487Y-65153903D01*
X150832098Y-65161975D01*
X150842274Y-65036941D01*
X150856687Y-64946689D01*
X150879535Y-64880938D01*
X150885312Y-64872311D01*
X150906613Y-64836526D01*
X150890338Y-64832659D01*
X150849417Y-64855450D01*
X150796781Y-64899636D01*
X150782688Y-64914069D01*
X150735047Y-64959056D01*
X150686942Y-64980641D01*
X150617124Y-64983699D01*
X150518518Y-64974678D01*
X150236796Y-64933409D01*
X149915459Y-64868957D01*
X149571288Y-64785571D01*
X149221068Y-64687500D01*
X148881580Y-64578991D01*
X148768820Y-64538851D01*
X149553984Y-64538851D01*
X149816745Y-64606903D01*
X150012909Y-64656851D01*
X150189909Y-64700297D01*
X150337133Y-64734751D01*
X150443970Y-64757721D01*
X150496921Y-64766526D01*
X150521850Y-64751160D01*
X150526199Y-64691968D01*
X150520490Y-64636728D01*
X150510348Y-64558828D01*
X150494152Y-64433393D01*
X150473790Y-64275098D01*
X150451152Y-64098618D01*
X150440360Y-64014323D01*
X150414112Y-63829765D01*
X150385996Y-63659986D01*
X152330946Y-63659986D01*
X152336430Y-63662471D01*
X152362123Y-63643474D01*
X152408393Y-63618906D01*
X152503161Y-63576881D01*
X152636103Y-63521688D01*
X152796890Y-63457614D01*
X152973605Y-63389552D01*
X153172555Y-63313194D01*
X153319708Y-63253902D01*
X153422472Y-63208044D01*
X153488251Y-63171987D01*
X153524451Y-63142098D01*
X153538478Y-63114744D01*
X153538909Y-63112266D01*
X153548169Y-63066137D01*
X153567018Y-63050916D01*
X153609582Y-63067436D01*
X153689986Y-63116525D01*
X153698059Y-63121621D01*
X153781517Y-63189754D01*
X153833489Y-63262222D01*
X153839144Y-63278411D01*
X153866898Y-63344865D01*
X153900874Y-63349009D01*
X153940656Y-63290893D01*
X153952485Y-63264180D01*
X154024109Y-63148561D01*
X154122797Y-63063614D01*
X154231957Y-63021519D01*
X154284757Y-63020284D01*
X154351676Y-63024300D01*
X154369419Y-63008615D01*
X154355457Y-62974336D01*
X154277117Y-62888323D01*
X154159394Y-62828141D01*
X154022031Y-62798700D01*
X153884768Y-62804908D01*
X153795432Y-62835050D01*
X153591074Y-62920238D01*
X153376466Y-62976451D01*
X153270752Y-62990905D01*
X153112839Y-63026655D01*
X152968484Y-63099839D01*
X152857307Y-63199060D01*
X152822077Y-63251483D01*
X152773317Y-63309128D01*
X152689032Y-63379609D01*
X152604007Y-63437175D01*
X152501415Y-63504764D01*
X152413356Y-63571939D01*
X152367033Y-63615538D01*
X152330946Y-63659986D01*
X150385996Y-63659986D01*
X150382019Y-63635974D01*
X150346384Y-63443863D01*
X150309512Y-63264349D01*
X150273708Y-63108346D01*
X150241277Y-62986768D01*
X150214523Y-62910530D01*
X150203437Y-62892244D01*
X150173456Y-62901425D01*
X150122691Y-62958531D01*
X150056470Y-63054464D01*
X149980120Y-63180126D01*
X149898969Y-63326420D01*
X149818344Y-63484248D01*
X149743572Y-63644512D01*
X149693988Y-63762221D01*
X149625372Y-63957584D01*
X149585886Y-64134765D01*
X149570049Y-64285969D01*
X149553984Y-64538851D01*
X148768820Y-64538851D01*
X148699753Y-64514265D01*
X148132031Y-64281793D01*
X147619524Y-64025335D01*
X147158341Y-63741876D01*
X146744593Y-63428404D01*
X146374388Y-63081904D01*
X146043838Y-62699365D01*
X145749050Y-62277771D01*
X145691317Y-62183981D01*
X145634988Y-62084576D01*
X145594850Y-62002563D01*
X145579901Y-61956694D01*
X145955926Y-61956694D01*
X145962239Y-62040582D01*
X145986793Y-62117046D01*
X146038008Y-62205702D01*
X146101100Y-62294874D01*
X146231062Y-62457565D01*
X146396257Y-62643642D01*
X146582195Y-62838263D01*
X146774388Y-63026588D01*
X146958349Y-63193774D01*
X147067307Y-63284607D01*
X147172418Y-63366074D01*
X147258323Y-63428584D01*
X147314140Y-63464457D01*
X147329479Y-63469615D01*
X147330676Y-63435471D01*
X147325819Y-63361932D01*
X147429753Y-63361932D01*
X147433072Y-63468325D01*
X147448136Y-63533310D01*
X147482598Y-63578063D01*
X147517797Y-63605459D01*
X147588473Y-63652427D01*
X147683805Y-63711473D01*
X147789943Y-63774593D01*
X147893039Y-63833781D01*
X147979243Y-63881033D01*
X148034707Y-63908344D01*
X148047638Y-63911703D01*
X148046234Y-63879609D01*
X148037452Y-63795259D01*
X148037289Y-63793875D01*
X148135157Y-63793875D01*
X148140740Y-63872335D01*
X148153160Y-63924713D01*
X148178215Y-63965760D01*
X148227378Y-64004833D01*
X148312120Y-64051291D01*
X148428994Y-64107484D01*
X148567174Y-64171757D01*
X148658498Y-64211610D01*
X148712487Y-64230090D01*
X148738666Y-64230247D01*
X148746558Y-64215127D01*
X148746790Y-64209205D01*
X148744523Y-64186507D01*
X148856052Y-64186507D01*
X148886166Y-64263466D01*
X148955633Y-64321971D01*
X149071401Y-64375847D01*
X149124571Y-64396327D01*
X149262760Y-64446865D01*
X149352930Y-64474515D01*
X149405202Y-64479912D01*
X149429695Y-64463692D01*
X149436528Y-64426489D01*
X149436666Y-64415920D01*
X149430819Y-64292824D01*
X149414757Y-64141097D01*
X149390703Y-63972004D01*
X149360877Y-63796811D01*
X149327501Y-63626782D01*
X149292797Y-63473183D01*
X149258986Y-63347279D01*
X149228288Y-63260336D01*
X149202926Y-63223617D01*
X149201481Y-63223232D01*
X149169273Y-63246837D01*
X149123169Y-63317313D01*
X149068898Y-63421964D01*
X149012192Y-63548093D01*
X148958781Y-63683006D01*
X148914396Y-63814007D01*
X148886087Y-63921936D01*
X148858342Y-64077272D01*
X148856052Y-64186507D01*
X148744523Y-64186507D01*
X148742870Y-64169964D01*
X148732060Y-64079955D01*
X148715781Y-63950570D01*
X148695457Y-63793205D01*
X148683173Y-63699637D01*
X148646998Y-63445698D01*
X148610315Y-63225549D01*
X148574475Y-63045691D01*
X148540830Y-62912626D01*
X148510733Y-62832857D01*
X148499668Y-62817002D01*
X148474195Y-62829482D01*
X148430931Y-62887045D01*
X148376925Y-62977184D01*
X148319221Y-63087394D01*
X148264865Y-63205168D01*
X148226686Y-63301526D01*
X148177810Y-63468620D01*
X148146132Y-63640497D01*
X148135157Y-63793875D01*
X148037289Y-63793875D01*
X148022459Y-63668532D01*
X148002421Y-63509304D01*
X147979081Y-63331730D01*
X147950970Y-63133519D01*
X147921056Y-62942391D01*
X147891821Y-62772891D01*
X147865749Y-62639569D01*
X147848974Y-62569229D01*
X147818866Y-62467655D01*
X147797222Y-62417758D01*
X147777247Y-62410384D01*
X147752143Y-62436378D01*
X147751234Y-62437587D01*
X147654313Y-62594523D01*
X147566182Y-62787683D01*
X147494367Y-62995429D01*
X147446393Y-63196122D01*
X147429753Y-63361932D01*
X147325819Y-63361932D01*
X147325064Y-63350501D01*
X147313624Y-63226106D01*
X147297337Y-63073691D01*
X147289736Y-63007869D01*
X147253710Y-62727129D01*
X147217082Y-62488869D01*
X147180721Y-62297154D01*
X147145495Y-62156049D01*
X147112274Y-62069617D01*
X147083313Y-62041852D01*
X147055575Y-62067964D01*
X147010791Y-62136796D01*
X146958125Y-62234086D01*
X146952359Y-62245679D01*
X146900896Y-62344986D01*
X146858553Y-62417525D01*
X146833672Y-62449135D01*
X146832308Y-62449506D01*
X146821562Y-62420319D01*
X146806780Y-62340866D01*
X146789918Y-62223311D01*
X146773064Y-62081049D01*
X146735122Y-61767021D01*
X146728584Y-61722589D01*
X147335679Y-61722589D01*
X147345699Y-61863198D01*
X147371121Y-62012447D01*
X147387397Y-62075358D01*
X147439116Y-62245679D01*
X147499860Y-62112688D01*
X148072541Y-62112688D01*
X148077772Y-62212445D01*
X148092343Y-62326026D01*
X148113459Y-62439335D01*
X148138324Y-62538273D01*
X148164142Y-62608742D01*
X148188117Y-62636643D01*
X148196770Y-62632500D01*
X148212368Y-62600634D01*
X148245525Y-62525309D01*
X148261091Y-62488724D01*
X148779998Y-62488724D01*
X148785914Y-62591619D01*
X148797634Y-62707332D01*
X148813665Y-62819517D01*
X148832511Y-62911822D01*
X148842651Y-62945771D01*
X148867659Y-63003922D01*
X148891667Y-63022400D01*
X148920212Y-62996296D01*
X148958834Y-62920700D01*
X148960028Y-62917841D01*
X149478030Y-62917841D01*
X149483488Y-63013443D01*
X149498580Y-63125266D01*
X149520376Y-63239112D01*
X149545950Y-63340786D01*
X149572371Y-63416089D01*
X149596714Y-63450824D01*
X149607881Y-63447809D01*
X149623476Y-63415945D01*
X149656638Y-63340609D01*
X149701020Y-63236305D01*
X149714674Y-63203690D01*
X149763435Y-63085169D01*
X149785611Y-63009015D01*
X149776703Y-62958894D01*
X149732211Y-62918476D01*
X149647635Y-62871427D01*
X149618968Y-62856327D01*
X149545462Y-62819611D01*
X149508846Y-62812722D01*
X149491107Y-62835166D01*
X149485132Y-62852658D01*
X149478030Y-62917841D01*
X148960028Y-62917841D01*
X149010583Y-62796877D01*
X149051170Y-62693043D01*
X149080271Y-62612680D01*
X149091114Y-62574938D01*
X154333793Y-62574938D01*
X154339104Y-62594762D01*
X154381899Y-62566310D01*
X154394772Y-62555067D01*
X154447759Y-62522862D01*
X154548844Y-62474583D01*
X154686975Y-62415017D01*
X154851105Y-62348949D01*
X155010184Y-62288524D01*
X155211676Y-62212731D01*
X155359908Y-62153420D01*
X155461236Y-62107600D01*
X155522017Y-62072281D01*
X155548606Y-62044473D01*
X155551110Y-62034012D01*
X155569847Y-61987589D01*
X155590679Y-61979253D01*
X155666780Y-62002338D01*
X155752387Y-62058497D01*
X155822911Y-62128648D01*
X155851940Y-62181990D01*
X155878458Y-62247617D01*
X155910187Y-62251216D01*
X155948129Y-62192677D01*
X155957852Y-62170381D01*
X156039128Y-62039366D01*
X156150314Y-61958704D01*
X156273576Y-61933524D01*
X156350541Y-61930901D01*
X156376540Y-61917268D01*
X156363278Y-61883980D01*
X156355941Y-61872690D01*
X156279125Y-61798682D01*
X156167433Y-61736811D01*
X156048683Y-61700916D01*
X156002612Y-61696913D01*
X155920428Y-61710058D01*
X155810401Y-61744034D01*
X155725519Y-61778624D01*
X155588189Y-61829692D01*
X155433201Y-61870479D01*
X155351118Y-61884632D01*
X155169210Y-61919596D01*
X155029882Y-61978672D01*
X154914809Y-62071009D01*
X154864762Y-62127432D01*
X154789975Y-62203889D01*
X154683562Y-62294376D01*
X154567481Y-62380331D01*
X154557936Y-62386790D01*
X154457594Y-62458575D01*
X154379408Y-62522836D01*
X154337124Y-62568034D01*
X154333793Y-62574938D01*
X149091114Y-62574938D01*
X149091721Y-62572828D01*
X149091728Y-62572511D01*
X149067203Y-62546307D01*
X149006512Y-62502839D01*
X148928983Y-62454065D01*
X148853941Y-62411943D01*
X148800715Y-62388431D01*
X148791556Y-62386790D01*
X148781380Y-62414998D01*
X148779998Y-62488724D01*
X148261091Y-62488724D01*
X148289887Y-62421047D01*
X148303385Y-62388806D01*
X148347625Y-62280166D01*
X148379404Y-62197098D01*
X148393437Y-62153599D01*
X148393415Y-62150370D01*
X148364559Y-62133117D01*
X148298155Y-62094414D01*
X148241069Y-62061394D01*
X148156938Y-62014384D01*
X148111758Y-61997397D01*
X148090502Y-62008525D01*
X148079446Y-62040856D01*
X148072541Y-62112688D01*
X147499860Y-62112688D01*
X147527027Y-62053212D01*
X147575294Y-61942409D01*
X147613883Y-61844549D01*
X147632767Y-61786669D01*
X147635352Y-61739744D01*
X147609040Y-61699948D01*
X147542356Y-61654110D01*
X147493137Y-61626367D01*
X147335679Y-61540142D01*
X147335679Y-61722589D01*
X146728584Y-61722589D01*
X146691187Y-61468473D01*
X146643380Y-61197568D01*
X146621689Y-61096410D01*
X149123673Y-61096410D01*
X149151664Y-61133357D01*
X149233627Y-61196630D01*
X149367342Y-61284705D01*
X149550587Y-61396058D01*
X149617562Y-61435333D01*
X149776182Y-61527109D01*
X149916237Y-61607067D01*
X150028703Y-61670143D01*
X150104556Y-61711273D01*
X150134382Y-61725395D01*
X150154058Y-61701998D01*
X150157901Y-61671417D01*
X150164165Y-61651532D01*
X150187934Y-61633624D01*
X150236674Y-61615911D01*
X150317853Y-61596612D01*
X150438937Y-61573942D01*
X150607391Y-61546121D01*
X150719919Y-61528599D01*
X156309781Y-61528599D01*
X156320038Y-61530315D01*
X156369342Y-61493331D01*
X156377480Y-61486934D01*
X156432765Y-61455382D01*
X156535801Y-61407451D01*
X156675315Y-61347968D01*
X156840037Y-61281763D01*
X156992970Y-61223243D01*
X157201261Y-61143536D01*
X157354252Y-61080531D01*
X157456470Y-61032110D01*
X157512440Y-60996157D01*
X157527037Y-60973508D01*
X157536242Y-60920463D01*
X157570782Y-60907054D01*
X157641039Y-60932125D01*
X157687150Y-60955693D01*
X157786750Y-61027608D01*
X157830487Y-61108950D01*
X157853554Y-61176744D01*
X157884857Y-61186834D01*
X157927767Y-61138260D01*
X157965719Y-61070399D01*
X158045266Y-60961621D01*
X158148011Y-60886443D01*
X158256733Y-60855793D01*
X158299333Y-60858691D01*
X158359849Y-60861566D01*
X158366195Y-60835742D01*
X158318428Y-60779794D01*
X158303148Y-60765557D01*
X158181683Y-60676999D01*
X158056503Y-60635894D01*
X157915756Y-60641475D01*
X157747588Y-60692976D01*
X157673174Y-60724815D01*
X157524044Y-60781942D01*
X157389076Y-60814568D01*
X157331738Y-60819577D01*
X157159170Y-60847028D01*
X156995872Y-60920374D01*
X156865838Y-61028717D01*
X156862381Y-61032774D01*
X156807827Y-61100748D01*
X156773431Y-61149440D01*
X156769604Y-61156728D01*
X156739272Y-61185004D01*
X156669281Y-61235001D01*
X156573977Y-61296554D01*
X156560863Y-61304637D01*
X156458752Y-61372753D01*
X156376480Y-61437699D01*
X156330863Y-61486108D01*
X156329508Y-61488476D01*
X156309781Y-61528599D01*
X150719919Y-61528599D01*
X150824259Y-61512352D01*
X151022042Y-61481061D01*
X151198922Y-61451263D01*
X151345463Y-61424697D01*
X151452228Y-61403101D01*
X151509781Y-61388213D01*
X151516643Y-61384821D01*
X151540958Y-61346244D01*
X151582429Y-61265894D01*
X151635259Y-61156563D01*
X151693650Y-61031041D01*
X151751804Y-60902119D01*
X151803923Y-60782586D01*
X151844210Y-60685235D01*
X151866865Y-60622854D01*
X151869252Y-60606948D01*
X151837429Y-60585634D01*
X151765885Y-60541831D01*
X151669196Y-60484440D01*
X151654604Y-60475898D01*
X151453470Y-60358362D01*
X151339079Y-60423996D01*
X151271180Y-60467702D01*
X151237309Y-60512385D01*
X151225647Y-60581331D01*
X151224381Y-60650030D01*
X151200138Y-60808280D01*
X151127103Y-60932633D01*
X151003810Y-61024033D01*
X150828791Y-61083423D01*
X150600581Y-61111749D01*
X150502839Y-61114542D01*
X150354389Y-61113563D01*
X150247804Y-61105498D01*
X150162327Y-61086643D01*
X150077197Y-61053298D01*
X150027857Y-61029828D01*
X149883613Y-60937631D01*
X149794640Y-60825267D01*
X149754301Y-60682598D01*
X149750247Y-60605771D01*
X149750247Y-60480527D01*
X149946234Y-60541703D01*
X150145006Y-60593459D01*
X150325944Y-60620971D01*
X150477323Y-60623434D01*
X150587416Y-60600042D01*
X150611352Y-60587399D01*
X150672307Y-60513934D01*
X150692906Y-60415152D01*
X150671557Y-60315040D01*
X150633137Y-60259310D01*
X150606916Y-60229551D01*
X150607452Y-60209546D01*
X150644444Y-60194108D01*
X150727593Y-60178047D01*
X150809289Y-60165080D01*
X151064570Y-60106431D01*
X151276522Y-60020113D01*
X151443563Y-59911650D01*
X151564109Y-59786566D01*
X151636580Y-59650384D01*
X151659392Y-59508628D01*
X151630965Y-59366821D01*
X151549714Y-59230486D01*
X151414060Y-59105147D01*
X151222418Y-58996328D01*
X151152405Y-58967202D01*
X150902921Y-58893222D01*
X150641215Y-58855202D01*
X150377665Y-58851459D01*
X150122650Y-58880312D01*
X149886548Y-58940076D01*
X149679736Y-59029070D01*
X149512593Y-59145610D01*
X149421034Y-59247904D01*
X149380199Y-59308891D01*
X149353291Y-59363132D01*
X149337409Y-59425698D01*
X149329654Y-59511660D01*
X149327127Y-59636088D01*
X149326913Y-59737111D01*
X149328014Y-59894595D01*
X149332853Y-60003573D01*
X149343736Y-60078239D01*
X149362967Y-60132787D01*
X149392851Y-60181410D01*
X149400849Y-60192403D01*
X149474785Y-60292407D01*
X149298935Y-60668540D01*
X149233353Y-60812667D01*
X149178972Y-60939514D01*
X149140850Y-61036733D01*
X149124046Y-61091978D01*
X149123673Y-61096410D01*
X146621689Y-61096410D01*
X146593825Y-60966469D01*
X146550440Y-60805635D01*
X146483148Y-60588555D01*
X146385999Y-60742919D01*
X146275370Y-60939208D01*
X146173131Y-61158743D01*
X146084677Y-61386295D01*
X146015404Y-61606636D01*
X145970709Y-61804537D01*
X145955926Y-61956694D01*
X145579901Y-61956694D01*
X145579629Y-61955862D01*
X145605901Y-61916899D01*
X145670643Y-61875636D01*
X145685966Y-61868789D01*
X145792303Y-61824359D01*
X145803621Y-61467810D01*
X145809678Y-61310036D01*
X145818937Y-61195769D01*
X145835736Y-61105807D01*
X145864414Y-61020952D01*
X145909310Y-60922003D01*
X145941927Y-60855745D01*
X146068914Y-60600229D01*
X145931644Y-60466534D01*
X145695321Y-60219698D01*
X145475714Y-59957999D01*
X145278138Y-59689902D01*
X145107906Y-59423867D01*
X144970333Y-59168360D01*
X144870732Y-58931841D01*
X144814418Y-58722775D01*
X144812361Y-58708389D01*
X145480310Y-58708389D01*
X145500242Y-58860693D01*
X145550330Y-59025474D01*
X145627674Y-59190481D01*
X145729374Y-59343463D01*
X145750702Y-59369557D01*
X145838547Y-59457860D01*
X145947434Y-59545986D01*
X146057327Y-59619375D01*
X146148187Y-59663468D01*
X146159911Y-59666905D01*
X146213172Y-59681283D01*
X146228267Y-59686362D01*
X146258109Y-59679321D01*
X146312595Y-59660143D01*
X146385726Y-59613877D01*
X146424855Y-59567260D01*
X146444118Y-59526932D01*
X146432267Y-59521701D01*
X146378653Y-59549917D01*
X146364623Y-59557919D01*
X146305848Y-59587769D01*
X146258301Y-59593199D01*
X146198111Y-59572034D01*
X146128419Y-59536398D01*
X145965502Y-59422686D01*
X145822349Y-59270866D01*
X145708957Y-59096108D01*
X145635325Y-58913584D01*
X145611294Y-58751728D01*
X145617902Y-58706142D01*
X145815942Y-58706142D01*
X145847246Y-58875070D01*
X145935325Y-59025218D01*
X146075123Y-59148306D01*
X146092829Y-59159466D01*
X146165067Y-59202217D01*
X146206488Y-59214732D01*
X146240620Y-59198078D01*
X146274876Y-59167732D01*
X146319903Y-59101220D01*
X146331533Y-59050140D01*
X146308584Y-58937177D01*
X146249639Y-58817199D01*
X146166249Y-58703739D01*
X146069965Y-58610333D01*
X145972340Y-58550516D01*
X145893209Y-58536549D01*
X145847014Y-58547257D01*
X145823920Y-58576901D01*
X145816282Y-58642261D01*
X145815942Y-58706142D01*
X145617902Y-58706142D01*
X145630602Y-58618544D01*
X145689236Y-58534206D01*
X145787214Y-58498691D01*
X145811835Y-58497441D01*
X145873111Y-58493844D01*
X145878588Y-58481151D01*
X145852997Y-58463957D01*
X145747012Y-58431064D01*
X145634991Y-58439842D01*
X145544848Y-58487931D01*
X145542517Y-58490212D01*
X145493435Y-58580812D01*
X145480310Y-58708389D01*
X144812361Y-58708389D01*
X144807829Y-58676708D01*
X144791107Y-58568757D01*
X144773716Y-58518440D01*
X144757650Y-58520731D01*
X144744905Y-58570605D01*
X144737477Y-58663037D01*
X144737359Y-58793000D01*
X144739527Y-58848748D01*
X144748934Y-58991852D01*
X144764890Y-59103752D01*
X144793334Y-59207661D01*
X144840206Y-59326796D01*
X144890582Y-59439136D01*
X144952482Y-59581932D01*
X144997129Y-59709869D01*
X145025501Y-59835136D01*
X145038576Y-59969922D01*
X145037329Y-60126418D01*
X145022739Y-60316813D01*
X144995782Y-60553297D01*
X144986057Y-60630164D01*
X144907801Y-61163384D01*
X144816202Y-61649321D01*
X144712030Y-62085222D01*
X144596059Y-62468336D01*
X144469060Y-62795912D01*
X144331805Y-63065198D01*
X144279768Y-63147735D01*
X144140289Y-63355707D01*
X144246253Y-63421196D01*
X144330936Y-63497701D01*
X144408100Y-63607489D01*
X144463252Y-63726002D01*
X144482098Y-63820916D01*
X144473615Y-63898164D01*
X144440930Y-63960278D01*
X144373188Y-64019948D01*
X144259538Y-64089864D01*
X144245151Y-64097952D01*
X144141134Y-64154644D01*
X144073874Y-64183710D01*
X144025778Y-64188819D01*
X143979251Y-64173639D01*
X143950637Y-64159359D01*
X143852869Y-64082120D01*
X143763771Y-63965943D01*
X143699599Y-63834147D01*
X143683115Y-63775616D01*
X143678934Y-63710948D01*
X143694411Y-63631072D01*
X143733383Y-63521999D01*
X143786300Y-63399320D01*
X143932572Y-63034368D01*
X144061130Y-62628186D01*
X144172483Y-62177819D01*
X144267140Y-61680315D01*
X144345611Y-61132720D01*
X144408405Y-60532078D01*
X144456031Y-59875437D01*
X144481062Y-59370098D01*
X144493204Y-59100865D01*
X144506567Y-58884843D01*
X144523329Y-58712537D01*
X144545669Y-58574448D01*
X144575764Y-58461080D01*
X144615792Y-58362937D01*
X144667931Y-58270521D01*
X144734359Y-58174335D01*
X144764594Y-58133771D01*
X144891072Y-57987067D01*
X145012190Y-57894104D01*
X145138792Y-57848035D01*
X145229952Y-57839994D01*
X145364701Y-57856682D01*
X145491681Y-57901006D01*
X145589211Y-57964016D01*
X145621324Y-58001565D01*
X145679826Y-58048429D01*
X145727696Y-58059383D01*
X145786160Y-58082077D01*
X145874709Y-58144112D01*
X145983558Y-58236418D01*
X146102925Y-58349922D01*
X146223024Y-58475554D01*
X146334071Y-58604242D01*
X146383568Y-58667463D01*
X146477019Y-58800779D01*
X146574250Y-58953607D01*
X146641593Y-59070147D01*
X146698085Y-59170636D01*
X146744362Y-59245330D01*
X146771912Y-59280663D01*
X146774426Y-59281813D01*
X146785395Y-59259180D01*
X146796758Y-59188992D01*
X146808699Y-59068735D01*
X146821402Y-58895896D01*
X146835052Y-58667959D01*
X146849833Y-58382411D01*
X146865929Y-58036737D01*
X146866317Y-58028025D01*
X146879607Y-57754487D01*
X146893840Y-57534299D01*
X146911122Y-57358107D01*
X146920945Y-57296130D01*
X147120005Y-57296130D01*
X147120821Y-57423875D01*
X147122116Y-57453416D01*
X147132005Y-57591208D01*
X147149729Y-57704587D01*
X147180992Y-57815955D01*
X147231503Y-57947714D01*
X147272475Y-58043704D01*
X147354866Y-58251009D01*
X147403997Y-58420747D01*
X147422588Y-58546377D01*
X147423145Y-58639788D01*
X147416474Y-58779469D01*
X147404084Y-58949583D01*
X147387479Y-59134297D01*
X147368168Y-59317773D01*
X147347658Y-59484178D01*
X147327453Y-59617675D01*
X147314518Y-59682160D01*
X147309493Y-59736428D01*
X147319708Y-59752716D01*
X147354364Y-59737795D01*
X147430698Y-59697454D01*
X147536481Y-59638327D01*
X147628849Y-59585024D01*
X147781146Y-59496157D01*
X147944379Y-59401124D01*
X148091810Y-59315485D01*
X148144021Y-59285229D01*
X148372240Y-59153127D01*
X148149341Y-58911995D01*
X147870201Y-58589653D01*
X147634643Y-58274824D01*
X147445322Y-57972050D01*
X147304896Y-57685874D01*
X147216022Y-57420838D01*
X147210040Y-57388436D01*
X147869165Y-57388436D01*
X147904903Y-57552037D01*
X147973530Y-57722761D01*
X148069741Y-57889853D01*
X148188230Y-58042560D01*
X148323690Y-58170126D01*
X148470817Y-58261799D01*
X148480247Y-58266076D01*
X148586390Y-58302596D01*
X148667877Y-58298554D01*
X148749391Y-58252104D01*
X148758240Y-58245255D01*
X148814809Y-58191498D01*
X148840695Y-58148629D01*
X148840864Y-58146321D01*
X148821906Y-58139017D01*
X148779402Y-58168001D01*
X148693862Y-58207490D01*
X148590017Y-58197249D01*
X148475602Y-58144603D01*
X148358357Y-58056876D01*
X148246018Y-57941391D01*
X148146322Y-57805471D01*
X148067008Y-57656441D01*
X148015814Y-57501624D01*
X148004281Y-57434333D01*
X148004467Y-57286376D01*
X148044278Y-57183482D01*
X148122300Y-57128080D01*
X148187928Y-57118642D01*
X148253461Y-57121239D01*
X148264859Y-57137451D01*
X148230694Y-57179908D01*
X148230019Y-57180654D01*
X148188262Y-57270387D01*
X148192605Y-57384925D01*
X148238314Y-57512342D01*
X148320653Y-57640712D01*
X148434890Y-57758111D01*
X148470454Y-57786280D01*
X148562017Y-57830447D01*
X148635525Y-57821357D01*
X148684817Y-57767330D01*
X148703736Y-57676687D01*
X148686120Y-57557748D01*
X148671579Y-57514591D01*
X148601643Y-57384292D01*
X148502578Y-57268493D01*
X148384995Y-57172668D01*
X148259505Y-57102292D01*
X148136720Y-57062839D01*
X148027252Y-57059783D01*
X147941712Y-57098599D01*
X147917580Y-57125619D01*
X147871622Y-57242712D01*
X147869165Y-57388436D01*
X147210040Y-57388436D01*
X147187910Y-57268571D01*
X147171818Y-57172685D01*
X147154855Y-57133471D01*
X147139149Y-57144955D01*
X147126823Y-57201166D01*
X147120005Y-57296130D01*
X146920945Y-57296130D01*
X146933559Y-57216554D01*
X146963257Y-57100287D01*
X147002322Y-56999950D01*
X147052860Y-56906187D01*
X147116977Y-56809645D01*
X147151290Y-56762163D01*
X147271638Y-56616844D01*
X147385836Y-56523369D01*
X147506675Y-56473794D01*
X147637657Y-56460123D01*
X147719599Y-56473398D01*
X147817530Y-56507271D01*
X147913180Y-56552819D01*
X147988280Y-56601118D01*
X148024558Y-56643243D01*
X148025555Y-56649593D01*
X148052572Y-56671563D01*
X148110019Y-56679630D01*
X148175058Y-56703704D01*
X148268331Y-56770169D01*
X148381610Y-56870387D01*
X148506667Y-56995721D01*
X148635275Y-57137532D01*
X148759205Y-57287184D01*
X148870231Y-57436038D01*
X148954984Y-57566682D01*
X149027852Y-57689201D01*
X149075368Y-57763768D01*
X149103942Y-57796507D01*
X149119985Y-57793543D01*
X149129909Y-57761002D01*
X149134169Y-57737869D01*
X149140503Y-57678852D01*
X149148728Y-57567069D01*
X149158262Y-57412422D01*
X149168523Y-57224812D01*
X149178929Y-57014140D01*
X149186254Y-56852099D01*
X149199357Y-56572195D01*
X149213049Y-56346040D01*
X149229277Y-56164682D01*
X149240890Y-56083090D01*
X149438990Y-56083090D01*
X149442610Y-56230453D01*
X149452525Y-56368411D01*
X149470309Y-56482014D01*
X149501670Y-56593703D01*
X149552315Y-56725918D01*
X149592726Y-56820741D01*
X149652812Y-56967727D01*
X149697404Y-57102643D01*
X149727044Y-57235932D01*
X149742275Y-57378040D01*
X149743639Y-57539412D01*
X149731681Y-57730492D01*
X149706941Y-57961725D01*
X149669964Y-58243557D01*
X149667569Y-58260853D01*
X149646145Y-58415287D01*
X149797235Y-58330841D01*
X149885776Y-58280780D01*
X150010971Y-58209248D01*
X150155262Y-58126306D01*
X150283160Y-58052408D01*
X150617994Y-57858421D01*
X150357841Y-57562573D01*
X150090742Y-57237556D01*
X149871412Y-56925188D01*
X149702057Y-56629277D01*
X149584880Y-56353628D01*
X149536093Y-56165473D01*
X150189659Y-56165473D01*
X150225397Y-56329074D01*
X150294024Y-56499798D01*
X150390235Y-56666890D01*
X150508724Y-56819597D01*
X150644184Y-56947163D01*
X150791311Y-57038836D01*
X150800740Y-57043114D01*
X150906884Y-57079633D01*
X150988370Y-57075591D01*
X151069884Y-57029141D01*
X151078734Y-57022292D01*
X151135303Y-56968535D01*
X151161189Y-56925666D01*
X151161358Y-56923358D01*
X151142400Y-56916054D01*
X151099896Y-56945038D01*
X151014356Y-56984527D01*
X150910510Y-56974286D01*
X150796096Y-56921641D01*
X150678851Y-56833913D01*
X150566511Y-56718428D01*
X150466816Y-56582508D01*
X150387502Y-56433478D01*
X150336307Y-56278661D01*
X150324775Y-56211370D01*
X150324961Y-56063413D01*
X150364772Y-55960519D01*
X150442794Y-55905117D01*
X150508422Y-55895679D01*
X150573421Y-55898591D01*
X150584912Y-55914900D01*
X150554736Y-55953025D01*
X150508310Y-56048032D01*
X150511008Y-56166371D01*
X150559443Y-56297079D01*
X150650229Y-56429194D01*
X150725659Y-56506424D01*
X150835058Y-56588173D01*
X150920430Y-56613038D01*
X150983689Y-56581234D01*
X151010231Y-56538611D01*
X151029911Y-56459461D01*
X151016132Y-56362369D01*
X151008723Y-56336197D01*
X150948787Y-56203731D01*
X150857529Y-56083002D01*
X150745159Y-55979754D01*
X150621886Y-55899730D01*
X150497920Y-55848674D01*
X150383469Y-55832328D01*
X150288744Y-55856437D01*
X150238074Y-55902656D01*
X150192116Y-56019749D01*
X150189659Y-56165473D01*
X149536093Y-56165473D01*
X149525846Y-56125957D01*
X149500209Y-56000967D01*
X149476911Y-55936439D01*
X149457745Y-55930118D01*
X149444507Y-55979753D01*
X149438990Y-56083090D01*
X149240890Y-56083090D01*
X149249988Y-56019170D01*
X149277129Y-55900552D01*
X149312647Y-55799874D01*
X149358488Y-55708187D01*
X149416600Y-55616536D01*
X149471783Y-55539200D01*
X149592132Y-55393881D01*
X149706330Y-55300406D01*
X149827169Y-55250831D01*
X149958151Y-55237160D01*
X150040092Y-55250435D01*
G37*
X150040092Y-55250435D02*
X150138024Y-55284308D01*
X150233674Y-55329856D01*
X150308773Y-55378155D01*
X150345051Y-55420280D01*
X150346049Y-55426630D01*
X150372857Y-55449333D01*
X150423297Y-55456667D01*
X150490130Y-55480361D01*
X150585700Y-55545927D01*
X150701081Y-55645086D01*
X150827346Y-55769563D01*
X150955571Y-55911079D01*
X151076828Y-56061358D01*
X151080158Y-56065774D01*
X151327764Y-56438430D01*
X151514775Y-56818581D01*
X151571108Y-56967904D01*
X151612283Y-57083690D01*
X151646733Y-57174852D01*
X151668777Y-57226560D01*
X151672484Y-57232567D01*
X151710633Y-57230679D01*
X151776365Y-57193325D01*
X151855146Y-57131510D01*
X151932440Y-57056236D01*
X151977979Y-57001291D01*
X152083818Y-56886810D01*
X152227938Y-56770052D01*
X152388601Y-56666933D01*
X152525432Y-56600494D01*
X152650864Y-56550686D01*
X152541111Y-56637638D01*
X152339968Y-56822150D01*
X152194357Y-57014897D01*
X152141306Y-57114509D01*
X152094567Y-57229609D01*
X152074998Y-57330899D01*
X152076535Y-57453164D01*
X152078257Y-57476049D01*
X152107526Y-57653483D01*
X152169867Y-57808173D01*
X152273817Y-57955949D01*
X152415338Y-58101072D01*
X152661045Y-58288610D01*
X152951078Y-58442294D01*
X153276445Y-58561296D01*
X153628153Y-58644787D01*
X153997212Y-58691938D01*
X154374630Y-58701919D01*
X154751415Y-58673901D01*
X155118576Y-58607056D01*
X155467120Y-58500554D01*
X155692592Y-58403251D01*
X155951612Y-58254626D01*
X156154525Y-58089412D01*
X156306855Y-57902617D01*
X156369736Y-57791607D01*
X156423188Y-57675754D01*
X156451024Y-57586689D01*
X156458922Y-57496852D01*
X156453191Y-57386453D01*
X156421797Y-57206271D01*
X156353672Y-57045489D01*
X156241052Y-56890083D01*
X156098844Y-56746520D01*
X156018322Y-56670570D01*
X155963180Y-56613926D01*
X155943055Y-56586627D01*
X155944379Y-56585555D01*
X156005510Y-56604131D01*
X156099227Y-56653170D01*
X156210231Y-56722640D01*
X156323220Y-56802508D01*
X156422891Y-56882740D01*
X156478328Y-56935647D01*
X156639735Y-57145158D01*
X156740889Y-57360557D01*
X156783545Y-57578308D01*
X156769453Y-57794874D01*
X156700366Y-58006718D01*
X156578036Y-58210304D01*
X156404216Y-58402095D01*
X156180657Y-58578554D01*
X155909112Y-58736145D01*
X155591333Y-58871330D01*
X155504444Y-58901353D01*
X155105822Y-59006648D01*
X154689565Y-59067665D01*
X154265192Y-59085536D01*
X153842225Y-59061393D01*
X153430184Y-58996369D01*
X153038590Y-58891595D01*
X152676964Y-58748205D01*
X152354825Y-58567331D01*
X152284283Y-58518351D01*
X152104338Y-58372348D01*
X151969107Y-58221686D01*
X151862524Y-58046244D01*
X151804129Y-57917047D01*
X151727291Y-57730123D01*
X151726546Y-58202642D01*
X151731408Y-58472592D01*
X151749466Y-58691837D01*
X151784516Y-58871682D01*
X151840356Y-59023429D01*
X151920781Y-59158382D01*
X152029588Y-59287844D01*
X152121362Y-59378171D01*
X152373957Y-59574950D01*
X152680905Y-59745940D01*
X153038632Y-59889383D01*
X153346066Y-59979864D01*
X153446594Y-60003829D01*
X153541051Y-60021661D01*
X153641162Y-60034207D01*
X153758650Y-60042313D01*
X153905236Y-60046827D01*
X154092644Y-60048593D01*
X154297160Y-60048557D01*
X154525083Y-60047505D01*
X154702286Y-60044942D01*
X154840760Y-60039831D01*
X154952501Y-60031136D01*
X155049499Y-60017821D01*
X155143750Y-59998850D01*
X155247247Y-59973187D01*
X155284938Y-59963216D01*
X155563812Y-59874546D01*
X155834690Y-59761797D01*
X156083153Y-59632310D01*
X156294784Y-59493426D01*
X156426128Y-59382206D01*
X156585797Y-59206064D01*
X156695230Y-59032372D01*
X156763164Y-58842241D01*
X156798339Y-58616783D01*
X156801947Y-58569784D01*
X156821481Y-58278517D01*
X157480000Y-58655744D01*
X157719048Y-58794581D01*
X157908947Y-58909469D01*
X158056455Y-59004884D01*
X158168327Y-59085305D01*
X158251318Y-59155208D01*
X158286634Y-59190296D01*
X158351021Y-59261636D01*
X158402981Y-59329769D01*
X158443842Y-59402234D01*
X158474929Y-59486574D01*
X158497568Y-59590330D01*
X158513087Y-59721043D01*
X158522809Y-59886256D01*
X158528063Y-60093510D01*
X158530175Y-60350345D01*
X158530493Y-60577029D01*
X158530389Y-60839095D01*
X158529716Y-61045823D01*
X158527937Y-61204588D01*
X158524516Y-61322768D01*
X158518913Y-61407741D01*
X158510593Y-61466882D01*
X158499016Y-61507569D01*
X158483646Y-61537179D01*
X158463945Y-61563090D01*
X158458131Y-61570031D01*
X158431048Y-61610066D01*
X158406610Y-61666816D01*
X158382684Y-61749058D01*
X158357140Y-61865567D01*
X158327845Y-62025118D01*
X158292668Y-62236487D01*
X158285643Y-62280113D01*
X158237128Y-62586240D01*
X158198344Y-62842892D01*
X158168216Y-63062371D01*
X158145666Y-63256980D01*
X158129618Y-63439022D01*
X158118995Y-63620799D01*
X158112721Y-63814614D01*
X158109718Y-64032769D01*
X158108911Y-64287567D01*
X158108910Y-64299630D01*
X158111647Y-64649703D01*
X158120860Y-64951205D01*
X158137961Y-65218076D01*
X158164364Y-65464254D01*
X158201484Y-65703681D01*
X158250735Y-65950295D01*
X158296409Y-66148044D01*
X158335121Y-66296328D01*
X158369585Y-66396043D01*
X158405567Y-66460534D01*
X158448833Y-66503145D01*
X158450333Y-66504246D01*
X158544423Y-66603241D01*
X158614897Y-66734429D01*
X158649303Y-66871465D01*
X158649848Y-66926339D01*
X158638164Y-66993271D01*
X158607691Y-67044166D01*
X158544943Y-67095109D01*
X158467777Y-67143512D01*
X158366513Y-67198117D01*
X158277207Y-67235676D01*
X158227159Y-67247154D01*
X158136717Y-67219067D01*
X158046090Y-67145039D01*
X157965859Y-67040911D01*
X157906605Y-66922528D01*
X157878910Y-66805733D01*
X157883988Y-66733318D01*
X157922383Y-66662793D01*
X157990093Y-66594210D01*
X157998341Y-66588100D01*
X158093200Y-66520555D01*
X158029408Y-66417337D01*
X157957784Y-66282497D01*
X157879830Y-66103819D01*
X157802362Y-65898785D01*
X157732198Y-65684879D01*
X157699730Y-65571778D01*
X157588680Y-65055730D01*
X157523806Y-64499042D01*
X157505152Y-63903561D01*
X157532764Y-63271135D01*
X157606688Y-62603613D01*
X157624063Y-62485468D01*
X157646475Y-62331071D01*
X157663394Y-62200278D01*
X157673452Y-62104854D01*
X157675284Y-62056560D01*
X157674258Y-62053188D01*
X157644475Y-62064313D01*
X157568288Y-62102886D01*
X157453433Y-62164701D01*
X157307646Y-62245549D01*
X157138664Y-62341224D01*
X157031758Y-62402610D01*
X156402809Y-62765583D01*
X156371414Y-62913285D01*
X156343925Y-63056847D01*
X156311733Y-63247757D01*
X156276986Y-63471019D01*
X156241833Y-63711640D01*
X156208425Y-63954628D01*
X156178910Y-64184987D01*
X156155436Y-64387725D01*
X156144638Y-64495389D01*
X156131253Y-64696350D01*
X156123249Y-64937626D01*
X156120340Y-65206209D01*
X156122241Y-65489093D01*
X156128666Y-65773269D01*
X156139331Y-66045729D01*
X156153950Y-66293467D01*
X156172238Y-66503474D01*
X156191939Y-66651481D01*
X156239909Y-66917582D01*
X156284634Y-67129419D01*
X156328678Y-67295176D01*
X156374606Y-67423036D01*
X156424982Y-67521182D01*
X156482372Y-67597796D01*
X156491709Y-67607901D01*
X156596476Y-67743735D01*
X156659463Y-67880964D01*
X156674986Y-68005797D01*
X156669458Y-68039085D01*
X156629897Y-68099300D01*
X156549683Y-68168336D01*
X156447432Y-68234508D01*
X156341759Y-68286131D01*
X156251280Y-68311520D01*
X156233993Y-68312413D01*
X156139520Y-68282700D01*
X156046784Y-68206575D01*
X155967571Y-68099532D01*
X155913670Y-67977063D01*
X155896537Y-67868878D01*
X155908766Y-67778297D01*
X155956137Y-67709719D01*
X155995698Y-67675861D01*
X156094976Y-67598164D01*
X155981430Y-67367847D01*
X155811774Y-66960718D01*
X155680603Y-66507857D01*
X155588288Y-66013343D01*
X155535202Y-65481252D01*
X155521719Y-64915661D01*
X155548211Y-64320647D01*
X155615052Y-63700289D01*
X155633936Y-63569264D01*
X155653185Y-63430909D01*
X155666146Y-63316894D01*
X155671488Y-63240530D01*
X155669240Y-63215331D01*
X155638937Y-63225977D01*
X155562267Y-63264248D01*
X155446926Y-63325973D01*
X155300608Y-63406984D01*
X155131005Y-63503111D01*
X155015930Y-63569400D01*
X154378162Y-63939012D01*
X154336950Y-64142839D01*
X154293254Y-64382485D01*
X154249184Y-64666382D01*
X154207047Y-64976124D01*
X154169152Y-65293304D01*
X154137804Y-65599516D01*
X154115312Y-65876352D01*
X154110926Y-65945926D01*
X154097041Y-66625896D01*
X154134335Y-67293607D01*
X154221991Y-67938764D01*
X154299251Y-68314320D01*
X154335051Y-68453901D01*
X154370142Y-68550528D01*
X154413570Y-68623196D01*
X154474381Y-68690903D01*
X154482248Y-68698600D01*
X154574637Y-68812217D01*
X154636664Y-68936938D01*
X154662414Y-69056024D01*
X154645973Y-69152738D01*
X154644053Y-69156471D01*
X154593155Y-69212395D01*
X154504517Y-69278197D01*
X154399012Y-69341448D01*
X154297515Y-69389718D01*
X154220901Y-69410581D01*
X154217077Y-69410693D01*
X154156855Y-69389135D01*
X154082527Y-69334678D01*
X154056210Y-69309074D01*
X153961367Y-69195731D01*
X153909441Y-69093844D01*
X153890344Y-68981350D01*
X153889506Y-68944452D01*
X153897568Y-68855204D01*
X153931358Y-68799880D01*
X153983580Y-68763160D01*
X154046393Y-68721284D01*
X154077058Y-68691473D01*
X154077654Y-68689034D01*
X154064434Y-68654133D01*
X154029410Y-68578405D01*
X153979536Y-68476758D01*
X153967450Y-68452770D01*
X153847921Y-68180073D01*
X153739210Y-67859186D01*
X153645794Y-67504313D01*
X153600191Y-67287496D01*
X153578622Y-67169040D01*
X153561954Y-67059730D01*
X153549607Y-66949060D01*
X153541003Y-66826527D01*
X153535560Y-66681624D01*
X153532701Y-66503848D01*
X153531845Y-66282693D01*
X153532251Y-66055679D01*
X153533983Y-65772395D01*
X153537576Y-65540506D01*
X153543632Y-65348705D01*
X153552753Y-65185684D01*
X153565540Y-65040134D01*
X153582594Y-64900748D01*
X153599776Y-64785679D01*
X153623149Y-64633991D01*
X153641413Y-64506518D01*
X153652988Y-64415005D01*
X153656295Y-64371198D01*
X153655801Y-64369168D01*
X153627751Y-64382543D01*
X153550903Y-64424342D01*
X153430685Y-64491487D01*
X153272527Y-64580896D01*
X153081860Y-64689491D01*
X152864111Y-64814190D01*
X152624712Y-64951913D01*
X152412049Y-65074724D01*
X151177037Y-65789136D01*
X150800740Y-65786214D01*
X150418884Y-65762339D01*
X150003533Y-65699005D01*
X149566388Y-65600233D01*
X149119152Y-65470042D01*
X148673526Y-65312455D01*
X148241213Y-65131492D01*
X147833913Y-64931173D01*
X147463330Y-64715519D01*
X147238191Y-64562105D01*
X146825516Y-64223675D01*
X146447902Y-63840081D01*
X146115204Y-63421899D01*
X145962103Y-63192494D01*
X145885610Y-63067511D01*
X145837619Y-62978142D01*
X145812171Y-62907603D01*
X145803303Y-62839110D01*
X145805054Y-62755879D01*
X145805313Y-62751049D01*
X145814814Y-62575695D01*
X146000233Y-62827019D01*
X146158795Y-63022536D01*
X146355664Y-63235351D01*
X146575282Y-63450641D01*
X146802089Y-63653588D01*
X147020524Y-63829369D01*
X147148003Y-63920273D01*
X147463101Y-64114315D01*
X147824150Y-64307920D01*
X148214789Y-64493552D01*
X148618655Y-64663678D01*
X149019386Y-64810761D01*
X149225455Y-64876962D01*
X149428441Y-64934009D01*
X149655645Y-64990212D01*
X149892245Y-65042591D01*
X150123419Y-65088167D01*
X150334346Y-65123963D01*
X150510202Y-65147000D01*
X150603487Y-65153903D01*
X150832098Y-65161975D01*
X150842274Y-65036941D01*
X150856687Y-64946689D01*
X150879535Y-64880938D01*
X150885312Y-64872311D01*
X150906613Y-64836526D01*
X150890338Y-64832659D01*
X150849417Y-64855450D01*
X150796781Y-64899636D01*
X150782688Y-64914069D01*
X150735047Y-64959056D01*
X150686942Y-64980641D01*
X150617124Y-64983699D01*
X150518518Y-64974678D01*
X150236796Y-64933409D01*
X149915459Y-64868957D01*
X149571288Y-64785571D01*
X149221068Y-64687500D01*
X148881580Y-64578991D01*
X148768820Y-64538851D01*
X149553984Y-64538851D01*
X149816745Y-64606903D01*
X150012909Y-64656851D01*
X150189909Y-64700297D01*
X150337133Y-64734751D01*
X150443970Y-64757721D01*
X150496921Y-64766526D01*
X150521850Y-64751160D01*
X150526199Y-64691968D01*
X150520490Y-64636728D01*
X150510348Y-64558828D01*
X150494152Y-64433393D01*
X150473790Y-64275098D01*
X150451152Y-64098618D01*
X150440360Y-64014323D01*
X150414112Y-63829765D01*
X150385996Y-63659986D01*
X152330946Y-63659986D01*
X152336430Y-63662471D01*
X152362123Y-63643474D01*
X152408393Y-63618906D01*
X152503161Y-63576881D01*
X152636103Y-63521688D01*
X152796890Y-63457614D01*
X152973605Y-63389552D01*
X153172555Y-63313194D01*
X153319708Y-63253902D01*
X153422472Y-63208044D01*
X153488251Y-63171987D01*
X153524451Y-63142098D01*
X153538478Y-63114744D01*
X153538909Y-63112266D01*
X153548169Y-63066137D01*
X153567018Y-63050916D01*
X153609582Y-63067436D01*
X153689986Y-63116525D01*
X153698059Y-63121621D01*
X153781517Y-63189754D01*
X153833489Y-63262222D01*
X153839144Y-63278411D01*
X153866898Y-63344865D01*
X153900874Y-63349009D01*
X153940656Y-63290893D01*
X153952485Y-63264180D01*
X154024109Y-63148561D01*
X154122797Y-63063614D01*
X154231957Y-63021519D01*
X154284757Y-63020284D01*
X154351676Y-63024300D01*
X154369419Y-63008615D01*
X154355457Y-62974336D01*
X154277117Y-62888323D01*
X154159394Y-62828141D01*
X154022031Y-62798700D01*
X153884768Y-62804908D01*
X153795432Y-62835050D01*
X153591074Y-62920238D01*
X153376466Y-62976451D01*
X153270752Y-62990905D01*
X153112839Y-63026655D01*
X152968484Y-63099839D01*
X152857307Y-63199060D01*
X152822077Y-63251483D01*
X152773317Y-63309128D01*
X152689032Y-63379609D01*
X152604007Y-63437175D01*
X152501415Y-63504764D01*
X152413356Y-63571939D01*
X152367033Y-63615538D01*
X152330946Y-63659986D01*
X150385996Y-63659986D01*
X150382019Y-63635974D01*
X150346384Y-63443863D01*
X150309512Y-63264349D01*
X150273708Y-63108346D01*
X150241277Y-62986768D01*
X150214523Y-62910530D01*
X150203437Y-62892244D01*
X150173456Y-62901425D01*
X150122691Y-62958531D01*
X150056470Y-63054464D01*
X149980120Y-63180126D01*
X149898969Y-63326420D01*
X149818344Y-63484248D01*
X149743572Y-63644512D01*
X149693988Y-63762221D01*
X149625372Y-63957584D01*
X149585886Y-64134765D01*
X149570049Y-64285969D01*
X149553984Y-64538851D01*
X148768820Y-64538851D01*
X148699753Y-64514265D01*
X148132031Y-64281793D01*
X147619524Y-64025335D01*
X147158341Y-63741876D01*
X146744593Y-63428404D01*
X146374388Y-63081904D01*
X146043838Y-62699365D01*
X145749050Y-62277771D01*
X145691317Y-62183981D01*
X145634988Y-62084576D01*
X145594850Y-62002563D01*
X145579901Y-61956694D01*
X145955926Y-61956694D01*
X145962239Y-62040582D01*
X145986793Y-62117046D01*
X146038008Y-62205702D01*
X146101100Y-62294874D01*
X146231062Y-62457565D01*
X146396257Y-62643642D01*
X146582195Y-62838263D01*
X146774388Y-63026588D01*
X146958349Y-63193774D01*
X147067307Y-63284607D01*
X147172418Y-63366074D01*
X147258323Y-63428584D01*
X147314140Y-63464457D01*
X147329479Y-63469615D01*
X147330676Y-63435471D01*
X147325819Y-63361932D01*
X147429753Y-63361932D01*
X147433072Y-63468325D01*
X147448136Y-63533310D01*
X147482598Y-63578063D01*
X147517797Y-63605459D01*
X147588473Y-63652427D01*
X147683805Y-63711473D01*
X147789943Y-63774593D01*
X147893039Y-63833781D01*
X147979243Y-63881033D01*
X148034707Y-63908344D01*
X148047638Y-63911703D01*
X148046234Y-63879609D01*
X148037452Y-63795259D01*
X148037289Y-63793875D01*
X148135157Y-63793875D01*
X148140740Y-63872335D01*
X148153160Y-63924713D01*
X148178215Y-63965760D01*
X148227378Y-64004833D01*
X148312120Y-64051291D01*
X148428994Y-64107484D01*
X148567174Y-64171757D01*
X148658498Y-64211610D01*
X148712487Y-64230090D01*
X148738666Y-64230247D01*
X148746558Y-64215127D01*
X148746790Y-64209205D01*
X148744523Y-64186507D01*
X148856052Y-64186507D01*
X148886166Y-64263466D01*
X148955633Y-64321971D01*
X149071401Y-64375847D01*
X149124571Y-64396327D01*
X149262760Y-64446865D01*
X149352930Y-64474515D01*
X149405202Y-64479912D01*
X149429695Y-64463692D01*
X149436528Y-64426489D01*
X149436666Y-64415920D01*
X149430819Y-64292824D01*
X149414757Y-64141097D01*
X149390703Y-63972004D01*
X149360877Y-63796811D01*
X149327501Y-63626782D01*
X149292797Y-63473183D01*
X149258986Y-63347279D01*
X149228288Y-63260336D01*
X149202926Y-63223617D01*
X149201481Y-63223232D01*
X149169273Y-63246837D01*
X149123169Y-63317313D01*
X149068898Y-63421964D01*
X149012192Y-63548093D01*
X148958781Y-63683006D01*
X148914396Y-63814007D01*
X148886087Y-63921936D01*
X148858342Y-64077272D01*
X148856052Y-64186507D01*
X148744523Y-64186507D01*
X148742870Y-64169964D01*
X148732060Y-64079955D01*
X148715781Y-63950570D01*
X148695457Y-63793205D01*
X148683173Y-63699637D01*
X148646998Y-63445698D01*
X148610315Y-63225549D01*
X148574475Y-63045691D01*
X148540830Y-62912626D01*
X148510733Y-62832857D01*
X148499668Y-62817002D01*
X148474195Y-62829482D01*
X148430931Y-62887045D01*
X148376925Y-62977184D01*
X148319221Y-63087394D01*
X148264865Y-63205168D01*
X148226686Y-63301526D01*
X148177810Y-63468620D01*
X148146132Y-63640497D01*
X148135157Y-63793875D01*
X148037289Y-63793875D01*
X148022459Y-63668532D01*
X148002421Y-63509304D01*
X147979081Y-63331730D01*
X147950970Y-63133519D01*
X147921056Y-62942391D01*
X147891821Y-62772891D01*
X147865749Y-62639569D01*
X147848974Y-62569229D01*
X147818866Y-62467655D01*
X147797222Y-62417758D01*
X147777247Y-62410384D01*
X147752143Y-62436378D01*
X147751234Y-62437587D01*
X147654313Y-62594523D01*
X147566182Y-62787683D01*
X147494367Y-62995429D01*
X147446393Y-63196122D01*
X147429753Y-63361932D01*
X147325819Y-63361932D01*
X147325064Y-63350501D01*
X147313624Y-63226106D01*
X147297337Y-63073691D01*
X147289736Y-63007869D01*
X147253710Y-62727129D01*
X147217082Y-62488869D01*
X147180721Y-62297154D01*
X147145495Y-62156049D01*
X147112274Y-62069617D01*
X147083313Y-62041852D01*
X147055575Y-62067964D01*
X147010791Y-62136796D01*
X146958125Y-62234086D01*
X146952359Y-62245679D01*
X146900896Y-62344986D01*
X146858553Y-62417525D01*
X146833672Y-62449135D01*
X146832308Y-62449506D01*
X146821562Y-62420319D01*
X146806780Y-62340866D01*
X146789918Y-62223311D01*
X146773064Y-62081049D01*
X146735122Y-61767021D01*
X146728584Y-61722589D01*
X147335679Y-61722589D01*
X147345699Y-61863198D01*
X147371121Y-62012447D01*
X147387397Y-62075358D01*
X147439116Y-62245679D01*
X147499860Y-62112688D01*
X148072541Y-62112688D01*
X148077772Y-62212445D01*
X148092343Y-62326026D01*
X148113459Y-62439335D01*
X148138324Y-62538273D01*
X148164142Y-62608742D01*
X148188117Y-62636643D01*
X148196770Y-62632500D01*
X148212368Y-62600634D01*
X148245525Y-62525309D01*
X148261091Y-62488724D01*
X148779998Y-62488724D01*
X148785914Y-62591619D01*
X148797634Y-62707332D01*
X148813665Y-62819517D01*
X148832511Y-62911822D01*
X148842651Y-62945771D01*
X148867659Y-63003922D01*
X148891667Y-63022400D01*
X148920212Y-62996296D01*
X148958834Y-62920700D01*
X148960028Y-62917841D01*
X149478030Y-62917841D01*
X149483488Y-63013443D01*
X149498580Y-63125266D01*
X149520376Y-63239112D01*
X149545950Y-63340786D01*
X149572371Y-63416089D01*
X149596714Y-63450824D01*
X149607881Y-63447809D01*
X149623476Y-63415945D01*
X149656638Y-63340609D01*
X149701020Y-63236305D01*
X149714674Y-63203690D01*
X149763435Y-63085169D01*
X149785611Y-63009015D01*
X149776703Y-62958894D01*
X149732211Y-62918476D01*
X149647635Y-62871427D01*
X149618968Y-62856327D01*
X149545462Y-62819611D01*
X149508846Y-62812722D01*
X149491107Y-62835166D01*
X149485132Y-62852658D01*
X149478030Y-62917841D01*
X148960028Y-62917841D01*
X149010583Y-62796877D01*
X149051170Y-62693043D01*
X149080271Y-62612680D01*
X149091114Y-62574938D01*
X154333793Y-62574938D01*
X154339104Y-62594762D01*
X154381899Y-62566310D01*
X154394772Y-62555067D01*
X154447759Y-62522862D01*
X154548844Y-62474583D01*
X154686975Y-62415017D01*
X154851105Y-62348949D01*
X155010184Y-62288524D01*
X155211676Y-62212731D01*
X155359908Y-62153420D01*
X155461236Y-62107600D01*
X155522017Y-62072281D01*
X155548606Y-62044473D01*
X155551110Y-62034012D01*
X155569847Y-61987589D01*
X155590679Y-61979253D01*
X155666780Y-62002338D01*
X155752387Y-62058497D01*
X155822911Y-62128648D01*
X155851940Y-62181990D01*
X155878458Y-62247617D01*
X155910187Y-62251216D01*
X155948129Y-62192677D01*
X155957852Y-62170381D01*
X156039128Y-62039366D01*
X156150314Y-61958704D01*
X156273576Y-61933524D01*
X156350541Y-61930901D01*
X156376540Y-61917268D01*
X156363278Y-61883980D01*
X156355941Y-61872690D01*
X156279125Y-61798682D01*
X156167433Y-61736811D01*
X156048683Y-61700916D01*
X156002612Y-61696913D01*
X155920428Y-61710058D01*
X155810401Y-61744034D01*
X155725519Y-61778624D01*
X155588189Y-61829692D01*
X155433201Y-61870479D01*
X155351118Y-61884632D01*
X155169210Y-61919596D01*
X155029882Y-61978672D01*
X154914809Y-62071009D01*
X154864762Y-62127432D01*
X154789975Y-62203889D01*
X154683562Y-62294376D01*
X154567481Y-62380331D01*
X154557936Y-62386790D01*
X154457594Y-62458575D01*
X154379408Y-62522836D01*
X154337124Y-62568034D01*
X154333793Y-62574938D01*
X149091114Y-62574938D01*
X149091721Y-62572828D01*
X149091728Y-62572511D01*
X149067203Y-62546307D01*
X149006512Y-62502839D01*
X148928983Y-62454065D01*
X148853941Y-62411943D01*
X148800715Y-62388431D01*
X148791556Y-62386790D01*
X148781380Y-62414998D01*
X148779998Y-62488724D01*
X148261091Y-62488724D01*
X148289887Y-62421047D01*
X148303385Y-62388806D01*
X148347625Y-62280166D01*
X148379404Y-62197098D01*
X148393437Y-62153599D01*
X148393415Y-62150370D01*
X148364559Y-62133117D01*
X148298155Y-62094414D01*
X148241069Y-62061394D01*
X148156938Y-62014384D01*
X148111758Y-61997397D01*
X148090502Y-62008525D01*
X148079446Y-62040856D01*
X148072541Y-62112688D01*
X147499860Y-62112688D01*
X147527027Y-62053212D01*
X147575294Y-61942409D01*
X147613883Y-61844549D01*
X147632767Y-61786669D01*
X147635352Y-61739744D01*
X147609040Y-61699948D01*
X147542356Y-61654110D01*
X147493137Y-61626367D01*
X147335679Y-61540142D01*
X147335679Y-61722589D01*
X146728584Y-61722589D01*
X146691187Y-61468473D01*
X146643380Y-61197568D01*
X146621689Y-61096410D01*
X149123673Y-61096410D01*
X149151664Y-61133357D01*
X149233627Y-61196630D01*
X149367342Y-61284705D01*
X149550587Y-61396058D01*
X149617562Y-61435333D01*
X149776182Y-61527109D01*
X149916237Y-61607067D01*
X150028703Y-61670143D01*
X150104556Y-61711273D01*
X150134382Y-61725395D01*
X150154058Y-61701998D01*
X150157901Y-61671417D01*
X150164165Y-61651532D01*
X150187934Y-61633624D01*
X150236674Y-61615911D01*
X150317853Y-61596612D01*
X150438937Y-61573942D01*
X150607391Y-61546121D01*
X150719919Y-61528599D01*
X156309781Y-61528599D01*
X156320038Y-61530315D01*
X156369342Y-61493331D01*
X156377480Y-61486934D01*
X156432765Y-61455382D01*
X156535801Y-61407451D01*
X156675315Y-61347968D01*
X156840037Y-61281763D01*
X156992970Y-61223243D01*
X157201261Y-61143536D01*
X157354252Y-61080531D01*
X157456470Y-61032110D01*
X157512440Y-60996157D01*
X157527037Y-60973508D01*
X157536242Y-60920463D01*
X157570782Y-60907054D01*
X157641039Y-60932125D01*
X157687150Y-60955693D01*
X157786750Y-61027608D01*
X157830487Y-61108950D01*
X157853554Y-61176744D01*
X157884857Y-61186834D01*
X157927767Y-61138260D01*
X157965719Y-61070399D01*
X158045266Y-60961621D01*
X158148011Y-60886443D01*
X158256733Y-60855793D01*
X158299333Y-60858691D01*
X158359849Y-60861566D01*
X158366195Y-60835742D01*
X158318428Y-60779794D01*
X158303148Y-60765557D01*
X158181683Y-60676999D01*
X158056503Y-60635894D01*
X157915756Y-60641475D01*
X157747588Y-60692976D01*
X157673174Y-60724815D01*
X157524044Y-60781942D01*
X157389076Y-60814568D01*
X157331738Y-60819577D01*
X157159170Y-60847028D01*
X156995872Y-60920374D01*
X156865838Y-61028717D01*
X156862381Y-61032774D01*
X156807827Y-61100748D01*
X156773431Y-61149440D01*
X156769604Y-61156728D01*
X156739272Y-61185004D01*
X156669281Y-61235001D01*
X156573977Y-61296554D01*
X156560863Y-61304637D01*
X156458752Y-61372753D01*
X156376480Y-61437699D01*
X156330863Y-61486108D01*
X156329508Y-61488476D01*
X156309781Y-61528599D01*
X150719919Y-61528599D01*
X150824259Y-61512352D01*
X151022042Y-61481061D01*
X151198922Y-61451263D01*
X151345463Y-61424697D01*
X151452228Y-61403101D01*
X151509781Y-61388213D01*
X151516643Y-61384821D01*
X151540958Y-61346244D01*
X151582429Y-61265894D01*
X151635259Y-61156563D01*
X151693650Y-61031041D01*
X151751804Y-60902119D01*
X151803923Y-60782586D01*
X151844210Y-60685235D01*
X151866865Y-60622854D01*
X151869252Y-60606948D01*
X151837429Y-60585634D01*
X151765885Y-60541831D01*
X151669196Y-60484440D01*
X151654604Y-60475898D01*
X151453470Y-60358362D01*
X151339079Y-60423996D01*
X151271180Y-60467702D01*
X151237309Y-60512385D01*
X151225647Y-60581331D01*
X151224381Y-60650030D01*
X151200138Y-60808280D01*
X151127103Y-60932633D01*
X151003810Y-61024033D01*
X150828791Y-61083423D01*
X150600581Y-61111749D01*
X150502839Y-61114542D01*
X150354389Y-61113563D01*
X150247804Y-61105498D01*
X150162327Y-61086643D01*
X150077197Y-61053298D01*
X150027857Y-61029828D01*
X149883613Y-60937631D01*
X149794640Y-60825267D01*
X149754301Y-60682598D01*
X149750247Y-60605771D01*
X149750247Y-60480527D01*
X149946234Y-60541703D01*
X150145006Y-60593459D01*
X150325944Y-60620971D01*
X150477323Y-60623434D01*
X150587416Y-60600042D01*
X150611352Y-60587399D01*
X150672307Y-60513934D01*
X150692906Y-60415152D01*
X150671557Y-60315040D01*
X150633137Y-60259310D01*
X150606916Y-60229551D01*
X150607452Y-60209546D01*
X150644444Y-60194108D01*
X150727593Y-60178047D01*
X150809289Y-60165080D01*
X151064570Y-60106431D01*
X151276522Y-60020113D01*
X151443563Y-59911650D01*
X151564109Y-59786566D01*
X151636580Y-59650384D01*
X151659392Y-59508628D01*
X151630965Y-59366821D01*
X151549714Y-59230486D01*
X151414060Y-59105147D01*
X151222418Y-58996328D01*
X151152405Y-58967202D01*
X150902921Y-58893222D01*
X150641215Y-58855202D01*
X150377665Y-58851459D01*
X150122650Y-58880312D01*
X149886548Y-58940076D01*
X149679736Y-59029070D01*
X149512593Y-59145610D01*
X149421034Y-59247904D01*
X149380199Y-59308891D01*
X149353291Y-59363132D01*
X149337409Y-59425698D01*
X149329654Y-59511660D01*
X149327127Y-59636088D01*
X149326913Y-59737111D01*
X149328014Y-59894595D01*
X149332853Y-60003573D01*
X149343736Y-60078239D01*
X149362967Y-60132787D01*
X149392851Y-60181410D01*
X149400849Y-60192403D01*
X149474785Y-60292407D01*
X149298935Y-60668540D01*
X149233353Y-60812667D01*
X149178972Y-60939514D01*
X149140850Y-61036733D01*
X149124046Y-61091978D01*
X149123673Y-61096410D01*
X146621689Y-61096410D01*
X146593825Y-60966469D01*
X146550440Y-60805635D01*
X146483148Y-60588555D01*
X146385999Y-60742919D01*
X146275370Y-60939208D01*
X146173131Y-61158743D01*
X146084677Y-61386295D01*
X146015404Y-61606636D01*
X145970709Y-61804537D01*
X145955926Y-61956694D01*
X145579901Y-61956694D01*
X145579629Y-61955862D01*
X145605901Y-61916899D01*
X145670643Y-61875636D01*
X145685966Y-61868789D01*
X145792303Y-61824359D01*
X145803621Y-61467810D01*
X145809678Y-61310036D01*
X145818937Y-61195769D01*
X145835736Y-61105807D01*
X145864414Y-61020952D01*
X145909310Y-60922003D01*
X145941927Y-60855745D01*
X146068914Y-60600229D01*
X145931644Y-60466534D01*
X145695321Y-60219698D01*
X145475714Y-59957999D01*
X145278138Y-59689902D01*
X145107906Y-59423867D01*
X144970333Y-59168360D01*
X144870732Y-58931841D01*
X144814418Y-58722775D01*
X144812361Y-58708389D01*
X145480310Y-58708389D01*
X145500242Y-58860693D01*
X145550330Y-59025474D01*
X145627674Y-59190481D01*
X145729374Y-59343463D01*
X145750702Y-59369557D01*
X145838547Y-59457860D01*
X145947434Y-59545986D01*
X146057327Y-59619375D01*
X146148187Y-59663468D01*
X146159911Y-59666905D01*
X146213172Y-59681283D01*
X146228267Y-59686362D01*
X146258109Y-59679321D01*
X146312595Y-59660143D01*
X146385726Y-59613877D01*
X146424855Y-59567260D01*
X146444118Y-59526932D01*
X146432267Y-59521701D01*
X146378653Y-59549917D01*
X146364623Y-59557919D01*
X146305848Y-59587769D01*
X146258301Y-59593199D01*
X146198111Y-59572034D01*
X146128419Y-59536398D01*
X145965502Y-59422686D01*
X145822349Y-59270866D01*
X145708957Y-59096108D01*
X145635325Y-58913584D01*
X145611294Y-58751728D01*
X145617902Y-58706142D01*
X145815942Y-58706142D01*
X145847246Y-58875070D01*
X145935325Y-59025218D01*
X146075123Y-59148306D01*
X146092829Y-59159466D01*
X146165067Y-59202217D01*
X146206488Y-59214732D01*
X146240620Y-59198078D01*
X146274876Y-59167732D01*
X146319903Y-59101220D01*
X146331533Y-59050140D01*
X146308584Y-58937177D01*
X146249639Y-58817199D01*
X146166249Y-58703739D01*
X146069965Y-58610333D01*
X145972340Y-58550516D01*
X145893209Y-58536549D01*
X145847014Y-58547257D01*
X145823920Y-58576901D01*
X145816282Y-58642261D01*
X145815942Y-58706142D01*
X145617902Y-58706142D01*
X145630602Y-58618544D01*
X145689236Y-58534206D01*
X145787214Y-58498691D01*
X145811835Y-58497441D01*
X145873111Y-58493844D01*
X145878588Y-58481151D01*
X145852997Y-58463957D01*
X145747012Y-58431064D01*
X145634991Y-58439842D01*
X145544848Y-58487931D01*
X145542517Y-58490212D01*
X145493435Y-58580812D01*
X145480310Y-58708389D01*
X144812361Y-58708389D01*
X144807829Y-58676708D01*
X144791107Y-58568757D01*
X144773716Y-58518440D01*
X144757650Y-58520731D01*
X144744905Y-58570605D01*
X144737477Y-58663037D01*
X144737359Y-58793000D01*
X144739527Y-58848748D01*
X144748934Y-58991852D01*
X144764890Y-59103752D01*
X144793334Y-59207661D01*
X144840206Y-59326796D01*
X144890582Y-59439136D01*
X144952482Y-59581932D01*
X144997129Y-59709869D01*
X145025501Y-59835136D01*
X145038576Y-59969922D01*
X145037329Y-60126418D01*
X145022739Y-60316813D01*
X144995782Y-60553297D01*
X144986057Y-60630164D01*
X144907801Y-61163384D01*
X144816202Y-61649321D01*
X144712030Y-62085222D01*
X144596059Y-62468336D01*
X144469060Y-62795912D01*
X144331805Y-63065198D01*
X144279768Y-63147735D01*
X144140289Y-63355707D01*
X144246253Y-63421196D01*
X144330936Y-63497701D01*
X144408100Y-63607489D01*
X144463252Y-63726002D01*
X144482098Y-63820916D01*
X144473615Y-63898164D01*
X144440930Y-63960278D01*
X144373188Y-64019948D01*
X144259538Y-64089864D01*
X144245151Y-64097952D01*
X144141134Y-64154644D01*
X144073874Y-64183710D01*
X144025778Y-64188819D01*
X143979251Y-64173639D01*
X143950637Y-64159359D01*
X143852869Y-64082120D01*
X143763771Y-63965943D01*
X143699599Y-63834147D01*
X143683115Y-63775616D01*
X143678934Y-63710948D01*
X143694411Y-63631072D01*
X143733383Y-63521999D01*
X143786300Y-63399320D01*
X143932572Y-63034368D01*
X144061130Y-62628186D01*
X144172483Y-62177819D01*
X144267140Y-61680315D01*
X144345611Y-61132720D01*
X144408405Y-60532078D01*
X144456031Y-59875437D01*
X144481062Y-59370098D01*
X144493204Y-59100865D01*
X144506567Y-58884843D01*
X144523329Y-58712537D01*
X144545669Y-58574448D01*
X144575764Y-58461080D01*
X144615792Y-58362937D01*
X144667931Y-58270521D01*
X144734359Y-58174335D01*
X144764594Y-58133771D01*
X144891072Y-57987067D01*
X145012190Y-57894104D01*
X145138792Y-57848035D01*
X145229952Y-57839994D01*
X145364701Y-57856682D01*
X145491681Y-57901006D01*
X145589211Y-57964016D01*
X145621324Y-58001565D01*
X145679826Y-58048429D01*
X145727696Y-58059383D01*
X145786160Y-58082077D01*
X145874709Y-58144112D01*
X145983558Y-58236418D01*
X146102925Y-58349922D01*
X146223024Y-58475554D01*
X146334071Y-58604242D01*
X146383568Y-58667463D01*
X146477019Y-58800779D01*
X146574250Y-58953607D01*
X146641593Y-59070147D01*
X146698085Y-59170636D01*
X146744362Y-59245330D01*
X146771912Y-59280663D01*
X146774426Y-59281813D01*
X146785395Y-59259180D01*
X146796758Y-59188992D01*
X146808699Y-59068735D01*
X146821402Y-58895896D01*
X146835052Y-58667959D01*
X146849833Y-58382411D01*
X146865929Y-58036737D01*
X146866317Y-58028025D01*
X146879607Y-57754487D01*
X146893840Y-57534299D01*
X146911122Y-57358107D01*
X146920945Y-57296130D01*
X147120005Y-57296130D01*
X147120821Y-57423875D01*
X147122116Y-57453416D01*
X147132005Y-57591208D01*
X147149729Y-57704587D01*
X147180992Y-57815955D01*
X147231503Y-57947714D01*
X147272475Y-58043704D01*
X147354866Y-58251009D01*
X147403997Y-58420747D01*
X147422588Y-58546377D01*
X147423145Y-58639788D01*
X147416474Y-58779469D01*
X147404084Y-58949583D01*
X147387479Y-59134297D01*
X147368168Y-59317773D01*
X147347658Y-59484178D01*
X147327453Y-59617675D01*
X147314518Y-59682160D01*
X147309493Y-59736428D01*
X147319708Y-59752716D01*
X147354364Y-59737795D01*
X147430698Y-59697454D01*
X147536481Y-59638327D01*
X147628849Y-59585024D01*
X147781146Y-59496157D01*
X147944379Y-59401124D01*
X148091810Y-59315485D01*
X148144021Y-59285229D01*
X148372240Y-59153127D01*
X148149341Y-58911995D01*
X147870201Y-58589653D01*
X147634643Y-58274824D01*
X147445322Y-57972050D01*
X147304896Y-57685874D01*
X147216022Y-57420838D01*
X147210040Y-57388436D01*
X147869165Y-57388436D01*
X147904903Y-57552037D01*
X147973530Y-57722761D01*
X148069741Y-57889853D01*
X148188230Y-58042560D01*
X148323690Y-58170126D01*
X148470817Y-58261799D01*
X148480247Y-58266076D01*
X148586390Y-58302596D01*
X148667877Y-58298554D01*
X148749391Y-58252104D01*
X148758240Y-58245255D01*
X148814809Y-58191498D01*
X148840695Y-58148629D01*
X148840864Y-58146321D01*
X148821906Y-58139017D01*
X148779402Y-58168001D01*
X148693862Y-58207490D01*
X148590017Y-58197249D01*
X148475602Y-58144603D01*
X148358357Y-58056876D01*
X148246018Y-57941391D01*
X148146322Y-57805471D01*
X148067008Y-57656441D01*
X148015814Y-57501624D01*
X148004281Y-57434333D01*
X148004467Y-57286376D01*
X148044278Y-57183482D01*
X148122300Y-57128080D01*
X148187928Y-57118642D01*
X148253461Y-57121239D01*
X148264859Y-57137451D01*
X148230694Y-57179908D01*
X148230019Y-57180654D01*
X148188262Y-57270387D01*
X148192605Y-57384925D01*
X148238314Y-57512342D01*
X148320653Y-57640712D01*
X148434890Y-57758111D01*
X148470454Y-57786280D01*
X148562017Y-57830447D01*
X148635525Y-57821357D01*
X148684817Y-57767330D01*
X148703736Y-57676687D01*
X148686120Y-57557748D01*
X148671579Y-57514591D01*
X148601643Y-57384292D01*
X148502578Y-57268493D01*
X148384995Y-57172668D01*
X148259505Y-57102292D01*
X148136720Y-57062839D01*
X148027252Y-57059783D01*
X147941712Y-57098599D01*
X147917580Y-57125619D01*
X147871622Y-57242712D01*
X147869165Y-57388436D01*
X147210040Y-57388436D01*
X147187910Y-57268571D01*
X147171818Y-57172685D01*
X147154855Y-57133471D01*
X147139149Y-57144955D01*
X147126823Y-57201166D01*
X147120005Y-57296130D01*
X146920945Y-57296130D01*
X146933559Y-57216554D01*
X146963257Y-57100287D01*
X147002322Y-56999950D01*
X147052860Y-56906187D01*
X147116977Y-56809645D01*
X147151290Y-56762163D01*
X147271638Y-56616844D01*
X147385836Y-56523369D01*
X147506675Y-56473794D01*
X147637657Y-56460123D01*
X147719599Y-56473398D01*
X147817530Y-56507271D01*
X147913180Y-56552819D01*
X147988280Y-56601118D01*
X148024558Y-56643243D01*
X148025555Y-56649593D01*
X148052572Y-56671563D01*
X148110019Y-56679630D01*
X148175058Y-56703704D01*
X148268331Y-56770169D01*
X148381610Y-56870387D01*
X148506667Y-56995721D01*
X148635275Y-57137532D01*
X148759205Y-57287184D01*
X148870231Y-57436038D01*
X148954984Y-57566682D01*
X149027852Y-57689201D01*
X149075368Y-57763768D01*
X149103942Y-57796507D01*
X149119985Y-57793543D01*
X149129909Y-57761002D01*
X149134169Y-57737869D01*
X149140503Y-57678852D01*
X149148728Y-57567069D01*
X149158262Y-57412422D01*
X149168523Y-57224812D01*
X149178929Y-57014140D01*
X149186254Y-56852099D01*
X149199357Y-56572195D01*
X149213049Y-56346040D01*
X149229277Y-56164682D01*
X149240890Y-56083090D01*
X149438990Y-56083090D01*
X149442610Y-56230453D01*
X149452525Y-56368411D01*
X149470309Y-56482014D01*
X149501670Y-56593703D01*
X149552315Y-56725918D01*
X149592726Y-56820741D01*
X149652812Y-56967727D01*
X149697404Y-57102643D01*
X149727044Y-57235932D01*
X149742275Y-57378040D01*
X149743639Y-57539412D01*
X149731681Y-57730492D01*
X149706941Y-57961725D01*
X149669964Y-58243557D01*
X149667569Y-58260853D01*
X149646145Y-58415287D01*
X149797235Y-58330841D01*
X149885776Y-58280780D01*
X150010971Y-58209248D01*
X150155262Y-58126306D01*
X150283160Y-58052408D01*
X150617994Y-57858421D01*
X150357841Y-57562573D01*
X150090742Y-57237556D01*
X149871412Y-56925188D01*
X149702057Y-56629277D01*
X149584880Y-56353628D01*
X149536093Y-56165473D01*
X150189659Y-56165473D01*
X150225397Y-56329074D01*
X150294024Y-56499798D01*
X150390235Y-56666890D01*
X150508724Y-56819597D01*
X150644184Y-56947163D01*
X150791311Y-57038836D01*
X150800740Y-57043114D01*
X150906884Y-57079633D01*
X150988370Y-57075591D01*
X151069884Y-57029141D01*
X151078734Y-57022292D01*
X151135303Y-56968535D01*
X151161189Y-56925666D01*
X151161358Y-56923358D01*
X151142400Y-56916054D01*
X151099896Y-56945038D01*
X151014356Y-56984527D01*
X150910510Y-56974286D01*
X150796096Y-56921641D01*
X150678851Y-56833913D01*
X150566511Y-56718428D01*
X150466816Y-56582508D01*
X150387502Y-56433478D01*
X150336307Y-56278661D01*
X150324775Y-56211370D01*
X150324961Y-56063413D01*
X150364772Y-55960519D01*
X150442794Y-55905117D01*
X150508422Y-55895679D01*
X150573421Y-55898591D01*
X150584912Y-55914900D01*
X150554736Y-55953025D01*
X150508310Y-56048032D01*
X150511008Y-56166371D01*
X150559443Y-56297079D01*
X150650229Y-56429194D01*
X150725659Y-56506424D01*
X150835058Y-56588173D01*
X150920430Y-56613038D01*
X150983689Y-56581234D01*
X151010231Y-56538611D01*
X151029911Y-56459461D01*
X151016132Y-56362369D01*
X151008723Y-56336197D01*
X150948787Y-56203731D01*
X150857529Y-56083002D01*
X150745159Y-55979754D01*
X150621886Y-55899730D01*
X150497920Y-55848674D01*
X150383469Y-55832328D01*
X150288744Y-55856437D01*
X150238074Y-55902656D01*
X150192116Y-56019749D01*
X150189659Y-56165473D01*
X149536093Y-56165473D01*
X149525846Y-56125957D01*
X149500209Y-56000967D01*
X149476911Y-55936439D01*
X149457745Y-55930118D01*
X149444507Y-55979753D01*
X149438990Y-56083090D01*
X149240890Y-56083090D01*
X149249988Y-56019170D01*
X149277129Y-55900552D01*
X149312647Y-55799874D01*
X149358488Y-55708187D01*
X149416600Y-55616536D01*
X149471783Y-55539200D01*
X149592132Y-55393881D01*
X149706330Y-55300406D01*
X149827169Y-55250831D01*
X149958151Y-55237160D01*
X150040092Y-55250435D01*
D11*
X160130000Y-72000000D02*
X142130000Y-72000000D01*
X160130000Y-55000000D02*
X160130000Y-72000000D01*
X142130000Y-55000000D02*
X160130000Y-55000000D01*
X142130000Y-72000000D02*
X142130000Y-55000000D01*
D12*
X151701499Y-42164001D02*
G75*
G03X152463500Y-41275000I-63500J825501D01*
G01*
X151701500Y-42164000D02*
X150685500Y-42164000D01*
X149923501Y-41274999D02*
G75*
G03X150685500Y-42164000I825500J-63501D01*
G01*
X149923500Y-41275000D02*
X149923500Y-37973000D01*
X149542500Y-37592000D02*
G75*
G02X149923500Y-37973000I0J-381000D01*
G01*
X152463500Y-41275000D02*
X152463500Y-37973000D01*
X152844500Y-37592000D02*
G75*
G03X152463500Y-37973000I0J-381000D01*
G01*
X149542500Y-37592000D02*
X149542500Y-36957000D01*
X149542500Y-36957000D02*
X152844500Y-36957000D01*
X152844500Y-36957000D02*
X152844500Y-37592000D01*
D13*
X152146000Y-46593000D02*
G75*
G03X151892000Y-46339000I-254000J0D01*
G01*
X150114000Y-46593000D02*
G75*
G02X150368000Y-46339000I254000J0D01*
G01*
X150368000Y-51959000D02*
G75*
G02X150114000Y-51705000I0J254000D01*
G01*
X151892000Y-51959000D02*
G75*
G03X152146000Y-51705000I0J254000D01*
G01*
X150368000Y-46339000D02*
X151892000Y-46339000D01*
X152146000Y-46593000D02*
X152146000Y-47609000D01*
X152019000Y-47736000D02*
X152146000Y-47609000D01*
X150114000Y-46593000D02*
X150114000Y-47609000D01*
X150241000Y-47736000D02*
X150114000Y-47609000D01*
X152019000Y-50562000D02*
X152146000Y-50689000D01*
X152019000Y-50562000D02*
X152019000Y-47736000D01*
X150241000Y-50562000D02*
X150114000Y-50689000D01*
X150241000Y-50562000D02*
X150241000Y-47736000D01*
X152146000Y-51705000D02*
X152146000Y-50689000D01*
X150114000Y-51705000D02*
X150114000Y-50689000D01*
X150368000Y-51959000D02*
X151892000Y-51959000D01*
D14*
X145415714Y-70397714D02*
X145415714Y-71397714D01*
X145415714Y-70445333D02*
X145510952Y-70397714D01*
X145701428Y-70397714D01*
X145796666Y-70445333D01*
X145844285Y-70492952D01*
X145891904Y-70588190D01*
X145891904Y-70873904D01*
X145844285Y-70969142D01*
X145796666Y-71016761D01*
X145701428Y-71064380D01*
X145510952Y-71064380D01*
X145415714Y-71016761D01*
X146701428Y-71016761D02*
X146606190Y-71064380D01*
X146415714Y-71064380D01*
X146320476Y-71016761D01*
X146272857Y-70921523D01*
X146272857Y-70540571D01*
X146320476Y-70445333D01*
X146415714Y-70397714D01*
X146606190Y-70397714D01*
X146701428Y-70445333D01*
X146749047Y-70540571D01*
X146749047Y-70635809D01*
X146272857Y-70731047D01*
X147606190Y-71064380D02*
X147606190Y-70064380D01*
X147606190Y-71016761D02*
X147510952Y-71064380D01*
X147320476Y-71064380D01*
X147225238Y-71016761D01*
X147177619Y-70969142D01*
X147130000Y-70873904D01*
X147130000Y-70588190D01*
X147177619Y-70492952D01*
X147225238Y-70445333D01*
X147320476Y-70397714D01*
X147510952Y-70397714D01*
X147606190Y-70445333D01*
X148510952Y-71064380D02*
X148510952Y-70540571D01*
X148463333Y-70445333D01*
X148368095Y-70397714D01*
X148177619Y-70397714D01*
X148082380Y-70445333D01*
X148510952Y-71016761D02*
X148415714Y-71064380D01*
X148177619Y-71064380D01*
X148082380Y-71016761D01*
X148034761Y-70921523D01*
X148034761Y-70826285D01*
X148082380Y-70731047D01*
X148177619Y-70683428D01*
X148415714Y-70683428D01*
X148510952Y-70635809D01*
X149130000Y-71064380D02*
X149034761Y-71016761D01*
X148987142Y-70921523D01*
X148987142Y-70064380D01*
X149510952Y-71064380D02*
X149510952Y-70397714D01*
X149510952Y-70492952D02*
X149558571Y-70445333D01*
X149653809Y-70397714D01*
X149796666Y-70397714D01*
X149891904Y-70445333D01*
X149939523Y-70540571D01*
X149939523Y-71064380D01*
X149939523Y-70540571D02*
X149987142Y-70445333D01*
X150082380Y-70397714D01*
X150225238Y-70397714D01*
X150320476Y-70445333D01*
X150368095Y-70540571D01*
X150368095Y-71064380D01*
X151272857Y-71064380D02*
X151272857Y-70540571D01*
X151225238Y-70445333D01*
X151130000Y-70397714D01*
X150939523Y-70397714D01*
X150844285Y-70445333D01*
X151272857Y-71016761D02*
X151177619Y-71064380D01*
X150939523Y-71064380D01*
X150844285Y-71016761D01*
X150796666Y-70921523D01*
X150796666Y-70826285D01*
X150844285Y-70731047D01*
X150939523Y-70683428D01*
X151177619Y-70683428D01*
X151272857Y-70635809D01*
X151749047Y-71064380D02*
X151749047Y-70397714D01*
X151749047Y-70588190D02*
X151796666Y-70492952D01*
X151844285Y-70445333D01*
X151939523Y-70397714D01*
X152034761Y-70397714D01*
X152368095Y-71064380D02*
X152368095Y-70064380D01*
X152463333Y-70683428D02*
X152749047Y-71064380D01*
X152749047Y-70397714D02*
X152368095Y-70778666D01*
X153034761Y-70397714D02*
X153415714Y-70397714D01*
X153177619Y-70064380D02*
X153177619Y-70921523D01*
X153225238Y-71016761D01*
X153320476Y-71064380D01*
X153415714Y-71064380D01*
X153749047Y-70969142D02*
X153796666Y-71016761D01*
X153749047Y-71064380D01*
X153701428Y-71016761D01*
X153749047Y-70969142D01*
X153749047Y-71064380D01*
X154653809Y-71016761D02*
X154558571Y-71064380D01*
X154368095Y-71064380D01*
X154272857Y-71016761D01*
X154225238Y-70969142D01*
X154177619Y-70873904D01*
X154177619Y-70588190D01*
X154225238Y-70492952D01*
X154272857Y-70445333D01*
X154368095Y-70397714D01*
X154558571Y-70397714D01*
X154653809Y-70445333D01*
X155225238Y-71064380D02*
X155130000Y-71016761D01*
X155082380Y-70969142D01*
X155034761Y-70873904D01*
X155034761Y-70588190D01*
X155082380Y-70492952D01*
X155130000Y-70445333D01*
X155225238Y-70397714D01*
X155368095Y-70397714D01*
X155463333Y-70445333D01*
X155510952Y-70492952D01*
X155558571Y-70588190D01*
X155558571Y-70873904D01*
X155510952Y-70969142D01*
X155463333Y-71016761D01*
X155368095Y-71064380D01*
X155225238Y-71064380D01*
X155987142Y-71064380D02*
X155987142Y-70397714D01*
X155987142Y-70492952D02*
X156034761Y-70445333D01*
X156130000Y-70397714D01*
X156272857Y-70397714D01*
X156368095Y-70445333D01*
X156415714Y-70540571D01*
X156415714Y-71064380D01*
X156415714Y-70540571D02*
X156463333Y-70445333D01*
X156558571Y-70397714D01*
X156701428Y-70397714D01*
X156796666Y-70445333D01*
X156844285Y-70540571D01*
X156844285Y-71064380D01*
X135072380Y-69032380D02*
X134072380Y-69032380D01*
X134405714Y-68556190D02*
X135072380Y-68556190D01*
X134500952Y-68556190D02*
X134453333Y-68508571D01*
X134405714Y-68413333D01*
X134405714Y-68270476D01*
X134453333Y-68175238D01*
X134548571Y-68127619D01*
X135072380Y-68127619D01*
X167092380Y-69413333D02*
X167092380Y-69222857D01*
X167140000Y-69127619D01*
X167235238Y-69032380D01*
X167425714Y-68984761D01*
X167759047Y-68984761D01*
X167949523Y-69032380D01*
X168044761Y-69127619D01*
X168092380Y-69222857D01*
X168092380Y-69413333D01*
X168044761Y-69508571D01*
X167949523Y-69603809D01*
X167759047Y-69651428D01*
X167425714Y-69651428D01*
X167235238Y-69603809D01*
X167140000Y-69508571D01*
X167092380Y-69413333D01*
X167425714Y-68127619D02*
X168092380Y-68127619D01*
X167425714Y-68556190D02*
X167949523Y-68556190D01*
X168044761Y-68508571D01*
X168092380Y-68413333D01*
X168092380Y-68270476D01*
X168044761Y-68175238D01*
X167997142Y-68127619D01*
X167425714Y-67794285D02*
X167425714Y-67413333D01*
X167092380Y-67651428D02*
X167949523Y-67651428D01*
X168044761Y-67603809D01*
X168092380Y-67508571D01*
X168092380Y-67413333D01*
X134120000Y-64261904D02*
X134072380Y-64357142D01*
X134072380Y-64500000D01*
X134120000Y-64642857D01*
X134215238Y-64738095D01*
X134310476Y-64785714D01*
X134500952Y-64833333D01*
X134643809Y-64833333D01*
X134834285Y-64785714D01*
X134929523Y-64738095D01*
X135024761Y-64642857D01*
X135072380Y-64500000D01*
X135072380Y-64404761D01*
X135024761Y-64261904D01*
X134977142Y-64214285D01*
X134643809Y-64214285D01*
X134643809Y-64404761D01*
X135072380Y-63785714D02*
X134072380Y-63785714D01*
X135072380Y-63214285D01*
X134072380Y-63214285D01*
X135072380Y-62738095D02*
X134072380Y-62738095D01*
X134072380Y-62500000D01*
X134120000Y-62357142D01*
X134215238Y-62261904D01*
X134310476Y-62214285D01*
X134500952Y-62166666D01*
X134643809Y-62166666D01*
X134834285Y-62214285D01*
X134929523Y-62261904D01*
X135024761Y-62357142D01*
X135072380Y-62500000D01*
X135072380Y-62738095D01*
X134691428Y-59705714D02*
X134691428Y-58943809D01*
X135072380Y-59324761D02*
X134310476Y-59324761D01*
X135072380Y-58420000D02*
X135072380Y-58229523D01*
X135024761Y-58134285D01*
X134977142Y-58086666D01*
X134834285Y-57991428D01*
X134643809Y-57943809D01*
X134262857Y-57943809D01*
X134167619Y-57991428D01*
X134120000Y-58039047D01*
X134072380Y-58134285D01*
X134072380Y-58324761D01*
X134120000Y-58420000D01*
X134167619Y-58467619D01*
X134262857Y-58515238D01*
X134500952Y-58515238D01*
X134596190Y-58467619D01*
X134643809Y-58420000D01*
X134691428Y-58324761D01*
X134691428Y-58134285D01*
X134643809Y-58039047D01*
X134596190Y-57991428D01*
X134500952Y-57943809D01*
X134072380Y-57658095D02*
X135072380Y-57324761D01*
X134072380Y-56991428D01*
X167568571Y-64904761D02*
X167568571Y-65238095D01*
X168092380Y-65238095D02*
X167092380Y-65238095D01*
X167092380Y-64761904D01*
X167092380Y-64476190D02*
X168092380Y-63809523D01*
X167092380Y-63809523D02*
X168092380Y-64476190D01*
X168187619Y-63666666D02*
X168187619Y-62904761D01*
X168092380Y-62666666D02*
X167092380Y-62666666D01*
X167425714Y-62190476D02*
X168092380Y-62190476D01*
X167520952Y-62190476D02*
X167473333Y-62142857D01*
X167425714Y-62047619D01*
X167425714Y-61904761D01*
X167473333Y-61809523D01*
X167568571Y-61761904D01*
X168092380Y-61761904D01*
X167568571Y-60396190D02*
X167568571Y-60729523D01*
X168092380Y-60729523D02*
X167092380Y-60729523D01*
X167092380Y-60253333D01*
X167092380Y-59967619D02*
X168092380Y-59300952D01*
X167092380Y-59300952D02*
X168092380Y-59967619D01*
X168187619Y-59158095D02*
X168187619Y-58396190D01*
X167092380Y-57967619D02*
X167092380Y-57777142D01*
X167140000Y-57681904D01*
X167235238Y-57586666D01*
X167425714Y-57539047D01*
X167759047Y-57539047D01*
X167949523Y-57586666D01*
X168044761Y-57681904D01*
X168092380Y-57777142D01*
X168092380Y-57967619D01*
X168044761Y-58062857D01*
X167949523Y-58158095D01*
X167759047Y-58205714D01*
X167425714Y-58205714D01*
X167235238Y-58158095D01*
X167140000Y-58062857D01*
X167092380Y-57967619D01*
X167425714Y-56681904D02*
X168092380Y-56681904D01*
X167425714Y-57110476D02*
X167949523Y-57110476D01*
X168044761Y-57062857D01*
X168092380Y-56967619D01*
X168092380Y-56824761D01*
X168044761Y-56729523D01*
X167997142Y-56681904D01*
X167425714Y-56348571D02*
X167425714Y-55967619D01*
X167092380Y-56205714D02*
X167949523Y-56205714D01*
X168044761Y-56158095D01*
X168092380Y-56062857D01*
X168092380Y-55967619D01*
X151582380Y-50125190D02*
X151106190Y-50458523D01*
X151582380Y-50696619D02*
X150582380Y-50696619D01*
X150582380Y-50315666D01*
X150630000Y-50220428D01*
X150677619Y-50172809D01*
X150772857Y-50125190D01*
X150915714Y-50125190D01*
X151010952Y-50172809D01*
X151058571Y-50220428D01*
X151106190Y-50315666D01*
X151106190Y-50696619D01*
X151582380Y-49220428D02*
X151582380Y-49696619D01*
X150582380Y-49696619D01*
X151534761Y-48506142D02*
X151582380Y-48601380D01*
X151582380Y-48791857D01*
X151534761Y-48887095D01*
X151439523Y-48934714D01*
X151058571Y-48934714D01*
X150963333Y-48887095D01*
X150915714Y-48791857D01*
X150915714Y-48601380D01*
X150963333Y-48506142D01*
X151058571Y-48458523D01*
X151153809Y-48458523D01*
X151249047Y-48934714D01*
X151582380Y-47601380D02*
X150582380Y-47601380D01*
X151534761Y-47601380D02*
X151582380Y-47696619D01*
X151582380Y-47887095D01*
X151534761Y-47982333D01*
X151487142Y-48029952D01*
X151391904Y-48077571D01*
X151106190Y-48077571D01*
X151010952Y-48029952D01*
X150963333Y-47982333D01*
X150915714Y-47887095D01*
X150915714Y-47696619D01*
X150963333Y-47601380D01*
M02*
