G04 #@! TF.GenerationSoftware,KiCad,Pcbnew,(5.1.5-0-10_14)*
G04 #@! TF.CreationDate,2020-11-20T21:35:50+01:00*
G04 #@! TF.ProjectId,3pdt-90deg,33706474-2d39-4306-9465-672e6b696361,rev?*
G04 #@! TF.SameCoordinates,Original*
G04 #@! TF.FileFunction,Copper,L1,Top*
G04 #@! TF.FilePolarity,Positive*
%FSLAX46Y46*%
G04 Gerber Fmt 4.6, Leading zero omitted, Abs format (unit mm)*
G04 Created by KiCad (PCBNEW (5.1.5-0-10_14)) date 2020-11-20 21:35:50*
%MOMM*%
%LPD*%
G04 APERTURE LIST*
%ADD10O,4.200000X2.800000*%
%ADD11R,3.816000X3.816000*%
%ADD12R,2.000000X2.000000*%
%ADD13O,2.000000X2.000000*%
%ADD14C,4.000500*%
%ADD15C,0.250000*%
%ADD16C,0.300000*%
G04 APERTURE END LIST*
D10*
X156210000Y-68200000D03*
X156210000Y-63500000D03*
X156210000Y-58800000D03*
X151130000Y-68200000D03*
X151130000Y-63500000D03*
X151130000Y-58800000D03*
X146050000Y-68200000D03*
X146050000Y-63500000D03*
D11*
X146050000Y-58800000D03*
D12*
X151193500Y-40767000D03*
D13*
X151193500Y-38227000D03*
D14*
X137795000Y-68580000D03*
X164465000Y-68580000D03*
X137795000Y-63500000D03*
X137795000Y-58420000D03*
X164465000Y-63500000D03*
X164465000Y-58420000D03*
D13*
X151130000Y-45339000D03*
X151130000Y-52959000D03*
D15*
X151130000Y-40830500D02*
X151193500Y-40767000D01*
X151130000Y-45339000D02*
X151130000Y-40830500D01*
D16*
X152373501Y-39226999D02*
X152908000Y-39761498D01*
X152193499Y-39226999D02*
X152373501Y-39226999D01*
X151193500Y-38227000D02*
X152193499Y-39226999D01*
X147361002Y-58800000D02*
X146050000Y-58800000D01*
X152908000Y-53253002D02*
X147361002Y-58800000D01*
X152908000Y-39761498D02*
X152908000Y-53253002D01*
D15*
X151130000Y-60450000D02*
X151130000Y-58800000D01*
X150496999Y-61083001D02*
X151130000Y-60450000D01*
X145291999Y-61083001D02*
X150496999Y-61083001D01*
X155446000Y-65786000D02*
X140462000Y-65786000D01*
X156210000Y-66550000D02*
X155446000Y-65786000D01*
X156210000Y-68200000D02*
X156210000Y-66550000D01*
X140462000Y-65786000D02*
X145291999Y-61083001D01*
X137795000Y-68580000D02*
X140462000Y-65786000D01*
X156210000Y-63500000D02*
X156210000Y-65150000D01*
X161035000Y-65150000D02*
X164465000Y-68580000D01*
X156210000Y-65150000D02*
X161035000Y-65150000D01*
D16*
X150130001Y-53958999D02*
X151130000Y-52959000D01*
X149561990Y-54527010D02*
X150130001Y-53958999D01*
X144516770Y-54527010D02*
X149561990Y-54527010D01*
X140623780Y-58420000D02*
X144516770Y-54527010D01*
X137795000Y-58420000D02*
X140623780Y-58420000D01*
D15*
X162464751Y-61499751D02*
X164465000Y-63500000D01*
X153830249Y-61499751D02*
X162464751Y-61499751D01*
X151830000Y-63500000D02*
X153830249Y-61499751D01*
X151130000Y-63500000D02*
X151830000Y-63500000D01*
X164085000Y-58800000D02*
X164465000Y-58420000D01*
X156210000Y-58800000D02*
X164085000Y-58800000D01*
M02*
