M48
; DRILL file {KiCad (5.1.5-0-10_14)} date 2020 November 20, Friday 21:35:52
; FORMAT={-:-/ absolute / inch / decimal}
; #@! TF.CreationDate,2020-11-20T21:35:52+01:00
; #@! TF.GenerationSoftware,Kicad,Pcbnew,(5.1.5-0-10_14)
FMAT,2
INCH
T1C0.0394
T2C0.0591
T3C0.0630
%
G90
G05
T1
X5.95Y-1.785
X5.95Y-2.085
X5.9525Y-1.505
X5.9525Y-1.605
T2
X6.475Y-2.5
X6.475Y-2.7
X5.425Y-2.3
X5.425Y-2.5
X5.425Y-2.7
X6.475Y-2.3
T3
G00X5.7736Y-2.315
M15
G01X5.7264Y-2.315
M16
G05
G00X5.7736Y-2.5
M15
G01X5.7264Y-2.5
M16
G05
G00X5.7736Y-2.685
M15
G01X5.7264Y-2.685
M16
G05
G00X5.9736Y-2.315
M15
G01X5.9264Y-2.315
M16
G05
G00X5.9736Y-2.5
M15
G01X5.9264Y-2.5
M16
G05
G00X5.9736Y-2.685
M15
G01X5.9264Y-2.685
M16
G05
G00X6.1736Y-2.315
M15
G01X6.1264Y-2.315
M16
G05
G00X6.1736Y-2.5
M15
G01X6.1264Y-2.5
M16
G05
G00X6.1736Y-2.685
M15
G01X6.1264Y-2.685
M16
G05
T0
M30
