G04 #@! TF.GenerationSoftware,KiCad,Pcbnew,(5.1.5-0-10_14)*
G04 #@! TF.CreationDate,2020-11-20T21:35:50+01:00*
G04 #@! TF.ProjectId,3pdt-90deg,33706474-2d39-4306-9465-672e6b696361,rev?*
G04 #@! TF.SameCoordinates,Original*
G04 #@! TF.FileFunction,Soldermask,Top*
G04 #@! TF.FilePolarity,Negative*
%FSLAX46Y46*%
G04 Gerber Fmt 4.6, Leading zero omitted, Abs format (unit mm)*
G04 Created by KiCad (PCBNEW (5.1.5-0-10_14)) date 2020-11-20 21:35:50*
%MOMM*%
%LPD*%
G04 APERTURE LIST*
%ADD10C,0.100000*%
G04 APERTURE END LIST*
D10*
G36*
X165063326Y-66607578D02*
G01*
X165063329Y-66607579D01*
X165063328Y-66607579D01*
X165436631Y-66762206D01*
X165772596Y-66986690D01*
X166058310Y-67272404D01*
X166136866Y-67389972D01*
X166282795Y-67608371D01*
X166437422Y-67981674D01*
X166516250Y-68377968D01*
X166516250Y-68782032D01*
X166437422Y-69178326D01*
X166437421Y-69178328D01*
X166282794Y-69551631D01*
X166058310Y-69887596D01*
X165772596Y-70173310D01*
X165436631Y-70397794D01*
X165436630Y-70397795D01*
X165436629Y-70397795D01*
X165063326Y-70552422D01*
X164667032Y-70631250D01*
X164262968Y-70631250D01*
X163866674Y-70552422D01*
X163493371Y-70397795D01*
X163493370Y-70397795D01*
X163493369Y-70397794D01*
X163157404Y-70173310D01*
X162871690Y-69887596D01*
X162647206Y-69551631D01*
X162492579Y-69178328D01*
X162492578Y-69178326D01*
X162413750Y-68782032D01*
X162413750Y-68377968D01*
X162492578Y-67981674D01*
X162647205Y-67608371D01*
X162793134Y-67389972D01*
X162871690Y-67272404D01*
X163157404Y-66986690D01*
X163493369Y-66762206D01*
X163866672Y-66607579D01*
X163866671Y-66607579D01*
X163866674Y-66607578D01*
X164262968Y-66528750D01*
X164667032Y-66528750D01*
X165063326Y-66607578D01*
G37*
G36*
X138393326Y-66607578D02*
G01*
X138393329Y-66607579D01*
X138393328Y-66607579D01*
X138766631Y-66762206D01*
X139102596Y-66986690D01*
X139388310Y-67272404D01*
X139466866Y-67389972D01*
X139612795Y-67608371D01*
X139767422Y-67981674D01*
X139846250Y-68377968D01*
X139846250Y-68782032D01*
X139767422Y-69178326D01*
X139767421Y-69178328D01*
X139612794Y-69551631D01*
X139388310Y-69887596D01*
X139102596Y-70173310D01*
X138766631Y-70397794D01*
X138766630Y-70397795D01*
X138766629Y-70397795D01*
X138393326Y-70552422D01*
X137997032Y-70631250D01*
X137592968Y-70631250D01*
X137196674Y-70552422D01*
X136823371Y-70397795D01*
X136823370Y-70397795D01*
X136823369Y-70397794D01*
X136487404Y-70173310D01*
X136201690Y-69887596D01*
X135977206Y-69551631D01*
X135822579Y-69178328D01*
X135822578Y-69178326D01*
X135743750Y-68782032D01*
X135743750Y-68377968D01*
X135822578Y-67981674D01*
X135977205Y-67608371D01*
X136123134Y-67389972D01*
X136201690Y-67272404D01*
X136487404Y-66986690D01*
X136823369Y-66762206D01*
X137196672Y-66607579D01*
X137196671Y-66607579D01*
X137196674Y-66607578D01*
X137592968Y-66528750D01*
X137997032Y-66528750D01*
X138393326Y-66607578D01*
G37*
G36*
X146927861Y-66759498D02*
G01*
X147034446Y-66769995D01*
X147307960Y-66852965D01*
X147307963Y-66852966D01*
X147560028Y-66987698D01*
X147560029Y-66987699D01*
X147560033Y-66987701D01*
X147780976Y-67169024D01*
X147962299Y-67389967D01*
X147962301Y-67389971D01*
X147962302Y-67389972D01*
X148097034Y-67642037D01*
X148097035Y-67642040D01*
X148180005Y-67915554D01*
X148208020Y-68200000D01*
X148180005Y-68484446D01*
X148097035Y-68757960D01*
X148097034Y-68757963D01*
X147962302Y-69010028D01*
X147962299Y-69010033D01*
X147780976Y-69230976D01*
X147560033Y-69412299D01*
X147560029Y-69412301D01*
X147560028Y-69412302D01*
X147307963Y-69547034D01*
X147307960Y-69547035D01*
X147034446Y-69630005D01*
X146927861Y-69640502D01*
X146821278Y-69651000D01*
X145278722Y-69651000D01*
X145172139Y-69640502D01*
X145065554Y-69630005D01*
X144792040Y-69547035D01*
X144792037Y-69547034D01*
X144539972Y-69412302D01*
X144539971Y-69412301D01*
X144539967Y-69412299D01*
X144319024Y-69230976D01*
X144137701Y-69010033D01*
X144137698Y-69010028D01*
X144002966Y-68757963D01*
X144002965Y-68757960D01*
X143919995Y-68484446D01*
X143891980Y-68200000D01*
X143919995Y-67915554D01*
X144002965Y-67642040D01*
X144002966Y-67642037D01*
X144137698Y-67389972D01*
X144137699Y-67389971D01*
X144137701Y-67389967D01*
X144319024Y-67169024D01*
X144539967Y-66987701D01*
X144539971Y-66987699D01*
X144539972Y-66987698D01*
X144792037Y-66852966D01*
X144792040Y-66852965D01*
X145065554Y-66769995D01*
X145172139Y-66759498D01*
X145278722Y-66749000D01*
X146821278Y-66749000D01*
X146927861Y-66759498D01*
G37*
G36*
X157087861Y-66759498D02*
G01*
X157194446Y-66769995D01*
X157467960Y-66852965D01*
X157467963Y-66852966D01*
X157720028Y-66987698D01*
X157720029Y-66987699D01*
X157720033Y-66987701D01*
X157940976Y-67169024D01*
X158122299Y-67389967D01*
X158122301Y-67389971D01*
X158122302Y-67389972D01*
X158257034Y-67642037D01*
X158257035Y-67642040D01*
X158340005Y-67915554D01*
X158368020Y-68200000D01*
X158340005Y-68484446D01*
X158257035Y-68757960D01*
X158257034Y-68757963D01*
X158122302Y-69010028D01*
X158122299Y-69010033D01*
X157940976Y-69230976D01*
X157720033Y-69412299D01*
X157720029Y-69412301D01*
X157720028Y-69412302D01*
X157467963Y-69547034D01*
X157467960Y-69547035D01*
X157194446Y-69630005D01*
X157087861Y-69640502D01*
X156981278Y-69651000D01*
X155438722Y-69651000D01*
X155332139Y-69640502D01*
X155225554Y-69630005D01*
X154952040Y-69547035D01*
X154952037Y-69547034D01*
X154699972Y-69412302D01*
X154699971Y-69412301D01*
X154699967Y-69412299D01*
X154479024Y-69230976D01*
X154297701Y-69010033D01*
X154297698Y-69010028D01*
X154162966Y-68757963D01*
X154162965Y-68757960D01*
X154079995Y-68484446D01*
X154051980Y-68200000D01*
X154079995Y-67915554D01*
X154162965Y-67642040D01*
X154162966Y-67642037D01*
X154297698Y-67389972D01*
X154297699Y-67389971D01*
X154297701Y-67389967D01*
X154479024Y-67169024D01*
X154699967Y-66987701D01*
X154699971Y-66987699D01*
X154699972Y-66987698D01*
X154952037Y-66852966D01*
X154952040Y-66852965D01*
X155225554Y-66769995D01*
X155332139Y-66759498D01*
X155438722Y-66749000D01*
X156981278Y-66749000D01*
X157087861Y-66759498D01*
G37*
G36*
X152007861Y-66759498D02*
G01*
X152114446Y-66769995D01*
X152387960Y-66852965D01*
X152387963Y-66852966D01*
X152640028Y-66987698D01*
X152640029Y-66987699D01*
X152640033Y-66987701D01*
X152860976Y-67169024D01*
X153042299Y-67389967D01*
X153042301Y-67389971D01*
X153042302Y-67389972D01*
X153177034Y-67642037D01*
X153177035Y-67642040D01*
X153260005Y-67915554D01*
X153288020Y-68200000D01*
X153260005Y-68484446D01*
X153177035Y-68757960D01*
X153177034Y-68757963D01*
X153042302Y-69010028D01*
X153042299Y-69010033D01*
X152860976Y-69230976D01*
X152640033Y-69412299D01*
X152640029Y-69412301D01*
X152640028Y-69412302D01*
X152387963Y-69547034D01*
X152387960Y-69547035D01*
X152114446Y-69630005D01*
X152007861Y-69640502D01*
X151901278Y-69651000D01*
X150358722Y-69651000D01*
X150252139Y-69640502D01*
X150145554Y-69630005D01*
X149872040Y-69547035D01*
X149872037Y-69547034D01*
X149619972Y-69412302D01*
X149619971Y-69412301D01*
X149619967Y-69412299D01*
X149399024Y-69230976D01*
X149217701Y-69010033D01*
X149217698Y-69010028D01*
X149082966Y-68757963D01*
X149082965Y-68757960D01*
X148999995Y-68484446D01*
X148971980Y-68200000D01*
X148999995Y-67915554D01*
X149082965Y-67642040D01*
X149082966Y-67642037D01*
X149217698Y-67389972D01*
X149217699Y-67389971D01*
X149217701Y-67389967D01*
X149399024Y-67169024D01*
X149619967Y-66987701D01*
X149619971Y-66987699D01*
X149619972Y-66987698D01*
X149872037Y-66852966D01*
X149872040Y-66852965D01*
X150145554Y-66769995D01*
X150252139Y-66759498D01*
X150358722Y-66749000D01*
X151901278Y-66749000D01*
X152007861Y-66759498D01*
G37*
G36*
X165063326Y-61527578D02*
G01*
X165063329Y-61527579D01*
X165063328Y-61527579D01*
X165436631Y-61682206D01*
X165772596Y-61906690D01*
X166058310Y-62192404D01*
X166282794Y-62528369D01*
X166282795Y-62528371D01*
X166437422Y-62901674D01*
X166516250Y-63297968D01*
X166516250Y-63702032D01*
X166437422Y-64098326D01*
X166437421Y-64098328D01*
X166282794Y-64471631D01*
X166058310Y-64807596D01*
X165772596Y-65093310D01*
X165436631Y-65317794D01*
X165436630Y-65317795D01*
X165436629Y-65317795D01*
X165063326Y-65472422D01*
X164667032Y-65551250D01*
X164262968Y-65551250D01*
X163866674Y-65472422D01*
X163493371Y-65317795D01*
X163493370Y-65317795D01*
X163493369Y-65317794D01*
X163157404Y-65093310D01*
X162871690Y-64807596D01*
X162647206Y-64471631D01*
X162492579Y-64098328D01*
X162492578Y-64098326D01*
X162413750Y-63702032D01*
X162413750Y-63297968D01*
X162492578Y-62901674D01*
X162647205Y-62528371D01*
X162647206Y-62528369D01*
X162871690Y-62192404D01*
X163157404Y-61906690D01*
X163493369Y-61682206D01*
X163866672Y-61527579D01*
X163866671Y-61527579D01*
X163866674Y-61527578D01*
X164262968Y-61448750D01*
X164667032Y-61448750D01*
X165063326Y-61527578D01*
G37*
G36*
X138393326Y-61527578D02*
G01*
X138393329Y-61527579D01*
X138393328Y-61527579D01*
X138766631Y-61682206D01*
X139102596Y-61906690D01*
X139388310Y-62192404D01*
X139612794Y-62528369D01*
X139612795Y-62528371D01*
X139767422Y-62901674D01*
X139846250Y-63297968D01*
X139846250Y-63702032D01*
X139767422Y-64098326D01*
X139767421Y-64098328D01*
X139612794Y-64471631D01*
X139388310Y-64807596D01*
X139102596Y-65093310D01*
X138766631Y-65317794D01*
X138766630Y-65317795D01*
X138766629Y-65317795D01*
X138393326Y-65472422D01*
X137997032Y-65551250D01*
X137592968Y-65551250D01*
X137196674Y-65472422D01*
X136823371Y-65317795D01*
X136823370Y-65317795D01*
X136823369Y-65317794D01*
X136487404Y-65093310D01*
X136201690Y-64807596D01*
X135977206Y-64471631D01*
X135822579Y-64098328D01*
X135822578Y-64098326D01*
X135743750Y-63702032D01*
X135743750Y-63297968D01*
X135822578Y-62901674D01*
X135977205Y-62528371D01*
X135977206Y-62528369D01*
X136201690Y-62192404D01*
X136487404Y-61906690D01*
X136823369Y-61682206D01*
X137196672Y-61527579D01*
X137196671Y-61527579D01*
X137196674Y-61527578D01*
X137592968Y-61448750D01*
X137997032Y-61448750D01*
X138393326Y-61527578D01*
G37*
G36*
X157087861Y-62059497D02*
G01*
X157194446Y-62069995D01*
X157467960Y-62152965D01*
X157467963Y-62152966D01*
X157720028Y-62287698D01*
X157720029Y-62287699D01*
X157720033Y-62287701D01*
X157940976Y-62469024D01*
X158122299Y-62689967D01*
X158122301Y-62689971D01*
X158122302Y-62689972D01*
X158257034Y-62942037D01*
X158257035Y-62942040D01*
X158340005Y-63215554D01*
X158368020Y-63500000D01*
X158340005Y-63784446D01*
X158257035Y-64057960D01*
X158257034Y-64057963D01*
X158235459Y-64098326D01*
X158122299Y-64310033D01*
X157940976Y-64530976D01*
X157720033Y-64712299D01*
X157720029Y-64712301D01*
X157720028Y-64712302D01*
X157467963Y-64847034D01*
X157467960Y-64847035D01*
X157194446Y-64930005D01*
X157087861Y-64940502D01*
X156981278Y-64951000D01*
X155438722Y-64951000D01*
X155332139Y-64940502D01*
X155225554Y-64930005D01*
X154952040Y-64847035D01*
X154952037Y-64847034D01*
X154699972Y-64712302D01*
X154699971Y-64712301D01*
X154699967Y-64712299D01*
X154479024Y-64530976D01*
X154297701Y-64310033D01*
X154184541Y-64098326D01*
X154162966Y-64057963D01*
X154162965Y-64057960D01*
X154079995Y-63784446D01*
X154051980Y-63500000D01*
X154079995Y-63215554D01*
X154162965Y-62942040D01*
X154162966Y-62942037D01*
X154297698Y-62689972D01*
X154297699Y-62689971D01*
X154297701Y-62689967D01*
X154479024Y-62469024D01*
X154699967Y-62287701D01*
X154699971Y-62287699D01*
X154699972Y-62287698D01*
X154952037Y-62152966D01*
X154952040Y-62152965D01*
X155225554Y-62069995D01*
X155332139Y-62059497D01*
X155438722Y-62049000D01*
X156981278Y-62049000D01*
X157087861Y-62059497D01*
G37*
G36*
X152007861Y-62059497D02*
G01*
X152114446Y-62069995D01*
X152387960Y-62152965D01*
X152387963Y-62152966D01*
X152640028Y-62287698D01*
X152640029Y-62287699D01*
X152640033Y-62287701D01*
X152860976Y-62469024D01*
X153042299Y-62689967D01*
X153042301Y-62689971D01*
X153042302Y-62689972D01*
X153177034Y-62942037D01*
X153177035Y-62942040D01*
X153260005Y-63215554D01*
X153288020Y-63500000D01*
X153260005Y-63784446D01*
X153177035Y-64057960D01*
X153177034Y-64057963D01*
X153155459Y-64098326D01*
X153042299Y-64310033D01*
X152860976Y-64530976D01*
X152640033Y-64712299D01*
X152640029Y-64712301D01*
X152640028Y-64712302D01*
X152387963Y-64847034D01*
X152387960Y-64847035D01*
X152114446Y-64930005D01*
X152007861Y-64940502D01*
X151901278Y-64951000D01*
X150358722Y-64951000D01*
X150252139Y-64940502D01*
X150145554Y-64930005D01*
X149872040Y-64847035D01*
X149872037Y-64847034D01*
X149619972Y-64712302D01*
X149619971Y-64712301D01*
X149619967Y-64712299D01*
X149399024Y-64530976D01*
X149217701Y-64310033D01*
X149104541Y-64098326D01*
X149082966Y-64057963D01*
X149082965Y-64057960D01*
X148999995Y-63784446D01*
X148971980Y-63500000D01*
X148999995Y-63215554D01*
X149082965Y-62942040D01*
X149082966Y-62942037D01*
X149217698Y-62689972D01*
X149217699Y-62689971D01*
X149217701Y-62689967D01*
X149399024Y-62469024D01*
X149619967Y-62287701D01*
X149619971Y-62287699D01*
X149619972Y-62287698D01*
X149872037Y-62152966D01*
X149872040Y-62152965D01*
X150145554Y-62069995D01*
X150252139Y-62059497D01*
X150358722Y-62049000D01*
X151901278Y-62049000D01*
X152007861Y-62059497D01*
G37*
G36*
X146927861Y-62059497D02*
G01*
X147034446Y-62069995D01*
X147307960Y-62152965D01*
X147307963Y-62152966D01*
X147560028Y-62287698D01*
X147560029Y-62287699D01*
X147560033Y-62287701D01*
X147780976Y-62469024D01*
X147962299Y-62689967D01*
X147962301Y-62689971D01*
X147962302Y-62689972D01*
X148097034Y-62942037D01*
X148097035Y-62942040D01*
X148180005Y-63215554D01*
X148208020Y-63500000D01*
X148180005Y-63784446D01*
X148097035Y-64057960D01*
X148097034Y-64057963D01*
X148075459Y-64098326D01*
X147962299Y-64310033D01*
X147780976Y-64530976D01*
X147560033Y-64712299D01*
X147560029Y-64712301D01*
X147560028Y-64712302D01*
X147307963Y-64847034D01*
X147307960Y-64847035D01*
X147034446Y-64930005D01*
X146927861Y-64940502D01*
X146821278Y-64951000D01*
X145278722Y-64951000D01*
X145172139Y-64940502D01*
X145065554Y-64930005D01*
X144792040Y-64847035D01*
X144792037Y-64847034D01*
X144539972Y-64712302D01*
X144539971Y-64712301D01*
X144539967Y-64712299D01*
X144319024Y-64530976D01*
X144137701Y-64310033D01*
X144024541Y-64098326D01*
X144002966Y-64057963D01*
X144002965Y-64057960D01*
X143919995Y-63784446D01*
X143891980Y-63500000D01*
X143919995Y-63215554D01*
X144002965Y-62942040D01*
X144002966Y-62942037D01*
X144137698Y-62689972D01*
X144137699Y-62689971D01*
X144137701Y-62689967D01*
X144319024Y-62469024D01*
X144539967Y-62287701D01*
X144539971Y-62287699D01*
X144539972Y-62287698D01*
X144792037Y-62152966D01*
X144792040Y-62152965D01*
X145065554Y-62069995D01*
X145172139Y-62059497D01*
X145278722Y-62049000D01*
X146821278Y-62049000D01*
X146927861Y-62059497D01*
G37*
G36*
X148009000Y-60759000D02*
G01*
X144091000Y-60759000D01*
X144091000Y-56841000D01*
X148009000Y-56841000D01*
X148009000Y-60759000D01*
G37*
G36*
X165063326Y-56447578D02*
G01*
X165063329Y-56447579D01*
X165063328Y-56447579D01*
X165436631Y-56602206D01*
X165772596Y-56826690D01*
X166058310Y-57112404D01*
X166216398Y-57349000D01*
X166282795Y-57448371D01*
X166437422Y-57821674D01*
X166516250Y-58217968D01*
X166516250Y-58622032D01*
X166437422Y-59018326D01*
X166437421Y-59018328D01*
X166282794Y-59391631D01*
X166058310Y-59727596D01*
X165772596Y-60013310D01*
X165436631Y-60237794D01*
X165436630Y-60237795D01*
X165436629Y-60237795D01*
X165063326Y-60392422D01*
X164667032Y-60471250D01*
X164262968Y-60471250D01*
X163866674Y-60392422D01*
X163493371Y-60237795D01*
X163493370Y-60237795D01*
X163493369Y-60237794D01*
X163157404Y-60013310D01*
X162871690Y-59727596D01*
X162647206Y-59391631D01*
X162492579Y-59018328D01*
X162492578Y-59018326D01*
X162413750Y-58622032D01*
X162413750Y-58217968D01*
X162492578Y-57821674D01*
X162647205Y-57448371D01*
X162713602Y-57349000D01*
X162871690Y-57112404D01*
X163157404Y-56826690D01*
X163493369Y-56602206D01*
X163866672Y-56447579D01*
X163866671Y-56447579D01*
X163866674Y-56447578D01*
X164262968Y-56368750D01*
X164667032Y-56368750D01*
X165063326Y-56447578D01*
G37*
G36*
X138393326Y-56447578D02*
G01*
X138393329Y-56447579D01*
X138393328Y-56447579D01*
X138766631Y-56602206D01*
X139102596Y-56826690D01*
X139388310Y-57112404D01*
X139546398Y-57349000D01*
X139612795Y-57448371D01*
X139767422Y-57821674D01*
X139846250Y-58217968D01*
X139846250Y-58622032D01*
X139767422Y-59018326D01*
X139767421Y-59018328D01*
X139612794Y-59391631D01*
X139388310Y-59727596D01*
X139102596Y-60013310D01*
X138766631Y-60237794D01*
X138766630Y-60237795D01*
X138766629Y-60237795D01*
X138393326Y-60392422D01*
X137997032Y-60471250D01*
X137592968Y-60471250D01*
X137196674Y-60392422D01*
X136823371Y-60237795D01*
X136823370Y-60237795D01*
X136823369Y-60237794D01*
X136487404Y-60013310D01*
X136201690Y-59727596D01*
X135977206Y-59391631D01*
X135822579Y-59018328D01*
X135822578Y-59018326D01*
X135743750Y-58622032D01*
X135743750Y-58217968D01*
X135822578Y-57821674D01*
X135977205Y-57448371D01*
X136043602Y-57349000D01*
X136201690Y-57112404D01*
X136487404Y-56826690D01*
X136823369Y-56602206D01*
X137196672Y-56447579D01*
X137196671Y-56447579D01*
X137196674Y-56447578D01*
X137592968Y-56368750D01*
X137997032Y-56368750D01*
X138393326Y-56447578D01*
G37*
G36*
X152007861Y-57359497D02*
G01*
X152114446Y-57369995D01*
X152387960Y-57452965D01*
X152387963Y-57452966D01*
X152640028Y-57587698D01*
X152640029Y-57587699D01*
X152640033Y-57587701D01*
X152860976Y-57769024D01*
X153042299Y-57989967D01*
X153042301Y-57989971D01*
X153042302Y-57989972D01*
X153177034Y-58242037D01*
X153177035Y-58242040D01*
X153260005Y-58515554D01*
X153288020Y-58800000D01*
X153260005Y-59084446D01*
X153177035Y-59357960D01*
X153177034Y-59357963D01*
X153042302Y-59610028D01*
X153042299Y-59610033D01*
X152860976Y-59830976D01*
X152640033Y-60012299D01*
X152640029Y-60012301D01*
X152640028Y-60012302D01*
X152387963Y-60147034D01*
X152387960Y-60147035D01*
X152114446Y-60230005D01*
X152035361Y-60237794D01*
X151901278Y-60251000D01*
X150358722Y-60251000D01*
X150224639Y-60237794D01*
X150145554Y-60230005D01*
X149872040Y-60147035D01*
X149872037Y-60147034D01*
X149619972Y-60012302D01*
X149619971Y-60012301D01*
X149619967Y-60012299D01*
X149399024Y-59830976D01*
X149217701Y-59610033D01*
X149217698Y-59610028D01*
X149082966Y-59357963D01*
X149082965Y-59357960D01*
X148999995Y-59084446D01*
X148971980Y-58800000D01*
X148999995Y-58515554D01*
X149082965Y-58242040D01*
X149082966Y-58242037D01*
X149217698Y-57989972D01*
X149217699Y-57989971D01*
X149217701Y-57989967D01*
X149399024Y-57769024D01*
X149619967Y-57587701D01*
X149619971Y-57587699D01*
X149619972Y-57587698D01*
X149872037Y-57452966D01*
X149872040Y-57452965D01*
X150145554Y-57369995D01*
X150252139Y-57359497D01*
X150358722Y-57349000D01*
X151901278Y-57349000D01*
X152007861Y-57359497D01*
G37*
G36*
X157087861Y-57359497D02*
G01*
X157194446Y-57369995D01*
X157467960Y-57452965D01*
X157467963Y-57452966D01*
X157720028Y-57587698D01*
X157720029Y-57587699D01*
X157720033Y-57587701D01*
X157940976Y-57769024D01*
X158122299Y-57989967D01*
X158122301Y-57989971D01*
X158122302Y-57989972D01*
X158257034Y-58242037D01*
X158257035Y-58242040D01*
X158340005Y-58515554D01*
X158368020Y-58800000D01*
X158340005Y-59084446D01*
X158257035Y-59357960D01*
X158257034Y-59357963D01*
X158122302Y-59610028D01*
X158122299Y-59610033D01*
X157940976Y-59830976D01*
X157720033Y-60012299D01*
X157720029Y-60012301D01*
X157720028Y-60012302D01*
X157467963Y-60147034D01*
X157467960Y-60147035D01*
X157194446Y-60230005D01*
X157115361Y-60237794D01*
X156981278Y-60251000D01*
X155438722Y-60251000D01*
X155304639Y-60237794D01*
X155225554Y-60230005D01*
X154952040Y-60147035D01*
X154952037Y-60147034D01*
X154699972Y-60012302D01*
X154699971Y-60012301D01*
X154699967Y-60012299D01*
X154479024Y-59830976D01*
X154297701Y-59610033D01*
X154297698Y-59610028D01*
X154162966Y-59357963D01*
X154162965Y-59357960D01*
X154079995Y-59084446D01*
X154051980Y-58800000D01*
X154079995Y-58515554D01*
X154162965Y-58242040D01*
X154162966Y-58242037D01*
X154297698Y-57989972D01*
X154297699Y-57989971D01*
X154297701Y-57989967D01*
X154479024Y-57769024D01*
X154699967Y-57587701D01*
X154699971Y-57587699D01*
X154699972Y-57587698D01*
X154952037Y-57452966D01*
X154952040Y-57452965D01*
X155225554Y-57369995D01*
X155332139Y-57359497D01*
X155438722Y-57349000D01*
X156981278Y-57349000D01*
X157087861Y-57359497D01*
G37*
G36*
X151436564Y-51948389D02*
G01*
X151627833Y-52027615D01*
X151627835Y-52027616D01*
X151799973Y-52142635D01*
X151946365Y-52289027D01*
X152061385Y-52461167D01*
X152140611Y-52652436D01*
X152181000Y-52855484D01*
X152181000Y-53062516D01*
X152140611Y-53265564D01*
X152061385Y-53456833D01*
X152061384Y-53456835D01*
X151946365Y-53628973D01*
X151799973Y-53775365D01*
X151627835Y-53890384D01*
X151627834Y-53890385D01*
X151627833Y-53890385D01*
X151436564Y-53969611D01*
X151233516Y-54010000D01*
X151026484Y-54010000D01*
X150823436Y-53969611D01*
X150632167Y-53890385D01*
X150632166Y-53890385D01*
X150632165Y-53890384D01*
X150460027Y-53775365D01*
X150313635Y-53628973D01*
X150198616Y-53456835D01*
X150198615Y-53456833D01*
X150119389Y-53265564D01*
X150079000Y-53062516D01*
X150079000Y-52855484D01*
X150119389Y-52652436D01*
X150198615Y-52461167D01*
X150313635Y-52289027D01*
X150460027Y-52142635D01*
X150632165Y-52027616D01*
X150632167Y-52027615D01*
X150823436Y-51948389D01*
X151026484Y-51908000D01*
X151233516Y-51908000D01*
X151436564Y-51948389D01*
G37*
G36*
X151436564Y-44328389D02*
G01*
X151627833Y-44407615D01*
X151627835Y-44407616D01*
X151799973Y-44522635D01*
X151946365Y-44669027D01*
X152061385Y-44841167D01*
X152140611Y-45032436D01*
X152181000Y-45235484D01*
X152181000Y-45442516D01*
X152140611Y-45645564D01*
X152061385Y-45836833D01*
X152061384Y-45836835D01*
X151946365Y-46008973D01*
X151799973Y-46155365D01*
X151627835Y-46270384D01*
X151627834Y-46270385D01*
X151627833Y-46270385D01*
X151436564Y-46349611D01*
X151233516Y-46390000D01*
X151026484Y-46390000D01*
X150823436Y-46349611D01*
X150632167Y-46270385D01*
X150632166Y-46270385D01*
X150632165Y-46270384D01*
X150460027Y-46155365D01*
X150313635Y-46008973D01*
X150198616Y-45836835D01*
X150198615Y-45836833D01*
X150119389Y-45645564D01*
X150079000Y-45442516D01*
X150079000Y-45235484D01*
X150119389Y-45032436D01*
X150198615Y-44841167D01*
X150313635Y-44669027D01*
X150460027Y-44522635D01*
X150632165Y-44407616D01*
X150632167Y-44407615D01*
X150823436Y-44328389D01*
X151026484Y-44288000D01*
X151233516Y-44288000D01*
X151436564Y-44328389D01*
G37*
G36*
X152244500Y-41818000D02*
G01*
X150142500Y-41818000D01*
X150142500Y-39716000D01*
X152244500Y-39716000D01*
X152244500Y-41818000D01*
G37*
G36*
X151500064Y-37216389D02*
G01*
X151691333Y-37295615D01*
X151691335Y-37295616D01*
X151863473Y-37410635D01*
X152009865Y-37557027D01*
X152124885Y-37729167D01*
X152204111Y-37920436D01*
X152244500Y-38123484D01*
X152244500Y-38330516D01*
X152204111Y-38533564D01*
X152124885Y-38724833D01*
X152124884Y-38724835D01*
X152009865Y-38896973D01*
X151863473Y-39043365D01*
X151691335Y-39158384D01*
X151691334Y-39158385D01*
X151691333Y-39158385D01*
X151500064Y-39237611D01*
X151297016Y-39278000D01*
X151089984Y-39278000D01*
X150886936Y-39237611D01*
X150695667Y-39158385D01*
X150695666Y-39158385D01*
X150695665Y-39158384D01*
X150523527Y-39043365D01*
X150377135Y-38896973D01*
X150262116Y-38724835D01*
X150262115Y-38724833D01*
X150182889Y-38533564D01*
X150142500Y-38330516D01*
X150142500Y-38123484D01*
X150182889Y-37920436D01*
X150262115Y-37729167D01*
X150377135Y-37557027D01*
X150523527Y-37410635D01*
X150695665Y-37295616D01*
X150695667Y-37295615D01*
X150886936Y-37216389D01*
X151089984Y-37176000D01*
X151297016Y-37176000D01*
X151500064Y-37216389D01*
G37*
M02*
